# Blender 5.2.0 LTS
# www.blender.org
mtllib assembler_1.mtl
o body
v -1.450000 0.000000 1.450000
v -1.450000 0.100000 1.450000
v -1.450000 0.000000 -1.450000
v -1.450000 0.100000 -1.450000
v 1.450000 0.000000 1.450000
v 1.450000 0.100000 1.450000
v 1.450000 0.000000 -1.450000
v 1.450000 0.100000 -1.450000
v -1.250000 0.100000 1.250000
v 1.150000 0.350000 0.700000
v -1.250000 0.150000 1.300000
v 1.150000 0.950000 0.700000
v -1.300000 0.150000 1.250000
v 1.150000 0.350000 -0.300000
v 1.150000 0.950000 -0.300000
v -1.250000 1.150000 1.300000
v -1.250000 1.200000 1.250000
v -1.300000 1.150000 1.250000
v -1.250000 0.100000 -1.250000
v -1.300000 0.150000 -1.250000
v -1.250000 0.150000 -1.300000
v -1.250000 1.200000 -1.250000
v -1.250000 1.150000 -1.300000
v -1.300000 1.150000 -1.250000
v 1.250000 0.100000 1.250000
v 1.300000 0.150000 1.250000
v 1.250000 0.150000 1.300000
v 1.250000 1.200000 1.250000
v 1.250000 1.150000 1.300000
v 1.300000 1.150000 1.250000
v 1.250000 0.100000 -1.250000
v 1.250000 0.150000 -1.300000
v 1.300000 0.150000 -1.250000
v 1.250000 1.200000 -1.250000
v 1.300000 1.150000 -1.250000
v 1.250000 1.150000 -1.300000
v 1.300000 0.950000 0.700000
v 1.300000 0.950000 -0.300000
v 1.300000 0.350000 0.700000
v 1.300000 0.350000 -0.300000
v -1.360000 1.200000 1.360000
v -1.360000 1.280000 1.360000
v -1.360000 1.200000 -1.360000
v -1.360000 1.280000 -1.360000
v 1.360000 1.200000 1.360000
v 1.360000 1.280000 1.360000
v 1.360000 1.200000 -1.360000
v 1.360000 1.280000 -1.360000
v 1.280000 1.025000 0.650000
v 1.280000 1.075000 0.650000
v 1.280000 1.025000 -0.250000
v 1.280000 1.075000 -0.250000
v 1.305000 1.025000 0.650000
v 1.305000 1.075000 0.650000
v 1.305000 1.025000 -0.250000
v 1.305000 1.075000 -0.250000
v -1.320000 0.100000 1.320000
v -1.320000 1.240000 1.320000
v -1.320000 0.100000 1.240000
v -1.320000 1.240000 1.240000
v -1.240000 0.100000 1.320000
v -1.240000 1.240000 1.320000
v -1.240000 0.100000 1.240000
v -1.240000 1.240000 1.240000
v -1.320000 0.100000 -1.240000
v -1.320000 1.240000 -1.240000
v -1.320000 0.100000 -1.320000
v -1.320000 1.240000 -1.320000
v -1.240000 0.100000 -1.240000
v -1.240000 1.240000 -1.240000
v -1.240000 0.100000 -1.320000
v -1.240000 1.240000 -1.320000
v 1.240000 0.100000 1.320000
v 1.240000 1.240000 1.320000
v 1.240000 0.100000 1.240000
v 1.240000 1.240000 1.240000
v 1.320000 0.100000 1.320000
v 1.320000 1.240000 1.320000
v 1.320000 0.100000 1.240000
v 1.320000 1.240000 1.240000
v 1.240000 0.100000 -1.240000
v 1.240000 1.240000 -1.240000
v 1.240000 0.100000 -1.320000
v 1.240000 1.240000 -1.320000
v 1.320000 0.100000 -1.240000
v 1.320000 1.240000 -1.240000
v 1.320000 0.100000 -1.320000
v 1.320000 1.240000 -1.320000
v -0.065000 0.250000 -1.310000
v -0.065000 0.260000 -1.300000
v -0.075000 0.260000 -1.310000
v -0.065000 0.840000 -1.300000
v -0.065000 0.850000 -1.310000
v -0.075000 0.840000 -1.310000
v -0.065000 0.250000 -1.320000
v -0.075000 0.260000 -1.320000
v -0.065000 0.260000 -1.330000
v -0.065000 0.850000 -1.320000
v -0.065000 0.840000 -1.330000
v -0.075000 0.840000 -1.320000
v 0.465000 0.250000 -1.310000
v 0.475000 0.260000 -1.310000
v 0.465000 0.260000 -1.300000
v 0.465000 0.850000 -1.310000
v 0.465000 0.840000 -1.300000
v 0.475000 0.840000 -1.310000
v 0.465000 0.250000 -1.320000
v 0.465000 0.260000 -1.330000
v 0.475000 0.260000 -1.320000
v 0.465000 0.850000 -1.320000
v 0.475000 0.840000 -1.320000
v 0.465000 0.840000 -1.330000
v 0.062500 0.685000 -1.350000
v 0.062500 0.715000 -1.350000
v 0.062500 0.685000 -1.380000
v 0.062500 0.715000 -1.380000
v 0.337500 0.685000 -1.350000
v 0.337500 0.715000 -1.350000
v 0.337500 0.685000 -1.380000
v 0.337500 0.715000 -1.380000
v -0.662907 0.400000 1.330000
v -0.662907 0.950000 1.330000
v -0.662907 0.400000 1.300000
v -0.662907 0.950000 1.300000
v -0.622907 0.400000 1.330000
v -0.622907 0.950000 1.330000
v -0.622907 0.400000 1.300000
v -0.622907 0.950000 1.300000
v -0.255575 0.400000 1.330000
v -0.255575 0.950000 1.330000
v -0.255575 0.400000 1.300000
v -0.255575 0.950000 1.300000
v -0.215575 0.400000 1.330000
v -0.215575 0.950000 1.330000
v -0.215575 0.400000 1.300000
v -0.215575 0.950000 1.300000
v 0.181617 0.400000 1.330000
v 0.181617 0.950000 1.330000
v 0.181617 0.400000 1.300000
v 0.181617 0.950000 1.300000
v 0.221617 0.400000 1.330000
v 0.221617 0.950000 1.330000
v 0.221617 0.400000 1.300000
v 0.221617 0.950000 1.300000
vn -1.0000 -0.0000 -0.0000
vn -0.0000 -0.0000 -1.0000
vn 1.0000 -0.0000 -0.0000
vn -0.0000 -0.0000 1.0000
vn -0.0000 -1.0000 -0.0000
vn -0.0000 1.0000 -0.0000
vn -0.5773 -0.5774 0.5774
vn -0.5774 0.5774 0.5774
vn -0.5774 -0.5774 -0.5773
vn -0.5774 0.5774 -0.5774
vn 0.5774 -0.5774 0.5773
vn 0.5774 0.5774 0.5774
vn 0.5773 -0.5774 -0.5774
vn 0.5774 0.5774 -0.5774
vn -0.7071 -0.7071 -0.0000
vn -0.7071 -0.0000 0.7071
vn -0.7071 0.7071 -0.0000
vn -0.7071 -0.0000 -0.7071
vn -0.0000 -0.7071 -0.7071
vn -0.0000 0.7071 -0.7071
vn 0.7071 -0.0000 -0.7071
vn 0.7071 -0.7071 -0.0000
vn 0.7071 0.7071 -0.0000
vn 0.7071 -0.0000 0.7071
vn -0.0000 -0.7071 0.7071
vn -0.0000 0.7071 0.7071
vn -0.5774 -0.5774 0.5774
vn -0.5774 0.5773 0.5774
vn -0.5774 -0.5774 -0.5774
vn -0.5774 0.5773 -0.5774
vn 0.5774 -0.5774 0.5774
vn 0.5774 -0.5774 -0.5774
s 0
usemtl steel_dark
f 2//1 3//1 1//1
f 4//2 7//2 3//2
f 8//3 5//3 7//3
f 6//4 1//4 5//4
f 7//5 1//5 3//5
f 4//6 6//6 8//6
f 42//1 43//1 41//1
f 44//2 47//2 43//2
f 48//3 45//3 47//3
f 46//4 41//4 45//4
f 47//5 41//5 43//5
f 44//6 46//6 48//6
f 2//1 4//1 3//1
f 4//2 8//2 7//2
f 8//3 6//3 5//3
f 6//4 2//4 1//4
f 7//5 5//5 1//5
f 4//6 2//6 6//6
f 42//1 44//1 43//1
f 44//2 48//2 47//2
f 48//3 46//3 45//3
f 46//4 42//4 41//4
f 47//5 45//5 41//5
f 44//6 42//6 46//6
usemtl logistics_grey
f 9//7 11//7 13//7
f 16//8 17//8 18//8
f 19//9 20//9 21//9
f 22//10 23//10 24//10
f 25//11 26//11 27//11
f 28//12 29//12 30//12
f 31//13 32//13 33//13
f 34//14 35//14 36//14
f 9//15 20//15 19//15
f 16//16 13//16 11//16
f 22//17 18//17 17//17
f 21//18 24//18 23//18
f 19//19 32//19 31//19
f 34//20 23//20 22//20
f 33//21 36//21 35//21
f 31//22 26//22 25//22
f 28//23 35//23 34//23
f 27//24 30//24 29//24
f 25//25 11//25 9//25
f 17//26 29//26 28//26
f 31//5 9//5 19//5
f 18//1 20//1 13//1
f 29//4 11//4 27//4
f 22//6 28//6 34//6
f 23//2 32//2 21//2
f 26//3 37//3 30//3
f 33//3 35//3 40//3
f 14//3 12//3 10//3
f 15//4 40//4 38//4
f 10//2 37//2 39//2
f 10//6 40//6 14//6
f 15//5 37//5 12//5
f 9//15 13//15 20//15
f 16//16 18//16 13//16
f 22//17 24//17 18//17
f 21//18 20//18 24//18
f 19//19 21//19 32//19
f 34//20 36//20 23//20
f 33//21 32//21 36//21
f 31//22 33//22 26//22
f 28//23 30//23 35//23
f 27//24 26//24 30//24
f 25//25 27//25 11//25
f 17//26 16//26 29//26
f 31//5 25//5 9//5
f 18//1 24//1 20//1
f 29//4 16//4 11//4
f 22//6 17//6 28//6
f 23//2 36//2 32//2
f 26//3 39//3 37//3
f 40//3 39//3 26//3
f 35//3 30//3 37//3
f 35//3 37//3 38//3
f 40//3 26//3 33//3
f 35//3 38//3 40//3
f 14//3 15//3 12//3
f 15//4 14//4 40//4
f 10//2 12//2 37//2
f 10//6 39//6 40//6
f 15//5 38//5 37//5
usemtl electric_glow
f 50//1 51//1 49//1
f 52//2 55//2 51//2
f 56//3 53//3 55//3
f 54//4 49//4 53//4
f 55//5 49//5 51//5
f 52//6 54//6 56//6
f 50//1 52//1 51//1
f 52//2 56//2 55//2
f 56//3 54//3 53//3
f 54//4 50//4 49//4
f 55//5 53//5 49//5
f 52//6 50//6 54//6
usemtl power_yellow
f 58//1 59//1 57//1
f 60//2 63//2 59//2
f 64//3 61//3 63//3
f 62//4 57//4 61//4
f 63//5 57//5 59//5
f 60//6 62//6 64//6
f 66//1 67//1 65//1
f 68//2 71//2 67//2
f 72//3 69//3 71//3
f 70//4 65//4 69//4
f 71//5 65//5 67//5
f 68//6 70//6 72//6
f 74//1 75//1 73//1
f 76//2 79//2 75//2
f 80//3 77//3 79//3
f 78//4 73//4 77//4
f 79//5 73//5 75//5
f 76//6 78//6 80//6
f 82//1 83//1 81//1
f 84//2 87//2 83//2
f 88//3 85//3 87//3
f 86//4 81//4 85//4
f 87//5 81//5 83//5
f 84//6 86//6 88//6
f 58//1 60//1 59//1
f 60//2 64//2 63//2
f 64//3 62//3 61//3
f 62//4 58//4 57//4
f 63//5 61//5 57//5
f 60//6 58//6 62//6
f 66//1 68//1 67//1
f 68//2 72//2 71//2
f 72//3 70//3 69//3
f 70//4 66//4 65//4
f 71//5 69//5 65//5
f 68//6 66//6 70//6
f 74//1 76//1 75//1
f 76//2 80//2 79//2
f 80//3 78//3 77//3
f 78//4 74//4 73//4
f 79//5 77//5 73//5
f 76//6 74//6 78//6
f 82//1 84//1 83//1
f 84//2 88//2 87//2
f 88//3 86//3 85//3
f 86//4 82//4 81//4
f 87//5 85//5 81//5
f 84//6 82//6 86//6
usemtl steel
f 89//27 90//27 91//27
f 92//28 93//28 94//28
f 95//29 96//29 97//29
f 98//30 99//30 100//30
f 101//31 102//31 103//31
f 104//12 105//12 106//12
f 107//32 108//32 109//32
f 110//14 111//14 112//14
f 89//15 96//15 95//15
f 92//16 91//16 90//16
f 98//17 94//17 93//17
f 97//18 100//18 99//18
f 95//19 108//19 107//19
f 110//20 99//20 98//20
f 109//21 112//21 111//21
f 107//22 102//22 101//22
f 104//23 111//23 110//23
f 103//24 106//24 105//24
f 101//25 90//25 89//25
f 93//26 105//26 104//26
f 107//5 89//5 95//5
f 94//1 96//1 91//1
f 105//4 90//4 103//4
f 98//6 104//6 110//6
f 99//2 108//2 97//2
f 111//3 102//3 109//3
f 122//1 123//1 121//1
f 124//2 127//2 123//2
f 128//3 125//3 127//3
f 126//4 121//4 125//4
f 127//5 121//5 123//5
f 124//6 126//6 128//6
f 130//1 131//1 129//1
f 132//2 135//2 131//2
f 136//3 133//3 135//3
f 134//4 129//4 133//4
f 135//5 129//5 131//5
f 132//6 134//6 136//6
f 138//1 139//1 137//1
f 140//2 143//2 139//2
f 144//3 141//3 143//3
f 142//4 137//4 141//4
f 143//5 137//5 139//5
f 140//6 142//6 144//6
f 89//15 91//15 96//15
f 92//16 94//16 91//16
f 98//17 100//17 94//17
f 97//18 96//18 100//18
f 95//19 97//19 108//19
f 110//20 112//20 99//20
f 109//21 108//21 112//21
f 107//22 109//22 102//22
f 104//23 106//23 111//23
f 103//24 102//24 106//24
f 101//25 103//25 90//25
f 93//26 92//26 105//26
f 107//5 101//5 89//5
f 94//1 100//1 96//1
f 105//4 92//4 90//4
f 98//6 93//6 104//6
f 99//2 112//2 108//2
f 111//3 106//3 102//3
f 122//1 124//1 123//1
f 124//2 128//2 127//2
f 128//3 126//3 125//3
f 126//4 122//4 121//4
f 127//5 125//5 121//5
f 124//6 122//6 126//6
f 130//1 132//1 131//1
f 132//2 136//2 135//2
f 136//3 134//3 133//3
f 134//4 130//4 129//4
f 135//5 133//5 129//5
f 132//6 130//6 134//6
f 138//1 140//1 139//1
f 140//2 144//2 143//2
f 144//3 142//3 141//3
f 142//4 138//4 137//4
f 143//5 141//5 137//5
f 140//6 138//6 142//6
usemtl galvanised
f 114//1 115//1 113//1
f 116//2 119//2 115//2
f 120//3 117//3 119//3
f 118//4 113//4 117//4
f 119//5 113//5 115//5
f 116//6 118//6 120//6
f 114//1 116//1 115//1
f 116//2 120//2 119//2
f 120//3 118//3 117//3
f 118//4 114//4 113//4
f 119//5 117//5 113//5
f 116//6 114//6 118//6
o part
v 0.000000 1.320000 -0.700000
v 0.000000 1.420000 -0.700000
v 0.350000 1.320000 -0.606218
v 0.350000 1.420000 -0.606218
v 0.606218 1.320000 -0.350000
v 0.606218 1.420000 -0.350000
v 0.700000 1.320000 0.000000
v 0.700000 1.420000 0.000000
v 0.606218 1.320000 0.350000
v 0.606218 1.420000 0.350000
v 0.350000 1.320000 0.606218
v 0.350000 1.420000 0.606218
v 0.000000 1.320000 0.700000
v 0.000000 1.420000 0.700000
v -0.350000 1.320000 0.606218
v -0.350000 1.420000 0.606218
v -0.606218 1.320000 0.350000
v -0.606218 1.420000 0.350000
v -0.700000 1.320000 0.000000
v -0.700000 1.420000 0.000000
v -0.606218 1.320000 -0.350000
v -0.606218 1.420000 -0.350000
v -0.350000 1.320000 -0.606218
v -0.350000 1.420000 -0.606218
v 0.000000 1.420000 0.060000
v 0.000000 1.520000 0.060000
v 0.000000 1.420000 -0.060000
v 0.000000 1.520000 -0.060000
v 0.620000 1.420000 0.060000
v 0.620000 1.520000 0.060000
v 0.620000 1.420000 -0.060000
v 0.620000 1.520000 -0.060000
v -0.450000 1.420000 0.060000
v -0.450000 1.520000 0.060000
v -0.450000 1.420000 -0.060000
v -0.450000 1.520000 -0.060000
v 0.000000 1.420000 0.060000
v 0.000000 1.520000 0.060000
v 0.000000 1.420000 -0.060000
v 0.000000 1.520000 -0.060000
v 0.480000 1.520000 0.090000
v 0.480000 1.700000 0.090000
v 0.480000 1.520000 -0.090000
v 0.480000 1.700000 -0.090000
v 0.640000 1.520000 0.090000
v 0.640000 1.700000 0.090000
v 0.640000 1.520000 -0.090000
v 0.640000 1.700000 -0.090000
v 0.000000 1.420000 -0.160000
v 0.000000 1.600000 -0.160000
v 0.113137 1.420000 -0.113137
v 0.113137 1.600000 -0.113137
v 0.160000 1.420000 0.000000
v 0.160000 1.600000 0.000000
v 0.113137 1.420000 0.113137
v 0.113137 1.600000 0.113137
v 0.000000 1.420000 0.160000
v 0.000000 1.600000 0.160000
v -0.113137 1.420000 0.113137
v -0.113137 1.600000 0.113137
v -0.160000 1.420000 0.000000
v -0.160000 1.600000 0.000000
v -0.113137 1.420000 -0.113137
v -0.113137 1.600000 -0.113137
vn 0.2588 -0.0000 -0.9659
vn 0.7071 -0.0000 -0.7071
vn 0.9659 -0.0000 -0.2588
vn 0.9659 -0.0000 0.2588
vn 0.7071 -0.0000 0.7071
vn 0.2588 -0.0000 0.9659
vn -0.2588 -0.0000 0.9659
vn -0.7071 -0.0000 0.7071
vn -0.9659 -0.0000 0.2588
vn -0.9659 -0.0000 -0.2588
vn -0.0000 1.0000 -0.0000
vn -0.7071 -0.0000 -0.7071
vn -0.2588 -0.0000 -0.9659
vn -0.0000 -1.0000 -0.0000
vn -1.0000 -0.0000 -0.0000
vn -0.0000 -0.0000 -1.0000
vn 1.0000 -0.0000 -0.0000
vn -0.0000 -0.0000 1.0000
vn 0.3827 -0.0000 -0.9239
vn 0.9239 -0.0000 -0.3827
vn 0.9239 -0.0000 0.3827
vn 0.3827 -0.0000 0.9239
vn -0.3827 -0.0000 0.9239
vn -0.9239 -0.0000 0.3827
vn -0.9239 -0.0000 -0.3827
vn -0.3827 -0.0000 -0.9239
s 0
usemtl steel_dark
f 146//33 147//33 145//33
f 148//34 149//34 147//34
f 150//35 151//35 149//35
f 152//36 153//36 151//36
f 154//37 155//37 153//37
f 156//38 157//38 155//38
f 158//39 159//39 157//39
f 160//40 161//40 159//40
f 162//41 163//41 161//41
f 164//42 165//42 163//42
f 166//43 158//43 150//43
f 166//44 167//44 165//44
f 168//45 145//45 167//45
f 151//46 159//46 167//46
f 146//33 148//33 147//33
f 148//34 150//34 149//34
f 150//35 152//35 151//35
f 152//36 154//36 153//36
f 154//37 156//37 155//37
f 156//38 158//38 157//38
f 158//39 160//39 159//39
f 160//40 162//40 161//40
f 162//41 164//41 163//41
f 164//42 166//42 165//42
f 150//43 148//43 146//43
f 146//43 168//43 166//43
f 166//43 164//43 162//43
f 162//43 160//43 158//43
f 158//43 156//43 154//43
f 154//43 152//43 150//43
f 150//43 146//43 166//43
f 166//43 162//43 158//43
f 158//43 154//43 150//43
f 166//44 168//44 167//44
f 168//45 146//45 145//45
f 167//46 145//46 147//46
f 147//46 149//46 151//46
f 151//46 153//46 155//46
f 155//46 157//46 159//46
f 159//46 161//46 163//46
f 163//46 165//46 167//46
f 167//46 147//46 151//46
f 151//46 155//46 159//46
f 159//46 163//46 167//46
usemtl galvanised
f 170//47 171//47 169//47
f 172//48 175//48 171//48
f 176//49 173//49 175//49
f 174//50 169//50 173//50
f 175//46 169//46 171//46
f 172//43 174//43 176//43
f 178//47 179//47 177//47
f 180//48 183//48 179//48
f 184//49 181//49 183//49
f 182//50 177//50 181//50
f 183//46 177//46 179//46
f 180//43 182//43 184//43
f 170//47 172//47 171//47
f 172//48 176//48 175//48
f 176//49 174//49 173//49
f 174//50 170//50 169//50
f 175//46 173//46 169//46
f 172//43 170//43 174//43
f 178//47 180//47 179//47
f 180//48 184//48 183//48
f 184//49 182//49 181//49
f 182//50 178//50 177//50
f 183//46 181//46 177//46
f 180//43 178//43 182//43
usemtl power_yellow
f 186//47 187//47 185//47
f 188//48 191//48 187//48
f 192//49 189//49 191//49
f 190//50 185//50 189//50
f 191//46 185//46 187//46
f 188//43 190//43 192//43
f 186//47 188//47 187//47
f 188//48 192//48 191//48
f 192//49 190//49 189//49
f 190//50 186//50 185//50
f 191//46 189//46 185//46
f 188//43 186//43 190//43
usemtl steel
f 194//51 195//51 193//51
f 196//52 197//52 195//52
f 198//53 199//53 197//53
f 200//54 201//54 199//54
f 202//55 203//55 201//55
f 204//56 205//56 203//56
f 206//43 202//43 198//43
f 206//57 207//57 205//57
f 208//58 193//58 207//58
f 199//46 203//46 207//46
f 194//51 196//51 195//51
f 196//52 198//52 197//52
f 198//53 200//53 199//53
f 200//54 202//54 201//54
f 202//55 204//55 203//55
f 204//56 206//56 205//56
f 198//43 196//43 194//43
f 194//43 208//43 206//43
f 206//43 204//43 202//43
f 202//43 200//43 198//43
f 198//43 194//43 206//43
f 206//57 208//57 207//57
f 208//58 194//58 193//58
f 207//46 193//46 195//46
f 195//46 197//46 199//46
f 199//46 201//46 203//46
f 203//46 205//46 207//46
f 207//46 195//46 199//46
