# Blender 5.2.0 LTS
# www.blender.org
mtllib big_pole.mtl
o body
v -0.300000 0.000000 0.300000
v -0.300000 0.050000 0.300000
v -0.300000 0.000000 -0.300000
v -0.300000 0.050000 -0.300000
v 0.300000 0.000000 0.300000
v 0.300000 0.050000 0.300000
v 0.300000 0.000000 -0.300000
v 0.300000 0.050000 -0.300000
v -0.270000 0.050000 0.270000
v -0.270000 0.200000 0.270000
v -0.270000 0.050000 -0.270000
v -0.270000 0.200000 -0.270000
v 0.270000 0.050000 0.270000
v 0.270000 0.200000 0.270000
v 0.270000 0.050000 -0.270000
v 0.270000 0.200000 -0.270000
v -0.260000 5.600000 0.260000
v -0.260000 5.680000 0.260000
v -0.260000 5.600000 -0.260000
v -0.260000 5.680000 -0.260000
v 0.260000 5.600000 0.260000
v 0.260000 5.680000 0.260000
v 0.260000 5.600000 -0.260000
v 0.260000 5.680000 -0.260000
v 0.000000 5.680000 -0.060000
v 0.000000 5.920000 -0.060000
v 0.051962 5.680000 -0.030000
v 0.051962 5.920000 -0.030000
v 0.051962 5.680000 0.030000
v 0.051962 5.920000 0.030000
v 0.000000 5.680000 0.060000
v 0.000000 5.920000 0.060000
v -0.051962 5.680000 0.030000
v -0.051962 5.920000 0.030000
v -0.051962 5.680000 -0.030000
v -0.051962 5.920000 -0.030000
v -0.245000 0.200000 0.245000
v -0.245000 5.600000 0.245000
v -0.245000 0.200000 0.195000
v -0.245000 5.600000 0.195000
v -0.195000 0.200000 0.245000
v -0.195000 5.600000 0.245000
v -0.195000 0.200000 0.195000
v -0.195000 5.600000 0.195000
v -0.245000 0.200000 -0.195000
v -0.245000 5.600000 -0.195000
v -0.245000 0.200000 -0.245000
v -0.245000 5.600000 -0.245000
v -0.195000 0.200000 -0.195000
v -0.195000 5.600000 -0.195000
v -0.195000 0.200000 -0.245000
v -0.195000 5.600000 -0.245000
v 0.195000 0.200000 0.245000
v 0.195000 5.600000 0.245000
v 0.195000 0.200000 0.195000
v 0.195000 5.600000 0.195000
v 0.245000 0.200000 0.245000
v 0.245000 5.600000 0.245000
v 0.245000 0.200000 0.195000
v 0.245000 5.600000 0.195000
v 0.195000 0.200000 -0.195000
v 0.195000 5.600000 -0.195000
v 0.195000 0.200000 -0.245000
v 0.195000 5.600000 -0.245000
v 0.245000 0.200000 -0.195000
v 0.245000 5.600000 -0.195000
v 0.245000 0.200000 -0.245000
v 0.245000 5.600000 -0.245000
v -0.270000 1.700000 0.270000
v -0.270000 1.750000 0.270000
v -0.270000 1.700000 -0.270000
v -0.270000 1.750000 -0.270000
v 0.270000 1.700000 0.270000
v 0.270000 1.750000 0.270000
v 0.270000 1.700000 -0.270000
v 0.270000 1.750000 -0.270000
v 0.190000 1.700000 0.190000
v -0.190000 1.700000 -0.190000
v 0.190000 1.700000 -0.190000
v -0.190000 1.700000 0.190000
v -0.190000 1.750000 0.190000
v 0.190000 1.750000 -0.190000
v -0.190000 1.750000 -0.190000
v 0.190000 1.750000 0.190000
v -0.270000 3.900000 0.270000
v -0.270000 3.950000 0.270000
v -0.270000 3.900000 -0.270000
v -0.270000 3.950000 -0.270000
v 0.270000 3.900000 0.270000
v 0.270000 3.950000 0.270000
v 0.270000 3.900000 -0.270000
v 0.270000 3.950000 -0.270000
v 0.190000 3.900000 0.190000
v -0.190000 3.900000 -0.190000
v 0.190000 3.900000 -0.190000
v -0.190000 3.900000 0.190000
v -0.190000 3.950000 0.190000
v 0.190000 3.950000 -0.190000
v -0.190000 3.950000 -0.190000
v 0.190000 3.950000 0.190000
v -0.240000 0.600278 0.200000
v -0.240000 0.640278 0.200000
v -0.240000 0.600278 -0.200000
v -0.240000 0.640278 -0.200000
v -0.200000 0.600278 0.200000
v -0.200000 0.640278 0.200000
v -0.200000 0.600278 -0.200000
v -0.200000 0.640278 -0.200000
v -0.240000 1.245296 0.200000
v -0.240000 1.285296 0.200000
v -0.240000 1.245296 -0.200000
v -0.240000 1.285296 -0.200000
v -0.200000 1.245296 0.200000
v -0.200000 1.285296 0.200000
v -0.200000 1.245296 -0.200000
v -0.200000 1.285296 -0.200000
v -0.240000 1.951574 0.200000
v -0.240000 1.991574 0.200000
v -0.240000 1.951574 -0.200000
v -0.240000 1.991574 -0.200000
v -0.200000 1.951574 0.200000
v -0.200000 1.991574 0.200000
v -0.200000 1.951574 -0.200000
v -0.200000 1.991574 -0.200000
vn -1.0000 -0.0000 -0.0000
vn -0.0000 -0.0000 -1.0000
vn 1.0000 -0.0000 -0.0000
vn -0.0000 -0.0000 1.0000
vn -0.0000 -1.0000 -0.0000
vn -0.0000 1.0000 -0.0000
vn 0.5000 -0.0000 -0.8660
vn 0.5000 -0.0000 0.8660
vn -0.5000 -0.0000 0.8660
vn -0.5000 -0.0000 -0.8660
s 0
usemtl hazard_black
f 2//1 3//1 1//1
f 4//2 7//2 3//2
f 8//3 5//3 7//3
f 6//4 1//4 5//4
f 7//5 1//5 3//5
f 4//6 6//6 8//6
f 2//1 4//1 3//1
f 4//2 8//2 7//2
f 8//3 6//3 5//3
f 6//4 2//4 1//4
f 7//5 5//5 1//5
f 4//6 2//6 6//6
usemtl power_yellow
f 10//1 11//1 9//1
f 12//2 15//2 11//2
f 16//3 13//3 15//3
f 14//4 9//4 13//4
f 15//5 9//5 11//5
f 12//6 14//6 16//6
f 10//1 12//1 11//1
f 12//2 16//2 15//2
f 16//3 14//3 13//3
f 14//4 10//4 9//4
f 15//5 13//5 9//5
f 12//6 10//6 14//6
usemtl steel_dark
f 18//1 19//1 17//1
f 20//2 23//2 19//2
f 24//3 21//3 23//3
f 22//4 17//4 21//4
f 23//5 17//5 19//5
f 20//6 22//6 24//6
f 70//1 71//1 69//1
f 72//2 75//2 71//2
f 76//3 73//3 75//3
f 74//4 69//4 73//4
f 71//5 75//5 78//5
f 69//5 77//5 73//5
f 70//6 84//6 81//6
f 76//6 83//6 82//6
f 80//3 83//3 81//3
f 78//4 82//4 83//4
f 77//1 82//1 79//1
f 80//2 84//2 77//2
f 86//1 87//1 85//1
f 88//2 91//2 87//2
f 92//3 89//3 91//3
f 90//4 85//4 89//4
f 87//5 91//5 94//5
f 85//5 93//5 89//5
f 86//6 100//6 97//6
f 92//6 99//6 98//6
f 96//3 99//3 97//3
f 94//4 98//4 99//4
f 93//1 98//1 95//1
f 96//2 100//2 93//2
f 18//1 20//1 19//1
f 20//2 24//2 23//2
f 24//3 22//3 21//3
f 22//4 18//4 17//4
f 23//5 21//5 17//5
f 20//6 18//6 22//6
f 70//1 72//1 71//1
f 72//2 76//2 75//2
f 76//3 74//3 73//3
f 74//4 70//4 69//4
f 78//5 80//5 69//5
f 75//5 73//5 77//5
f 75//5 77//5 79//5
f 78//5 69//5 71//5
f 75//5 79//5 78//5
f 69//5 80//5 77//5
f 83//6 72//6 70//6
f 70//6 74//6 84//6
f 81//6 83//6 70//6
f 84//6 74//6 76//6
f 76//6 72//6 83//6
f 82//6 84//6 76//6
f 80//3 78//3 83//3
f 78//4 79//4 82//4
f 77//1 84//1 82//1
f 80//2 81//2 84//2
f 86//1 88//1 87//1
f 88//2 92//2 91//2
f 92//3 90//3 89//3
f 90//4 86//4 85//4
f 94//5 96//5 85//5
f 91//5 89//5 93//5
f 91//5 93//5 95//5
f 94//5 85//5 87//5
f 91//5 95//5 94//5
f 85//5 96//5 93//5
f 99//6 88//6 86//6
f 86//6 90//6 100//6
f 97//6 99//6 86//6
f 100//6 90//6 92//6
f 92//6 88//6 99//6
f 98//6 100//6 92//6
f 96//3 94//3 99//3
f 94//4 95//4 98//4
f 93//1 100//1 98//1
f 96//2 97//2 100//2
usemtl galvanised
f 26//7 27//7 25//7
f 28//3 29//3 27//3
f 30//8 31//8 29//8
f 32//9 33//9 31//9
f 26//6 34//6 30//6
f 34//1 35//1 33//1
f 36//10 25//10 35//10
f 27//5 31//5 35//5
f 102//1 103//1 101//1
f 104//2 107//2 103//2
f 108//3 105//3 107//3
f 106//4 101//4 105//4
f 107//5 101//5 103//5
f 104//6 106//6 108//6
f 110//1 111//1 109//1
f 112//2 115//2 111//2
f 116//3 113//3 115//3
f 114//4 109//4 113//4
f 115//5 109//5 111//5
f 112//6 114//6 116//6
f 118//1 119//1 117//1
f 120//2 123//2 119//2
f 124//3 121//3 123//3
f 122//4 117//4 121//4
f 123//5 117//5 119//5
f 120//6 122//6 124//6
f 26//7 28//7 27//7
f 28//3 30//3 29//3
f 30//8 32//8 31//8
f 32//9 34//9 33//9
f 30//6 28//6 26//6
f 26//6 36//6 34//6
f 34//6 32//6 30//6
f 34//1 36//1 35//1
f 36//10 26//10 25//10
f 35//5 25//5 27//5
f 27//5 29//5 31//5
f 31//5 33//5 35//5
f 102//1 104//1 103//1
f 104//2 108//2 107//2
f 108//3 106//3 105//3
f 106//4 102//4 101//4
f 107//5 105//5 101//5
f 104//6 102//6 106//6
f 110//1 112//1 111//1
f 112//2 116//2 115//2
f 116//3 114//3 113//3
f 114//4 110//4 109//4
f 115//5 113//5 109//5
f 112//6 110//6 114//6
f 118//1 120//1 119//1
f 120//2 124//2 123//2
f 124//3 122//3 121//3
f 122//4 118//4 117//4
f 123//5 121//5 117//5
f 120//6 118//6 122//6
usemtl steel
f 38//1 39//1 37//1
f 40//2 43//2 39//2
f 44//3 41//3 43//3
f 42//4 37//4 41//4
f 43//5 37//5 39//5
f 40//6 42//6 44//6
f 46//1 47//1 45//1
f 48//2 51//2 47//2
f 52//3 49//3 51//3
f 50//4 45//4 49//4
f 51//5 45//5 47//5
f 48//6 50//6 52//6
f 54//1 55//1 53//1
f 56//2 59//2 55//2
f 60//3 57//3 59//3
f 58//4 53//4 57//4
f 59//5 53//5 55//5
f 56//6 58//6 60//6
f 62//1 63//1 61//1
f 64//2 67//2 63//2
f 68//3 65//3 67//3
f 66//4 61//4 65//4
f 67//5 61//5 63//5
f 64//6 66//6 68//6
f 38//1 40//1 39//1
f 40//2 44//2 43//2
f 44//3 42//3 41//3
f 42//4 38//4 37//4
f 43//5 41//5 37//5
f 40//6 38//6 42//6
f 46//1 48//1 47//1
f 48//2 52//2 51//2
f 52//3 50//3 49//3
f 50//4 46//4 45//4
f 51//5 49//5 45//5
f 48//6 46//6 50//6
f 54//1 56//1 55//1
f 56//2 60//2 59//2
f 60//3 58//3 57//3
f 58//4 54//4 53//4
f 59//5 57//5 53//5
f 56//6 54//6 58//6
f 62//1 64//1 63//1
f 64//2 68//2 67//2
f 68//3 66//3 65//3
f 66//4 62//4 61//4
f 67//5 65//5 61//5
f 64//6 62//6 66//6
