# Blender 5.2.0 LTS
# www.blender.org
mtllib boiler.mtl
o body
v -1.450000 0.000000 0.950000
v -1.450000 0.100000 0.950000
v -1.450000 0.000000 -0.950000
v -1.450000 0.100000 -0.950000
v 1.450000 0.000000 0.950000
v 1.450000 0.100000 0.950000
v 1.450000 0.000000 -0.950000
v 1.450000 0.100000 -0.950000
v 0.440000 0.100000 0.760000
v 1.300000 0.250000 0.300000
v 0.440000 0.140000 0.800000
v 1.300000 0.600000 0.300000
v 0.400000 0.140000 0.760000
v 1.300000 0.250000 -0.300000
v 1.300000 0.600000 -0.300000
v 0.440000 1.060000 0.800000
v 0.440000 1.100000 0.760000
v 0.400000 1.060000 0.760000
v 0.440000 0.100000 -0.760000
v 0.400000 0.140000 -0.760000
v 0.440000 0.140000 -0.800000
v 0.440000 1.100000 -0.760000
v 0.440000 1.060000 -0.800000
v 0.400000 1.060000 -0.760000
v 1.360000 0.100000 0.760000
v 1.400000 0.140000 0.760000
v 1.360000 0.140000 0.800000
v 1.360000 1.100000 0.760000
v 1.360000 1.060000 0.800000
v 1.400000 1.060000 0.760000
v 1.360000 0.100000 -0.760000
v 1.360000 0.140000 -0.800000
v 1.400000 0.140000 -0.760000
v 1.360000 1.100000 -0.760000
v 1.400000 1.060000 -0.760000
v 1.360000 1.060000 -0.800000
v 1.400000 0.600000 -0.300000
v 1.400000 0.250000 0.300000
v 1.400000 0.600000 0.300000
v 1.400000 0.250000 -0.300000
v 1.280000 0.250000 0.300000
v 1.280000 0.600000 0.300000
v 1.280000 0.250000 -0.300000
v 1.280000 0.600000 -0.300000
v 1.310000 0.250000 0.300000
v 1.310000 0.600000 0.300000
v 1.310000 0.250000 -0.300000
v 1.310000 0.600000 -0.300000
v 1.280000 0.250000 0.260000
v 1.280000 0.310000 0.260000
v 1.280000 0.250000 -0.260000
v 1.280000 0.310000 -0.260000
v 1.360000 0.250000 0.260000
v 1.360000 0.310000 0.260000
v 1.360000 0.250000 -0.260000
v 1.360000 0.310000 -0.260000
v -1.400000 0.750000 -0.620000
v 0.400000 0.750000 -0.620000
v -1.400000 0.385573 -0.501591
v 0.400000 0.385573 -0.501591
v -1.400000 0.160345 -0.191591
v 0.400000 0.160345 -0.191591
v -1.400000 0.160345 0.191591
v 0.400000 0.160345 0.191591
v -1.400000 0.385573 0.501591
v 0.400000 0.385573 0.501591
v -1.400000 0.750000 0.620000
v 0.400000 0.750000 0.620000
v -1.400000 1.114427 0.501591
v 0.400000 1.114427 0.501591
v -1.400000 1.339655 0.191591
v 0.400000 1.339655 0.191591
v -1.400000 1.339655 -0.191591
v 0.400000 1.339655 -0.191591
v -1.400000 1.114427 -0.501591
v 0.400000 1.114427 -0.501591
v -0.980000 0.750000 -0.650000
v -0.920000 0.750000 -0.650000
v -0.980000 0.367940 -0.525861
v -0.920000 0.367940 -0.525861
v -0.980000 0.131813 -0.200861
v -0.920000 0.131813 -0.200861
v -0.980000 0.131813 0.200861
v -0.920000 0.131813 0.200861
v -0.980000 0.367940 0.525861
v -0.920000 0.367940 0.525861
v -0.980000 0.750000 0.650000
v -0.920000 0.750000 0.650000
v -0.980000 1.132060 0.525861
v -0.920000 1.132060 0.525861
v -0.980000 1.368187 0.200861
v -0.920000 1.368187 0.200861
v -0.980000 1.368187 -0.200861
v -0.920000 1.368187 -0.200861
v -0.980000 1.132060 -0.525861
v -0.920000 1.132060 -0.525861
v 0.200000 1.200000 -0.120000
v 0.200000 2.400000 -0.120000
v 0.284853 1.200000 -0.084853
v 0.284853 2.400000 -0.084853
v 0.320000 1.200000 0.000000
v 0.320000 2.400000 0.000000
v 0.284853 1.200000 0.084853
v 0.284853 2.400000 0.084853
v 0.200000 1.200000 0.120000
v 0.200000 2.400000 0.120000
v 0.115147 1.200000 0.084853
v 0.115147 2.400000 0.084853
v 0.080000 1.200000 0.000000
v 0.080000 2.400000 0.000000
v 0.115147 1.200000 -0.084853
v 0.115147 2.400000 -0.084853
v 0.200000 2.320000 -0.160000
v 0.200000 2.400000 -0.160000
v 0.313137 2.320000 -0.113137
v 0.313137 2.400000 -0.113137
v 0.360000 2.320000 0.000000
v 0.360000 2.400000 0.000000
v 0.313137 2.320000 0.113137
v 0.313137 2.400000 0.113137
v 0.200000 2.320000 0.160000
v 0.200000 2.400000 0.160000
v 0.086863 2.320000 0.113137
v 0.086863 2.400000 0.113137
v 0.040000 2.320000 0.000000
v 0.040000 2.400000 0.000000
v 0.086863 2.320000 -0.113137
v 0.086863 2.400000 -0.113137
v 0.000000 0.380000 -0.550000
v 0.000000 0.380000 -1.000000
v 0.084853 0.415147 -0.550000
v 0.084853 0.415147 -1.000000
v 0.120000 0.500000 -0.550000
v 0.120000 0.500000 -1.000000
v 0.084853 0.584853 -0.550000
v 0.084853 0.584853 -1.000000
v 0.000000 0.620000 -0.550000
v 0.000000 0.620000 -1.000000
v -0.084853 0.584853 -0.550000
v -0.084853 0.584853 -1.000000
v -0.120000 0.500000 -0.550000
v -0.120000 0.500000 -1.000000
v -0.084853 0.415147 -0.550000
v -0.084853 0.415147 -1.000000
v 0.000000 0.380000 1.000000
v 0.000000 0.380000 0.550000
v 0.084853 0.415147 1.000000
v 0.084853 0.415147 0.550000
v 0.120000 0.500000 1.000000
v 0.120000 0.500000 0.550000
v 0.084853 0.584853 1.000000
v 0.084853 0.584853 0.550000
v 0.000000 0.620000 1.000000
v 0.000000 0.620000 0.550000
v -0.084853 0.584853 1.000000
v -0.084853 0.584853 0.550000
v -0.120000 0.500000 1.000000
v -0.120000 0.500000 0.550000
v -0.084853 0.415147 1.000000
v -0.084853 0.415147 0.550000
v 0.660000 0.250000 -0.810000
v 0.660000 0.260000 -0.800000
v 0.650000 0.260000 -0.810000
v 0.660000 0.840000 -0.800000
v 0.660000 0.850000 -0.810000
v 0.650000 0.840000 -0.810000
v 0.660000 0.250000 -0.820000
v 0.650000 0.260000 -0.820000
v 0.660000 0.260000 -0.830000
v 0.660000 0.850000 -0.820000
v 0.660000 0.840000 -0.830000
v 0.650000 0.840000 -0.820000
v 1.140000 0.250000 -0.810000
v 1.150000 0.260000 -0.810000
v 1.140000 0.260000 -0.800000
v 1.140000 0.850000 -0.810000
v 1.140000 0.840000 -0.800000
v 1.150000 0.840000 -0.810000
v 1.140000 0.250000 -0.820000
v 1.140000 0.260000 -0.830000
v 1.150000 0.260000 -0.820000
v 1.140000 0.850000 -0.820000
v 1.150000 0.840000 -0.820000
v 1.140000 0.840000 -0.830000
v 0.775000 0.685000 -0.850000
v 0.775000 0.715000 -0.850000
v 0.775000 0.685000 -0.880000
v 0.775000 0.715000 -0.880000
v 1.025000 0.685000 -0.850000
v 1.025000 0.715000 -0.850000
v 1.025000 0.685000 -0.880000
v 1.025000 0.715000 -0.880000
vn -1.0000 -0.0000 -0.0000
vn -0.0000 -0.0000 -1.0000
vn 1.0000 -0.0000 -0.0000
vn -0.0000 -0.0000 1.0000
vn -0.0000 -1.0000 -0.0000
vn -0.0000 1.0000 -0.0000
vn -0.5774 -0.5773 0.5773
vn -0.5774 0.5774 0.5774
vn -0.5774 -0.5773 -0.5773
vn -0.5774 0.5774 -0.5774
vn 0.5774 -0.5773 0.5773
vn 0.5774 0.5774 0.5774
vn 0.5774 -0.5773 -0.5773
vn 0.5774 0.5774 -0.5774
vn -0.7071 -0.7071 -0.0000
vn -0.7071 -0.0000 0.7071
vn -0.7071 0.7071 -0.0000
vn -0.7071 -0.0000 -0.7071
vn -0.0000 -0.7071 -0.7071
vn -0.0000 0.7071 -0.7071
vn 0.7071 -0.0000 -0.7071
vn 0.7071 -0.7071 -0.0000
vn 0.7071 0.7071 -0.0000
vn 0.7071 -0.0000 0.7071
vn -0.0000 -0.7071 0.7071
vn -0.0000 0.7071 0.7071
vn -0.0000 -0.3090 -0.9511
vn -0.0000 -0.8090 -0.5878
vn -0.0000 -0.8090 0.5878
vn -0.0000 -0.3090 0.9511
vn -0.0000 0.3090 0.9511
vn -0.0000 0.8090 0.5878
vn -0.0000 0.8090 -0.5878
vn -0.0000 0.3090 -0.9511
vn 0.3827 -0.0000 -0.9239
vn 0.9239 -0.0000 -0.3827
vn 0.9239 -0.0000 0.3827
vn 0.3827 -0.0000 0.9239
vn -0.3827 -0.0000 0.9239
vn -0.9239 -0.0000 0.3827
vn -0.9239 -0.0000 -0.3827
vn -0.3827 -0.0000 -0.9239
vn 0.3827 -0.9239 -0.0000
vn 0.9239 -0.3827 -0.0000
vn 0.9239 0.3827 -0.0000
vn 0.3827 0.9239 -0.0000
vn -0.3827 0.9239 -0.0000
vn -0.9239 0.3827 -0.0000
vn -0.9239 -0.3827 -0.0000
vn -0.3827 -0.9239 -0.0000
vn -0.5774 -0.5774 0.5774
vn -0.5774 -0.5774 -0.5774
vn 0.5774 -0.5774 0.5774
vn 0.5774 -0.5774 -0.5774
s 0
usemtl steel_dark
f 2//1 3//1 1//1
f 4//2 7//2 3//2
f 8//3 5//3 7//3
f 6//4 1//4 5//4
f 7//5 1//5 3//5
f 4//6 6//6 8//6
f 78//27 79//27 77//27
f 80//28 81//28 79//28
f 82//5 83//5 81//5
f 84//29 85//29 83//29
f 86//30 87//30 85//30
f 88//31 89//31 87//31
f 90//32 91//32 89//32
f 92//6 93//6 91//6
f 94//3 86//3 82//3
f 94//33 95//33 93//33
f 96//34 77//34 95//34
f 83//1 91//1 95//1
f 98//35 99//35 97//35
f 100//36 101//36 99//36
f 102//37 103//37 101//37
f 104//38 105//38 103//38
f 106//39 107//39 105//39
f 108//40 109//40 107//40
f 110//6 106//6 102//6
f 110//41 111//41 109//41
f 112//42 97//42 111//42
f 103//5 107//5 111//5
f 161//51 162//51 163//51
f 164//8 165//8 166//8
f 167//52 168//52 169//52
f 170//10 171//10 172//10
f 173//53 174//53 175//53
f 176//12 177//12 178//12
f 179//54 180//54 181//54
f 182//14 183//14 184//14
f 161//15 168//15 167//15
f 164//16 163//16 162//16
f 170//17 166//17 165//17
f 169//18 172//18 171//18
f 167//19 180//19 179//19
f 182//20 171//20 170//20
f 181//21 184//21 183//21
f 179//22 174//22 173//22
f 176//23 183//23 182//23
f 175//24 178//24 177//24
f 173//25 162//25 161//25
f 165//26 177//26 176//26
f 179//5 161//5 167//5
f 166//1 168//1 163//1
f 177//4 162//4 175//4
f 170//6 176//6 182//6
f 171//2 180//2 169//2
f 183//3 174//3 181//3
f 2//1 4//1 3//1
f 4//2 8//2 7//2
f 8//3 6//3 5//3
f 6//4 2//4 1//4
f 7//5 5//5 1//5
f 4//6 2//6 6//6
f 78//27 80//27 79//27
f 80//28 82//28 81//28
f 82//5 84//5 83//5
f 84//29 86//29 85//29
f 86//30 88//30 87//30
f 88//31 90//31 89//31
f 90//32 92//32 91//32
f 92//6 94//6 93//6
f 82//3 80//3 78//3
f 78//3 96//3 94//3
f 94//3 92//3 90//3
f 90//3 88//3 86//3
f 86//3 84//3 82//3
f 82//3 78//3 94//3
f 94//3 90//3 86//3
f 94//33 96//33 95//33
f 96//34 78//34 77//34
f 95//1 77//1 79//1
f 79//1 81//1 83//1
f 83//1 85//1 87//1
f 87//1 89//1 91//1
f 91//1 93//1 95//1
f 95//1 79//1 83//1
f 83//1 87//1 91//1
f 98//35 100//35 99//35
f 100//36 102//36 101//36
f 102//37 104//37 103//37
f 104//38 106//38 105//38
f 106//39 108//39 107//39
f 108//40 110//40 109//40
f 102//6 100//6 98//6
f 98//6 112//6 110//6
f 110//6 108//6 106//6
f 106//6 104//6 102//6
f 102//6 98//6 110//6
f 110//41 112//41 111//41
f 112//42 98//42 97//42
f 111//5 97//5 99//5
f 99//5 101//5 103//5
f 103//5 105//5 107//5
f 107//5 109//5 111//5
f 111//5 99//5 103//5
f 161//15 163//15 168//15
f 164//16 166//16 163//16
f 170//17 172//17 166//17
f 169//18 168//18 172//18
f 167//19 169//19 180//19
f 182//20 184//20 171//20
f 181//21 180//21 184//21
f 179//22 181//22 174//22
f 176//23 178//23 183//23
f 175//24 174//24 178//24
f 173//25 175//25 162//25
f 165//26 164//26 177//26
f 179//5 173//5 161//5
f 166//1 172//1 168//1
f 177//4 164//4 162//4
f 170//6 165//6 176//6
f 171//2 184//2 180//2
f 183//3 178//3 174//3
usemtl steel
f 9//7 11//7 13//7
f 16//8 17//8 18//8
f 19//9 20//9 21//9
f 22//10 23//10 24//10
f 25//11 26//11 27//11
f 28//12 29//12 30//12
f 31//13 32//13 33//13
f 34//14 35//14 36//14
f 9//15 20//15 19//15
f 16//16 13//16 11//16
f 22//17 18//17 17//17
f 21//18 24//18 23//18
f 19//19 32//19 31//19
f 34//20 23//20 22//20
f 33//21 36//21 35//21
f 31//22 26//22 25//22
f 28//23 35//23 34//23
f 27//24 30//24 29//24
f 25//25 11//25 9//25
f 17//26 29//26 28//26
f 31//5 9//5 19//5
f 18//1 20//1 13//1
f 29//4 11//4 27//4
f 22//6 28//6 34//6
f 23//2 32//2 21//2
f 35//3 30//3 37//3
f 26//3 40//3 38//3
f 14//3 12//3 10//3
f 15//4 40//4 37//4
f 10//2 39//2 38//2
f 10//6 40//6 14//6
f 15//5 39//5 12//5
f 114//35 115//35 113//35
f 116//36 117//36 115//36
f 118//37 119//37 117//37
f 120//38 121//38 119//38
f 122//39 123//39 121//39
f 124//40 125//40 123//40
f 126//6 122//6 118//6
f 126//41 127//41 125//41
f 128//42 113//42 127//42
f 119//5 123//5 127//5
f 9//15 13//15 20//15
f 16//16 18//16 13//16
f 22//17 24//17 18//17
f 21//18 20//18 24//18
f 19//19 21//19 32//19
f 34//20 36//20 23//20
f 33//21 32//21 36//21
f 31//22 33//22 26//22
f 28//23 30//23 35//23
f 27//24 26//24 30//24
f 25//25 27//25 11//25
f 17//26 16//26 29//26
f 31//5 25//5 9//5
f 18//1 24//1 20//1
f 29//4 16//4 11//4
f 22//6 17//6 28//6
f 23//2 36//2 32//2
f 37//3 40//3 33//3
f 30//3 26//3 38//3
f 30//3 38//3 39//3
f 37//3 33//3 35//3
f 30//3 39//3 37//3
f 26//3 33//3 40//3
f 14//3 15//3 12//3
f 15//4 14//4 40//4
f 10//2 12//2 39//2
f 10//6 38//6 40//6
f 15//5 37//5 39//5
f 114//35 116//35 115//35
f 116//36 118//36 117//36
f 118//37 120//37 119//37
f 120//38 122//38 121//38
f 122//39 124//39 123//39
f 124//40 126//40 125//40
f 118//6 116//6 114//6
f 114//6 128//6 126//6
f 126//6 124//6 122//6
f 122//6 120//6 118//6
f 118//6 114//6 126//6
f 126//41 128//41 127//41
f 128//42 114//42 113//42
f 127//5 113//5 115//5
f 115//5 117//5 119//5
f 119//5 121//5 123//5
f 123//5 125//5 127//5
f 127//5 115//5 119//5
usemtl soot
f 42//1 43//1 41//1
f 44//2 47//2 43//2
f 48//3 45//3 47//3
f 46//4 41//4 45//4
f 47//5 41//5 43//5
f 44//6 46//6 48//6
f 42//1 44//1 43//1
f 44//2 48//2 47//2
f 48//3 46//3 45//3
f 46//4 42//4 41//4
f 47//5 45//5 41//5
f 44//6 42//6 46//6
usemtl heat_glow
f 50//1 51//1 49//1
f 52//2 55//2 51//2
f 56//3 53//3 55//3
f 54//4 49//4 53//4
f 55//5 49//5 51//5
f 52//6 54//6 56//6
f 50//1 52//1 51//1
f 52//2 56//2 55//2
f 56//3 54//3 53//3
f 54//4 50//4 49//4
f 55//5 53//5 49//5
f 52//6 50//6 54//6
usemtl power_yellow
f 58//27 59//27 57//27
f 60//28 61//28 59//28
f 62//5 63//5 61//5
f 63//29 66//29 65//29
f 66//30 67//30 65//30
f 68//31 69//31 67//31
f 70//32 71//32 69//32
f 72//6 73//6 71//6
f 74//3 66//3 62//3
f 74//33 75//33 73//33
f 76//34 57//34 75//34
f 63//1 71//1 75//1
f 58//27 60//27 59//27
f 60//28 62//28 61//28
f 62//5 64//5 63//5
f 63//29 64//29 66//29
f 66//30 68//30 67//30
f 68//31 70//31 69//31
f 70//32 72//32 71//32
f 72//6 74//6 73//6
f 62//3 60//3 58//3
f 58//3 76//3 74//3
f 74//3 72//3 70//3
f 70//3 68//3 66//3
f 66//3 64//3 62//3
f 62//3 58//3 74//3
f 74//3 70//3 66//3
f 74//33 76//33 75//33
f 76//34 58//34 57//34
f 75//1 57//1 59//1
f 59//1 61//1 63//1
f 63//1 65//1 67//1
f 67//1 69//1 71//1
f 71//1 73//1 75//1
f 75//1 59//1 63//1
f 63//1 67//1 71//1
usemtl fluids_teal
f 130//43 131//43 129//43
f 132//44 133//44 131//44
f 134//45 135//45 133//45
f 136//46 137//46 135//46
f 138//47 139//47 137//47
f 140//48 141//48 139//48
f 142//2 138//2 134//2
f 142//49 143//49 141//49
f 144//50 129//50 143//50
f 135//4 139//4 143//4
f 130//43 132//43 131//43
f 132//44 134//44 133//44
f 134//45 136//45 135//45
f 136//46 138//46 137//46
f 138//47 140//47 139//47
f 140//48 142//48 141//48
f 134//2 132//2 130//2
f 130//2 144//2 142//2
f 142//2 140//2 138//2
f 138//2 136//2 134//2
f 134//2 130//2 142//2
f 142//49 144//49 143//49
f 144//50 130//50 129//50
f 143//4 129//4 131//4
f 131//4 133//4 135//4
f 135//4 137//4 139//4
f 139//4 141//4 143//4
f 143//4 131//4 135//4
usemtl galvanised
f 146//43 147//43 145//43
f 148//44 149//44 147//44
f 150//45 151//45 149//45
f 152//46 153//46 151//46
f 154//47 155//47 153//47
f 156//48 157//48 155//48
f 158//2 154//2 150//2
f 158//49 159//49 157//49
f 160//50 145//50 159//50
f 151//4 155//4 159//4
f 186//1 187//1 185//1
f 188//2 191//2 187//2
f 192//3 189//3 191//3
f 190//4 185//4 189//4
f 191//5 185//5 187//5
f 188//6 190//6 192//6
f 146//43 148//43 147//43
f 148//44 150//44 149//44
f 150//45 152//45 151//45
f 152//46 154//46 153//46
f 154//47 156//47 155//47
f 156//48 158//48 157//48
f 150//2 148//2 146//2
f 146//2 160//2 158//2
f 158//2 156//2 154//2
f 154//2 152//2 150//2
f 150//2 146//2 158//2
f 158//49 160//49 159//49
f 160//50 146//50 145//50
f 159//4 145//4 147//4
f 147//4 149//4 151//4
f 151//4 153//4 155//4
f 155//4 157//4 159//4
f 159//4 147//4 151//4
f 186//1 188//1 187//1
f 188//2 192//2 191//2
f 192//3 190//3 189//3
f 190//4 186//4 185//4
f 191//5 189//5 185//5
f 188//6 186//6 190//6
