# Blender 5.2.0 LTS
# www.blender.org
mtllib burner_mining_drill.mtl
o body
v -0.920000 0.000000 -0.630000
v -0.920000 0.030000 -0.600000
v -0.950000 0.030000 -0.630000
v -0.920000 0.110000 -0.600000
v -0.920000 0.140000 -0.630000
v -0.950000 0.110000 -0.630000
v -0.920000 0.000000 -0.870000
v -0.950000 0.030000 -0.870000
v -0.920000 0.030000 -0.900000
v -0.920000 0.140000 -0.870000
v -0.920000 0.110000 -0.900000
v -0.950000 0.110000 -0.870000
v 0.920000 0.000000 -0.630000
v 0.950000 0.030000 -0.630000
v 0.920000 0.030000 -0.600000
v 0.920000 0.140000 -0.630000
v 0.920000 0.110000 -0.600000
v 0.950000 0.110000 -0.630000
v 0.920000 0.000000 -0.870000
v 0.920000 0.030000 -0.900000
v 0.950000 0.030000 -0.870000
v 0.920000 0.140000 -0.870000
v 0.950000 0.110000 -0.870000
v 0.920000 0.110000 -0.900000
v -0.920000 0.000000 0.870000
v -0.920000 0.030000 0.900000
v -0.950000 0.030000 0.870000
v -0.920000 0.110000 0.900000
v -0.920000 0.140000 0.870000
v -0.950000 0.110000 0.870000
v -0.920000 0.000000 0.630000
v -0.950000 0.030000 0.630000
v -0.920000 0.030000 0.600000
v -0.920000 0.140000 0.630000
v -0.920000 0.110000 0.600000
v -0.950000 0.110000 0.630000
v 0.920000 0.000000 0.870000
v 0.950000 0.030000 0.870000
v 0.920000 0.030000 0.900000
v 0.920000 0.140000 0.870000
v 0.920000 0.110000 0.900000
v 0.950000 0.110000 0.870000
v 0.920000 0.000000 0.630000
v 0.920000 0.030000 0.600000
v 0.950000 0.030000 0.630000
v 0.920000 0.140000 0.630000
v 0.950000 0.110000 0.630000
v 0.920000 0.110000 0.600000
v -0.950000 0.060000 0.600000
v -0.950000 0.120000 0.600000
v -0.950000 0.060000 -0.600000
v -0.950000 0.120000 -0.600000
v -0.150000 0.060000 0.600000
v -0.150000 0.120000 0.600000
v -0.150000 0.060000 -0.600000
v -0.150000 0.120000 -0.600000
v -0.615000 0.060000 -0.112583
v -0.550000 0.060000 -0.130000
v -0.420000 0.060000 0.000000
v -0.437417 0.060000 0.065000
v -0.437417 0.060000 -0.065000
v -0.485000 0.060000 -0.112583
v -0.680000 0.060000 0.000000
v -0.662583 0.060000 0.065000
v -0.662583 0.060000 -0.065000
v -0.615000 0.060000 0.112583
v -0.485000 0.060000 0.112583
v -0.550000 0.060000 0.130000
v -0.680000 0.120000 0.000000
v -0.662583 0.120000 0.065000
v -0.662583 0.120000 -0.065000
v -0.485000 0.120000 -0.112583
v -0.550000 0.120000 -0.130000
v -0.615000 0.120000 -0.112583
v -0.615000 0.120000 0.112583
v -0.550000 0.120000 0.130000
v -0.420000 0.120000 0.000000
v -0.437417 0.120000 0.065000
v -0.437417 0.120000 -0.065000
v -0.485000 0.120000 0.112583
v -0.050000 0.140000 0.700000
v -0.050000 0.190000 0.750000
v -0.100000 0.190000 0.700000
v -0.050000 0.800000 0.750000
v -0.050000 0.850000 0.700000
v -0.100000 0.800000 0.700000
v -0.050000 0.140000 -0.700000
v -0.100000 0.190000 -0.700000
v -0.050000 0.190000 -0.750000
v -0.050000 0.850000 -0.700000
v -0.050000 0.800000 -0.750000
v -0.100000 0.800000 -0.700000
v 0.850000 0.140000 0.700000
v 0.900000 0.190000 0.700000
v 0.850000 0.190000 0.750000
v 0.850000 0.850000 0.700000
v 0.850000 0.800000 0.750000
v 0.900000 0.800000 0.700000
v 0.850000 0.140000 -0.700000
v 0.850000 0.190000 -0.750000
v 0.900000 0.190000 -0.700000
v 0.850000 0.850000 -0.700000
v 0.900000 0.800000 -0.700000
v 0.850000 0.800000 -0.750000
v 0.900000 0.300000 0.600000
v 0.900000 0.360000 0.600000
v 0.900000 0.300000 0.300000
v 0.900000 0.360000 0.300000
v 0.930000 0.300000 0.600000
v 0.930000 0.360000 0.600000
v 0.930000 0.300000 0.300000
v 0.930000 0.360000 0.300000
v 0.900000 0.200000 -0.100000
v 0.900000 0.400000 -0.100000
v 0.900000 0.200000 -0.450000
v 0.900000 0.400000 -0.450000
v 0.980000 0.200000 -0.100000
v 0.980000 0.400000 -0.100000
v 0.980000 0.200000 -0.450000
v 0.980000 0.400000 -0.450000
v -0.890000 0.140000 0.390000
v -0.890000 1.900000 0.390000
v -0.890000 0.140000 0.310000
v -0.890000 1.900000 0.310000
v -0.810000 0.140000 0.390000
v -0.810000 1.900000 0.390000
v -0.810000 0.140000 0.310000
v -0.810000 1.900000 0.310000
v -0.890000 0.140000 -0.310000
v -0.890000 1.900000 -0.310000
v -0.890000 0.140000 -0.390000
v -0.890000 1.900000 -0.390000
v -0.810000 0.140000 -0.310000
v -0.810000 1.900000 -0.310000
v -0.810000 0.140000 -0.390000
v -0.810000 1.900000 -0.390000
v -0.290000 0.140000 0.390000
v -0.290000 1.900000 0.390000
v -0.290000 0.140000 0.310000
v -0.290000 1.900000 0.310000
v -0.210000 0.140000 0.390000
v -0.210000 1.900000 0.390000
v -0.210000 0.140000 0.310000
v -0.210000 1.900000 0.310000
v -0.290000 0.140000 -0.310000
v -0.290000 1.900000 -0.310000
v -0.290000 0.140000 -0.390000
v -0.290000 1.900000 -0.390000
v -0.210000 0.140000 -0.310000
v -0.210000 1.900000 -0.310000
v -0.210000 0.140000 -0.390000
v -0.210000 1.900000 -0.390000
v -0.810000 0.670000 0.380000
v -0.810000 0.730000 0.380000
v -0.810000 0.670000 0.320000
v -0.810000 0.730000 0.320000
v -0.290000 0.670000 0.380000
v -0.290000 0.730000 0.380000
v -0.290000 0.670000 0.320000
v -0.290000 0.730000 0.320000
v -0.810000 0.670000 -0.320000
v -0.810000 0.730000 -0.320000
v -0.810000 0.670000 -0.380000
v -0.810000 0.730000 -0.380000
v -0.290000 0.670000 -0.320000
v -0.290000 0.730000 -0.320000
v -0.290000 0.670000 -0.380000
v -0.290000 0.730000 -0.380000
v -0.810000 1.270000 0.380000
v -0.810000 1.330000 0.380000
v -0.810000 1.270000 0.320000
v -0.810000 1.330000 0.320000
v -0.290000 1.270000 0.380000
v -0.290000 1.330000 0.380000
v -0.290000 1.270000 0.320000
v -0.290000 1.330000 0.320000
v -0.810000 1.270000 -0.320000
v -0.810000 1.330000 -0.320000
v -0.810000 1.270000 -0.380000
v -0.810000 1.330000 -0.380000
v -0.290000 1.270000 -0.320000
v -0.290000 1.330000 -0.320000
v -0.290000 1.270000 -0.380000
v -0.290000 1.330000 -0.380000
v -0.900000 1.820000 0.400000
v -0.900000 1.950000 0.400000
v -0.900000 1.820000 -0.400000
v -0.900000 1.950000 -0.400000
v -0.200000 1.820000 0.400000
v -0.200000 1.950000 0.400000
v -0.200000 1.820000 -0.400000
v -0.200000 1.950000 -0.400000
v 0.550000 0.850000 -0.550000
v 0.550000 1.450000 -0.550000
v 0.620711 0.850000 -0.520711
v 0.620711 1.450000 -0.520711
v 0.650000 0.850000 -0.450000
v 0.650000 1.450000 -0.450000
v 0.620711 0.850000 -0.379289
v 0.620711 1.450000 -0.379289
v 0.550000 0.850000 -0.350000
v 0.550000 1.450000 -0.350000
v 0.479289 0.850000 -0.379289
v 0.479289 1.450000 -0.379289
v 0.450000 0.850000 -0.450000
v 0.450000 1.450000 -0.450000
v 0.479289 0.850000 -0.520711
v 0.479289 1.450000 -0.520711
v -0.550000 0.140000 -0.220000
v -0.550000 0.240000 -0.220000
v -0.420687 0.140000 -0.177984
v -0.420687 0.240000 -0.177984
v -0.340768 0.140000 -0.067984
v -0.340768 0.240000 -0.067984
v -0.340768 0.140000 0.067984
v -0.340768 0.240000 0.067984
v -0.420687 0.140000 0.177984
v -0.420687 0.240000 0.177984
v -0.550000 0.140000 0.220000
v -0.550000 0.240000 0.220000
v -0.679313 0.140000 0.177984
v -0.679313 0.240000 0.177984
v -0.759232 0.140000 0.067984
v -0.759232 0.240000 0.067984
v -0.759232 0.140000 -0.067984
v -0.759232 0.240000 -0.067984
v -0.679313 0.140000 -0.177984
v -0.679313 0.240000 -0.177984
v -0.615000 0.240000 -0.112583
v -0.485000 0.240000 -0.112583
v -0.550000 0.240000 -0.130000
v -0.662583 0.240000 0.065000
v -0.680000 0.240000 0.000000
v -0.615000 0.240000 0.112583
v -0.550000 0.240000 0.130000
v -0.662583 0.240000 -0.065000
v -0.485000 0.240000 0.112583
v -0.420000 0.240000 0.000000
v -0.437417 0.240000 0.065000
v -0.437417 0.240000 -0.065000
v -0.550000 0.140000 -0.130000
v -0.437417 0.140000 -0.065000
v -0.420000 0.140000 0.000000
v -0.485000 0.140000 -0.112583
v -0.615000 0.140000 0.112583
v -0.485000 0.140000 0.112583
v -0.550000 0.140000 0.130000
v -0.680000 0.140000 0.000000
v -0.662583 0.140000 0.065000
v -0.662583 0.140000 -0.065000
v -0.615000 0.140000 -0.112583
v -0.437417 0.140000 0.065000
v -0.850000 0.425000 0.350000
v -0.850000 0.425000 -0.350000
v -0.828349 0.437500 0.350000
v -0.828349 0.437500 -0.350000
v -0.828349 0.462500 0.350000
v -0.828349 0.462500 -0.350000
v -0.850000 0.475000 0.350000
v -0.850000 0.475000 -0.350000
v -0.871651 0.462500 0.350000
v -0.871651 0.462500 -0.350000
v -0.871651 0.437500 0.350000
v -0.871651 0.437500 -0.350000
v -0.850000 1.025000 0.350000
v -0.850000 1.025000 -0.350000
v -0.828349 1.037500 0.350000
v -0.828349 1.037500 -0.350000
v -0.828349 1.062500 0.350000
v -0.828349 1.062500 -0.350000
v -0.850000 1.075000 0.350000
v -0.850000 1.075000 -0.350000
v -0.871651 1.062500 0.350000
v -0.871651 1.062500 -0.350000
v -0.871651 1.037500 0.350000
v -0.871651 1.037500 -0.350000
v -0.850000 1.595000 0.350000
v -0.850000 1.595000 -0.350000
v -0.828349 1.607500 0.350000
v -0.828349 1.607500 -0.350000
v -0.828349 1.632500 0.350000
v -0.828349 1.632500 -0.350000
v -0.850000 1.645000 0.350000
v -0.850000 1.645000 -0.350000
v -0.871651 1.632500 0.350000
v -0.871651 1.632500 -0.350000
v -0.871651 1.607500 0.350000
v -0.871651 1.607500 -0.350000
vn -0.5774 -0.5773 0.5774
vn -0.5774 0.5773 0.5774
vn -0.5774 -0.5773 -0.5774
vn -0.5774 0.5773 -0.5774
vn 0.5774 -0.5773 0.5774
vn 0.5774 0.5773 0.5774
vn 0.5774 -0.5773 -0.5774
vn 0.5774 0.5773 -0.5774
vn -0.7071 -0.7071 -0.0000
vn -0.7071 -0.0000 0.7071
vn -0.7071 0.7071 -0.0000
vn -0.7071 -0.0000 -0.7071
vn -0.0000 -0.7071 -0.7071
vn -0.0000 0.7071 -0.7071
vn 0.7071 -0.0000 -0.7071
vn 0.7071 -0.7071 -0.0000
vn 0.7071 0.7071 -0.0000
vn 0.7071 -0.0000 0.7071
vn -0.0000 -0.7071 0.7071
vn -0.0000 0.7071 0.7071
vn -0.0000 -1.0000 -0.0000
vn -1.0000 -0.0000 -0.0000
vn -0.0000 -0.0000 1.0000
vn -0.0000 1.0000 -0.0000
vn -0.0000 -0.0000 -1.0000
vn 1.0000 -0.0000 -0.0000
vn -0.2588 -0.0000 0.9659
vn -0.9659 -0.0000 0.2588
vn -0.9659 -0.0000 -0.2588
vn -0.2588 -0.0000 -0.9659
vn 0.2588 -0.0000 -0.9659
vn 0.9659 -0.0000 -0.2588
vn 0.9659 -0.0000 0.2588
vn 0.2588 -0.0000 0.9659
vn -0.5774 0.5774 0.5773
vn -0.5774 -0.5774 -0.5773
vn 0.5773 -0.5774 0.5773
vn 0.5774 0.5774 0.5774
vn 0.5773 -0.5774 -0.5773
vn 0.5774 0.5774 -0.5774
vn 0.3827 -0.0000 -0.9239
vn 0.9239 -0.0000 -0.3827
vn 0.9239 -0.0000 0.3827
vn 0.3827 -0.0000 0.9239
vn -0.3827 -0.0000 0.9239
vn -0.9239 -0.0000 0.3827
vn -0.9239 -0.0000 -0.3827
vn -0.3827 -0.0000 -0.9239
vn 0.3090 -0.0000 -0.9511
vn 0.8090 -0.0000 -0.5878
vn 0.8090 -0.0000 0.5878
vn 0.3090 -0.0000 0.9511
vn -0.3090 -0.0000 0.9511
vn -0.8090 -0.0000 0.5878
vn -0.8090 -0.0000 -0.5878
vn -0.3090 -0.0000 -0.9511
vn 0.5000 -0.8660 -0.0000
vn 0.5000 0.8660 -0.0000
vn -0.5000 0.8660 -0.0000
vn -0.5000 -0.8660 -0.0000
s 0
usemtl steel_dark
f 1//1 2//1 3//1
f 4//2 5//2 6//2
f 7//3 8//3 9//3
f 10//4 11//4 12//4
f 13//5 14//5 15//5
f 16//6 17//6 18//6
f 19//7 20//7 21//7
f 22//8 23//8 24//8
f 1//9 8//9 7//9
f 4//10 3//10 2//10
f 10//11 6//11 5//11
f 9//12 12//12 11//12
f 7//13 20//13 19//13
f 22//14 11//14 10//14
f 21//15 24//15 23//15
f 19//16 14//16 13//16
f 16//17 23//17 22//17
f 15//18 18//18 17//18
f 13//19 2//19 1//19
f 5//20 17//20 16//20
f 19//21 1//21 7//21
f 6//22 8//22 3//22
f 17//23 2//23 15//23
f 10//24 16//24 22//24
f 11//25 20//25 9//25
f 23//26 14//26 21//26
f 25//1 26//1 27//1
f 28//2 29//2 30//2
f 31//3 32//3 33//3
f 34//4 35//4 36//4
f 37//5 38//5 39//5
f 40//6 41//6 42//6
f 43//7 44//7 45//7
f 46//8 47//8 48//8
f 25//9 32//9 31//9
f 28//10 27//10 26//10
f 34//11 30//11 29//11
f 33//12 36//12 35//12
f 31//13 44//13 43//13
f 46//14 35//14 34//14
f 45//15 48//15 47//15
f 43//16 38//16 37//16
f 40//17 47//17 46//17
f 39//18 42//18 41//18
f 37//19 26//19 25//19
f 29//20 41//20 40//20
f 43//21 25//21 31//21
f 30//22 32//22 27//22
f 41//23 26//23 39//23
f 34//24 40//24 46//24
f 35//25 44//25 33//25
f 47//26 38//26 45//26
f 50//22 51//22 49//22
f 52//25 55//25 51//25
f 56//26 53//26 55//26
f 54//23 49//23 53//23
f 55//21 53//21 59//21
f 49//21 51//21 63//21
f 52//24 50//24 70//24
f 54//24 56//24 79//24
f 58//27 72//27 73//27
f 61//10 72//10 62//10
f 59//28 79//28 61//28
f 60//29 77//29 59//29
f 67//12 78//12 60//12
f 68//30 80//30 67//30
f 66//31 76//31 68//31
f 66//15 70//15 75//15
f 64//32 69//32 70//32
f 63//33 71//33 69//33
f 65//18 74//18 71//18
f 57//34 73//34 74//34
f 186//22 187//22 185//22
f 188//25 191//25 187//25
f 192//26 189//26 191//26
f 190//23 185//23 189//23
f 191//21 185//21 187//21
f 188//24 190//24 192//24
f 194//41 195//41 193//41
f 196//42 197//42 195//42
f 198//43 199//43 197//43
f 200//44 201//44 199//44
f 202//45 203//45 201//45
f 204//46 205//46 203//46
f 206//24 202//24 198//24
f 206//47 207//47 205//47
f 208//48 193//48 207//48
f 199//21 203//21 207//21
f 210//49 211//49 209//49
f 212//50 213//50 211//50
f 214//26 215//26 213//26
f 216//51 217//51 215//51
f 218//52 219//52 217//52
f 220//53 221//53 219//53
f 222//54 223//54 221//54
f 224//22 225//22 223//22
f 226//24 222//24 233//24
f 214//24 240//24 238//24
f 226//55 227//55 225//55
f 228//56 209//56 227//56
f 223//21 248//21 249//21
f 211//21 215//21 242//21
f 230//27 241//27 244//27
f 230//10 242//10 240//10
f 240//28 243//28 238//28
f 238//29 252//29 239//29
f 239//12 246//12 237//12
f 237//30 247//30 235//30
f 235//31 245//31 234//31
f 232//15 245//15 249//15
f 233//32 249//32 248//32
f 236//33 248//33 250//33
f 229//18 250//18 251//18
f 231//34 251//34 241//34
f 1//9 3//9 8//9
f 4//10 6//10 3//10
f 10//11 12//11 6//11
f 9//12 8//12 12//12
f 7//13 9//13 20//13
f 22//14 24//14 11//14
f 21//15 20//15 24//15
f 19//16 21//16 14//16
f 16//17 18//17 23//17
f 15//18 14//18 18//18
f 13//19 15//19 2//19
f 5//20 4//20 17//20
f 19//21 13//21 1//21
f 6//22 12//22 8//22
f 17//23 4//23 2//23
f 10//24 5//24 16//24
f 11//25 24//25 20//25
f 23//26 18//26 14//26
f 25//9 27//9 32//9
f 28//10 30//10 27//10
f 34//11 36//11 30//11
f 33//12 32//12 36//12
f 31//13 33//13 44//13
f 46//14 48//14 35//14
f 45//15 44//15 48//15
f 43//16 45//16 38//16
f 40//17 42//17 47//17
f 39//18 38//18 42//18
f 37//19 39//19 26//19
f 29//20 28//20 41//20
f 43//21 37//21 25//21
f 30//22 36//22 32//22
f 41//23 28//23 26//23
f 34//24 29//24 40//24
f 35//25 48//25 44//25
f 47//26 42//26 38//26
f 50//22 52//22 51//22
f 52//25 56//25 55//25
f 56//26 54//26 53//26
f 54//23 50//23 49//23
f 58//21 57//21 51//21
f 53//21 49//21 66//21
f 53//21 66//21 68//21
f 58//21 51//21 55//21
f 62//21 58//21 55//21
f 53//21 68//21 67//21
f 53//21 67//21 60//21
f 61//21 62//21 55//21
f 53//21 60//21 59//21
f 59//21 61//21 55//21
f 64//21 66//21 49//21
f 51//21 57//21 65//21
f 63//21 64//21 49//21
f 51//21 65//21 63//21
f 50//24 54//24 80//24
f 50//24 80//24 76//24
f 71//24 74//24 52//24
f 69//24 71//24 52//24
f 50//24 76//24 75//24
f 70//24 69//24 52//24
f 50//24 75//24 70//24
f 56//24 52//24 74//24
f 56//24 74//24 73//24
f 78//24 80//24 54//24
f 77//24 78//24 54//24
f 56//24 73//24 72//24
f 79//24 77//24 54//24
f 56//24 72//24 79//24
f 58//27 62//27 72//27
f 61//10 79//10 72//10
f 59//28 77//28 79//28
f 60//29 78//29 77//29
f 67//12 80//12 78//12
f 68//30 76//30 80//30
f 66//31 75//31 76//31
f 66//15 64//15 70//15
f 64//32 63//32 69//32
f 63//33 65//33 71//33
f 65//18 57//18 74//18
f 57//34 58//34 73//34
f 186//22 188//22 187//22
f 188//25 192//25 191//25
f 192//26 190//26 189//26
f 190//23 186//23 185//23
f 191//21 189//21 185//21
f 188//24 186//24 190//24
f 194//41 196//41 195//41
f 196//42 198//42 197//42
f 198//43 200//43 199//43
f 200//44 202//44 201//44
f 202//45 204//45 203//45
f 204//46 206//46 205//46
f 198//24 196//24 194//24
f 194//24 208//24 206//24
f 206//24 204//24 202//24
f 202//24 200//24 198//24
f 198//24 194//24 206//24
f 206//47 208//47 207//47
f 208//48 194//48 193//48
f 207//21 193//21 195//21
f 195//21 197//21 199//21
f 199//21 201//21 203//21
f 203//21 205//21 207//21
f 207//21 195//21 199//21
f 210//49 212//49 211//49
f 212//50 214//50 213//50
f 214//26 216//26 215//26
f 216//51 218//51 217//51
f 218//52 220//52 219//52
f 220//53 222//53 221//53
f 222//54 224//54 223//54
f 224//22 226//22 225//22
f 229//24 231//24 210//24
f 210//24 228//24 226//24
f 226//24 224//24 222//24
f 222//24 220//24 218//24
f 218//24 237//24 235//24
f 218//24 235//24 234//24
f 229//24 210//24 226//24
f 236//24 229//24 226//24
f 222//24 218//24 234//24
f 222//24 234//24 232//24
f 233//24 236//24 226//24
f 222//24 232//24 233//24
f 239//24 237//24 218//24
f 218//24 216//24 214//24
f 214//24 212//24 210//24
f 210//24 231//24 230//24
f 210//24 230//24 240//24
f 239//24 218//24 214//24
f 238//24 239//24 214//24
f 214//24 210//24 240//24
f 226//55 228//55 227//55
f 228//56 210//56 209//56
f 245//21 247//21 219//21
f 219//21 221//21 223//21
f 223//21 225//21 227//21
f 227//21 251//21 250//21
f 227//21 250//21 248//21
f 245//21 219//21 223//21
f 249//21 245//21 223//21
f 223//21 227//21 248//21
f 241//21 251//21 227//21
f 227//21 209//21 211//21
f 211//21 213//21 215//21
f 215//21 217//21 219//21
f 219//21 247//21 246//21
f 219//21 246//21 252//21
f 241//21 227//21 211//21
f 244//21 241//21 211//21
f 215//21 219//21 252//21
f 215//21 252//21 243//21
f 242//21 244//21 211//21
f 215//21 243//21 242//21
f 230//27 231//27 241//27
f 230//10 244//10 242//10
f 240//28 242//28 243//28
f 238//29 243//29 252//29
f 239//12 252//12 246//12
f 237//30 246//30 247//30
f 235//31 247//31 245//31
f 232//15 234//15 245//15
f 233//32 232//32 249//32
f 236//33 233//33 248//33
f 229//18 236//18 250//18
f 231//34 229//34 251//34
usemtl mining_ochre
f 81//1 82//1 83//1
f 84//35 85//35 86//35
f 87//36 88//36 89//36
f 90//4 91//4 92//4
f 93//37 94//37 95//37
f 96//38 97//38 98//38
f 99//39 100//39 101//39
f 102//40 103//40 104//40
f 81//9 88//9 87//9
f 84//10 83//10 82//10
f 90//11 86//11 85//11
f 89//12 92//12 91//12
f 87//13 100//13 99//13
f 102//14 91//14 90//14
f 101//15 104//15 103//15
f 99//16 94//16 93//16
f 96//17 103//17 102//17
f 95//18 98//18 97//18
f 93//19 82//19 81//19
f 85//20 97//20 96//20
f 99//21 81//21 87//21
f 86//22 88//22 83//22
f 97//23 82//23 95//23
f 90//24 96//24 102//24
f 91//25 100//25 89//25
f 103//26 94//26 101//26
f 81//9 83//9 88//9
f 84//10 86//10 83//10
f 90//11 92//11 86//11
f 89//12 88//12 92//12
f 87//13 89//13 100//13
f 102//14 104//14 91//14
f 101//15 100//15 104//15
f 99//16 101//16 94//16
f 96//17 98//17 103//17
f 95//18 94//18 98//18
f 93//19 95//19 82//19
f 85//20 84//20 97//20
f 99//21 93//21 81//21
f 86//22 92//22 88//22
f 97//23 84//23 82//23
f 90//24 85//24 96//24
f 91//25 104//25 100//25
f 103//26 98//26 94//26
usemtl heat_glow
f 106//22 107//22 105//22
f 108//25 111//25 107//25
f 112//26 109//26 111//26
f 110//23 105//23 109//23
f 111//21 105//21 107//21
f 108//24 110//24 112//24
f 106//22 108//22 107//22
f 108//25 112//25 111//25
f 112//26 110//26 109//26
f 110//23 106//23 105//23
f 111//21 109//21 105//21
f 108//24 106//24 110//24
usemtl galvanised
f 114//22 115//22 113//22
f 116//25 119//25 115//25
f 120//26 117//26 119//26
f 118//23 113//23 117//23
f 119//21 113//21 115//21
f 116//24 118//24 120//24
f 254//57 255//57 253//57
f 256//26 257//26 255//26
f 258//58 259//58 257//58
f 260//59 261//59 259//59
f 254//25 262//25 258//25
f 262//22 263//22 261//22
f 264//60 253//60 263//60
f 255//23 259//23 263//23
f 265//57 268//57 267//57
f 268//26 269//26 267//26
f 270//58 271//58 269//58
f 272//59 273//59 271//59
f 266//25 274//25 270//25
f 274//22 275//22 273//22
f 276//60 265//60 275//60
f 267//23 271//23 275//23
f 277//57 280//57 279//57
f 280//26 281//26 279//26
f 282//58 283//58 281//58
f 284//59 285//59 283//59
f 278//25 286//25 282//25
f 286//22 287//22 285//22
f 288//60 277//60 287//60
f 279//23 283//23 287//23
f 114//22 116//22 115//22
f 116//25 120//25 119//25
f 120//26 118//26 117//26
f 118//23 114//23 113//23
f 119//21 117//21 113//21
f 116//24 114//24 118//24
f 254//57 256//57 255//57
f 256//26 258//26 257//26
f 258//58 260//58 259//58
f 260//59 262//59 261//59
f 258//25 256//25 254//25
f 254//25 264//25 262//25
f 262//25 260//25 258//25
f 262//22 264//22 263//22
f 264//60 254//60 253//60
f 263//23 253//23 255//23
f 255//23 257//23 259//23
f 259//23 261//23 263//23
f 265//57 266//57 268//57
f 268//26 270//26 269//26
f 270//58 272//58 271//58
f 272//59 274//59 273//59
f 270//25 268//25 266//25
f 266//25 276//25 274//25
f 274//25 272//25 270//25
f 274//22 276//22 275//22
f 276//60 266//60 265//60
f 275//23 265//23 267//23
f 267//23 269//23 271//23
f 271//23 273//23 275//23
f 277//57 278//57 280//57
f 280//26 282//26 281//26
f 282//58 284//58 283//58
f 284//59 286//59 285//59
f 282//25 280//25 278//25
f 278//25 288//25 286//25
f 286//25 284//25 282//25
f 286//22 288//22 287//22
f 288//60 278//60 277//60
f 287//23 277//23 279//23
f 279//23 281//23 283//23
f 283//23 285//23 287//23
usemtl steel
f 122//22 123//22 121//22
f 124//25 127//25 123//25
f 128//26 125//26 127//26
f 126//23 121//23 125//23
f 127//21 121//21 123//21
f 124//24 126//24 128//24
f 130//22 131//22 129//22
f 132//25 135//25 131//25
f 136//26 133//26 135//26
f 134//23 129//23 133//23
f 135//21 129//21 131//21
f 132//24 134//24 136//24
f 138//22 139//22 137//22
f 140//25 143//25 139//25
f 144//26 141//26 143//26
f 142//23 137//23 141//23
f 143//21 137//21 139//21
f 140//24 142//24 144//24
f 146//22 147//22 145//22
f 148//25 151//25 147//25
f 152//26 149//26 151//26
f 150//23 145//23 149//23
f 151//21 145//21 147//21
f 148//24 150//24 152//24
f 154//22 155//22 153//22
f 156//25 159//25 155//25
f 160//26 157//26 159//26
f 158//23 153//23 157//23
f 159//21 153//21 155//21
f 156//24 158//24 160//24
f 162//22 163//22 161//22
f 164//25 167//25 163//25
f 168//26 165//26 167//26
f 166//23 161//23 165//23
f 167//21 161//21 163//21
f 164//24 166//24 168//24
f 170//22 171//22 169//22
f 172//25 175//25 171//25
f 176//26 173//26 175//26
f 174//23 169//23 173//23
f 175//21 169//21 171//21
f 172//24 174//24 176//24
f 178//22 179//22 177//22
f 180//25 183//25 179//25
f 184//26 181//26 183//26
f 182//23 177//23 181//23
f 183//21 177//21 179//21
f 180//24 182//24 184//24
f 122//22 124//22 123//22
f 124//25 128//25 127//25
f 128//26 126//26 125//26
f 126//23 122//23 121//23
f 127//21 125//21 121//21
f 124//24 122//24 126//24
f 130//22 132//22 131//22
f 132//25 136//25 135//25
f 136//26 134//26 133//26
f 134//23 130//23 129//23
f 135//21 133//21 129//21
f 132//24 130//24 134//24
f 138//22 140//22 139//22
f 140//25 144//25 143//25
f 144//26 142//26 141//26
f 142//23 138//23 137//23
f 143//21 141//21 137//21
f 140//24 138//24 142//24
f 146//22 148//22 147//22
f 148//25 152//25 151//25
f 152//26 150//26 149//26
f 150//23 146//23 145//23
f 151//21 149//21 145//21
f 148//24 146//24 150//24
f 154//22 156//22 155//22
f 156//25 160//25 159//25
f 160//26 158//26 157//26
f 158//23 154//23 153//23
f 159//21 157//21 153//21
f 156//24 154//24 158//24
f 162//22 164//22 163//22
f 164//25 168//25 167//25
f 168//26 166//26 165//26
f 166//23 162//23 161//23
f 167//21 165//21 161//21
f 164//24 162//24 166//24
f 170//22 172//22 171//22
f 172//25 176//25 175//25
f 176//26 174//26 173//26
f 174//23 170//23 169//23
f 175//21 173//21 169//21
f 172//24 170//24 174//24
f 178//22 180//22 179//22
f 180//25 184//25 183//25
f 184//26 182//26 181//26
f 182//23 178//23 177//23
f 183//21 181//21 177//21
f 180//24 178//24 182//24
o part
v -0.690000 1.250000 0.170000
v -0.690000 1.280000 0.200000
v -0.720000 1.280000 0.170000
v -0.690000 1.570000 0.200000
v -0.690000 1.600000 0.170000
v -0.720000 1.570000 0.170000
v -0.690000 1.250000 -0.170000
v -0.720000 1.280000 -0.170000
v -0.690000 1.280000 -0.200000
v -0.690000 1.600000 -0.170000
v -0.690000 1.570000 -0.200000
v -0.720000 1.570000 -0.170000
v -0.410000 1.250000 0.170000
v -0.380000 1.280000 0.170000
v -0.410000 1.280000 0.200000
v -0.410000 1.600000 0.170000
v -0.410000 1.570000 0.200000
v -0.380000 1.570000 0.170000
v -0.410000 1.250000 -0.170000
v -0.410000 1.280000 -0.200000
v -0.380000 1.280000 -0.170000
v -0.410000 1.600000 -0.170000
v -0.380000 1.570000 -0.170000
v -0.410000 1.570000 -0.200000
v -0.550000 1.600000 -0.120000
v -0.550000 1.780000 -0.120000
v -0.479466 1.600000 -0.097082
v -0.479466 1.780000 -0.097082
v -0.435873 1.600000 -0.037082
v -0.435873 1.780000 -0.037082
v -0.435873 1.600000 0.037082
v -0.435873 1.780000 0.037082
v -0.479466 1.600000 0.097082
v -0.479466 1.780000 0.097082
v -0.550000 1.600000 0.120000
v -0.550000 1.780000 0.120000
v -0.620534 1.600000 0.097082
v -0.620534 1.780000 0.097082
v -0.664127 1.600000 0.037082
v -0.664127 1.780000 0.037082
v -0.664127 1.600000 -0.037082
v -0.664127 1.780000 -0.037082
v -0.620534 1.600000 -0.097082
v -0.620534 1.780000 -0.097082
v -0.550000 0.450000 -0.060000
v -0.550000 1.250000 -0.060000
v -0.507574 0.450000 -0.042426
v -0.507574 1.250000 -0.042426
v -0.490000 0.450000 0.000000
v -0.490000 1.250000 0.000000
v -0.507574 0.450000 0.042426
v -0.507574 1.250000 0.042426
v -0.550000 0.450000 0.060000
v -0.550000 1.250000 0.060000
v -0.592426 0.450000 0.042426
v -0.592426 1.250000 0.042426
v -0.610000 0.450000 0.000000
v -0.610000 1.250000 0.000000
v -0.592426 0.450000 -0.042426
v -0.592426 1.250000 -0.042426
v -0.550000 0.250000 -0.100000
v -0.479289 0.250000 -0.070711
v -0.450000 0.250000 0.000000
v -0.479289 0.250000 0.070711
v -0.550000 0.250000 0.100000
v -0.620711 0.250000 0.070711
v -0.650000 0.250000 0.000000
v -0.620711 0.250000 -0.070711
v -0.550000 0.450000 0.000000
vn -0.5774 -0.5773 0.5774
vn -0.5774 0.5773 0.5774
vn -0.5774 -0.5773 -0.5774
vn -0.5774 0.5773 -0.5774
vn 0.5774 -0.5774 0.5774
vn 0.5774 0.5774 0.5774
vn 0.5774 -0.5774 -0.5774
vn 0.5774 0.5774 -0.5774
vn -0.7071 -0.7071 -0.0000
vn -0.7071 -0.0000 0.7071
vn -0.7071 0.7071 -0.0000
vn -0.7071 -0.0000 -0.7071
vn -0.0000 -0.7071 -0.7071
vn -0.0000 0.7071 -0.7071
vn 0.7071 -0.0000 -0.7071
vn 0.7071 -0.7071 -0.0000
vn 0.7071 0.7071 -0.0000
vn 0.7071 -0.0000 0.7071
vn -0.0000 -0.7071 0.7071
vn -0.0000 0.7071 0.7071
vn -0.0000 -1.0000 -0.0000
vn -1.0000 -0.0000 -0.0000
vn -0.0000 -0.0000 1.0000
vn -0.0000 1.0000 -0.0000
vn -0.0000 -0.0000 -1.0000
vn 1.0000 -0.0000 -0.0000
vn 0.3090 -0.0000 -0.9511
vn 0.8090 -0.0000 -0.5878
vn 0.8090 -0.0000 0.5878
vn 0.3090 -0.0000 0.9511
vn -0.3090 -0.0000 0.9511
vn -0.8090 -0.0000 0.5878
vn -0.8090 -0.0000 -0.5878
vn -0.3090 -0.0000 -0.9511
vn 0.3827 -0.0000 -0.9239
vn 0.9239 -0.0000 -0.3827
vn 0.9239 -0.0000 0.3827
vn 0.3827 -0.0000 0.9239
vn -0.3827 -0.0000 0.9239
vn -0.9239 -0.0000 0.3827
vn -0.9239 -0.0000 -0.3827
vn -0.3827 -0.0000 -0.9239
vn 0.3474 0.4194 -0.8387
vn 0.8387 0.4194 -0.3474
vn 0.8387 0.4194 0.3474
vn 0.3474 0.4194 0.8387
vn -0.3474 0.4194 0.8387
vn -0.8387 0.4194 0.3474
vn -0.8387 0.4194 -0.3474
vn -0.3474 0.4194 -0.8387
s 0
usemtl galvanised
f 289//61 290//61 291//61
f 292//62 293//62 294//62
f 295//63 296//63 297//63
f 298//64 299//64 300//64
f 301//65 302//65 303//65
f 304//66 305//66 306//66
f 307//67 308//67 309//67
f 310//68 311//68 312//68
f 289//69 296//69 295//69
f 292//70 291//70 290//70
f 298//71 294//71 293//71
f 297//72 300//72 299//72
f 295//73 308//73 307//73
f 310//74 299//74 298//74
f 309//75 312//75 311//75
f 307//76 302//76 301//76
f 304//77 311//77 310//77
f 303//78 306//78 305//78
f 301//79 290//79 289//79
f 293//80 305//80 304//80
f 307//81 289//81 295//81
f 294//82 296//82 291//82
f 305//83 290//83 303//83
f 298//84 304//84 310//84
f 299//85 308//85 297//85
f 311//86 302//86 309//86
f 289//69 291//69 296//69
f 292//70 294//70 291//70
f 298//71 300//71 294//71
f 297//72 296//72 300//72
f 295//73 297//73 308//73
f 310//74 312//74 299//74
f 309//75 308//75 312//75
f 307//76 309//76 302//76
f 304//77 306//77 311//77
f 303//78 302//78 306//78
f 301//79 303//79 290//79
f 293//80 292//80 305//80
f 307//81 301//81 289//81
f 294//82 300//82 296//82
f 305//83 292//83 290//83
f 298//84 293//84 304//84
f 299//85 312//85 308//85
f 311//86 306//86 302//86
usemtl steel_dark
f 314//87 315//87 313//87
f 316//88 317//88 315//88
f 318//86 319//86 317//86
f 320//89 321//89 319//89
f 322//90 323//90 321//90
f 324//91 325//91 323//91
f 326//92 327//92 325//92
f 328//82 329//82 327//82
f 330//84 322//84 318//84
f 330//93 331//93 329//93
f 332//94 313//94 331//94
f 319//81 327//81 331//81
f 314//87 316//87 315//87
f 316//88 318//88 317//88
f 318//86 320//86 319//86
f 320//89 322//89 321//89
f 322//90 324//90 323//90
f 324//91 326//91 325//91
f 326//92 328//92 327//92
f 328//82 330//82 329//82
f 318//84 316//84 314//84
f 314//84 332//84 330//84
f 330//84 328//84 326//84
f 326//84 324//84 322//84
f 322//84 320//84 318//84
f 318//84 314//84 330//84
f 330//84 326//84 322//84
f 330//93 332//93 331//93
f 332//94 314//94 313//94
f 331//81 313//81 315//81
f 315//81 317//81 319//81
f 319//81 321//81 323//81
f 323//81 325//81 327//81
f 327//81 329//81 331//81
f 331//81 315//81 319//81
f 319//81 323//81 327//81
usemtl steel
f 334//95 335//95 333//95
f 336//96 337//96 335//96
f 338//97 339//97 337//97
f 340//98 341//98 339//98
f 342//99 343//99 341//99
f 344//100 345//100 343//100
f 346//84 342//84 338//84
f 346//101 347//101 345//101
f 348//102 333//102 347//102
f 339//81 343//81 347//81
f 334//95 336//95 335//95
f 336//96 338//96 337//96
f 338//97 340//97 339//97
f 340//98 342//98 341//98
f 342//99 344//99 343//99
f 344//100 346//100 345//100
f 338//84 336//84 334//84
f 334//84 348//84 346//84
f 346//84 344//84 342//84
f 342//84 340//84 338//84
f 338//84 334//84 346//84
f 346//101 348//101 347//101
f 348//102 334//102 333//102
f 347//81 333//81 335//81
f 335//81 337//81 339//81
f 339//81 341//81 343//81
f 343//81 345//81 347//81
f 347//81 335//81 339//81
usemtl mining_ochre
f 349//103 357//103 350//103
f 350//104 357//104 351//104
f 351//105 357//105 352//105
f 352//106 357//106 353//106
f 353//107 357//107 354//107
f 354//108 357//108 355//108
f 352//81 354//81 356//81
f 355//109 357//109 356//109
f 356//110 357//110 349//110
f 356//81 349//81 350//81
f 350//81 351//81 352//81
f 352//81 353//81 354//81
f 354//81 355//81 356//81
f 356//81 350//81 352//81
