# Blender 5.2.0 LTS
# www.blender.org
mtllib crafting_bench.mtl
o body
v -0.440000 0.000000 0.940000
v -0.440000 1.500000 0.940000
v -0.440000 0.000000 0.860000
v -0.440000 1.500000 0.860000
v -0.360000 0.000000 0.940000
v -0.360000 1.500000 0.940000
v -0.360000 0.000000 0.860000
v -0.360000 1.500000 0.860000
v -0.440000 0.000000 -0.860000
v -0.440000 1.500000 -0.860000
v -0.440000 0.000000 -0.940000
v -0.440000 1.500000 -0.940000
v -0.360000 0.000000 -0.860000
v -0.360000 1.500000 -0.860000
v -0.360000 0.000000 -0.940000
v -0.360000 1.500000 -0.940000
v 0.360000 0.000000 0.940000
v 0.360000 1.500000 0.940000
v 0.360000 0.000000 0.860000
v 0.360000 1.500000 0.860000
v 0.440000 0.000000 0.940000
v 0.440000 1.500000 0.940000
v 0.440000 0.000000 0.860000
v 0.440000 1.500000 0.860000
v 0.360000 0.000000 -0.860000
v 0.360000 1.500000 -0.860000
v 0.360000 0.000000 -0.940000
v 0.360000 1.500000 -0.940000
v 0.440000 0.000000 -0.860000
v 0.440000 1.500000 -0.860000
v 0.440000 0.000000 -0.940000
v 0.440000 1.500000 -0.940000
v -0.460000 1.500000 0.960000
v -0.460000 1.520000 0.980000
v -0.480000 1.520000 0.960000
v -0.460000 1.600000 0.980000
v -0.460000 1.620000 0.960000
v -0.480000 1.600000 0.960000
v -0.460000 1.500000 -0.960000
v -0.480000 1.520000 -0.960000
v -0.460000 1.520000 -0.980000
v -0.460000 1.620000 -0.960000
v -0.460000 1.600000 -0.980000
v -0.480000 1.600000 -0.960000
v 0.460000 1.500000 0.960000
v 0.480000 1.520000 0.960000
v 0.460000 1.520000 0.980000
v 0.460000 1.620000 0.960000
v 0.460000 1.600000 0.980000
v 0.480000 1.600000 0.960000
v 0.460000 1.500000 -0.960000
v 0.460000 1.520000 -0.980000
v 0.480000 1.520000 -0.960000
v 0.460000 1.620000 -0.960000
v 0.480000 1.600000 -0.960000
v 0.460000 1.600000 -0.980000
v -0.420000 0.400000 0.920000
v -0.420000 0.460000 0.920000
v -0.420000 0.400000 -0.920000
v -0.420000 0.460000 -0.920000
v 0.420000 0.400000 0.920000
v 0.420000 0.460000 0.920000
v 0.420000 0.400000 -0.920000
v 0.420000 0.460000 -0.920000
v -0.480000 1.620000 0.980000
v -0.480000 1.980000 0.980000
v -0.480000 1.620000 -0.980000
v -0.480000 1.980000 -0.980000
v -0.420000 1.620000 0.980000
v -0.420000 1.980000 0.980000
v -0.420000 1.620000 -0.980000
v -0.420000 1.980000 -0.980000
v 0.250000 1.620000 -0.550000
v 0.250000 1.800000 -0.550000
v 0.250000 1.620000 -0.800000
v 0.250000 1.800000 -0.800000
v 0.450000 1.620000 -0.550000
v 0.450000 1.800000 -0.550000
v 0.450000 1.620000 -0.800000
v 0.450000 1.800000 -0.800000
v 0.450000 1.660000 -0.580000
v 0.450000 1.780000 -0.580000
v 0.450000 1.660000 -0.770000
v 0.450000 1.780000 -0.770000
v 0.480000 1.660000 -0.580000
v 0.480000 1.780000 -0.580000
v 0.480000 1.660000 -0.770000
v 0.480000 1.780000 -0.770000
v -0.420000 1.700000 0.717153
v -0.420000 1.920000 0.717153
v -0.420000 1.700000 0.677153
v -0.420000 1.920000 0.677153
v -0.380000 1.700000 0.717153
v -0.380000 1.920000 0.717153
v -0.380000 1.700000 0.677153
v -0.380000 1.920000 0.677153
v -0.420000 1.700000 0.460995
v -0.420000 1.920000 0.460995
v -0.420000 1.700000 0.420995
v -0.420000 1.920000 0.420995
v -0.380000 1.700000 0.460995
v -0.380000 1.920000 0.460995
v -0.380000 1.700000 0.420995
v -0.380000 1.920000 0.420995
v -0.420000 1.700000 0.187607
v -0.420000 1.920000 0.187607
v -0.420000 1.700000 0.147607
v -0.420000 1.920000 0.147607
v -0.380000 1.700000 0.187607
v -0.380000 1.920000 0.187607
v -0.380000 1.700000 0.147607
v -0.380000 1.920000 0.147607
v -0.420000 1.700000 -0.082937
v -0.420000 1.920000 -0.082937
v -0.420000 1.700000 -0.122937
v -0.420000 1.920000 -0.122937
v -0.380000 1.700000 -0.082937
v -0.380000 1.920000 -0.082937
v -0.380000 1.700000 -0.122937
v -0.380000 1.920000 -0.122937
vn -1.0000 -0.0000 -0.0000
vn -0.0000 -0.0000 -1.0000
vn 1.0000 -0.0000 -0.0000
vn -0.0000 -0.0000 1.0000
vn -0.0000 -1.0000 -0.0000
vn -0.0000 1.0000 -0.0000
vn -0.5773 -0.5774 0.5773
vn -0.5773 0.5774 0.5773
vn -0.5773 -0.5774 -0.5773
vn -0.5773 0.5774 -0.5773
vn 0.5773 -0.5774 0.5773
vn 0.5773 0.5774 0.5773
vn 0.5773 -0.5774 -0.5773
vn 0.5773 0.5774 -0.5773
vn -0.7071 -0.7071 -0.0000
vn -0.7071 -0.0000 0.7071
vn -0.7071 0.7071 -0.0000
vn -0.7071 -0.0000 -0.7071
vn -0.0000 -0.7071 -0.7071
vn -0.0000 0.7071 -0.7071
vn 0.7071 -0.0000 -0.7071
vn 0.7071 -0.7071 -0.0000
vn 0.7071 0.7071 -0.0000
vn 0.7071 -0.0000 0.7071
vn -0.0000 -0.7071 0.7071
vn -0.0000 0.7071 0.7071
s 0
usemtl steel_dark
f 2//1 3//1 1//1
f 4//2 7//2 3//2
f 8//3 5//3 7//3
f 6//4 1//4 5//4
f 7//5 1//5 3//5
f 4//6 6//6 8//6
f 10//1 11//1 9//1
f 12//2 15//2 11//2
f 16//3 13//3 15//3
f 14//4 9//4 13//4
f 15//5 9//5 11//5
f 12//6 14//6 16//6
f 18//1 19//1 17//1
f 20//2 23//2 19//2
f 24//3 21//3 23//3
f 22//4 17//4 21//4
f 23//5 17//5 19//5
f 20//6 22//6 24//6
f 26//1 27//1 25//1
f 28//2 31//2 27//2
f 32//3 29//3 31//3
f 30//4 25//4 29//4
f 31//5 25//5 27//5
f 28//6 30//6 32//6
f 2//1 4//1 3//1
f 4//2 8//2 7//2
f 8//3 6//3 5//3
f 6//4 2//4 1//4
f 7//5 5//5 1//5
f 4//6 2//6 6//6
f 10//1 12//1 11//1
f 12//2 16//2 15//2
f 16//3 14//3 13//3
f 14//4 10//4 9//4
f 15//5 13//5 9//5
f 12//6 10//6 14//6
f 18//1 20//1 19//1
f 20//2 24//2 23//2
f 24//3 22//3 21//3
f 22//4 18//4 17//4
f 23//5 21//5 17//5
f 20//6 18//6 22//6
f 26//1 28//1 27//1
f 28//2 32//2 31//2
f 32//3 30//3 29//3
f 30//4 26//4 25//4
f 31//5 29//5 25//5
f 28//6 26//6 30//6
usemtl steel
f 33//7 34//7 35//7
f 36//8 37//8 38//8
f 39//9 40//9 41//9
f 42//10 43//10 44//10
f 45//11 46//11 47//11
f 48//12 49//12 50//12
f 51//13 52//13 53//13
f 54//14 55//14 56//14
f 33//15 40//15 39//15
f 36//16 35//16 34//16
f 42//17 38//17 37//17
f 41//18 44//18 43//18
f 39//19 52//19 51//19
f 54//20 43//20 42//20
f 53//21 56//21 55//21
f 51//22 46//22 45//22
f 48//23 55//23 54//23
f 47//24 50//24 49//24
f 45//25 34//25 33//25
f 37//26 49//26 48//26
f 51//5 33//5 39//5
f 38//1 40//1 35//1
f 49//4 34//4 47//4
f 42//6 48//6 54//6
f 43//2 52//2 41//2
f 55//3 46//3 53//3
f 33//15 35//15 40//15
f 36//16 38//16 35//16
f 42//17 44//17 38//17
f 41//18 40//18 44//18
f 39//19 41//19 52//19
f 54//20 56//20 43//20
f 53//21 52//21 56//21
f 51//22 53//22 46//22
f 48//23 50//23 55//23
f 47//24 46//24 50//24
f 45//25 47//25 34//25
f 37//26 36//26 49//26
f 51//5 45//5 33//5
f 38//1 44//1 40//1
f 49//4 36//4 34//4
f 42//6 37//6 48//6
f 43//2 56//2 52//2
f 55//3 50//3 46//3
usemtl galvanised
f 58//1 59//1 57//1
f 60//2 63//2 59//2
f 64//3 61//3 63//3
f 62//4 57//4 61//4
f 63//5 57//5 59//5
f 60//6 62//6 64//6
f 82//1 83//1 81//1
f 84//2 87//2 83//2
f 88//3 85//3 87//3
f 86//4 81//4 85//4
f 87//5 81//5 83//5
f 84//6 86//6 88//6
f 90//1 91//1 89//1
f 92//2 95//2 91//2
f 96//3 93//3 95//3
f 94//4 89//4 93//4
f 95//5 89//5 91//5
f 92//6 94//6 96//6
f 98//1 99//1 97//1
f 100//2 103//2 99//2
f 104//3 101//3 103//3
f 102//4 97//4 101//4
f 103//5 97//5 99//5
f 100//6 102//6 104//6
f 106//1 107//1 105//1
f 108//2 111//2 107//2
f 112//3 109//3 111//3
f 110//4 105//4 109//4
f 111//5 105//5 107//5
f 108//6 110//6 112//6
f 114//1 115//1 113//1
f 116//2 119//2 115//2
f 120//3 117//3 119//3
f 118//4 113//4 117//4
f 119//5 113//5 115//5
f 116//6 118//6 120//6
f 58//1 60//1 59//1
f 60//2 64//2 63//2
f 64//3 62//3 61//3
f 62//4 58//4 57//4
f 63//5 61//5 57//5
f 60//6 58//6 62//6
f 82//1 84//1 83//1
f 84//2 88//2 87//2
f 88//3 86//3 85//3
f 86//4 82//4 81//4
f 87//5 85//5 81//5
f 84//6 82//6 86//6
f 90//1 92//1 91//1
f 92//2 96//2 95//2
f 96//3 94//3 93//3
f 94//4 90//4 89//4
f 95//5 93//5 89//5
f 92//6 90//6 94//6
f 98//1 100//1 99//1
f 100//2 104//2 103//2
f 104//3 102//3 101//3
f 102//4 98//4 97//4
f 103//5 101//5 97//5
f 100//6 98//6 102//6
f 106//1 108//1 107//1
f 108//2 112//2 111//2
f 112//3 110//3 109//3
f 110//4 106//4 105//4
f 111//5 109//5 105//5
f 108//6 106//6 110//6
f 114//1 116//1 115//1
f 116//2 120//2 119//2
f 120//3 118//3 117//3
f 118//4 114//4 113//4
f 119//5 117//5 113//5
f 116//6 114//6 118//6
usemtl logistics_grey
f 66//1 67//1 65//1
f 68//2 71//2 67//2
f 72//3 69//3 71//3
f 70//4 65//4 69//4
f 71//5 65//5 67//5
f 68//6 70//6 72//6
f 66//1 68//1 67//1
f 68//2 72//2 71//2
f 72//3 70//3 69//3
f 70//4 66//4 65//4
f 71//5 69//5 65//5
f 68//6 66//6 70//6
usemtl power_yellow
f 74//1 75//1 73//1
f 76//2 79//2 75//2
f 80//3 77//3 79//3
f 78//4 73//4 77//4
f 79//5 73//5 75//5
f 76//6 78//6 80//6
f 74//1 76//1 75//1
f 76//2 80//2 79//2
f 80//3 78//3 77//3
f 78//4 74//4 73//4
f 79//5 77//5 73//5
f 76//6 74//6 78//6
