# Blender 5.2.0 LTS
# www.blender.org
mtllib electric_mining_drill.mtl
o body
v -1.450000 0.000000 -1.100000
v -1.450000 0.140000 -1.100000
v -1.450000 0.000000 -1.400000
v -1.450000 0.140000 -1.400000
v 1.450000 0.000000 -1.100000
v 1.450000 0.140000 -1.100000
v 1.450000 0.000000 -1.400000
v 1.450000 0.140000 -1.400000
v -1.450000 0.000000 1.400000
v -1.450000 0.140000 1.400000
v -1.450000 0.000000 1.100000
v -1.450000 0.140000 1.100000
v 1.450000 0.000000 1.400000
v 1.450000 0.140000 1.400000
v 1.450000 0.000000 1.100000
v 1.450000 0.140000 1.100000
v 0.000000 0.500000 -0.300000
v -1.250000 0.140000 1.250000
v -1.250000 0.190000 1.300000
v -1.300000 0.190000 1.250000
v 0.150000 0.500000 -0.259808
v -1.250000 0.950000 1.300000
v -1.250000 1.000000 1.250000
v 0.259808 0.500000 -0.150000
v -1.300000 0.950000 1.250000
v -1.250000 0.140000 -1.250000
v 0.300000 0.500000 0.000000
v -1.300000 0.190000 -1.250000
v -1.250000 0.190000 -1.300000
v 0.259808 0.500000 0.150000
v -1.250000 1.000000 -1.250000
v -1.250000 0.950000 -1.300000
v 0.150000 0.500000 0.259808
v -1.300000 0.950000 -1.250000
v 0.000000 0.500000 0.300000
v 1.250000 0.140000 1.250000
v 1.300000 0.190000 1.250000
v 1.250000 0.190000 1.300000
v -0.150000 0.500000 0.259808
v 1.250000 1.000000 1.250000
v 1.250000 0.950000 1.300000
v -0.259808 0.500000 0.150000
v 1.300000 0.950000 1.250000
v 1.250000 0.140000 -1.250000
v -0.300000 0.500000 0.000000
v 1.250000 0.190000 -1.300000
v -0.259808 0.500000 -0.150000
v 1.300000 0.190000 -1.250000
v 1.250000 1.000000 -1.250000
v -0.150000 0.500000 -0.259808
v 1.300000 0.950000 -1.250000
v 1.250000 0.950000 -1.300000
v -0.300000 1.000000 0.000000
v -0.259808 1.000000 0.150000
v -0.259808 1.000000 -0.150000
v -0.150000 1.000000 -0.259808
v 0.150000 1.000000 -0.259808
v 0.204904 1.000000 -0.204904
v 0.000000 1.000000 -0.300000
v -0.204904 1.000000 0.204904
v -0.150000 1.000000 0.259808
v 0.150000 1.000000 0.259808
v 0.000000 1.000000 0.300000
v 0.300000 1.000000 0.000000
v 0.259808 1.000000 0.150000
v 0.259808 1.000000 -0.150000
v 0.000000 0.500000 -0.290000
v 0.000000 0.520000 -0.290000
v 0.205061 0.500000 -0.205061
v 0.205061 0.520000 -0.205061
v 0.290000 0.500000 0.000000
v 0.290000 0.520000 0.000000
v 0.205061 0.500000 0.205061
v 0.205061 0.520000 0.205061
v 0.000000 0.500000 0.290000
v 0.000000 0.520000 0.290000
v -0.205061 0.500000 0.205061
v -0.205061 0.520000 0.205061
v -0.290000 0.500000 0.000000
v -0.290000 0.520000 0.000000
v -0.205061 0.500000 -0.205061
v -0.205061 0.520000 -0.205061
v -0.550000 2.800000 0.550000
v -0.550000 2.920000 0.550000
v -0.550000 2.800000 -0.550000
v -0.550000 2.920000 -0.550000
v 0.550000 2.800000 0.550000
v 0.550000 2.920000 0.550000
v 0.550000 2.800000 -0.550000
v 0.550000 2.920000 -0.550000
v 1.300000 0.200000 0.250000
v 1.300000 0.450000 0.250000
v 1.300000 0.200000 -0.250000
v 1.300000 0.450000 -0.250000
v 1.450000 0.200000 0.250000
v 1.450000 0.450000 0.250000
v 1.450000 0.200000 -0.250000
v 1.450000 0.450000 -0.250000
v -1.500000 0.500000 -0.130000
v -1.300000 0.500000 -0.130000
v -1.500000 0.408076 -0.091924
v -1.300000 0.408076 -0.091924
v -1.500000 0.370000 0.000000
v -1.300000 0.370000 0.000000
v -1.500000 0.408076 0.091924
v -1.300000 0.408076 0.091924
v -1.500000 0.500000 0.130000
v -1.300000 0.500000 0.130000
v -1.500000 0.591924 0.091924
v -1.300000 0.591924 0.091924
v -1.500000 0.630000 0.000000
v -1.300000 0.630000 0.000000
v -1.500000 0.591924 -0.091924
v -1.300000 0.591924 -0.091924
v 1.280000 0.775000 -0.450000
v 1.280000 0.825000 -0.450000
v 1.280000 0.775000 -0.950000
v 1.280000 0.825000 -0.950000
v 1.305000 0.775000 -0.450000
v 1.305000 0.825000 -0.450000
v 1.305000 0.775000 -0.950000
v 1.305000 0.825000 -0.950000
v -0.490000 1.000000 0.490000
v -0.490000 2.800000 0.490000
v -0.490000 1.000000 0.410000
v -0.490000 2.800000 0.410000
v -0.410000 1.000000 0.490000
v -0.410000 2.800000 0.490000
v -0.410000 1.000000 0.410000
v -0.410000 2.800000 0.410000
v -0.490000 1.000000 -0.410000
v -0.490000 2.800000 -0.410000
v -0.490000 1.000000 -0.490000
v -0.490000 2.800000 -0.490000
v -0.410000 1.000000 -0.410000
v -0.410000 2.800000 -0.410000
v -0.410000 1.000000 -0.490000
v -0.410000 2.800000 -0.490000
v 0.410000 1.000000 0.490000
v 0.410000 2.800000 0.490000
v 0.410000 1.000000 0.410000
v 0.410000 2.800000 0.410000
v 0.490000 1.000000 0.490000
v 0.490000 2.800000 0.490000
v 0.490000 1.000000 0.410000
v 0.490000 2.800000 0.410000
v 0.410000 1.000000 -0.410000
v 0.410000 2.800000 -0.410000
v 0.410000 1.000000 -0.490000
v 0.410000 2.800000 -0.490000
v 0.490000 1.000000 -0.410000
v 0.490000 2.800000 -0.410000
v 0.490000 1.000000 -0.490000
v 0.490000 2.800000 -0.490000
v -0.410000 1.570000 -0.410000
v -0.410000 1.630000 -0.410000
v -0.410000 1.570000 -0.490000
v -0.410000 1.630000 -0.490000
v 0.410000 1.570000 -0.410000
v 0.410000 1.630000 -0.410000
v 0.410000 1.570000 -0.490000
v 0.410000 1.630000 -0.490000
v -0.410000 1.570000 0.490000
v -0.410000 1.630000 0.490000
v -0.410000 1.570000 0.410000
v -0.410000 1.630000 0.410000
v 0.410000 1.570000 0.490000
v 0.410000 1.630000 0.490000
v 0.410000 1.570000 0.410000
v 0.410000 1.630000 0.410000
v -0.410000 2.220000 -0.410000
v -0.410000 2.280000 -0.410000
v -0.410000 2.220000 -0.490000
v -0.410000 2.280000 -0.490000
v 0.410000 2.220000 -0.410000
v 0.410000 2.280000 -0.410000
v 0.410000 2.220000 -0.490000
v 0.410000 2.280000 -0.490000
v -0.410000 2.220000 0.490000
v -0.410000 2.280000 0.490000
v -0.410000 2.220000 0.410000
v -0.410000 2.280000 0.410000
v 0.410000 2.220000 0.490000
v 0.410000 2.280000 0.490000
v 0.410000 2.220000 0.410000
v 0.410000 2.280000 0.410000
v -0.470000 1.411217 0.410000
v -0.470000 1.451217 0.410000
v -0.470000 1.411217 -0.410000
v -0.470000 1.451217 -0.410000
v -0.430000 1.411217 0.410000
v -0.430000 1.451217 0.410000
v -0.430000 1.411217 -0.410000
v -0.430000 1.451217 -0.410000
v -0.470000 1.916958 0.410000
v -0.470000 1.956958 0.410000
v -0.470000 1.916958 -0.410000
v -0.470000 1.956958 -0.410000
v -0.430000 1.916958 0.410000
v -0.430000 1.956958 0.410000
v -0.430000 1.916958 -0.410000
v -0.430000 1.956958 -0.410000
v -0.470000 2.423998 0.410000
v -0.470000 2.463998 0.410000
v -0.470000 2.423998 -0.410000
v -0.470000 2.463998 -0.410000
v -0.430000 2.423998 0.410000
v -0.430000 2.463998 0.410000
v -0.430000 2.423998 -0.410000
v -0.430000 2.463998 -0.410000
v -0.673690 0.350000 -1.300000
v -0.673690 0.800000 -1.300000
v -0.673690 0.350000 -1.330000
v -0.673690 0.800000 -1.330000
v -0.633690 0.350000 -1.300000
v -0.633690 0.800000 -1.300000
v -0.633690 0.350000 -1.330000
v -0.633690 0.800000 -1.330000
v -0.339985 0.350000 -1.300000
v -0.339985 0.800000 -1.300000
v -0.339985 0.350000 -1.330000
v -0.339985 0.800000 -1.330000
v -0.299985 0.350000 -1.300000
v -0.299985 0.800000 -1.300000
v -0.299985 0.350000 -1.330000
v -0.299985 0.800000 -1.330000
v 0.092523 0.350000 -1.300000
v 0.092523 0.800000 -1.300000
v 0.092523 0.350000 -1.330000
v 0.092523 0.800000 -1.330000
v 0.132523 0.350000 -1.300000
v 0.132523 0.800000 -1.300000
v 0.132523 0.350000 -1.330000
v 0.132523 0.800000 -1.330000
v 0.492257 0.350000 -1.300000
v 0.492257 0.800000 -1.300000
v 0.492257 0.350000 -1.330000
v 0.492257 0.800000 -1.330000
v 0.532257 0.350000 -1.300000
v 0.532257 0.800000 -1.300000
v 0.532257 0.350000 -1.330000
v 0.532257 0.800000 -1.330000
vn -1.0000 -0.0000 -0.0000
vn -0.0000 -0.0000 -1.0000
vn 1.0000 -0.0000 -0.0000
vn -0.0000 -0.0000 1.0000
vn -0.0000 -1.0000 -0.0000
vn -0.0000 1.0000 -0.0000
vn -0.5774 -0.5774 0.5773
vn -0.5774 0.5774 0.5774
vn -0.5774 -0.5774 -0.5773
vn -0.5774 0.5774 -0.5774
vn 0.5774 -0.5774 0.5773
vn 0.5774 0.5774 0.5774
vn 0.5774 -0.5774 -0.5773
vn 0.5774 0.5774 -0.5774
vn -0.7071 -0.7071 -0.0000
vn -0.7071 -0.0000 0.7071
vn -0.7071 0.7071 -0.0000
vn -0.7071 -0.0000 -0.7071
vn -0.0000 -0.7071 -0.7071
vn -0.0000 0.7071 -0.7071
vn 0.7071 -0.0000 -0.7071
vn 0.7071 -0.7071 -0.0000
vn 0.7071 0.7071 -0.0000
vn 0.7071 -0.0000 0.7071
vn -0.0000 -0.7071 0.7071
vn -0.0000 0.7071 0.7071
vn -0.2588 -0.0000 0.9659
vn -0.9659 -0.0000 0.2588
vn -0.9659 -0.0000 -0.2588
vn -0.2588 -0.0000 -0.9659
vn 0.2588 -0.0000 -0.9659
vn 0.9659 -0.0000 -0.2588
vn 0.9659 -0.0000 0.2588
vn 0.2588 -0.0000 0.9659
vn 0.3827 -0.0000 -0.9239
vn 0.9239 -0.0000 -0.3827
vn 0.9239 -0.0000 0.3827
vn 0.3827 -0.0000 0.9239
vn -0.3827 -0.0000 0.9239
vn -0.9239 -0.0000 0.3827
vn -0.9239 -0.0000 -0.3827
vn -0.3827 -0.0000 -0.9239
vn -0.0000 -0.3827 -0.9239
vn -0.0000 -0.9239 -0.3827
vn -0.0000 -0.9239 0.3827
vn -0.0000 -0.3827 0.9239
vn -0.0000 0.3827 0.9239
vn -0.0000 0.9239 0.3827
vn -0.0000 0.9239 -0.3827
vn -0.0000 0.3827 -0.9239
s 0
usemtl steel_dark
f 2//1 3//1 1//1
f 4//2 7//2 3//2
f 8//3 5//3 7//3
f 6//4 1//4 5//4
f 7//5 1//5 3//5
f 4//6 6//6 8//6
f 10//1 11//1 9//1
f 12//2 15//2 11//2
f 16//3 13//3 15//3
f 14//4 9//4 13//4
f 15//5 9//5 11//5
f 12//6 14//6 16//6
f 84//1 85//1 83//1
f 86//2 89//2 85//2
f 90//3 87//3 89//3
f 88//4 83//4 87//4
f 89//5 83//5 85//5
f 86//6 88//6 90//6
f 2//1 4//1 3//1
f 4//2 8//2 7//2
f 8//3 6//3 5//3
f 6//4 2//4 1//4
f 7//5 5//5 1//5
f 4//6 2//6 6//6
f 10//1 12//1 11//1
f 12//2 16//2 15//2
f 16//3 14//3 13//3
f 14//4 10//4 9//4
f 15//5 13//5 9//5
f 12//6 10//6 14//6
f 84//1 86//1 85//1
f 86//2 90//2 89//2
f 90//3 88//3 87//3
f 88//4 84//4 83//4
f 89//5 87//5 83//5
f 86//6 84//6 88//6
usemtl mining_ochre
f 18//7 19//7 20//7
f 22//8 23//8 25//8
f 26//9 28//9 29//9
f 31//10 32//10 34//10
f 36//11 37//11 38//11
f 40//12 41//12 43//12
f 44//13 46//13 48//13
f 49//14 51//14 52//14
f 18//15 28//15 26//15
f 22//16 20//16 19//16
f 31//17 25//17 23//17
f 29//18 34//18 32//18
f 26//19 46//19 44//19
f 49//20 32//20 31//20
f 48//21 52//21 51//21
f 44//22 37//22 36//22
f 40//23 51//23 49//23
f 38//24 43//24 41//24
f 36//25 19//25 18//25
f 23//26 41//26 40//26
f 44//5 18//5 26//5
f 25//1 28//1 20//1
f 41//4 19//4 38//4
f 31//6 55//6 56//6
f 40//6 65//6 62//6
f 32//2 46//2 29//2
f 51//3 37//3 48//3
f 17//27 57//27 59//27
f 21//16 66//16 58//16
f 27//28 66//28 24//28
f 30//29 64//29 27//29
f 33//18 65//18 30//18
f 35//30 62//30 33//30
f 39//31 63//31 35//31
f 42//21 60//21 61//21
f 42//32 53//32 54//32
f 45//33 55//33 53//33
f 47//24 56//24 55//24
f 50//34 59//34 56//34
f 35//6 24//6 47//6
f 18//15 20//15 28//15
f 22//16 25//16 20//16
f 31//17 34//17 25//17
f 29//18 28//18 34//18
f 26//19 29//19 46//19
f 49//20 52//20 32//20
f 48//21 46//21 52//21
f 44//22 48//22 37//22
f 40//23 43//23 51//23
f 38//24 37//24 43//24
f 36//25 38//25 19//25
f 23//26 22//26 41//26
f 44//5 36//5 18//5
f 25//1 34//1 28//1
f 41//4 22//4 19//4
f 57//6 58//6 49//6
f 23//6 60//6 54//6
f 23//6 54//6 53//6
f 57//6 49//6 31//6
f 59//6 57//6 31//6
f 31//6 23//6 53//6
f 31//6 53//6 55//6
f 56//6 59//6 31//6
f 61//6 60//6 23//6
f 49//6 58//6 66//6
f 49//6 66//6 64//6
f 61//6 23//6 40//6
f 63//6 61//6 40//6
f 40//6 49//6 64//6
f 40//6 64//6 65//6
f 62//6 63//6 40//6
f 32//2 52//2 46//2
f 51//3 43//3 37//3
f 17//27 21//27 57//27
f 58//16 57//16 21//16
f 21//16 24//16 66//16
f 27//28 64//28 66//28
f 30//29 65//29 64//29
f 33//18 62//18 65//18
f 35//30 63//30 62//30
f 39//31 61//31 63//31
f 61//21 39//21 42//21
f 42//21 54//21 60//21
f 42//32 45//32 53//32
f 45//33 47//33 55//33
f 47//24 50//24 56//24
f 50//34 17//34 59//34
f 47//6 45//6 42//6
f 42//6 39//6 35//6
f 35//6 33//6 30//6
f 30//6 27//6 24//6
f 24//6 21//6 17//6
f 17//6 50//6 47//6
f 47//6 42//6 35//6
f 35//6 30//6 24//6
f 24//6 17//6 47//6
usemtl soot
f 68//35 69//35 67//35
f 70//36 71//36 69//36
f 72//37 73//37 71//37
f 74//38 75//38 73//38
f 76//39 77//39 75//39
f 78//40 79//40 77//40
f 80//6 76//6 72//6
f 80//41 81//41 79//41
f 82//42 67//42 81//42
f 73//5 77//5 81//5
f 68//35 70//35 69//35
f 70//36 72//36 71//36
f 72//37 74//37 73//37
f 74//38 76//38 75//38
f 76//39 78//39 77//39
f 78//40 80//40 79//40
f 72//6 70//6 68//6
f 68//6 82//6 80//6
f 80//6 78//6 76//6
f 76//6 74//6 72//6
f 72//6 68//6 80//6
f 80//41 82//41 81//41
f 82//42 68//42 67//42
f 81//5 67//5 69//5
f 69//5 71//5 73//5
f 73//5 75//5 77//5
f 77//5 79//5 81//5
f 81//5 69//5 73//5
usemtl galvanised
f 92//1 93//1 91//1
f 94//2 97//2 93//2
f 98//3 95//3 97//3
f 96//4 91//4 95//4
f 97//5 91//5 93//5
f 94//6 96//6 98//6
f 188//1 189//1 187//1
f 190//2 193//2 189//2
f 194//3 191//3 193//3
f 192//4 187//4 191//4
f 193//5 187//5 189//5
f 190//6 192//6 194//6
f 196//1 197//1 195//1
f 198//2 201//2 197//2
f 202//3 199//3 201//3
f 200//4 195//4 199//4
f 201//5 195//5 197//5
f 198//6 200//6 202//6
f 204//1 205//1 203//1
f 206//2 209//2 205//2
f 210//3 207//3 209//3
f 208//4 203//4 207//4
f 209//5 203//5 205//5
f 206//6 208//6 210//6
f 92//1 94//1 93//1
f 94//2 98//2 97//2
f 98//3 96//3 95//3
f 96//4 92//4 91//4
f 97//5 95//5 91//5
f 94//6 92//6 96//6
f 188//1 190//1 189//1
f 190//2 194//2 193//2
f 194//3 192//3 191//3
f 192//4 188//4 187//4
f 193//5 191//5 187//5
f 190//6 188//6 192//6
f 196//1 198//1 197//1
f 198//2 202//2 201//2
f 202//3 200//3 199//3
f 200//4 196//4 195//4
f 201//5 199//5 195//5
f 198//6 196//6 200//6
f 204//1 206//1 205//1
f 206//2 210//2 209//2
f 210//3 208//3 207//3
f 208//4 204//4 203//4
f 209//5 207//5 203//5
f 206//6 204//6 208//6
usemtl fluids_teal
f 100//43 101//43 99//43
f 102//44 103//44 101//44
f 104//45 105//45 103//45
f 106//46 107//46 105//46
f 108//47 109//47 107//47
f 110//48 111//48 109//48
f 112//3 108//3 104//3
f 112//49 113//49 111//49
f 114//50 99//50 113//50
f 105//1 109//1 113//1
f 100//43 102//43 101//43
f 102//44 104//44 103//44
f 104//45 106//45 105//45
f 106//46 108//46 107//46
f 108//47 110//47 109//47
f 110//48 112//48 111//48
f 104//3 102//3 100//3
f 100//3 114//3 112//3
f 112//3 110//3 108//3
f 108//3 106//3 104//3
f 104//3 100//3 112//3
f 112//49 114//49 113//49
f 114//50 100//50 99//50
f 113//1 99//1 101//1
f 101//1 103//1 105//1
f 105//1 107//1 109//1
f 109//1 111//1 113//1
f 113//1 101//1 105//1
usemtl electric_glow
f 116//1 117//1 115//1
f 118//2 121//2 117//2
f 122//3 119//3 121//3
f 120//4 115//4 119//4
f 121//5 115//5 117//5
f 118//6 120//6 122//6
f 116//1 118//1 117//1
f 118//2 122//2 121//2
f 122//3 120//3 119//3
f 120//4 116//4 115//4
f 121//5 119//5 115//5
f 118//6 116//6 120//6
usemtl steel
f 124//1 125//1 123//1
f 126//2 129//2 125//2
f 130//3 127//3 129//3
f 128//4 123//4 127//4
f 129//5 123//5 125//5
f 126//6 128//6 130//6
f 132//1 133//1 131//1
f 134//2 137//2 133//2
f 138//3 135//3 137//3
f 136//4 131//4 135//4
f 137//5 131//5 133//5
f 134//6 136//6 138//6
f 140//1 141//1 139//1
f 142//2 145//2 141//2
f 146//3 143//3 145//3
f 144//4 139//4 143//4
f 145//5 139//5 141//5
f 142//6 144//6 146//6
f 148//1 149//1 147//1
f 150//2 153//2 149//2
f 154//3 151//3 153//3
f 152//4 147//4 151//4
f 153//5 147//5 149//5
f 150//6 152//6 154//6
f 156//1 157//1 155//1
f 158//2 161//2 157//2
f 162//3 159//3 161//3
f 160//4 155//4 159//4
f 161//5 155//5 157//5
f 158//6 160//6 162//6
f 164//1 165//1 163//1
f 166//2 169//2 165//2
f 170//3 167//3 169//3
f 168//4 163//4 167//4
f 169//5 163//5 165//5
f 166//6 168//6 170//6
f 172//1 173//1 171//1
f 174//2 177//2 173//2
f 178//3 175//3 177//3
f 176//4 171//4 175//4
f 177//5 171//5 173//5
f 174//6 176//6 178//6
f 180//1 181//1 179//1
f 182//2 185//2 181//2
f 186//3 183//3 185//3
f 184//4 179//4 183//4
f 185//5 179//5 181//5
f 182//6 184//6 186//6
f 212//1 213//1 211//1
f 214//2 217//2 213//2
f 218//3 215//3 217//3
f 216//4 211//4 215//4
f 217//5 211//5 213//5
f 214//6 216//6 218//6
f 220//1 221//1 219//1
f 222//2 225//2 221//2
f 226//3 223//3 225//3
f 224//4 219//4 223//4
f 225//5 219//5 221//5
f 222//6 224//6 226//6
f 228//1 229//1 227//1
f 230//2 233//2 229//2
f 234//3 231//3 233//3
f 232//4 227//4 231//4
f 233//5 227//5 229//5
f 230//6 232//6 234//6
f 236//1 237//1 235//1
f 238//2 241//2 237//2
f 242//3 239//3 241//3
f 240//4 235//4 239//4
f 241//5 235//5 237//5
f 238//6 240//6 242//6
f 124//1 126//1 125//1
f 126//2 130//2 129//2
f 130//3 128//3 127//3
f 128//4 124//4 123//4
f 129//5 127//5 123//5
f 126//6 124//6 128//6
f 132//1 134//1 133//1
f 134//2 138//2 137//2
f 138//3 136//3 135//3
f 136//4 132//4 131//4
f 137//5 135//5 131//5
f 134//6 132//6 136//6
f 140//1 142//1 141//1
f 142//2 146//2 145//2
f 146//3 144//3 143//3
f 144//4 140//4 139//4
f 145//5 143//5 139//5
f 142//6 140//6 144//6
f 148//1 150//1 149//1
f 150//2 154//2 153//2
f 154//3 152//3 151//3
f 152//4 148//4 147//4
f 153//5 151//5 147//5
f 150//6 148//6 152//6
f 156//1 158//1 157//1
f 158//2 162//2 161//2
f 162//3 160//3 159//3
f 160//4 156//4 155//4
f 161//5 159//5 155//5
f 158//6 156//6 160//6
f 164//1 166//1 165//1
f 166//2 170//2 169//2
f 170//3 168//3 167//3
f 168//4 164//4 163//4
f 169//5 167//5 163//5
f 166//6 164//6 168//6
f 172//1 174//1 173//1
f 174//2 178//2 177//2
f 178//3 176//3 175//3
f 176//4 172//4 171//4
f 177//5 175//5 171//5
f 174//6 172//6 176//6
f 180//1 182//1 181//1
f 182//2 186//2 185//2
f 186//3 184//3 183//3
f 184//4 180//4 179//4
f 185//5 183//5 179//5
f 182//6 180//6 184//6
f 212//1 214//1 213//1
f 214//2 218//2 217//2
f 218//3 216//3 215//3
f 216//4 212//4 211//4
f 217//5 215//5 211//5
f 214//6 212//6 216//6
f 220//1 222//1 221//1
f 222//2 226//2 225//2
f 226//3 224//3 223//3
f 224//4 220//4 219//4
f 225//5 223//5 219//5
f 222//6 220//6 224//6
f 228//1 230//1 229//1
f 230//2 234//2 233//2
f 234//3 232//3 231//3
f 232//4 228//4 227//4
f 233//5 231//5 227//5
f 230//6 228//6 232//6
f 236//1 238//1 237//1
f 238//2 242//2 241//2
f 242//3 240//3 239//3
f 240//4 236//4 235//4
f 241//5 239//5 235//5
f 238//6 236//6 240//6
o part
v -0.220000 2.150000 0.190000
v -0.220000 2.180000 0.220000
v -0.250000 2.180000 0.190000
v -0.220000 2.520000 0.220000
v -0.220000 2.550000 0.190000
v -0.250000 2.520000 0.190000
v -0.220000 2.150000 -0.190000
v -0.250000 2.180000 -0.190000
v -0.220000 2.180000 -0.220000
v -0.220000 2.550000 -0.190000
v -0.220000 2.520000 -0.220000
v -0.250000 2.520000 -0.190000
v 0.220000 2.150000 0.190000
v 0.250000 2.180000 0.190000
v 0.220000 2.180000 0.220000
v 0.220000 2.550000 0.190000
v 0.220000 2.520000 0.220000
v 0.250000 2.520000 0.190000
v 0.220000 2.150000 -0.190000
v 0.220000 2.180000 -0.220000
v 0.250000 2.180000 -0.190000
v 0.220000 2.550000 -0.190000
v 0.250000 2.520000 -0.190000
v 0.220000 2.520000 -0.220000
v 0.230000 2.430000 0.150000
v 0.230000 2.470000 0.150000
v 0.230000 2.430000 -0.150000
v 0.230000 2.470000 -0.150000
v 0.255000 2.430000 0.150000
v 0.255000 2.470000 0.150000
v 0.255000 2.430000 -0.150000
v 0.255000 2.470000 -0.150000
v 0.000000 1.250000 -0.070000
v 0.000000 2.150000 -0.070000
v 0.049497 1.250000 -0.049497
v 0.049497 2.150000 -0.049497
v 0.070000 1.250000 0.000000
v 0.070000 2.150000 0.000000
v 0.049497 1.250000 0.049497
v 0.049497 2.150000 0.049497
v 0.000000 1.250000 0.070000
v 0.000000 2.150000 0.070000
v -0.049497 1.250000 0.049497
v -0.049497 2.150000 0.049497
v -0.070000 1.250000 0.000000
v -0.070000 2.150000 0.000000
v -0.049497 1.250000 -0.049497
v -0.049497 2.150000 -0.049497
v 0.000000 0.950000 0.000000
v 0.000000 1.250000 -0.180000
v 0.127279 1.250000 -0.127279
v 0.180000 1.250000 0.000000
v 0.127279 1.250000 0.127279
v 0.000000 1.250000 0.180000
v -0.127279 1.250000 0.127279
v -0.180000 1.250000 0.000000
v -0.127279 1.250000 -0.127279
vn -0.5774 -0.5774 0.5773
vn -0.5774 0.5774 0.5773
vn -0.5774 -0.5774 -0.5773
vn -0.5774 0.5774 -0.5773
vn 0.5774 -0.5774 0.5773
vn 0.5774 0.5774 0.5773
vn 0.5774 -0.5774 -0.5773
vn 0.5774 0.5774 -0.5773
vn -0.7071 -0.7071 -0.0000
vn -0.7071 -0.0000 0.7071
vn -0.7071 0.7071 -0.0000
vn -0.7071 -0.0000 -0.7071
vn -0.0000 -0.7071 -0.7071
vn -0.0000 0.7071 -0.7071
vn 0.7071 -0.0000 -0.7071
vn 0.7071 -0.7071 -0.0000
vn 0.7071 0.7071 -0.0000
vn 0.7071 -0.0000 0.7071
vn -0.0000 -0.7071 0.7071
vn -0.0000 0.7071 0.7071
vn -0.0000 -1.0000 -0.0000
vn -1.0000 -0.0000 -0.0000
vn -0.0000 -0.0000 1.0000
vn -0.0000 1.0000 -0.0000
vn -0.0000 -0.0000 -1.0000
vn 1.0000 -0.0000 -0.0000
vn 0.3827 -0.0000 -0.9239
vn 0.9239 -0.0000 -0.3827
vn 0.9239 -0.0000 0.3827
vn 0.3827 -0.0000 0.9239
vn -0.3827 -0.0000 0.9239
vn -0.9239 -0.0000 0.3827
vn -0.9239 -0.0000 -0.3827
vn -0.3827 -0.0000 -0.9239
vn 0.3347 -0.4848 -0.8080
vn 0.8080 -0.4848 -0.3347
vn 0.8080 -0.4848 0.3347
vn 0.3347 -0.4848 0.8080
vn -0.3347 -0.4848 0.8080
vn -0.8080 -0.4848 0.3347
vn -0.8080 -0.4848 -0.3347
vn -0.3347 -0.4848 -0.8080
s 0
usemtl galvanised
f 243//51 244//51 245//51
f 246//52 247//52 248//52
f 249//53 250//53 251//53
f 252//54 253//54 254//54
f 255//55 256//55 257//55
f 258//56 259//56 260//56
f 261//57 262//57 263//57
f 264//58 265//58 266//58
f 243//59 250//59 249//59
f 246//60 245//60 244//60
f 252//61 248//61 247//61
f 251//62 254//62 253//62
f 249//63 262//63 261//63
f 264//64 253//64 252//64
f 263//65 266//65 265//65
f 261//66 256//66 255//66
f 258//67 265//67 264//67
f 257//68 260//68 259//68
f 255//69 244//69 243//69
f 247//70 259//70 258//70
f 261//71 243//71 249//71
f 248//72 250//72 245//72
f 259//73 244//73 257//73
f 252//74 258//74 264//74
f 253//75 262//75 251//75
f 265//76 256//76 263//76
f 243//59 245//59 250//59
f 246//60 248//60 245//60
f 252//61 254//61 248//61
f 251//62 250//62 254//62
f 249//63 251//63 262//63
f 264//64 266//64 253//64
f 263//65 262//65 266//65
f 261//66 263//66 256//66
f 258//67 260//67 265//67
f 257//68 256//68 260//68
f 255//69 257//69 244//69
f 247//70 246//70 259//70
f 261//71 255//71 243//71
f 248//72 254//72 250//72
f 259//73 246//73 244//73
f 252//74 247//74 258//74
f 253//75 266//75 262//75
f 265//76 260//76 256//76
usemtl electric_glow
f 268//72 269//72 267//72
f 270//75 273//75 269//75
f 274//76 271//76 273//76
f 272//73 267//73 271//73
f 273//71 267//71 269//71
f 270//74 272//74 274//74
f 268//72 270//72 269//72
f 270//75 274//75 273//75
f 274//76 272//76 271//76
f 272//73 268//73 267//73
f 273//71 271//71 267//71
f 270//74 268//74 272//74
usemtl steel
f 276//77 277//77 275//77
f 278//78 279//78 277//78
f 280//79 281//79 279//79
f 282//80 283//80 281//80
f 284//81 285//81 283//81
f 286//82 287//82 285//82
f 288//74 284//74 280//74
f 288//83 289//83 287//83
f 290//84 275//84 289//84
f 281//71 285//71 289//71
f 276//77 278//77 277//77
f 278//78 280//78 279//78
f 280//79 282//79 281//79
f 282//80 284//80 283//80
f 284//81 286//81 285//81
f 286//82 288//82 287//82
f 280//74 278//74 276//74
f 276//74 290//74 288//74
f 288//74 286//74 284//74
f 284//74 282//74 280//74
f 280//74 276//74 288//74
f 288//83 290//83 289//83
f 290//84 276//84 275//84
f 289//71 275//71 277//71
f 277//71 279//71 281//71
f 281//71 283//71 285//71
f 285//71 287//71 289//71
f 289//71 277//71 281//71
usemtl mining_ochre
f 291//85 292//85 293//85
f 291//86 293//86 294//86
f 291//87 294//87 295//87
f 291//88 295//88 296//88
f 291//89 296//89 297//89
f 291//90 297//90 298//90
f 298//74 296//74 294//74
f 291//91 298//91 299//91
f 291//92 299//92 292//92
f 294//74 293//74 292//74
f 292//74 299//74 298//74
f 298//74 297//74 296//74
f 296//74 295//74 294//74
f 294//74 292//74 298//74
