# Blender 5.2.0 LTS
# www.blender.org
mtllib lab.mtl
o body
v -1.450000 0.000000 1.450000
v -1.450000 0.100000 1.450000
v -1.450000 0.000000 -1.450000
v -1.450000 0.100000 -1.450000
v 1.450000 0.000000 1.450000
v 1.450000 0.100000 1.450000
v 1.450000 0.000000 -1.450000
v 1.450000 0.100000 -1.450000
v -1.250000 0.100000 1.250000
v -1.250000 0.150000 1.300000
v -1.300000 0.150000 1.250000
v -1.250000 0.850000 1.300000
v -1.250000 0.900000 1.250000
v -1.300000 0.850000 1.250000
v -1.250000 0.100000 -1.250000
v -1.300000 0.150000 -1.250000
v -1.250000 0.150000 -1.300000
v -1.250000 0.900000 -1.250000
v -1.250000 0.850000 -1.300000
v -1.300000 0.850000 -1.250000
v 1.250000 0.100000 1.250000
v 1.300000 0.150000 1.250000
v 1.250000 0.150000 1.300000
v 1.250000 0.900000 1.250000
v 1.250000 0.850000 1.300000
v 1.300000 0.850000 1.250000
v 1.250000 0.100000 -1.250000
v 1.250000 0.150000 -1.300000
v 1.300000 0.150000 -1.250000
v 1.250000 0.900000 -1.250000
v 1.300000 0.850000 -1.250000
v 1.250000 0.850000 -1.300000
v -1.340000 0.900000 1.340000
v -1.340000 0.980000 1.340000
v -1.340000 0.900000 -1.340000
v -1.340000 0.980000 -1.340000
v 1.340000 0.900000 1.340000
v 1.340000 0.980000 1.340000
v 1.340000 0.900000 -1.340000
v 1.340000 0.980000 -1.340000
v 0.000000 0.980000 -0.950000
v 0.000000 1.700000 -0.600000
v 0.671751 0.980000 -0.671751
v 0.424264 1.700000 -0.424264
v 0.950000 0.980000 0.000000
v 0.600000 1.700000 0.000000
v 0.671751 0.980000 0.671751
v 0.424264 1.700000 0.424264
v 0.000000 0.980000 0.950000
v 0.000000 1.700000 0.600000
v -0.671751 0.980000 0.671751
v -0.424264 1.700000 0.424264
v -0.950000 0.980000 0.000000
v -0.600000 1.700000 0.000000
v -0.671751 0.980000 -0.671751
v -0.424264 1.700000 -0.424264
v 0.000000 1.300000 -0.820000
v 0.000000 1.380000 -0.820000
v 0.579828 1.300000 -0.579828
v 0.579828 1.380000 -0.579828
v 0.820000 1.300000 0.000000
v 0.820000 1.380000 0.000000
v 0.579828 1.300000 0.579828
v 0.579828 1.380000 0.579828
v 0.000000 1.300000 0.820000
v 0.000000 1.380000 0.820000
v -0.579828 1.300000 0.579828
v -0.579828 1.380000 0.579828
v -0.820000 1.300000 0.000000
v -0.820000 1.380000 0.000000
v -0.579828 1.300000 -0.579828
v -0.579828 1.380000 -0.579828
v 0.000000 1.700000 -0.620000
v 0.000000 1.800000 -0.620000
v 0.438406 1.700000 -0.438406
v 0.438406 1.800000 -0.438406
v 0.620000 1.700000 0.000000
v 0.620000 1.800000 0.000000
v 0.438406 1.700000 0.438406
v 0.438406 1.800000 0.438406
v 0.000000 1.700000 0.620000
v 0.000000 1.800000 0.620000
v -0.438406 1.700000 0.438406
v -0.438406 1.800000 0.438406
v -0.620000 1.700000 0.000000
v -0.620000 1.800000 0.000000
v -0.438406 1.700000 -0.438406
v -0.438406 1.800000 -0.438406
v -0.700000 0.980000 -0.790000
v -0.700000 1.900000 -0.790000
v -0.665359 0.980000 -0.770000
v -0.665359 1.900000 -0.770000
v -0.665359 0.980000 -0.730000
v -0.665359 1.900000 -0.730000
v -0.700000 0.980000 -0.710000
v -0.700000 1.900000 -0.710000
v -0.734641 0.980000 -0.730000
v -0.734641 1.900000 -0.730000
v -0.734641 0.980000 -0.770000
v -0.734641 1.900000 -0.770000
v -0.700000 1.850000 -0.790000
v -0.700000 1.950000 -0.950000
v -0.671716 1.850000 -0.778284
v -0.558579 1.950000 -0.891421
v -0.660000 1.850000 -0.750000
v -0.500000 1.950000 -0.750000
v -0.671716 1.850000 -0.721716
v -0.558579 1.950000 -0.608579
v -0.700000 1.850000 -0.710000
v -0.700000 1.950000 -0.550000
v -0.728284 1.850000 -0.721716
v -0.841421 1.950000 -0.608579
v -0.740000 1.850000 -0.750000
v -0.900000 1.950000 -0.750000
v -0.728284 1.850000 -0.778284
v -0.841421 1.950000 -0.891421
v 1.280000 0.620000 0.850000
v 1.280000 0.680000 0.850000
v 1.280000 0.620000 -0.250000
v 1.280000 0.680000 -0.250000
v 1.305000 0.620000 0.850000
v 1.305000 0.680000 0.850000
v 1.305000 0.620000 -0.250000
v 1.305000 0.680000 -0.250000
v 1.280000 0.420000 0.750000
v 1.280000 0.480000 0.750000
v 1.280000 0.420000 0.150000
v 1.280000 0.480000 0.150000
v 1.305000 0.420000 0.750000
v 1.305000 0.480000 0.750000
v 1.305000 0.420000 0.150000
v 1.305000 0.480000 0.150000
v 1.310000 0.200000 -0.485000
v 1.310000 0.210000 -0.475000
v 1.300000 0.210000 -0.485000
v 1.310000 0.790000 -0.475000
v 1.310000 0.800000 -0.485000
v 1.300000 0.790000 -0.485000
v 1.310000 0.200000 -1.015000
v 1.300000 0.210000 -1.015000
v 1.310000 0.210000 -1.025000
v 1.310000 0.800000 -1.015000
v 1.310000 0.790000 -1.025000
v 1.300000 0.790000 -1.015000
v 1.320000 0.200000 -0.485000
v 1.330000 0.210000 -0.485000
v 1.320000 0.210000 -0.475000
v 1.320000 0.800000 -0.485000
v 1.320000 0.790000 -0.475000
v 1.330000 0.790000 -0.485000
v 1.320000 0.200000 -1.015000
v 1.320000 0.210000 -1.025000
v 1.330000 0.210000 -1.015000
v 1.320000 0.800000 -1.015000
v 1.330000 0.790000 -1.015000
v 1.320000 0.790000 -1.025000
v 1.350000 0.635000 -0.612500
v 1.350000 0.665000 -0.612500
v 1.350000 0.635000 -0.887500
v 1.350000 0.665000 -0.887500
v 1.380000 0.635000 -0.612500
v 1.380000 0.665000 -0.612500
v 1.380000 0.635000 -0.887500
v 1.380000 0.665000 -0.887500
v -0.508025 0.300000 -1.300000
v -0.508025 0.750000 -1.300000
v -0.508025 0.300000 -1.330000
v -0.508025 0.750000 -1.330000
v -0.468025 0.300000 -1.300000
v -0.468025 0.750000 -1.300000
v -0.468025 0.300000 -1.330000
v -0.468025 0.750000 -1.330000
v -0.132549 0.300000 -1.300000
v -0.132549 0.750000 -1.300000
v -0.132549 0.300000 -1.330000
v -0.132549 0.750000 -1.330000
v -0.092549 0.300000 -1.300000
v -0.092549 0.750000 -1.300000
v -0.092549 0.300000 -1.330000
v -0.092549 0.750000 -1.330000
v 0.426154 0.300000 -1.300000
v 0.426154 0.750000 -1.300000
v 0.426154 0.300000 -1.330000
v 0.426154 0.750000 -1.330000
v 0.466154 0.300000 -1.300000
v 0.466154 0.750000 -1.300000
v 0.466154 0.300000 -1.330000
v 0.466154 0.750000 -1.330000
vn -1.0000 -0.0000 -0.0000
vn -0.0000 -0.0000 -1.0000
vn 1.0000 -0.0000 -0.0000
vn -0.0000 -0.0000 1.0000
vn -0.0000 -1.0000 -0.0000
vn -0.0000 1.0000 -0.0000
vn -0.5774 -0.5774 0.5773
vn -0.5774 0.5774 0.5774
vn -0.5774 -0.5774 -0.5773
vn -0.5774 0.5774 -0.5774
vn 0.5774 -0.5774 0.5773
vn 0.5774 0.5774 0.5774
vn 0.5774 -0.5774 -0.5773
vn 0.5774 0.5774 -0.5774
vn -0.7071 -0.7071 -0.0000
vn -0.7071 -0.0000 0.7071
vn -0.7071 0.7071 -0.0000
vn -0.7071 -0.0000 -0.7071
vn -0.0000 -0.7071 -0.7071
vn -0.0000 0.7071 -0.7071
vn 0.7071 -0.0000 -0.7071
vn 0.7071 -0.7071 -0.0000
vn 0.7071 0.7071 -0.0000
vn 0.7071 -0.0000 0.7071
vn -0.0000 -0.7071 0.7071
vn -0.0000 0.7071 0.7071
vn 0.3491 0.4097 -0.8428
vn 0.8428 0.4097 -0.3491
vn 0.8428 0.4097 0.3491
vn 0.3491 0.4097 0.8428
vn -0.3491 0.4097 0.8428
vn -0.8428 0.4097 0.3491
vn -0.8428 0.4097 -0.3491
vn -0.3491 0.4097 -0.8428
vn 0.3827 -0.0000 -0.9239
vn 0.9239 -0.0000 -0.3827
vn 0.9239 -0.0000 0.3827
vn 0.3827 -0.0000 0.9239
vn -0.3827 -0.0000 0.9239
vn -0.9239 -0.0000 0.3827
vn -0.9239 -0.0000 -0.3827
vn -0.3827 -0.0000 -0.9239
vn 0.5000 -0.0000 -0.8660
vn 0.5000 -0.0000 0.8660
vn -0.5000 -0.0000 0.8660
vn -0.5000 -0.0000 -0.8660
vn 0.2144 -0.8283 -0.5177
vn 0.5177 -0.8283 -0.2144
vn 0.5177 -0.8283 0.2144
vn 0.2144 -0.8283 0.5177
vn -0.2144 -0.8283 0.5177
vn -0.5177 -0.8283 0.2144
vn -0.5177 -0.8283 -0.2144
vn -0.2144 -0.8283 -0.5177
vn -0.5774 -0.5774 0.5774
vn -0.5774 -0.5774 -0.5774
vn 0.5774 -0.5774 0.5774
vn 0.5774 -0.5774 -0.5774
s 0
usemtl steel_dark
f 2//1 3//1 1//1
f 4//2 7//2 3//2
f 8//3 5//3 7//3
f 6//4 1//4 5//4
f 7//5 1//5 3//5
f 4//6 6//6 8//6
f 2//1 4//1 3//1
f 4//2 8//2 7//2
f 8//3 6//3 5//3
f 6//4 2//4 1//4
f 7//5 5//5 1//5
f 4//6 2//6 6//6
usemtl science_white
f 9//7 10//7 11//7
f 12//8 13//8 14//8
f 15//9 16//9 17//9
f 18//10 19//10 20//10
f 21//11 22//11 23//11
f 24//12 25//12 26//12
f 27//13 28//13 29//13
f 30//14 31//14 32//14
f 9//15 16//15 15//15
f 12//16 11//16 10//16
f 18//17 14//17 13//17
f 17//18 20//18 19//18
f 15//19 28//19 27//19
f 30//20 19//20 18//20
f 29//21 32//21 31//21
f 27//22 22//22 21//22
f 24//23 31//23 30//23
f 23//24 26//24 25//24
f 21//25 10//25 9//25
f 13//26 25//26 24//26
f 27//5 9//5 15//5
f 14//1 16//1 11//1
f 25//4 10//4 23//4
f 18//6 24//6 30//6
f 19//2 28//2 17//2
f 31//3 22//3 29//3
f 74//35 75//35 73//35
f 76//36 77//36 75//36
f 78//37 79//37 77//37
f 80//38 81//38 79//38
f 82//39 83//39 81//39
f 84//40 85//40 83//40
f 86//6 82//6 78//6
f 86//41 87//41 85//41
f 88//42 73//42 87//42
f 79//5 83//5 87//5
f 9//15 11//15 16//15
f 12//16 14//16 11//16
f 18//17 20//17 14//17
f 17//18 16//18 20//18
f 15//19 17//19 28//19
f 30//20 32//20 19//20
f 29//21 28//21 32//21
f 27//22 29//22 22//22
f 24//23 26//23 31//23
f 23//24 22//24 26//24
f 21//25 23//25 10//25
f 13//26 12//26 25//26
f 27//5 21//5 9//5
f 14//1 20//1 16//1
f 25//4 12//4 10//4
f 18//6 13//6 24//6
f 19//2 32//2 28//2
f 31//3 26//3 22//3
f 74//35 76//35 75//35
f 76//36 78//36 77//36
f 78//37 80//37 79//37
f 80//38 82//38 81//38
f 82//39 84//39 83//39
f 84//40 86//40 85//40
f 78//6 76//6 74//6
f 74//6 88//6 86//6
f 86//6 84//6 82//6
f 82//6 80//6 78//6
f 78//6 74//6 86//6
f 86//41 88//41 87//41
f 88//42 74//42 73//42
f 87//5 73//5 75//5
f 75//5 77//5 79//5
f 79//5 81//5 83//5
f 83//5 85//5 87//5
f 87//5 75//5 79//5
usemtl steel
f 34//1 35//1 33//1
f 36//2 39//2 35//2
f 40//3 37//3 39//3
f 38//4 33//4 37//4
f 39//5 33//5 35//5
f 36//6 38//6 40//6
f 90//43 91//43 89//43
f 92//3 93//3 91//3
f 94//44 95//44 93//44
f 96//45 97//45 95//45
f 90//6 98//6 94//6
f 98//1 99//1 97//1
f 100//46 89//46 99//46
f 91//5 95//5 99//5
f 133//55 134//55 135//55
f 136//8 137//8 138//8
f 139//56 140//56 141//56
f 142//10 143//10 144//10
f 145//57 146//57 147//57
f 148//12 149//12 150//12
f 151//58 152//58 153//58
f 154//14 155//14 156//14
f 133//15 140//15 139//15
f 136//16 135//16 134//16
f 142//17 138//17 137//17
f 141//18 144//18 143//18
f 139//19 152//19 151//19
f 154//20 143//20 142//20
f 153//21 156//21 155//21
f 151//22 146//22 145//22
f 148//23 155//23 154//23
f 147//24 150//24 149//24
f 145//25 134//25 133//25
f 137//26 149//26 148//26
f 151//5 133//5 139//5
f 138//1 140//1 135//1
f 149//4 134//4 147//4
f 142//6 148//6 154//6
f 143//2 152//2 141//2
f 155//3 146//3 153//3
f 166//1 167//1 165//1
f 168//2 171//2 167//2
f 172//3 169//3 171//3
f 170//4 165//4 169//4
f 171//5 165//5 167//5
f 168//6 170//6 172//6
f 174//1 175//1 173//1
f 176//2 179//2 175//2
f 180//3 177//3 179//3
f 178//4 173//4 177//4
f 179//5 173//5 175//5
f 176//6 178//6 180//6
f 182//1 183//1 181//1
f 184//2 187//2 183//2
f 188//3 185//3 187//3
f 186//4 181//4 185//4
f 187//5 181//5 183//5
f 184//6 186//6 188//6
f 34//1 36//1 35//1
f 36//2 40//2 39//2
f 40//3 38//3 37//3
f 38//4 34//4 33//4
f 39//5 37//5 33//5
f 36//6 34//6 38//6
f 90//43 92//43 91//43
f 92//3 94//3 93//3
f 94//44 96//44 95//44
f 96//45 98//45 97//45
f 94//6 92//6 90//6
f 90//6 100//6 98//6
f 98//6 96//6 94//6
f 98//1 100//1 99//1
f 100//46 90//46 89//46
f 99//5 89//5 91//5
f 91//5 93//5 95//5
f 95//5 97//5 99//5
f 133//15 135//15 140//15
f 136//16 138//16 135//16
f 142//17 144//17 138//17
f 141//18 140//18 144//18
f 139//19 141//19 152//19
f 154//20 156//20 143//20
f 153//21 152//21 156//21
f 151//22 153//22 146//22
f 148//23 150//23 155//23
f 147//24 146//24 150//24
f 145//25 147//25 134//25
f 137//26 136//26 149//26
f 151//5 145//5 133//5
f 138//1 144//1 140//1
f 149//4 136//4 134//4
f 142//6 137//6 148//6
f 143//2 156//2 152//2
f 155//3 150//3 146//3
f 166//1 168//1 167//1
f 168//2 172//2 171//2
f 172//3 170//3 169//3
f 170//4 166//4 165//4
f 171//5 169//5 165//5
f 168//6 166//6 170//6
f 174//1 176//1 175//1
f 176//2 180//2 179//2
f 180//3 178//3 177//3
f 178//4 174//4 173//4
f 179//5 177//5 173//5
f 176//6 174//6 178//6
f 182//1 184//1 183//1
f 184//2 188//2 187//2
f 188//3 186//3 185//3
f 186//4 182//4 181//4
f 187//5 185//5 181//5
f 184//6 182//6 186//6
usemtl galvanised
f 42//27 43//27 41//27
f 44//28 45//28 43//28
f 46//29 47//29 45//29
f 48//30 49//30 47//30
f 50//31 51//31 49//31
f 52//32 53//32 51//32
f 54//6 50//6 46//6
f 54//33 55//33 53//33
f 56//34 41//34 55//34
f 47//5 51//5 55//5
f 102//47 103//47 101//47
f 104//48 105//48 103//48
f 106//49 107//49 105//49
f 108//50 109//50 107//50
f 109//51 112//51 111//51
f 111//52 114//52 113//52
f 114//6 110//6 106//6
f 113//53 116//53 115//53
f 115//54 102//54 101//54
f 107//5 111//5 115//5
f 158//1 159//1 157//1
f 160//2 163//2 159//2
f 164//3 161//3 163//3
f 162//4 157//4 161//4
f 163//5 157//5 159//5
f 160//6 162//6 164//6
f 42//27 44//27 43//27
f 44//28 46//28 45//28
f 46//29 48//29 47//29
f 48//30 50//30 49//30
f 50//31 52//31 51//31
f 52//32 54//32 53//32
f 46//6 44//6 42//6
f 42//6 56//6 54//6
f 54//6 52//6 50//6
f 50//6 48//6 46//6
f 46//6 42//6 54//6
f 54//33 56//33 55//33
f 56//34 42//34 41//34
f 55//5 41//5 43//5
f 43//5 45//5 47//5
f 47//5 49//5 51//5
f 51//5 53//5 55//5
f 55//5 43//5 47//5
f 102//47 104//47 103//47
f 104//48 106//48 105//48
f 106//49 108//49 107//49
f 108//50 110//50 109//50
f 109//51 110//51 112//51
f 111//52 112//52 114//52
f 106//6 104//6 102//6
f 102//6 116//6 114//6
f 114//6 112//6 110//6
f 110//6 108//6 106//6
f 106//6 102//6 114//6
f 113//53 114//53 116//53
f 115//54 116//54 102//54
f 115//5 101//5 103//5
f 103//5 105//5 107//5
f 107//5 109//5 111//5
f 111//5 113//5 115//5
f 115//5 103//5 107//5
f 158//1 160//1 159//1
f 160//2 164//2 163//2
f 164//3 162//3 161//3
f 162//4 158//4 157//4
f 163//5 161//5 157//5
f 160//6 158//6 162//6
usemtl electric_glow
f 58//35 59//35 57//35
f 60//36 61//36 59//36
f 62//37 63//37 61//37
f 64//38 65//38 63//38
f 66//39 67//39 65//39
f 68//40 69//40 67//40
f 70//6 66//6 62//6
f 70//41 71//41 69//41
f 72//42 57//42 71//42
f 63//5 67//5 71//5
f 118//1 119//1 117//1
f 120//2 123//2 119//2
f 124//3 121//3 123//3
f 122//4 117//4 121//4
f 123//5 117//5 119//5
f 120//6 122//6 124//6
f 126//1 127//1 125//1
f 128//2 131//2 127//2
f 132//3 129//3 131//3
f 130//4 125//4 129//4
f 131//5 125//5 127//5
f 128//6 130//6 132//6
f 58//35 60//35 59//35
f 60//36 62//36 61//36
f 62//37 64//37 63//37
f 64//38 66//38 65//38
f 66//39 68//39 67//39
f 68//40 70//40 69//40
f 62//6 60//6 58//6
f 58//6 72//6 70//6
f 70//6 68//6 66//6
f 66//6 64//6 62//6
f 62//6 58//6 70//6
f 70//41 72//41 71//41
f 72//42 58//42 57//42
f 71//5 57//5 59//5
f 59//5 61//5 63//5
f 63//5 65//5 67//5
f 67//5 69//5 71//5
f 71//5 59//5 63//5
f 118//1 120//1 119//1
f 120//2 124//2 123//2
f 124//3 122//3 121//3
f 122//4 118//4 117//4
f 123//5 121//5 117//5
f 120//6 118//6 122//6
f 126//1 128//1 127//1
f 128//2 132//2 131//2
f 132//3 130//3 129//3
f 130//4 126//4 125//4
f 131//5 129//5 125//5
f 128//6 126//6 130//6
