# Blender 5.2.0 LTS
# www.blender.org
mtllib lamp.mtl
o body
v -0.180000 0.000000 0.180000
v -0.180000 0.040000 0.180000
v -0.180000 0.000000 -0.180000
v -0.180000 0.040000 -0.180000
v 0.180000 0.000000 0.180000
v 0.180000 0.040000 0.180000
v 0.180000 0.000000 -0.180000
v 0.180000 0.040000 -0.180000
v 0.000000 0.040000 -0.040000
v 0.000000 0.550000 -0.040000
v 0.034641 0.040000 -0.020000
v 0.034641 0.550000 -0.020000
v 0.034641 0.040000 0.020000
v 0.034641 0.550000 0.020000
v 0.000000 0.040000 0.040000
v 0.000000 0.550000 0.040000
v -0.034641 0.040000 0.020000
v -0.034641 0.550000 0.020000
v -0.034641 0.040000 -0.020000
v -0.034641 0.550000 -0.020000
v 0.000000 0.550000 -0.140000
v 0.000000 0.780000 -0.140000
v 0.098995 0.550000 -0.098995
v 0.098995 0.780000 -0.098995
v 0.140000 0.550000 0.000000
v 0.140000 0.780000 0.000000
v 0.098995 0.550000 0.098995
v 0.098995 0.780000 0.098995
v 0.000000 0.550000 0.140000
v 0.000000 0.780000 0.140000
v -0.098995 0.550000 0.098995
v -0.098995 0.780000 0.098995
v -0.140000 0.550000 0.000000
v -0.140000 0.780000 0.000000
v -0.098995 0.550000 -0.098995
v -0.098995 0.780000 -0.098995
v 0.000000 0.780000 -0.200000
v 0.000000 0.880000 -0.080000
v 0.141421 0.780000 -0.141421
v 0.056569 0.880000 -0.056569
v 0.200000 0.780000 0.000000
v 0.080000 0.880000 0.000000
v 0.141421 0.780000 0.141421
v 0.056569 0.880000 0.056569
v 0.000000 0.780000 0.200000
v 0.000000 0.880000 0.080000
v -0.141421 0.780000 0.141421
v -0.056569 0.880000 0.056569
v -0.200000 0.780000 0.000000
v -0.080000 0.880000 0.000000
v -0.141421 0.780000 -0.141421
v -0.056569 0.880000 -0.056569
vn -1.0000 -0.0000 -0.0000
vn -0.0000 -0.0000 -1.0000
vn 1.0000 -0.0000 -0.0000
vn -0.0000 -0.0000 1.0000
vn -0.0000 -1.0000 -0.0000
vn -0.0000 1.0000 -0.0000
vn 0.5000 -0.0000 -0.8660
vn 0.5000 -0.0000 0.8660
vn -0.5000 -0.0000 0.8660
vn -0.5000 -0.0000 -0.8660
vn 0.3827 -0.0000 -0.9239
vn 0.9239 -0.0000 -0.3827
vn 0.9239 -0.0000 0.3827
vn 0.3827 -0.0000 0.9239
vn -0.3827 -0.0000 0.9239
vn -0.9239 -0.0000 0.3827
vn -0.9239 -0.0000 -0.3827
vn -0.3827 -0.0000 -0.9239
vn 0.2563 0.7426 -0.6188
vn 0.6188 0.7426 -0.2563
vn 0.6188 0.7426 0.2563
vn 0.2563 0.7426 0.6188
vn -0.2563 0.7426 0.6188
vn -0.6188 0.7426 0.2563
vn -0.6188 0.7426 -0.2563
vn -0.2563 0.7426 -0.6188
s 0
usemtl steel_dark
f 2//1 3//1 1//1
f 4//2 7//2 3//2
f 8//3 5//3 7//3
f 6//4 1//4 5//4
f 7//5 1//5 3//5
f 4//6 6//6 8//6
f 38//19 39//19 37//19
f 40//20 41//20 39//20
f 42//21 43//21 41//21
f 44//22 45//22 43//22
f 46//23 47//23 45//23
f 48//24 49//24 47//24
f 50//6 46//6 42//6
f 50//25 51//25 49//25
f 52//26 37//26 51//26
f 43//5 47//5 51//5
f 2//1 4//1 3//1
f 4//2 8//2 7//2
f 8//3 6//3 5//3
f 6//4 2//4 1//4
f 7//5 5//5 1//5
f 4//6 2//6 6//6
f 38//19 40//19 39//19
f 40//20 42//20 41//20
f 42//21 44//21 43//21
f 44//22 46//22 45//22
f 46//23 48//23 47//23
f 48//24 50//24 49//24
f 42//6 40//6 38//6
f 38//6 52//6 50//6
f 50//6 48//6 46//6
f 46//6 44//6 42//6
f 42//6 38//6 50//6
f 50//25 52//25 51//25
f 52//26 38//26 37//26
f 51//5 37//5 39//5
f 39//5 41//5 43//5
f 43//5 45//5 47//5
f 47//5 49//5 51//5
f 51//5 39//5 43//5
usemtl steel
f 10//7 11//7 9//7
f 12//3 13//3 11//3
f 14//8 15//8 13//8
f 16//9 17//9 15//9
f 10//6 18//6 14//6
f 18//1 19//1 17//1
f 20//10 9//10 19//10
f 11//5 15//5 19//5
f 10//7 12//7 11//7
f 12//3 14//3 13//3
f 14//8 16//8 15//8
f 16//9 18//9 17//9
f 14//6 12//6 10//6
f 10//6 20//6 18//6
f 18//6 16//6 14//6
f 18//1 20//1 19//1
f 20//10 10//10 9//10
f 19//5 9//5 11//5
f 11//5 13//5 15//5
f 15//5 17//5 19//5
usemtl lamp_glow
f 22//11 23//11 21//11
f 24//12 25//12 23//12
f 26//13 27//13 25//13
f 28//14 29//14 27//14
f 30//15 31//15 29//15
f 32//16 33//16 31//16
f 34//6 30//6 26//6
f 34//17 35//17 33//17
f 36//18 21//18 35//18
f 27//5 31//5 35//5
f 22//11 24//11 23//11
f 24//12 26//12 25//12
f 26//13 28//13 27//13
f 28//14 30//14 29//14
f 30//15 32//15 31//15
f 32//16 34//16 33//16
f 26//6 24//6 22//6
f 22//6 36//6 34//6
f 34//6 32//6 30//6
f 30//6 28//6 26//6
f 26//6 22//6 34//6
f 34//17 36//17 35//17
f 36//18 22//18 21//18
f 35//5 21//5 23//5
f 23//5 25//5 27//5
f 27//5 29//5 31//5
f 31//5 33//5 35//5
f 35//5 23//5 27//5
