# Blender 5.2.0 LTS
# www.blender.org
mtllib offshore_pump.mtl
o body
v -1.000000 0.000000 0.450000
v -1.000000 0.080000 0.450000
v -1.000000 0.000000 -0.450000
v -1.000000 0.080000 -0.450000
v 0.300000 0.000000 0.450000
v 0.300000 0.080000 0.450000
v 0.300000 0.000000 -0.450000
v 0.300000 0.080000 -0.450000
v -0.950000 0.380000 -0.280000
v -0.150000 0.380000 -0.280000
v -0.950000 0.215420 -0.226525
v -0.150000 0.215420 -0.226525
v -0.950000 0.113704 -0.086525
v -0.150000 0.113704 -0.086525
v -0.950000 0.113704 0.086525
v -0.150000 0.113704 0.086525
v -0.950000 0.215420 0.226525
v -0.150000 0.215420 0.226525
v -0.950000 0.380000 0.280000
v -0.150000 0.380000 0.280000
v -0.950000 0.544580 0.226525
v -0.150000 0.544580 0.226525
v -0.950000 0.646296 0.086525
v -0.150000 0.646296 0.086525
v -0.950000 0.646296 -0.086525
v -0.150000 0.646296 -0.086525
v -0.950000 0.544580 -0.226525
v -0.150000 0.544580 -0.226525
v -1.000000 0.500000 -0.120000
v -0.950000 0.500000 -0.120000
v -1.000000 0.415147 -0.084853
v -0.950000 0.415147 -0.084853
v -1.000000 0.380000 0.000000
v -0.950000 0.380000 0.000000
v -1.000000 0.415147 0.084853
v -0.950000 0.415147 0.084853
v -1.000000 0.500000 0.120000
v -0.950000 0.500000 0.120000
v -1.000000 0.584853 0.084853
v -0.950000 0.584853 0.084853
v -1.000000 0.620000 0.000000
v -0.950000 0.620000 0.000000
v -1.000000 0.584853 -0.084853
v -0.950000 0.584853 -0.084853
v 0.763640 0.040000 -0.063640
v 0.790000 0.040000 -0.000000
v 0.763640 0.040000 0.063640
v 0.700000 0.040000 0.090000
v 0.636360 0.040000 0.063640
v 0.610000 0.040000 0.000000
v 0.636360 0.040000 -0.063640
v 0.700000 0.040000 -0.090000
v -0.150000 0.443640 -0.063640
v -0.150000 0.470000 -0.000000
v -0.150000 0.443640 0.063640
v -0.150000 0.380000 0.090000
v -0.150000 0.316360 0.063640
v -0.150000 0.290000 0.000000
v -0.150000 0.316360 -0.063640
v -0.150000 0.380000 -0.090000
v -0.150000 0.443640 -0.063640
v -0.150000 0.470000 -0.000000
v -0.150000 0.443640 0.063640
v -0.150000 0.380000 0.090000
v -0.150000 0.316360 0.063640
v -0.150000 0.290000 0.000000
v -0.150000 0.316360 -0.063640
v -0.150000 0.380000 -0.090000
v 0.532415 0.442417 -0.063640
v 0.537558 0.468271 -0.000000
v 0.532415 0.442417 0.063640
v 0.520000 0.380000 0.090000
v 0.507585 0.317583 0.063640
v 0.502442 0.291729 0.000000
v 0.507585 0.317583 -0.063640
v 0.520000 0.380000 -0.090000
v 0.692279 0.372279 -0.063640
v 0.710919 0.390919 -0.000000
v 0.692279 0.372279 0.063640
v 0.647279 0.327279 0.090000
v 0.602279 0.282279 0.063640
v 0.583640 0.263640 0.000000
v 0.602279 0.282279 -0.063640
v 0.647279 0.327279 -0.090000
v 0.762417 0.212415 -0.063640
v 0.788271 0.217558 -0.000000
v 0.762417 0.212415 0.063640
v 0.700000 0.200000 0.090000
v 0.637583 0.187585 0.063640
v 0.611729 0.182442 0.000000
v 0.637583 0.187585 -0.063640
v 0.700000 0.200000 -0.090000
v 0.763640 0.040000 -0.063640
v 0.790000 0.040000 -0.000000
v 0.763640 0.040000 0.063640
v 0.700000 0.040000 0.090000
v 0.636360 0.040000 0.063640
v 0.610000 0.040000 0.000000
v 0.636360 0.040000 -0.063640
v 0.700000 0.040000 -0.090000
v 0.700000 0.000000 -0.160000
v 0.700000 0.160000 -0.160000
v 0.813137 0.000000 -0.113137
v 0.813137 0.160000 -0.113137
v 0.860000 0.000000 0.000000
v 0.860000 0.160000 0.000000
v 0.813137 0.000000 0.113137
v 0.813137 0.160000 0.113137
v 0.700000 0.000000 0.160000
v 0.700000 0.160000 0.160000
v 0.586863 0.000000 0.113137
v 0.586863 0.160000 0.113137
v 0.540000 0.000000 0.000000
v 0.540000 0.160000 0.000000
v 0.586863 0.000000 -0.113137
v 0.586863 0.160000 -0.113137
v -0.800000 0.640000 0.120000
v -0.800000 0.680000 0.120000
v -0.800000 0.640000 -0.120000
v -0.800000 0.680000 -0.120000
v -0.400000 0.640000 0.120000
v -0.400000 0.680000 0.120000
v -0.400000 0.640000 -0.120000
v -0.400000 0.680000 -0.120000
v -0.660000 0.640000 -0.170000
v -0.660000 0.860000 -0.170000
v -0.660000 0.640000 -0.210000
v -0.660000 0.860000 -0.210000
v -0.540000 0.640000 -0.170000
v -0.540000 0.860000 -0.170000
v -0.540000 0.640000 -0.210000
v -0.540000 0.860000 -0.210000
v -0.660000 0.640000 0.210000
v -0.660000 0.860000 0.210000
v -0.660000 0.640000 0.170000
v -0.660000 0.860000 0.170000
v -0.540000 0.640000 0.210000
v -0.540000 0.860000 0.210000
v -0.540000 0.640000 0.170000
v -0.540000 0.860000 0.170000
v 0.300000 0.470000 -0.030000
v 0.300000 0.620000 -0.030000
v 0.325981 0.470000 -0.015000
v 0.325981 0.620000 -0.015000
v 0.325981 0.470000 0.015000
v 0.325981 0.620000 0.015000
v 0.300000 0.470000 0.030000
v 0.300000 0.620000 0.030000
v 0.274019 0.470000 0.015000
v 0.274019 0.620000 0.015000
v 0.274019 0.470000 -0.015000
v 0.274019 0.620000 -0.015000
v 0.555000 0.645981 0.000000
v 0.510000 0.620000 0.000000
v 0.555000 0.594019 0.000000
v 0.480312 0.645981 -0.180312
v 0.448492 0.620000 -0.148492
v 0.480312 0.594019 -0.180312
v 0.300000 0.645981 -0.255000
v 0.300000 0.620000 -0.210000
v 0.300000 0.594019 -0.255000
v 0.119688 0.645981 -0.180312
v 0.151508 0.620000 -0.148492
v 0.119688 0.594019 -0.180312
v 0.045000 0.645981 -0.000000
v 0.090000 0.620000 -0.000000
v 0.045000 0.594019 -0.000000
v 0.119688 0.645981 0.180312
v 0.151508 0.620000 0.148492
v 0.119688 0.594019 0.180312
v 0.300000 0.645981 0.255000
v 0.300000 0.620000 0.210000
v 0.300000 0.594019 0.255000
v 0.480312 0.645981 0.180312
v 0.448492 0.620000 0.148492
v 0.480312 0.594019 0.180312
vn -1.0000 -0.0000 -0.0000
vn -0.0000 -0.0000 -1.0000
vn 1.0000 -0.0000 -0.0000
vn -0.0000 -0.0000 1.0000
vn -0.0000 -1.0000 -0.0000
vn -0.0000 1.0000 -0.0000
vn -0.0000 -0.3090 -0.9511
vn -0.0000 -0.8090 -0.5878
vn -0.0000 -0.8090 0.5878
vn -0.0000 -0.3090 0.9511
vn -0.0000 0.3090 0.9511
vn -0.0000 0.8090 0.5878
vn -0.0000 0.8090 -0.5878
vn -0.0000 0.3090 -0.9511
vn -0.0000 -0.3827 -0.9239
vn -0.0000 -0.9239 -0.3827
vn -0.0000 -0.9239 0.3827
vn -0.0000 -0.3827 0.9239
vn -0.0000 0.3827 0.9239
vn -0.0000 0.9239 0.3827
vn -0.0000 0.9239 -0.3827
vn -0.0000 0.3827 -0.9239
vn 0.0017 0.9239 -0.3827
vn 0.0017 0.9239 0.3827
vn 0.0007 -0.3827 0.9239
vn 0.0024 -0.9239 0.3827
vn 0.0024 -0.9239 -0.3827
vn 0.0007 -0.3827 -0.9239
vn 0.1489 0.3594 -0.9212
vn 0.3725 0.8489 -0.3750
vn 0.3725 0.8489 0.3750
vn 0.1489 0.3594 0.9212
vn -0.1352 -0.3625 0.9221
vn -0.3025 -0.8743 0.3796
vn -0.3025 -0.8743 -0.3796
vn -0.1352 -0.3625 -0.9221
vn 0.3720 0.1632 -0.9138
vn 0.8517 0.3800 -0.3608
vn 0.8517 0.3800 0.3608
vn 0.3720 0.1632 0.9138
vn -0.3780 -0.1566 0.9125
vn -0.8768 -0.3269 0.3526
vn -0.8768 -0.3269 -0.3526
vn -0.3780 -0.1566 -0.9125
vn 0.3886 0.0028 -0.9214
vn 0.9262 0.0090 -0.3770
vn 0.9262 0.0090 0.3770
vn 0.3886 0.0028 0.9214
vn -0.3891 -0.0000 0.9212
vn -0.9267 0.0077 0.3758
vn -0.9267 0.0077 -0.3758
vn -0.3891 -0.0000 -0.9212
vn 0.3827 -0.0000 -0.9239
vn 0.9239 -0.0000 -0.3827
vn 0.9239 -0.0000 0.3827
vn 0.3827 -0.0000 0.9239
vn -0.3827 -0.0000 0.9239
vn -0.9239 -0.0000 0.3827
vn -0.9239 -0.0000 -0.3827
vn -0.3827 -0.0000 -0.9239
vn 0.5000 -0.0000 -0.8660
vn 0.5000 -0.0000 0.8660
vn -0.5000 -0.0000 0.8660
vn -0.5000 -0.0000 -0.8660
vn -0.4896 0.8480 0.2028
vn -0.4896 -0.8480 0.2028
vn -0.2028 0.8480 0.4896
vn -0.2028 -0.8480 0.4896
vn 0.2028 0.8480 0.4896
vn 0.2028 -0.8480 0.4896
vn 0.4896 0.8480 0.2028
vn 0.4896 -0.8480 0.2028
vn 0.4896 0.8480 -0.2028
vn 0.4896 -0.8480 -0.2028
vn 0.2028 0.8480 -0.4896
vn 0.2028 -0.8480 -0.4896
vn -0.2028 0.8480 -0.4896
vn -0.2028 -0.8480 -0.4896
vn -0.4896 0.8480 -0.2028
vn -0.4896 -0.8480 -0.2028
vn 0.0007 0.3889 -0.9213
vn 0.0023 0.9264 -0.3765
vn 0.0023 0.9264 0.3765
vn 0.0007 0.3889 0.9213
vn -0.0000 -0.3891 0.9212
vn 0.0017 -0.9265 0.3763
vn 0.0017 -0.9265 -0.3763
vn -0.0000 -0.3891 -0.9212
vn 0.1632 0.3720 -0.9138
vn 0.3800 0.8517 -0.3608
vn 0.3800 0.8517 0.3608
vn 0.1632 0.3720 0.9138
vn -0.1566 -0.3780 0.9125
vn -0.3269 -0.8768 0.3526
vn -0.3269 -0.8768 -0.3526
vn -0.1566 -0.3780 -0.9125
vn 0.3594 0.1489 -0.9212
vn 0.8489 0.3725 -0.3750
vn 0.8489 0.3725 0.3750
vn 0.3594 0.1489 0.9212
vn -0.3625 -0.1352 0.9221
vn -0.8743 -0.3025 0.3796
vn -0.8743 -0.3025 -0.3796
vn -0.3625 -0.1352 -0.9221
vn 0.9239 0.0066 -0.3827
vn 0.9239 0.0066 0.3827
vn -0.3827 0.0032 0.9239
vn -0.9238 0.0112 0.3827
vn -0.9238 0.0112 -0.3827
vn -0.3827 0.0032 -0.9239
s 0
usemtl steel_dark
f 2//1 3//1 1//1
f 4//2 7//2 3//2
f 8//3 5//3 7//3
f 6//4 1//4 5//4
f 7//5 1//5 3//5
f 4//6 6//6 8//6
f 118//1 119//1 117//1
f 120//2 123//2 119//2
f 124//3 121//3 123//3
f 122//4 117//4 121//4
f 123//5 117//5 119//5
f 120//6 122//6 124//6
f 2//1 4//1 3//1
f 4//2 8//2 7//2
f 8//3 6//3 5//3
f 6//4 2//4 1//4
f 7//5 5//5 1//5
f 4//6 2//6 6//6
f 118//1 120//1 119//1
f 120//2 124//2 123//2
f 124//3 122//3 121//3
f 122//4 118//4 117//4
f 123//5 121//5 117//5
f 120//6 118//6 122//6
usemtl fluids_teal
f 10//7 11//7 9//7
f 12//8 13//8 11//8
f 14//5 15//5 13//5
f 16//9 17//9 15//9
f 18//10 19//10 17//10
f 20//11 21//11 19//11
f 22//12 23//12 21//12
f 24//6 25//6 23//6
f 26//3 18//3 14//3
f 25//13 28//13 27//13
f 28//14 9//14 27//14
f 15//1 23//1 27//1
f 45//5 51//5 52//5
f 46//5 51//5 45//5
f 46//5 50//5 51//5
f 47//5 50//5 46//5
f 47//5 49//5 50//5
f 48//5 49//5 47//5
f 57//1 59//1 58//1
f 57//1 60//1 59//1
f 56//1 60//1 57//1
f 56//1 53//1 60//1
f 55//1 53//1 56//1
f 55//1 54//1 53//1
f 61//22 76//22 68//22
f 62//23 69//23 61//23
f 71//24 62//24 63//24
f 72//19 63//19 64//19
f 73//25 64//25 65//25
f 74//26 65//26 66//26
f 67//27 74//27 66//27
f 68//28 75//28 67//28
f 69//29 84//29 76//29
f 70//30 77//30 69//30
f 79//31 70//31 71//31
f 80//32 71//32 72//32
f 81//33 72//33 73//33
f 82//34 73//34 74//34
f 75//35 82//35 74//35
f 76//36 83//36 75//36
f 85//37 84//37 77//37
f 86//38 77//38 78//38
f 79//39 86//39 78//39
f 80//40 87//40 79//40
f 81//41 88//41 80//41
f 82//42 89//42 81//42
f 91//43 82//43 83//43
f 92//44 83//44 84//44
f 93//45 92//45 85//45
f 94//46 85//46 86//46
f 87//47 94//47 86//47
f 88//48 95//48 87//48
f 89//49 96//49 88//49
f 90//50 97//50 89//50
f 99//51 90//51 91//51
f 100//52 91//52 92//52
f 102//53 103//53 101//53
f 104//54 105//54 103//54
f 106//55 107//55 105//55
f 108//56 109//56 107//56
f 110//57 111//57 109//57
f 112//58 113//58 111//58
f 114//6 110//6 106//6
f 114//59 115//59 113//59
f 116//60 101//60 115//60
f 107//5 111//5 115//5
f 10//7 12//7 11//7
f 12//8 14//8 13//8
f 14//5 16//5 15//5
f 16//9 18//9 17//9
f 18//10 20//10 19//10
f 20//11 22//11 21//11
f 22//12 24//12 23//12
f 24//6 26//6 25//6
f 14//3 12//3 10//3
f 10//3 28//3 26//3
f 26//3 24//3 22//3
f 22//3 20//3 18//3
f 18//3 16//3 14//3
f 14//3 10//3 26//3
f 26//3 22//3 18//3
f 25//13 26//13 28//13
f 28//14 10//14 9//14
f 27//1 9//1 11//1
f 11//1 13//1 15//1
f 15//1 17//1 19//1
f 19//1 21//1 23//1
f 23//1 25//1 27//1
f 27//1 11//1 15//1
f 15//1 19//1 23//1
f 61//81 69//81 76//81
f 62//82 70//82 69//82
f 71//83 70//83 62//83
f 72//84 71//84 63//84
f 73//85 72//85 64//85
f 74//86 73//86 65//86
f 67//87 75//87 74//87
f 68//88 76//88 75//88
f 69//89 77//89 84//89
f 70//90 78//90 77//90
f 79//91 78//91 70//91
f 80//92 79//92 71//92
f 81//93 80//93 72//93
f 82//94 81//94 73//94
f 75//95 83//95 82//95
f 76//96 84//96 83//96
f 85//97 92//97 84//97
f 86//98 85//98 77//98
f 79//99 87//99 86//99
f 80//100 88//100 87//100
f 81//101 89//101 88//101
f 82//102 90//102 89//102
f 91//103 90//103 82//103
f 92//104 91//104 83//104
f 93//53 100//53 92//53
f 94//105 93//105 85//105
f 87//106 95//106 94//106
f 88//56 96//56 95//56
f 89//107 97//107 96//107
f 90//108 98//108 97//108
f 99//109 98//109 90//109
f 100//110 99//110 91//110
f 102//53 104//53 103//53
f 104//54 106//54 105//54
f 106//55 108//55 107//55
f 108//56 110//56 109//56
f 110//57 112//57 111//57
f 112//58 114//58 113//58
f 106//6 104//6 102//6
f 102//6 116//6 114//6
f 114//6 112//6 110//6
f 110//6 108//6 106//6
f 106//6 102//6 114//6
f 114//59 116//59 115//59
f 116//60 102//60 101//60
f 115//5 101//5 103//5
f 103//5 105//5 107//5
f 107//5 109//5 111//5
f 111//5 113//5 115//5
f 115//5 103//5 107//5
usemtl galvanised
f 30//15 31//15 29//15
f 32//16 33//16 31//16
f 33//17 36//17 35//17
f 36//18 37//18 35//18
f 38//19 39//19 37//19
f 40//20 41//20 39//20
f 42//3 38//3 34//3
f 42//21 43//21 41//21
f 44//22 29//22 43//22
f 35//1 39//1 43//1
f 142//61 143//61 141//61
f 144//3 145//3 143//3
f 146//62 147//62 145//62
f 148//63 149//63 147//63
f 142//6 150//6 146//6
f 150//1 151//1 149//1
f 152//64 141//64 151//64
f 143//5 147//5 151//5
f 156//65 154//65 153//65
f 154//66 158//66 155//66
f 158//54 153//54 155//54
f 159//67 157//67 156//67
f 157//68 161//68 158//68
f 161//53 156//53 158//53
f 162//69 160//69 159//69
f 163//70 161//70 160//70
f 164//60 159//60 161//60
f 162//71 166//71 163//71
f 163//72 167//72 164//72
f 167//59 162//59 164//59
f 165//73 169//73 166//73
f 166//74 170//74 167//74
f 170//58 165//58 167//58
f 171//75 169//75 168//75
f 172//76 170//76 169//76
f 173//57 168//57 170//57
f 174//77 172//77 171//77
f 175//78 173//78 172//78
f 176//56 171//56 173//56
f 153//79 175//79 174//79
f 154//80 176//80 175//80
f 155//55 174//55 176//55
f 30//15 32//15 31//15
f 32//16 34//16 33//16
f 33//17 34//17 36//17
f 36//18 38//18 37//18
f 38//19 40//19 39//19
f 40//20 42//20 41//20
f 34//3 32//3 30//3
f 30//3 44//3 42//3
f 42//3 40//3 38//3
f 38//3 36//3 34//3
f 34//3 30//3 42//3
f 42//21 44//21 43//21
f 44//22 30//22 29//22
f 43//1 29//1 31//1
f 31//1 33//1 35//1
f 35//1 37//1 39//1
f 39//1 41//1 43//1
f 43//1 31//1 35//1
f 142//61 144//61 143//61
f 144//3 146//3 145//3
f 146//62 148//62 147//62
f 148//63 150//63 149//63
f 146//6 144//6 142//6
f 142//6 152//6 150//6
f 150//6 148//6 146//6
f 150//1 152//1 151//1
f 152//64 142//64 141//64
f 151//5 141//5 143//5
f 143//5 145//5 147//5
f 147//5 149//5 151//5
f 156//65 157//65 154//65
f 154//66 157//66 158//66
f 158//54 156//54 153//54
f 159//67 160//67 157//67
f 157//68 160//68 161//68
f 161//53 159//53 156//53
f 162//69 163//69 160//69
f 163//70 164//70 161//70
f 164//60 162//60 159//60
f 162//71 165//71 166//71
f 163//72 166//72 167//72
f 167//59 165//59 162//59
f 165//73 168//73 169//73
f 166//74 169//74 170//74
f 170//58 168//58 165//58
f 171//75 172//75 169//75
f 172//76 173//76 170//76
f 173//57 171//57 168//57
f 174//77 175//77 172//77
f 175//78 176//78 173//78
f 176//56 174//56 171//56
f 153//79 154//79 175//79
f 154//80 155//80 176//80
f 155//55 153//55 174//55
usemtl steel
f 126//1 127//1 125//1
f 128//2 131//2 127//2
f 132//3 129//3 131//3
f 130//4 125//4 129//4
f 131//5 125//5 127//5
f 128//6 130//6 132//6
f 134//1 135//1 133//1
f 136//2 139//2 135//2
f 140//3 137//3 139//3
f 138//4 133//4 137//4
f 139//5 133//5 135//5
f 136//6 138//6 140//6
f 126//1 128//1 127//1
f 128//2 132//2 131//2
f 132//3 130//3 129//3
f 130//4 126//4 125//4
f 131//5 129//5 125//5
f 128//6 126//6 130//6
f 134//1 136//1 135//1
f 136//2 140//2 139//2
f 140//3 138//3 137//3
f 138//4 134//4 133//4
f 139//5 137//5 133//5
f 136//6 134//6 138//6
o part
v -0.800000 0.880000 -0.120000
v -0.400000 0.880000 -0.120000
v -0.800000 0.809466 -0.097082
v -0.400000 0.809466 -0.097082
v -0.800000 0.765873 -0.037082
v -0.400000 0.765873 -0.037082
v -0.800000 0.765873 0.037082
v -0.400000 0.765873 0.037082
v -0.800000 0.809466 0.097082
v -0.400000 0.809466 0.097082
v -0.800000 0.880000 0.120000
v -0.400000 0.880000 0.120000
v -0.800000 0.950534 0.097082
v -0.400000 0.950534 0.097082
v -0.800000 0.994127 0.037082
v -0.400000 0.994127 0.037082
v -0.800000 0.994127 -0.037082
v -0.400000 0.994127 -0.037082
v -0.800000 0.950534 -0.097082
v -0.400000 0.950534 -0.097082
v -0.860000 0.880000 -0.100000
v -0.800000 0.880000 -0.100000
v -0.860000 0.809289 -0.070711
v -0.800000 0.809289 -0.070711
v -0.860000 0.780000 0.000000
v -0.800000 0.780000 0.000000
v -0.860000 0.809289 0.070711
v -0.800000 0.809289 0.070711
v -0.860000 0.880000 0.100000
v -0.800000 0.880000 0.100000
v -0.860000 0.950711 0.070711
v -0.800000 0.950711 0.070711
v -0.860000 0.980000 0.000000
v -0.800000 0.980000 0.000000
v -0.860000 0.950711 -0.070711
v -0.800000 0.950711 -0.070711
v -0.699082 0.800000 0.150000
v -0.699082 1.020000 0.150000
v -0.699082 0.800000 -0.150000
v -0.699082 1.020000 -0.150000
v -0.669082 0.800000 0.150000
v -0.669082 1.020000 0.150000
v -0.669082 0.800000 -0.150000
v -0.669082 1.020000 -0.150000
v -0.630028 0.800000 0.150000
v -0.630028 1.020000 0.150000
v -0.630028 0.800000 -0.150000
v -0.630028 1.020000 -0.150000
v -0.600028 0.800000 0.150000
v -0.600028 1.020000 0.150000
v -0.600028 0.800000 -0.150000
v -0.600028 1.020000 -0.150000
v -0.516976 0.800000 0.150000
v -0.516976 1.020000 0.150000
v -0.516976 0.800000 -0.150000
v -0.516976 1.020000 -0.150000
v -0.486976 0.800000 0.150000
v -0.486976 1.020000 0.150000
v -0.486976 0.800000 -0.150000
v -0.486976 1.020000 -0.150000
vn -0.0000 -0.3090 -0.9511
vn -0.0000 -0.8090 -0.5878
vn -0.0000 -1.0000 -0.0000
vn -0.0000 -0.8090 0.5878
vn -0.0000 -0.3090 0.9511
vn -0.0000 0.3090 0.9511
vn -0.0000 0.8090 0.5878
vn -0.0000 1.0000 -0.0000
vn 1.0000 -0.0000 -0.0000
vn -0.0000 0.8090 -0.5878
vn -0.0000 0.3090 -0.9511
vn -1.0000 -0.0000 -0.0000
vn -0.0000 -0.3827 -0.9239
vn -0.0000 -0.9239 -0.3827
vn -0.0000 -0.9239 0.3827
vn -0.0000 -0.3827 0.9239
vn -0.0000 0.3827 0.9239
vn -0.0000 0.9239 0.3827
vn -0.0000 0.9239 -0.3827
vn -0.0000 0.3827 -0.9239
vn -0.0000 -0.0000 -1.0000
vn -0.0000 -0.0000 1.0000
s 0
usemtl steel_dark
f 178//111 179//111 177//111
f 180//112 181//112 179//112
f 182//113 183//113 181//113
f 184//114 185//114 183//114
f 186//115 187//115 185//115
f 188//116 189//116 187//116
f 189//117 192//117 191//117
f 192//118 193//118 191//118
f 194//119 186//119 182//119
f 194//120 195//120 193//120
f 196//121 177//121 195//121
f 183//122 191//122 195//122
f 178//111 180//111 179//111
f 180//112 182//112 181//112
f 182//113 184//113 183//113
f 184//114 186//114 185//114
f 186//115 188//115 187//115
f 188//116 190//116 189//116
f 189//117 190//117 192//117
f 192//118 194//118 193//118
f 182//119 180//119 178//119
f 178//119 196//119 194//119
f 194//119 192//119 190//119
f 190//119 188//119 186//119
f 186//119 184//119 182//119
f 182//119 178//119 194//119
f 194//119 190//119 186//119
f 194//120 196//120 195//120
f 196//121 178//121 177//121
f 195//122 177//122 179//122
f 179//122 181//122 183//122
f 183//122 185//122 187//122
f 187//122 189//122 191//122
f 191//122 193//122 195//122
f 195//122 179//122 183//122
f 183//122 187//122 191//122
usemtl galvanised
f 198//123 199//123 197//123
f 200//124 201//124 199//124
f 202//125 203//125 201//125
f 203//126 206//126 205//126
f 205//127 208//127 207//127
f 208//128 209//128 207//128
f 210//119 206//119 202//119
f 210//129 211//129 209//129
f 212//130 197//130 211//130
f 203//122 207//122 211//122
f 198//123 200//123 199//123
f 200//124 202//124 201//124
f 202//125 204//125 203//125
f 203//126 204//126 206//126
f 205//127 206//127 208//127
f 208//128 210//128 209//128
f 202//119 200//119 198//119
f 198//119 212//119 210//119
f 210//119 208//119 206//119
f 206//119 204//119 202//119
f 202//119 198//119 210//119
f 210//129 212//129 211//129
f 212//130 198//130 197//130
f 211//122 197//122 199//122
f 199//122 201//122 203//122
f 203//122 205//122 207//122
f 207//122 209//122 211//122
f 211//122 199//122 203//122
usemtl steel
f 214//122 215//122 213//122
f 216//131 219//131 215//131
f 220//119 217//119 219//119
f 218//132 213//132 217//132
f 219//113 213//113 215//113
f 216//118 218//118 220//118
f 222//122 223//122 221//122
f 224//131 227//131 223//131
f 228//119 225//119 227//119
f 226//132 221//132 225//132
f 227//113 221//113 223//113
f 224//118 226//118 228//118
f 230//122 231//122 229//122
f 232//131 235//131 231//131
f 236//119 233//119 235//119
f 234//132 229//132 233//132
f 235//113 229//113 231//113
f 232//118 234//118 236//118
f 214//122 216//122 215//122
f 216//131 220//131 219//131
f 220//119 218//119 217//119
f 218//132 214//132 213//132
f 219//113 217//113 213//113
f 216//118 214//118 218//118
f 222//122 224//122 223//122
f 224//131 228//131 227//131
f 228//119 226//119 225//119
f 226//132 222//132 221//132
f 227//113 225//113 221//113
f 224//118 222//118 226//118
f 230//122 232//122 231//122
f 232//131 236//131 235//131
f 236//119 234//119 233//119
f 234//132 230//132 229//132
f 235//113 233//113 229//113
f 232//118 230//118 234//118
