# Blender 5.2.0 LTS
# www.blender.org
mtllib oxygen_generator.mtl
o body
v -0.480000 0.000000 0.980000
v -0.480000 0.100000 0.980000
v -0.480000 0.000000 -0.980000
v -0.480000 0.100000 -0.980000
v 0.480000 0.000000 0.980000
v 0.480000 0.100000 0.980000
v 0.480000 0.000000 -0.980000
v 0.480000 0.100000 -0.980000
v -0.420000 0.100000 0.920000
v -0.420000 0.130000 0.950000
v -0.450000 0.130000 0.920000
v -0.420000 2.570000 0.950000
v -0.420000 2.600000 0.920000
v -0.450000 2.570000 0.920000
v -0.420000 0.100000 -0.070000
v -0.450000 0.130000 -0.070000
v -0.420000 0.130000 -0.100000
v -0.420000 2.600000 -0.070000
v -0.420000 2.570000 -0.100000
v -0.450000 2.570000 -0.070000
v 0.320000 0.100000 0.920000
v 0.350000 0.130000 0.920000
v 0.320000 0.130000 0.950000
v 0.320000 2.600000 0.920000
v 0.320000 2.570000 0.950000
v 0.350000 2.570000 0.920000
v 0.320000 0.100000 -0.070000
v 0.320000 0.130000 -0.100000
v 0.350000 0.130000 -0.070000
v 0.320000 2.600000 -0.070000
v 0.350000 2.570000 -0.070000
v 0.320000 2.570000 -0.100000
v -0.050000 0.100000 -0.900000
v -0.050000 2.400000 -0.900000
v 0.173358 0.100000 -0.827426
v 0.173358 2.400000 -0.827426
v 0.311401 0.100000 -0.637426
v 0.311401 2.400000 -0.637426
v 0.311401 0.100000 -0.402574
v 0.311401 2.400000 -0.402574
v 0.173358 0.100000 -0.212574
v 0.173358 2.400000 -0.212574
v -0.050000 0.100000 -0.140000
v -0.050000 2.400000 -0.140000
v -0.273358 0.100000 -0.212574
v -0.273358 2.400000 -0.212574
v -0.411401 0.100000 -0.402574
v -0.411401 2.400000 -0.402574
v -0.411401 0.100000 -0.637426
v -0.411401 2.400000 -0.637426
v -0.273358 0.100000 -0.827426
v -0.273358 2.400000 -0.827426
v -0.050000 2.400000 -0.900000
v -0.050000 2.550000 -0.640000
v 0.173358 2.400000 -0.827426
v 0.020534 2.550000 -0.617082
v 0.311401 2.400000 -0.637426
v 0.064127 2.550000 -0.557082
v 0.311401 2.400000 -0.402574
v 0.064127 2.550000 -0.482918
v 0.173358 2.400000 -0.212574
v 0.020534 2.550000 -0.422918
v -0.050000 2.400000 -0.140000
v -0.050000 2.550000 -0.400000
v -0.273358 2.400000 -0.212574
v -0.120534 2.550000 -0.422918
v -0.411401 2.400000 -0.402574
v -0.164127 2.550000 -0.482918
v -0.411401 2.400000 -0.637426
v -0.164127 2.550000 -0.557082
v -0.273358 2.400000 -0.827426
v -0.120534 2.550000 -0.617082
v -0.092426 2.757574 0.300000
v -0.050000 2.740000 0.300000
v -0.007574 2.757574 0.300000
v 0.010000 2.800000 0.300000
v -0.007574 2.842426 0.300000
v -0.050000 2.860000 0.300000
v -0.092426 2.842426 0.300000
v -0.110000 2.800000 0.300000
v -0.092426 2.500000 -0.477574
v -0.050000 2.500000 -0.460000
v -0.007574 2.500000 -0.477574
v 0.010000 2.500000 -0.520000
v -0.007574 2.500000 -0.562426
v -0.050000 2.500000 -0.580000
v -0.092426 2.500000 -0.562426
v -0.110000 2.500000 -0.520000
v -0.092426 2.500000 -0.477574
v -0.050000 2.500000 -0.460000
v -0.007574 2.500000 -0.477574
v 0.010000 2.500000 -0.520000
v -0.007574 2.500000 -0.562426
v -0.050000 2.500000 -0.580000
v -0.092426 2.500000 -0.562426
v -0.110000 2.500000 -0.520000
v -0.092426 2.671723 -0.478389
v -0.050000 2.668294 -0.461153
v -0.007574 2.671723 -0.478389
v 0.010000 2.680000 -0.520000
v -0.007574 2.688277 -0.561611
v -0.050000 2.691705 -0.578847
v -0.092426 2.688277 -0.561611
v -0.110000 2.680000 -0.520000
v -0.092426 2.734853 -0.454853
v -0.050000 2.722426 -0.442426
v -0.007574 2.734853 -0.454853
v 0.010000 2.764853 -0.484853
v -0.007574 2.794853 -0.514853
v -0.050000 2.807279 -0.527279
v -0.092426 2.794853 -0.514853
v -0.110000 2.764853 -0.484853
v -0.092426 2.758389 -0.391723
v -0.050000 2.741153 -0.388295
v -0.007574 2.758389 -0.391723
v 0.010000 2.800000 -0.400000
v -0.007574 2.841611 -0.408277
v -0.050000 2.858847 -0.411705
v -0.092426 2.841611 -0.408277
v -0.110000 2.800000 -0.400000
v -0.092426 2.757574 0.300000
v -0.050000 2.740000 0.300000
v -0.007574 2.757574 0.300000
v 0.010000 2.800000 0.300000
v -0.007574 2.842426 0.300000
v -0.050000 2.860000 0.300000
v -0.092426 2.842426 0.300000
v -0.110000 2.800000 0.300000
v -0.050000 2.600000 0.240000
v -0.050000 2.800000 0.240000
v -0.007574 2.600000 0.257574
v -0.007574 2.800000 0.257574
v 0.010000 2.600000 0.300000
v 0.010000 2.800000 0.300000
v -0.007574 2.600000 0.342426
v -0.007574 2.800000 0.342426
v -0.050000 2.600000 0.360000
v -0.050000 2.800000 0.360000
v -0.092426 2.600000 0.342426
v -0.092426 2.800000 0.342426
v -0.110000 2.600000 0.300000
v -0.110000 2.800000 0.300000
v -0.092426 2.600000 0.257574
v -0.092426 2.800000 0.257574
v 0.330000 1.870000 0.670000
v 0.330000 1.930000 0.670000
v 0.330000 1.870000 0.170000
v 0.330000 1.930000 0.170000
v 0.355000 1.870000 0.670000
v 0.355000 1.930000 0.670000
v 0.355000 1.870000 0.170000
v 0.355000 1.930000 0.170000
v 0.385981 0.935000 0.420000
v 0.360000 0.980000 0.420000
v 0.334019 0.935000 0.420000
v 0.385981 1.012617 0.232617
v 0.360000 1.044437 0.264436
v 0.334019 1.012617 0.232617
v 0.385981 1.200000 0.155000
v 0.360000 1.200000 0.200000
v 0.334019 1.200000 0.155000
v 0.385981 1.387383 0.232617
v 0.360000 1.355564 0.264436
v 0.334019 1.387383 0.232617
v 0.385981 1.465000 0.420000
v 0.360000 1.420000 0.420000
v 0.334019 1.465000 0.420000
v 0.385981 1.387383 0.607383
v 0.360000 1.355564 0.575563
v 0.334019 1.387383 0.607383
v 0.385981 1.200000 0.685000
v 0.360000 1.200000 0.640000
v 0.334019 1.200000 0.685000
v 0.385981 1.012617 0.607383
v 0.360000 1.044437 0.575563
v 0.334019 1.012617 0.607383
v 0.350000 1.043433 0.620000
v 0.350000 1.073433 0.620000
v 0.350000 1.043433 0.220000
v 0.350000 1.073433 0.220000
v 0.370000 1.043433 0.620000
v 0.370000 1.073433 0.620000
v 0.370000 1.043433 0.220000
v 0.370000 1.073433 0.220000
v 0.350000 1.160570 0.620000
v 0.350000 1.190570 0.620000
v 0.350000 1.160570 0.220000
v 0.350000 1.190570 0.220000
v 0.370000 1.160570 0.620000
v 0.370000 1.190570 0.620000
v 0.370000 1.160570 0.220000
v 0.370000 1.190570 0.220000
v 0.350000 1.332104 0.620000
v 0.350000 1.362104 0.620000
v 0.350000 1.332104 0.220000
v 0.350000 1.362104 0.220000
v 0.370000 1.332104 0.620000
v 0.370000 1.362104 0.620000
v 0.370000 1.332104 0.220000
v 0.370000 1.362104 0.220000
v 0.330000 1.000000 -0.550000
v 0.400000 1.000000 -0.550000
v 0.330000 0.974019 -0.535000
v 0.400000 0.974019 -0.535000
v 0.330000 0.974019 -0.505000
v 0.400000 0.974019 -0.505000
v 0.330000 1.000000 -0.490000
v 0.400000 1.000000 -0.490000
v 0.330000 1.025981 -0.505000
v 0.400000 1.025981 -0.505000
v 0.330000 1.025981 -0.535000
v 0.400000 1.025981 -0.535000
v 0.421651 0.847500 -0.520000
v 0.400000 0.885000 -0.520000
v 0.378349 0.847500 -0.520000
v 0.421651 0.892166 -0.627834
v 0.400000 0.918683 -0.601317
v 0.378349 0.892166 -0.627834
v 0.421651 1.000000 -0.672500
v 0.400000 1.000000 -0.635000
v 0.378349 1.000000 -0.672500
v 0.421651 1.107834 -0.627834
v 0.400000 1.081317 -0.601317
v 0.378349 1.107834 -0.627834
v 0.421651 1.152500 -0.520000
v 0.400000 1.115000 -0.520000
v 0.378349 1.152500 -0.520000
v 0.421651 1.107834 -0.412166
v 0.400000 1.081317 -0.438683
v 0.378349 1.107834 -0.412166
v 0.421651 1.000000 -0.367500
v 0.400000 1.000000 -0.405000
v 0.378349 1.000000 -0.367500
v 0.421651 0.892166 -0.412166
v 0.400000 0.918683 -0.438683
v 0.378349 0.892166 -0.412166
vn -1.0000 -0.0000 -0.0000
vn -0.0000 -0.0000 -1.0000
vn 1.0000 -0.0000 -0.0000
vn -0.0000 -0.0000 1.0000
vn -0.0000 -1.0000 -0.0000
vn -0.0000 1.0000 -0.0000
vn -0.5773 -0.5774 0.5774
vn -0.5774 0.5774 0.5774
vn -0.5774 -0.5774 -0.5774
vn -0.5774 0.5774 -0.5774
vn 0.5773 -0.5774 0.5774
vn 0.5774 0.5774 0.5774
vn 0.5774 -0.5774 -0.5774
vn 0.5774 0.5774 -0.5774
vn -0.7071 -0.7071 -0.0000
vn -0.7071 -0.0000 0.7071
vn -0.7071 0.7071 -0.0000
vn -0.7071 -0.0000 -0.7071
vn -0.0000 -0.7071 -0.7071
vn -0.0000 0.7071 -0.7071
vn 0.7071 -0.0000 -0.7071
vn 0.7071 -0.7071 -0.0000
vn 0.7071 0.7071 -0.0000
vn 0.7071 -0.0000 0.7071
vn -0.0000 -0.7071 0.7071
vn -0.0000 0.7071 0.7071
vn 0.3090 -0.0000 -0.9511
vn 0.8090 -0.0000 -0.5878
vn 0.8090 -0.0000 0.5878
vn 0.3090 -0.0000 0.9511
vn -0.3090 -0.0000 0.9511
vn -0.8090 -0.0000 0.5878
vn -0.8090 -0.0000 -0.5878
vn -0.3090 -0.0000 -0.9511
vn 0.1603 0.8550 -0.4933
vn 0.4196 0.8550 -0.3049
vn 0.5186 0.8550 -0.0000
vn 0.4196 0.8550 0.3049
vn 0.1603 0.8550 0.4933
vn -0.1603 0.8550 0.4933
vn -0.4196 0.8550 0.3049
vn -0.5186 0.8550 -0.0000
vn -0.4196 0.8550 -0.3049
vn -0.1603 0.8550 -0.4933
vn -0.9239 0.0018 0.3827
vn -0.3827 0.0063 0.9239
vn 0.3827 0.0063 0.9239
vn 0.9239 0.0018 0.3827
vn 0.9239 -0.0000 -0.3827
vn 0.3827 0.0040 -0.9239
vn -0.3827 0.0040 -0.9239
vn -0.9239 -0.0000 -0.3827
vn -0.9221 -0.1352 0.3625
vn -0.3796 -0.3025 0.8743
vn 0.3796 -0.3025 0.8743
vn 0.9221 -0.1352 0.3625
vn 0.9212 0.1489 -0.3594
vn 0.3750 0.3725 -0.8489
vn -0.3750 0.3725 -0.8489
vn -0.9212 0.1489 -0.3594
vn -0.9125 -0.3780 0.1566
vn -0.3526 -0.8768 0.3269
vn 0.3526 -0.8768 0.3269
vn 0.9125 -0.3780 0.1566
vn 0.9138 0.3720 -0.1632
vn 0.3608 0.8517 -0.3800
vn -0.3608 0.8517 -0.3800
vn -0.9138 0.3720 -0.1632
vn -0.9212 -0.3891 -0.0000
vn -0.3763 -0.9265 -0.0011
vn 0.3763 -0.9265 -0.0011
vn 0.9212 -0.3891 -0.0000
vn 0.9212 0.3890 -0.0004
vn 0.3765 0.9264 -0.0015
vn -0.3765 0.9264 -0.0015
vn -0.9212 0.3890 -0.0004
vn 0.3827 -0.0000 -0.9239
vn 0.9239 -0.0000 0.3827
vn 0.3827 -0.0000 0.9239
vn -0.3827 -0.0000 0.9239
vn -0.9239 -0.0000 0.3827
vn -0.3827 -0.0000 -0.9239
vn 0.8480 0.4896 0.2028
vn -0.8480 0.4896 0.2028
vn -0.0000 -0.9239 -0.3827
vn 0.8480 0.2028 0.4896
vn -0.8480 0.2028 0.4896
vn -0.0000 -0.3827 -0.9239
vn 0.8480 -0.2028 0.4896
vn -0.8480 -0.2028 0.4896
vn -0.0000 0.3827 -0.9239
vn 0.8480 -0.4896 0.2028
vn -0.8480 -0.4896 0.2028
vn -0.0000 0.9239 -0.3827
vn 0.8480 -0.4896 -0.2028
vn -0.8480 -0.4896 -0.2028
vn -0.0000 0.9239 0.3827
vn 0.8480 -0.2028 -0.4896
vn -0.8480 -0.2028 -0.4896
vn -0.0000 0.3827 0.9239
vn 0.8480 0.2028 -0.4896
vn -0.8480 0.2028 -0.4896
vn -0.0000 -0.3827 0.9239
vn 0.8480 0.4896 -0.2028
vn -0.8480 0.4896 -0.2028
vn -0.0000 -0.9239 0.3827
vn -0.0000 -0.5000 -0.8660
vn -0.0000 -0.5000 0.8660
vn -0.0000 0.5000 0.8660
vn -0.0000 0.5000 -0.8660
vn -0.9212 -0.0000 0.3891
vn -0.3761 0.0044 0.9266
vn 0.3761 0.0044 0.9266
vn 0.9212 -0.0000 0.3891
vn 0.9213 0.0017 -0.3888
vn 0.3768 0.0056 -0.9263
vn -0.3768 0.0056 -0.9263
vn -0.9213 0.0017 -0.3888
vn -0.9125 -0.1566 0.3780
vn -0.3526 -0.3269 0.8768
vn 0.3526 -0.3269 0.8768
vn 0.9125 -0.1566 0.3780
vn 0.9138 0.1632 -0.3720
vn 0.3608 0.3800 -0.8517
vn -0.3608 0.3800 -0.8517
vn -0.9138 0.1632 -0.3720
vn -0.9221 -0.3625 0.1352
vn -0.3796 -0.8743 0.3025
vn 0.3796 -0.8743 0.3025
vn 0.9221 -0.3625 0.1352
vn 0.9212 0.3594 -0.1489
vn 0.3750 0.8489 -0.3725
vn -0.3750 0.8489 -0.3725
vn -0.9212 0.3594 -0.1489
vn -0.9239 -0.3827 -0.0005
vn -0.3827 -0.9239 -0.0015
vn 0.3827 -0.9239 -0.0015
vn 0.9239 -0.3827 -0.0005
vn 0.9239 0.3827 -0.0000
vn 0.3827 0.9239 -0.0011
vn -0.3827 0.9239 -0.0011
vn -0.9239 0.3827 -0.0000
s 0
usemtl steel_dark
f 2//1 3//1 1//1
f 4//2 7//2 3//2
f 8//3 5//3 7//3
f 6//4 1//4 5//4
f 7//5 1//5 3//5
f 4//6 6//6 8//6
f 156//83 154//83 153//83
f 154//84 158//84 155//84
f 158//85 153//85 155//85
f 159//86 157//86 156//86
f 160//87 158//87 157//87
f 161//88 156//88 158//88
f 162//89 160//89 159//89
f 160//90 164//90 161//90
f 164//91 159//91 161//91
f 165//92 163//92 162//92
f 166//93 164//93 163//93
f 167//94 162//94 164//94
f 168//95 166//95 165//95
f 166//96 170//96 167//96
f 170//97 165//97 167//97
f 171//98 169//98 168//98
f 169//99 173//99 170//99
f 173//100 168//100 170//100
f 174//101 172//101 171//101
f 175//102 173//102 172//102
f 173//103 174//103 171//103
f 174//104 154//104 175//104
f 154//105 176//105 175//105
f 155//106 174//106 176//106
f 178//1 179//1 177//1
f 180//2 183//2 179//2
f 184//3 181//3 183//3
f 182//4 177//4 181//4
f 183//5 177//5 179//5
f 180//6 182//6 184//6
f 186//1 187//1 185//1
f 188//2 191//2 187//2
f 192//3 189//3 191//3
f 190//4 185//4 189//4
f 191//5 185//5 187//5
f 188//6 190//6 192//6
f 194//1 195//1 193//1
f 196//2 199//2 195//2
f 200//3 197//3 199//3
f 198//4 193//4 197//4
f 199//5 193//5 195//5
f 196//6 198//6 200//6
f 2//1 4//1 3//1
f 4//2 8//2 7//2
f 8//3 6//3 5//3
f 6//4 2//4 1//4
f 7//5 5//5 1//5
f 4//6 2//6 6//6
f 156//83 157//83 154//83
f 154//84 157//84 158//84
f 158//85 156//85 153//85
f 159//86 160//86 157//86
f 160//87 161//87 158//87
f 161//88 159//88 156//88
f 162//89 163//89 160//89
f 160//90 163//90 164//90
f 164//91 162//91 159//91
f 165//92 166//92 163//92
f 166//93 167//93 164//93
f 167//94 165//94 162//94
f 168//95 169//95 166//95
f 166//96 169//96 170//96
f 170//97 168//97 165//97
f 171//98 172//98 169//98
f 169//99 172//99 173//99
f 173//100 171//100 168//100
f 174//101 175//101 172//101
f 175//102 176//102 173//102
f 173//103 176//103 174//103
f 174//104 153//104 154//104
f 154//105 155//105 176//105
f 155//106 153//106 174//106
f 178//1 180//1 179//1
f 180//2 184//2 183//2
f 184//3 182//3 181//3
f 182//4 178//4 177//4
f 183//5 181//5 177//5
f 180//6 178//6 182//6
f 186//1 188//1 187//1
f 188//2 192//2 191//2
f 192//3 190//3 189//3
f 190//4 186//4 185//4
f 191//5 189//5 185//5
f 188//6 186//6 190//6
f 194//1 196//1 195//1
f 196//2 200//2 199//2
f 200//3 198//3 197//3
f 198//4 194//4 193//4
f 199//5 197//5 193//5
f 196//6 194//6 198//6
usemtl galvanised
f 9//7 10//7 11//7
f 12//8 13//8 14//8
f 15//9 16//9 17//9
f 18//10 19//10 20//10
f 21//11 22//11 23//11
f 24//12 25//12 26//12
f 27//13 28//13 29//13
f 30//14 31//14 32//14
f 9//15 16//15 15//15
f 12//16 11//16 10//16
f 18//17 14//17 13//17
f 17//18 20//18 19//18
f 15//19 28//19 27//19
f 30//20 19//20 18//20
f 29//21 32//21 31//21
f 27//22 22//22 21//22
f 24//23 31//23 30//23
f 23//24 26//24 25//24
f 21//25 10//25 9//25
f 13//26 25//26 24//26
f 27//5 9//5 15//5
f 14//1 16//1 11//1
f 25//4 10//4 23//4
f 18//6 24//6 30//6
f 19//2 28//2 17//2
f 31//3 22//3 29//3
f 54//35 55//35 53//35
f 56//36 57//36 55//36
f 58//37 59//37 57//37
f 60//38 61//38 59//38
f 61//39 64//39 63//39
f 64//40 65//40 63//40
f 66//41 67//41 65//41
f 68//42 69//42 67//42
f 70//6 62//6 58//6
f 69//43 72//43 71//43
f 72//44 53//44 71//44
f 59//5 67//5 71//5
f 202//107 203//107 201//107
f 204//5 205//5 203//5
f 206//108 207//108 205//108
f 208//109 209//109 207//109
f 202//3 210//3 206//3
f 210//6 211//6 209//6
f 212//110 201//110 211//110
f 203//1 207//1 211//1
f 216//83 214//83 213//83
f 214//84 218//84 215//84
f 218//85 213//85 215//85
f 219//86 217//86 216//86
f 220//87 218//87 217//87
f 218//88 219//88 216//88
f 222//89 220//89 219//89
f 220//90 224//90 221//90
f 224//91 219//91 221//91
f 225//92 223//92 222//92
f 226//93 224//93 223//93
f 227//94 222//94 224//94
f 228//95 226//95 225//95
f 226//96 230//96 227//96
f 230//97 225//97 227//97
f 228//98 232//98 229//98
f 232//99 230//99 229//99
f 233//100 228//100 230//100
f 234//101 232//101 231//101
f 235//102 233//102 232//102
f 236//103 231//103 233//103
f 213//104 235//104 234//104
f 214//105 236//105 235//105
f 236//106 213//106 234//106
f 9//15 11//15 16//15
f 12//16 14//16 11//16
f 18//17 20//17 14//17
f 17//18 16//18 20//18
f 15//19 17//19 28//19
f 30//20 32//20 19//20
f 29//21 28//21 32//21
f 27//22 29//22 22//22
f 24//23 26//23 31//23
f 23//24 22//24 26//24
f 21//25 23//25 10//25
f 13//26 12//26 25//26
f 27//5 21//5 9//5
f 14//1 20//1 16//1
f 25//4 12//4 10//4
f 18//6 13//6 24//6
f 19//2 32//2 28//2
f 31//3 26//3 22//3
f 54//35 56//35 55//35
f 56//36 58//36 57//36
f 58//37 60//37 59//37
f 60//38 62//38 61//38
f 61//39 62//39 64//39
f 64//40 66//40 65//40
f 66//41 68//41 67//41
f 68//42 70//42 69//42
f 58//6 56//6 54//6
f 54//6 72//6 70//6
f 70//6 68//6 66//6
f 66//6 64//6 62//6
f 62//6 60//6 58//6
f 58//6 54//6 70//6
f 70//6 66//6 62//6
f 69//43 70//43 72//43
f 72//44 54//44 53//44
f 71//5 53//5 55//5
f 55//5 57//5 59//5
f 59//5 61//5 63//5
f 63//5 65//5 67//5
f 67//5 69//5 71//5
f 71//5 55//5 59//5
f 59//5 63//5 67//5
f 202//107 204//107 203//107
f 204//5 206//5 205//5
f 206//108 208//108 207//108
f 208//109 210//109 209//109
f 206//3 204//3 202//3
f 202//3 212//3 210//3
f 210//3 208//3 206//3
f 210//6 212//6 211//6
f 212//110 202//110 201//110
f 211//1 201//1 203//1
f 203//1 205//1 207//1
f 207//1 209//1 211//1
f 216//83 217//83 214//83
f 214//84 217//84 218//84
f 218//85 216//85 213//85
f 219//86 220//86 217//86
f 220//87 221//87 218//87
f 218//88 221//88 219//88
f 222//89 223//89 220//89
f 220//90 223//90 224//90
f 224//91 222//91 219//91
f 225//92 226//92 223//92
f 226//93 227//93 224//93
f 227//94 225//94 222//94
f 228//95 229//95 226//95
f 226//96 229//96 230//96
f 230//97 228//97 225//97
f 228//98 231//98 232//98
f 232//99 233//99 230//99
f 233//100 231//100 228//100
f 234//101 235//101 232//101
f 235//102 236//102 233//102
f 236//103 234//103 231//103
f 213//104 214//104 235//104
f 214//105 215//105 236//105
f 236//106 215//106 213//106
usemtl fluids_teal
f 34//27 35//27 33//27
f 36//28 37//28 35//28
f 38//3 39//3 37//3
f 40//29 41//29 39//29
f 42//30 43//30 41//30
f 44//31 45//31 43//31
f 46//32 47//32 45//32
f 48//1 49//1 47//1
f 50//6 42//6 38//6
f 50//33 51//33 49//33
f 52//34 33//34 51//34
f 39//5 47//5 51//5
f 75//4 73//4 74//4
f 76//4 73//4 75//4
f 76//4 80//4 73//4
f 77//4 80//4 76//4
f 77//4 79//4 80//4
f 78//4 79//4 77//4
f 81//5 83//5 82//5
f 88//5 83//5 81//5
f 88//5 84//5 83//5
f 87//5 84//5 88//5
f 87//5 85//5 84//5
f 86//5 85//5 87//5
f 97//45 96//45 89//45
f 98//46 89//46 90//46
f 91//47 98//47 90//47
f 92//48 99//48 91//48
f 93//49 100//49 92//49
f 94//50 101//50 93//50
f 103//51 94//51 95//51
f 104//52 95//52 96//52
f 105//53 104//53 97//53
f 106//54 97//54 98//54
f 99//55 106//55 98//55
f 100//56 107//56 99//56
f 101//57 108//57 100//57
f 102//58 109//58 101//58
f 111//59 102//59 103//59
f 112//60 103//60 104//60
f 105//61 120//61 112//61
f 106//62 113//62 105//62
f 115//63 106//63 107//63
f 116//64 107//64 108//64
f 117//65 108//65 109//65
f 118//66 109//66 110//66
f 111//67 118//67 110//67
f 112//68 119//68 111//68
f 113//69 128//69 120//69
f 114//70 121//70 113//70
f 123//71 114//71 115//71
f 124//72 115//72 116//72
f 125//73 116//73 117//73
f 126//74 117//74 118//74
f 119//75 126//75 118//75
f 120//76 127//76 119//76
f 130//77 131//77 129//77
f 132//49 133//49 131//49
f 134//78 135//78 133//78
f 136//79 137//79 135//79
f 138//80 139//80 137//80
f 140//81 141//81 139//81
f 142//6 138//6 134//6
f 142//52 143//52 141//52
f 144//82 129//82 143//82
f 135//5 139//5 143//5
f 34//27 36//27 35//27
f 36//28 38//28 37//28
f 38//3 40//3 39//3
f 40//29 42//29 41//29
f 42//30 44//30 43//30
f 44//31 46//31 45//31
f 46//32 48//32 47//32
f 48//1 50//1 49//1
f 38//6 36//6 34//6
f 34//6 52//6 50//6
f 50//6 48//6 46//6
f 46//6 44//6 42//6
f 42//6 40//6 38//6
f 38//6 34//6 50//6
f 50//6 46//6 42//6
f 50//33 52//33 51//33
f 52//34 34//34 33//34
f 51//5 33//5 35//5
f 35//5 37//5 39//5
f 39//5 41//5 43//5
f 43//5 45//5 47//5
f 47//5 49//5 51//5
f 51//5 35//5 39//5
f 39//5 43//5 47//5
f 97//111 104//111 96//111
f 98//112 97//112 89//112
f 91//113 99//113 98//113
f 92//114 100//114 99//114
f 93//115 101//115 100//115
f 94//116 102//116 101//116
f 103//117 102//117 94//117
f 104//118 103//118 95//118
f 105//119 112//119 104//119
f 106//120 105//120 97//120
f 99//121 107//121 106//121
f 100//122 108//122 107//122
f 101//123 109//123 108//123
f 102//124 110//124 109//124
f 111//125 110//125 102//125
f 112//126 111//126 103//126
f 105//127 113//127 120//127
f 106//128 114//128 113//128
f 115//129 114//129 106//129
f 116//130 115//130 107//130
f 117//131 116//131 108//131
f 118//132 117//132 109//132
f 111//133 119//133 118//133
f 112//134 120//134 119//134
f 113//135 121//135 128//135
f 114//136 122//136 121//136
f 123//137 122//137 114//137
f 124//138 123//138 115//138
f 125//139 124//139 116//139
f 126//140 125//140 117//140
f 119//141 127//141 126//141
f 120//142 128//142 127//142
f 130//77 132//77 131//77
f 132//49 134//49 133//49
f 134//78 136//78 135//78
f 136//79 138//79 137//79
f 138//80 140//80 139//80
f 140//81 142//81 141//81
f 134//6 132//6 130//6
f 130//6 144//6 142//6
f 142//6 140//6 138//6
f 138//6 136//6 134//6
f 134//6 130//6 142//6
f 142//52 144//52 143//52
f 144//82 130//82 129//82
f 143//5 129//5 131//5
f 131//5 133//5 135//5
f 135//5 137//5 139//5
f 139//5 141//5 143//5
f 143//5 131//5 135//5
usemtl electric_glow
f 146//1 147//1 145//1
f 148//2 151//2 147//2
f 152//3 149//3 151//3
f 150//4 145//4 149//4
f 151//5 145//5 147//5
f 148//6 150//6 152//6
f 146//1 148//1 147//1
f 148//2 152//2 151//2
f 152//3 150//3 149//3
f 150//4 146//4 145//4
f 151//5 149//5 145//5
f 148//6 146//6 150//6
