# Blender 5.2.0 LTS
# www.blender.org
mtllib pine_tree.mtl
o body
v 0.000000 0.000000 -0.360000
v 0.000000 12.000000 -0.360000
v 0.281459 0.000000 -0.224456
v 0.281459 12.000000 -0.224456
v 0.350974 0.000000 0.080108
v 0.350974 12.000000 0.080108
v 0.156198 0.000000 0.324349
v 0.156198 12.000000 0.324349
v -0.156198 0.000000 0.324349
v -0.156198 12.000000 0.324349
v -0.350974 0.000000 0.080108
v -0.350974 12.000000 0.080108
v -0.281459 0.000000 -0.224456
v -0.281459 12.000000 -0.224456
v 0.000000 5.600000 -2.600000
v 0.000000 11.000000 -0.800000
v 1.671248 5.600000 -1.991715
v 0.514230 11.000000 -0.612836
v 2.560500 5.600000 -0.451485
v 0.787846 11.000000 -0.138919
v 2.251666 5.600000 1.300000
v 0.692820 11.000000 0.400000
v 0.889252 5.600000 2.443201
v 0.273616 11.000000 0.751754
v -0.889252 5.600000 2.443201
v -0.273616 11.000000 0.751754
v -2.251666 5.600000 1.300000
v -0.692820 11.000000 0.400000
v -2.560500 5.600000 -0.451485
v -0.787846 11.000000 -0.138919
v -1.671248 5.600000 -1.991715
v -0.514230 11.000000 -0.612836
v -0.685795 9.000000 -1.878745
v -0.171449 13.400000 -0.469686
v 0.682285 9.000000 -1.880023
v 0.170571 13.400000 -0.470006
v 1.731116 9.000000 -1.001617
v 0.432779 13.400000 -0.250404
v 1.969939 9.000000 0.345456
v 0.492485 13.400000 0.086364
v 1.287006 9.000000 1.530887
v 0.321751 13.400000 0.382722
v 0.001868 9.000000 1.999999
v 0.000467 13.400000 0.500000
v -1.284143 9.000000 1.533289
v -0.321036 13.400000 0.383322
v -1.969290 9.000000 0.349136
v -0.492323 13.400000 0.087284
v -1.732984 9.000000 -0.998382
v -0.433246 13.400000 -0.249595
v -0.860827 12.000000 -0.836048
v 0.116932 12.000000 -1.194289
v 1.006639 12.000000 -0.653206
v 1.138326 12.000000 0.379754
v 0.412831 12.000000 1.126752
v -0.623535 12.000000 1.025283
v -1.190366 12.000000 0.151754
v 0.000000 15.000000 0.000000
vn 0.4339 -0.0000 -0.9010
vn 0.9749 -0.0000 -0.2225
vn 0.7818 -0.0000 0.6235
vn -0.0000 -0.0000 1.0000
vn -0.7818 -0.0000 0.6235
vn -0.0000 1.0000 -0.0000
vn -0.9749 -0.0000 -0.2225
vn -0.4339 -0.0000 -0.9010
vn -0.0000 -1.0000 -0.0000
vn 0.3264 0.2989 -0.8967
vn 0.8264 0.2989 -0.4771
vn 0.9398 0.2989 0.1657
vn 0.6134 0.2989 0.7310
vn -0.0000 0.2989 0.9543
vn -0.6134 0.2989 0.7310
vn -0.9398 0.2989 0.1657
vn -0.8264 0.2989 -0.4771
vn -0.3264 0.2989 -0.8967
vn -0.0009 0.3051 -0.9523
vn 0.6115 0.3051 -0.7301
vn 0.9377 0.3051 -0.1662
vn 0.8252 0.3051 0.4754
vn 0.3266 0.3051 0.8946
vn -0.3249 0.3051 0.8952
vn -0.8243 0.3051 0.4769
vn -0.9380 0.3051 -0.1645
vn -0.6128 0.3051 -0.7290
vn -0.3236 0.3390 -0.8833
vn 0.4888 0.3390 -0.8038
vn 0.9332 0.3390 -0.1190
vn 0.6749 0.3390 0.6554
vn -0.0917 0.3390 0.9363
vn -0.7892 0.3390 0.5121
vn -0.8924 0.3390 -0.2977
s 0
usemtl bark
f 2//1 3//1 1//1
f 4//2 5//2 3//2
f 6//3 7//3 5//3
f 8//4 9//4 7//4
f 10//5 11//5 9//5
f 2//6 12//6 8//6
f 12//7 13//7 11//7
f 14//8 1//8 13//8
f 3//9 7//9 11//9
f 2//1 4//1 3//1
f 4//2 6//2 5//2
f 6//3 8//3 7//3
f 8//4 10//4 9//4
f 10//5 12//5 11//5
f 6//6 4//6 2//6
f 2//6 14//6 12//6
f 12//6 10//6 8//6
f 8//6 6//6 2//6
f 12//7 14//7 13//7
f 14//8 2//8 1//8
f 13//9 1//9 3//9
f 3//9 5//9 7//9
f 7//9 9//9 11//9
f 11//9 13//9 3//9
usemtl needles_dark
f 16//10 17//10 15//10
f 18//11 19//11 17//11
f 19//12 22//12 21//12
f 22//13 23//13 21//13
f 24//14 25//14 23//14
f 25//15 28//15 27//15
f 28//16 29//16 27//16
f 16//6 26//6 22//6
f 30//17 31//17 29//17
f 32//18 15//18 31//18
f 17//9 25//9 29//9
f 16//10 18//10 17//10
f 18//11 20//11 19//11
f 19//12 20//12 22//12
f 22//13 24//13 23//13
f 24//14 26//14 25//14
f 25//15 26//15 28//15
f 28//16 30//16 29//16
f 20//6 18//6 16//6
f 16//6 32//6 30//6
f 30//6 28//6 26//6
f 26//6 24//6 22//6
f 22//6 20//6 16//6
f 16//6 30//6 26//6
f 30//17 32//17 31//17
f 32//18 16//18 15//18
f 31//9 15//9 17//9
f 17//9 19//9 21//9
f 21//9 23//9 25//9
f 25//9 27//9 29//9
f 29//9 31//9 17//9
f 17//9 21//9 25//9
usemtl needles
f 34//19 35//19 33//19
f 36//20 37//20 35//20
f 38//21 39//21 37//21
f 40//22 41//22 39//22
f 42//23 43//23 41//23
f 43//24 46//24 45//24
f 46//25 47//25 45//25
f 34//6 44//6 40//6
f 48//26 49//26 47//26
f 49//27 34//27 33//27
f 35//9 43//9 47//9
f 34//19 36//19 35//19
f 36//20 38//20 37//20
f 38//21 40//21 39//21
f 40//22 42//22 41//22
f 42//23 44//23 43//23
f 43//24 44//24 46//24
f 46//25 48//25 47//25
f 38//6 36//6 34//6
f 34//6 50//6 48//6
f 48//6 46//6 44//6
f 44//6 42//6 40//6
f 40//6 38//6 34//6
f 34//6 48//6 44//6
f 48//26 50//26 49//26
f 49//27 50//27 34//27
f 49//9 33//9 35//9
f 35//9 37//9 39//9
f 39//9 41//9 43//9
f 43//9 45//9 47//9
f 47//9 49//9 35//9
f 35//9 39//9 43//9
usemtl needles_light
f 51//28 58//28 52//28
f 52//29 58//29 53//29
f 53//30 58//30 54//30
f 54//31 58//31 55//31
f 55//32 58//32 56//32
f 52//9 54//9 56//9
f 56//33 58//33 57//33
f 57//34 58//34 51//34
f 57//9 51//9 52//9
f 52//9 53//9 54//9
f 54//9 55//9 56//9
f 56//9 57//9 52//9
