# Blender 5.2.0 LTS
# www.blender.org
mtllib pod.mtl
o body
v -6.000000 0.000000 4.000000
v -6.000000 6.400000 4.000000
v 3.000000 6.000000 3.000000
v -5.000000 6.000000 3.000000
v -6.000000 0.000000 -4.000000
v 3.000000 6.000000 -3.000000
v -6.000000 6.400000 -4.000000
v 5.000000 6.000000 3.000000
v -5.000000 6.000000 -3.000000
v 6.000000 0.000000 4.000000
v 6.000000 6.400000 4.000000
v 5.000000 6.000000 -3.000000
v 2.000000 6.000000 3.000000
v 6.000000 0.000000 -4.000000
v 6.000000 6.400000 -4.000000
v 2.000000 6.000000 -3.000000
v 2.000000 0.000000 -3.000000
v -5.000000 0.000000 3.000000
v -5.000000 0.000000 -3.000000
v 2.000000 0.000000 3.000000
v 3.000000 0.000000 3.000000
v 5.000000 0.000000 3.000000
v 3.000000 0.000000 -3.000000
v 5.000000 0.000000 -3.000000
v 6.000000 4.000000 -1.000000
v 6.000000 0.000000 1.000000
v 6.000000 0.000000 -1.000000
v 6.000000 4.000000 1.000000
v 5.000000 0.000000 1.000000
v 5.000000 0.000000 -1.000000
v 5.000000 4.000000 1.000000
v 5.000000 4.000000 -1.000000
v 5.390000 6.400000 0.900000
v 5.390000 6.400000 -0.900000
v 5.610000 6.400000 0.900000
v 5.610000 6.400000 -0.900000
v 5.390000 4.000000 -0.900000
v 5.610000 4.000000 -0.900000
v 5.390000 4.000000 0.900000
v 5.610000 4.000000 0.900000
v 2.000000 0.000000 1.000000
v 2.000000 0.000000 -1.000000
v 3.000000 0.000000 1.000000
v 3.000000 0.000000 -1.000000
v 2.000000 4.000000 1.000000
v 2.000000 4.000000 -1.000000
v 3.000000 4.000000 1.000000
v 3.000000 4.000000 -1.000000
v 2.390000 6.400000 -0.900000
v 2.610000 6.400000 -0.900000
v 2.390000 6.400000 0.900000
v 2.610000 6.400000 0.900000
v 2.390000 4.000000 -0.900000
v 2.610000 4.000000 -0.900000
v 2.390000 4.000000 0.900000
v 2.610000 4.000000 0.900000
v -3.600000 2.400000 4.000000
v -3.600000 3.600000 4.000000
v -1.400000 3.600000 4.000000
v -1.400000 2.400000 4.000000
v -3.600000 2.400000 3.000000
v -3.600000 3.600000 3.000000
v -1.400000 3.600000 3.000000
v -1.400000 2.400000 3.000000
v -3.000000 2.400000 -4.000000
v -3.000000 3.600000 -4.000000
v -1.200000 3.600000 -4.000000
v -1.200000 2.400000 -4.000000
v -1.200000 3.600000 -3.000000
v -3.000000 2.400000 -3.000000
v -3.000000 3.600000 -3.000000
v -1.200000 2.400000 -3.000000
v -5.600000 6.400000 3.400000
v -5.600000 8.000000 3.400000
v 2.390000 7.950000 0.900000
v 5.390000 7.950000 0.900000
v -5.600000 6.400000 -3.400000
v 2.390000 7.950000 -0.900000
v -5.600000 8.000000 -3.400000
v 2.610000 7.950000 0.900000
v 5.390000 7.950000 -0.900000
v 5.600000 6.400000 3.400000
v 5.600000 8.000000 3.400000
v 2.610000 7.950000 -0.900000
v 5.600000 6.400000 -3.400000
v 5.600000 8.000000 -3.400000
v 5.600000 7.950000 0.900000
v 5.600000 7.950000 -0.900000
v 5.600000 6.400000 0.900000
v 5.600000 6.400000 -0.900000
v 5.390000 6.400000 0.900000
v 5.390000 6.400000 -0.900000
v 2.390000 6.400000 -0.900000
v 2.610000 6.400000 -0.900000
v 2.390000 6.400000 0.900000
v 2.610000 6.400000 0.900000
v -5.600000 6.400000 4.000000
v -5.600000 6.400000 3.400000
v 5.600000 6.400000 4.000000
v 5.600000 6.400000 3.400000
v -5.600000 8.000000 3.400000
v 5.600000 8.000000 3.400000
v -5.600000 6.400000 -3.400000
v -5.600000 6.400000 -4.000000
v 5.600000 6.400000 -3.400000
v 5.600000 6.400000 -4.000000
v -5.600000 8.000000 -3.400000
v 5.600000 8.000000 -3.400000
v -6.000000 6.400000 3.400000
v -5.600000 6.400000 3.400000
v -6.000000 6.400000 -3.400000
v -5.600000 6.400000 -3.400000
v -5.600000 8.000000 3.400000
v -5.600000 8.000000 -3.400000
v 5.600000 6.400000 3.400000
v 6.000000 6.400000 3.400000
v 5.600000 6.400000 -3.400000
v 6.000000 6.400000 -3.400000
v 5.600000 8.000000 3.400000
v 5.600000 8.000000 -3.400000
v -3.600000 2.400000 3.550000
v -3.600000 3.600000 3.550000
v -3.600000 2.400000 3.450000
v -3.600000 3.600000 3.450000
v -1.400000 2.400000 3.550000
v -1.400000 3.600000 3.550000
v -1.400000 2.400000 3.450000
v -1.400000 3.600000 3.450000
v -3.000000 2.400000 -3.450000
v -3.000000 3.600000 -3.450000
v -3.000000 2.400000 -3.550000
v -3.000000 3.600000 -3.550000
v -1.200000 2.400000 -3.450000
v -1.200000 3.600000 -3.450000
v -1.200000 2.400000 -3.550000
v -1.200000 3.600000 -3.550000
v -5.000000 0.000000 3.000000
v -5.000000 0.015000 3.000000
v -5.000000 0.000000 -3.000000
v -5.000000 0.015000 -3.000000
v 2.000000 0.000000 3.000000
v 2.000000 0.015000 3.000000
v 2.000000 0.000000 -3.000000
v 2.000000 0.015000 -3.000000
v 3.000000 0.000000 3.000000
v 3.000000 0.015000 3.000000
v 3.000000 0.000000 -3.000000
v 3.000000 0.015000 -3.000000
v 5.000000 0.000000 3.000000
v 5.000000 0.015000 3.000000
v 5.000000 0.000000 -3.000000
v 5.000000 0.015000 -3.000000
v -6.015000 4.400001 4.014999
v -6.015000 4.800000 4.014999
v -6.015000 4.400001 4.000000
v -6.015000 4.800000 4.000000
v 6.015000 4.400001 4.014999
v 6.015000 4.800000 4.014999
v 6.015000 4.400001 4.000000
v 6.015000 4.800000 4.000000
v -6.015000 4.400001 -4.000000
v -6.015000 4.800000 -4.000000
v -6.015000 4.400001 -4.014999
v -6.015000 4.800000 -4.014999
v 6.015000 4.400001 -4.000000
v 6.015000 4.800000 -4.000000
v 6.015000 4.400001 -4.014999
v 6.015000 4.800000 -4.014999
v 6.000000 4.400001 4.000000
v 6.000000 4.800000 4.000000
v 6.000000 4.400001 -4.000000
v 6.000000 4.800000 -4.000000
v 6.014999 4.400001 4.000000
v 6.014999 4.800000 4.000000
v 6.014999 4.400001 -4.000000
v 6.014999 4.800000 -4.000000
v -6.014999 4.400001 4.000000
v -6.014999 4.800000 4.000000
v -6.014999 4.400001 -4.000000
v -6.014999 4.800000 -4.000000
v -6.000000 4.400001 4.000000
v -6.000000 4.800000 4.000000
v -6.000000 4.400001 -4.000000
v -6.000000 4.800000 -4.000000
v -4.950000 0.000000 2.950000
v -4.950000 0.300000 2.950000
v -4.950000 0.000000 1.050000
v -4.950000 0.300000 1.050000
v -1.050000 0.000000 2.950000
v -1.050000 0.300000 2.950000
v -1.050000 0.000000 1.050000
v -1.050000 0.300000 1.050000
v -4.900000 0.300000 2.900000
v -4.900000 0.420000 2.900000
v -4.900000 0.300000 1.100000
v -4.900000 0.420000 1.100000
v -1.100000 0.300000 2.900000
v -1.100000 0.420000 2.900000
v -1.100000 0.300000 1.100000
v -1.100000 0.420000 1.100000
v -3.900000 0.400000 2.920000
v -3.900000 0.480000 2.920000
v -3.900000 0.400000 1.080000
v -3.900000 0.480000 1.080000
v -1.080000 0.400000 2.920000
v -1.080000 0.480000 2.920000
v -1.080000 0.400000 1.080000
v -1.080000 0.480000 1.080000
v -4.800000 0.420000 2.600000
v -4.800000 0.520000 2.600000
v -4.800000 0.420000 1.400000
v -4.800000 0.520000 1.400000
v -4.200000 0.420000 2.600000
v -4.200000 0.520000 2.600000
v -4.200000 0.420000 1.400000
v -4.200000 0.520000 1.400000
v 6.000000 0.000000 1.250000
v 6.000000 4.250000 1.250000
v 6.000000 0.000000 1.000000
v 6.000000 4.250000 1.000000
v 6.014999 0.000000 1.250000
v 6.014999 4.250000 1.250000
v 6.014999 0.000000 1.000000
v 6.014999 4.250000 1.000000
v 6.000000 0.000000 -1.000000
v 6.000000 4.250000 -1.000000
v 6.000000 0.000000 -1.250000
v 6.000000 4.250000 -1.250000
v 6.014999 0.000000 -1.000000
v 6.014999 4.250000 -1.000000
v 6.014999 0.000000 -1.250000
v 6.014999 4.250000 -1.250000
v 6.000000 4.000000 1.250000
v 6.000000 4.250000 1.250000
v 6.000000 4.000000 -1.250000
v 6.000000 4.250000 -1.250000
v 6.014999 4.000000 1.250000
v 6.014999 4.250000 1.250000
v 6.014999 4.000000 -1.250000
v 6.014999 4.250000 -1.250000
v 3.000000 0.000000 1.250000
v 3.000000 4.250000 1.250000
v 3.000000 0.000000 1.000000
v 3.000000 4.250000 1.000000
v 3.015000 0.000000 1.250000
v 3.015000 4.250000 1.250000
v 3.015000 0.000000 1.000000
v 3.015000 4.250000 1.000000
v 3.000000 0.000000 -1.000000
v 3.000000 4.250000 -1.000000
v 3.000000 0.000000 -1.250000
v 3.000000 4.250000 -1.250000
v 3.015000 0.000000 -1.000000
v 3.015000 4.250000 -1.000000
v 3.015000 0.000000 -1.250000
v 3.015000 4.250000 -1.250000
v 3.000000 4.000000 1.250000
v 3.000000 4.250000 1.250000
v 3.000000 4.000000 -1.250000
v 3.000000 4.250000 -1.250000
v 3.015000 4.000000 1.250000
v 3.015000 4.250000 1.250000
v 3.015000 4.000000 -1.250000
v 3.015000 4.250000 -1.250000
v -6.014999 0.300000 2.055972
v -6.014999 6.000000 2.055972
v -6.014999 0.300000 1.955972
v -6.014999 6.000000 1.955972
v -6.000000 0.300000 2.055972
v -6.000000 6.000000 2.055972
v -6.000000 0.300000 1.955972
v -6.000000 6.000000 1.955972
v -6.014999 0.300000 -0.266917
v -6.014999 6.000000 -0.266917
v -6.014999 0.300000 -0.366917
v -6.014999 6.000000 -0.366917
v -6.000000 0.300000 -0.266917
v -6.000000 6.000000 -0.266917
v -6.000000 0.300000 -0.366917
v -6.000000 6.000000 -0.366917
v -6.014999 0.300000 -1.864722
v -6.014999 6.000000 -1.864722
v -6.014999 0.300000 -1.964722
v -6.014999 6.000000 -1.964722
v -6.000000 0.300000 -1.864722
v -6.000000 6.000000 -1.864722
v -6.000000 0.300000 -1.964722
v -6.000000 6.000000 -1.964722
v -4.000000 8.000000 -2.460000
v -4.000000 9.200001 -2.460000
v -3.948039 8.000000 -2.430000
v -3.948039 9.200001 -2.430000
v -3.948039 8.000000 -2.370000
v -3.948039 9.200001 -2.370000
v -4.000000 8.000000 -2.340000
v -4.000000 9.200001 -2.340000
v -4.051961 8.000000 -2.370000
v -4.051961 9.200001 -2.370000
v -4.051961 8.000000 -2.430000
v -4.051961 9.200001 -2.430000
v -4.000000 9.000000 -2.440000
v -4.000000 9.299999 -2.750000
v -3.971716 9.000000 -2.428284
v -3.752513 9.299999 -2.647487
v -3.960000 9.000000 -2.400000
v -3.650000 9.299999 -2.400000
v -3.971716 9.000000 -2.371716
v -3.752513 9.299999 -2.152513
v -4.000000 9.000000 -2.360000
v -4.000000 9.299999 -2.050000
v -4.028284 9.000000 -2.371716
v -4.247488 9.299999 -2.152513
v -4.040000 9.000000 -2.400000
v -4.350000 9.299999 -2.400000
v -4.028284 9.000000 -2.428284
v -4.247488 9.299999 -2.647487
v 0.910000 8.000000 0.590000
v 0.910000 8.009999 0.600000
v 0.900000 8.009999 0.590000
v 0.910000 8.019999 0.600000
v 0.910000 8.029999 0.590000
v 0.900000 8.019999 0.590000
v 0.910000 8.000000 -0.590000
v 0.900000 8.009999 -0.590000
v 0.910000 8.009999 -0.600000
v 0.910000 8.029999 -0.590000
v 0.910000 8.019999 -0.600000
v 0.900000 8.019999 -0.590000
v 2.090000 8.000000 0.590000
v 2.100000 8.009999 0.590000
v 2.090000 8.009999 0.600000
v 2.090000 8.029999 0.590000
v 2.090000 8.019999 0.600000
v 2.100000 8.019999 0.590000
v 2.090000 8.000000 -0.590000
v 2.090000 8.009999 -0.600000
v 2.100000 8.009999 -0.590000
v 2.090000 8.029999 -0.590000
v 2.100000 8.019999 -0.590000
v 2.090000 8.019999 -0.600000
v 1.200000 8.050001 -0.285000
v 1.200000 8.080000 -0.285000
v 1.200000 8.050001 -0.315000
v 1.200000 8.080000 -0.315000
v 1.800000 8.050001 -0.285000
v 1.800000 8.080000 -0.285000
v 1.800000 8.050001 -0.315000
v 1.800000 8.080000 -0.315000
vn -1.0000 -0.0000 -0.0000
vn -0.0000 -0.0000 -1.0000
vn 1.0000 -0.0000 -0.0000
vn -0.0000 -0.0000 1.0000
vn -0.0000 -1.0000 -0.0000
vn -0.0000 1.0000 -0.0000
vn -0.0000 0.3511 0.9363
vn -0.0000 0.3511 -0.9363
vn -0.9701 0.2425 -0.0000
vn 0.9701 0.2425 -0.0000
vn 0.5000 -0.0000 -0.8660
vn 0.5000 -0.0000 0.8660
vn -0.5000 -0.0000 0.8660
vn -0.5000 -0.0000 -0.8660
vn 0.2768 -0.6905 -0.6683
vn 0.6683 -0.6905 -0.2768
vn 0.6683 -0.6905 0.2768
vn 0.2768 -0.6905 0.6683
vn -0.2768 -0.6905 0.6683
vn -0.6683 -0.6905 0.2768
vn -0.6683 -0.6905 -0.2768
vn -0.2768 -0.6905 -0.6683
vn -0.5774 -0.5774 0.5773
vn -0.5774 0.5773 0.5774
vn -0.5774 -0.5774 -0.5773
vn -0.5774 0.5773 -0.5774
vn 0.5774 -0.5774 0.5773
vn 0.5774 0.5773 0.5774
vn 0.5774 -0.5774 -0.5773
vn 0.5774 0.5773 -0.5774
vn -0.7071 -0.7071 -0.0000
vn -0.7071 -0.0000 0.7071
vn -0.7071 0.7071 -0.0000
vn -0.7071 -0.0000 -0.7071
vn -0.0000 -0.7071 -0.7071
vn -0.0000 0.7071 -0.7071
vn 0.7071 -0.0000 -0.7071
vn 0.7071 -0.7071 -0.0000
vn 0.7071 0.7071 -0.0000
vn 0.7071 -0.0000 0.7071
vn -0.0000 -0.7071 0.7071
vn -0.0000 0.7071 0.7071
vn 0.2768 -0.6905 -0.6682
vn 0.6682 -0.6905 -0.2768
vn 0.6682 -0.6905 0.2768
vn 0.2768 -0.6905 0.6682
vn -0.2768 -0.6905 0.6682
vn -0.6682 -0.6905 0.2768
vn -0.6682 -0.6905 -0.2768
vn -0.2768 -0.6905 -0.6682
s 0
usemtl science_white
f 2//1 5//1 1//1
f 5//2 66//2 65//2
f 15//2 14//2 67//2
f 25//3 15//3 11//3
f 1//4 58//4 2//4
f 60//4 10//4 59//4
f 1//5 19//5 18//5
f 17//5 14//5 23//5
f 22//5 10//5 21//5
f 17//5 44//5 42//5
f 20//5 43//5 21//5
f 11//6 36//6 35//6
f 2//6 51//6 49//6
f 33//6 50//6 52//6
f 9//3 18//3 19//3
f 9//4 70//4 71//4
f 17//4 16//4 72//4
f 45//1 13//1 16//1
f 18//2 62//2 61//2
f 13//2 20//2 63//2
f 13//5 9//5 16//5
f 48//3 6//3 3//3
f 12//4 23//4 24//4
f 31//1 8//1 12//1
f 3//2 22//2 21//2
f 8//5 6//5 12//5
f 25//4 30//4 27//4
f 28//2 29//2 31//2
f 37//5 32//5 25//5
f 31//5 40//5 28//5
f 34//3 39//3 37//3
f 36//4 37//4 38//4
f 36//1 40//1 35//1
f 35//2 39//2 33//2
f 48//4 42//4 44//4
f 45//2 43//2 41//2
f 53//5 46//5 48//5
f 45//5 56//5 47//5
f 49//3 55//3 53//3
f 50//4 53//4 54//4
f 50//1 56//1 52//1
f 52//2 55//2 51//2
f 57//3 62//3 58//3
f 60//1 63//1 64//1
f 57//6 64//6 61//6
f 58//5 63//5 59//5
f 65//3 71//3 70//3
f 67//1 72//1 69//1
f 68//6 70//6 72//6
f 67//5 71//5 66//5
f 74//1 77//1 73//1
f 79//2 85//2 77//2
f 86//3 83//3 88//3
f 83//4 73//4 82//4
f 77//5 95//5 82//5
f 91//5 94//5 92//5
f 79//6 83//6 86//6
f 81//3 91//3 92//3
f 81//4 90//4 88//4
f 87//2 91//2 76//2
f 81//5 87//5 76//5
f 78//3 95//3 93//3
f 84//4 93//4 94//4
f 84//1 96//1 80//1
f 75//2 96//2 95//2
f 80//5 78//5 84//5
f 98//5 99//5 97//5
f 101//2 100//2 98//2
f 99//7 101//7 97//7
f 97//1 101//1 98//1
f 99//3 100//3 102//3
f 104//5 105//5 103//5
f 105//4 107//4 103//4
f 107//8 106//8 104//8
f 104//1 103//1 107//1
f 106//3 108//3 105//3
f 111//5 110//5 109//5
f 112//3 113//3 110//3
f 113//9 111//9 109//9
f 109//4 110//4 113//4
f 111//2 114//2 112//2
f 117//5 116//5 115//5
f 119//1 117//1 115//1
f 118//10 119//10 116//10
f 116//4 119//4 115//4
f 118//2 117//2 120//2
f 210//1 211//1 209//1
f 212//2 215//2 211//2
f 216//3 213//3 215//3
f 214//4 209//4 213//4
f 215//5 209//5 211//5
f 212//6 214//6 216//6
f 2//1 7//1 5//1
f 5//2 7//2 66//2
f 66//2 7//2 15//2
f 14//2 5//2 65//2
f 14//2 65//2 68//2
f 67//2 66//2 15//2
f 14//2 68//2 67//2
f 25//3 27//3 14//3
f 11//3 10//3 26//3
f 11//3 26//3 28//3
f 25//3 14//3 15//3
f 11//3 28//3 25//3
f 1//4 57//4 58//4
f 60//4 57//4 1//4
f 10//4 11//4 2//4
f 2//4 58//4 59//4
f 60//4 1//4 10//4
f 10//4 2//4 59//4
f 1//5 5//5 19//5
f 17//5 19//5 5//5
f 14//5 27//5 30//5
f 14//5 30//5 24//5
f 17//5 5//5 14//5
f 14//5 24//5 23//5
f 22//5 29//5 26//5
f 10//5 1//5 18//5
f 10//5 18//5 20//5
f 22//5 26//5 10//5
f 10//5 20//5 21//5
f 17//5 23//5 44//5
f 20//5 41//5 43//5
f 11//6 15//6 36//6
f 34//6 36//6 15//6
f 15//6 7//6 2//6
f 2//6 11//6 35//6
f 2//6 35//6 33//6
f 50//6 34//6 15//6
f 49//6 50//6 15//6
f 2//6 33//6 52//6
f 2//6 52//6 51//6
f 49//6 15//6 2//6
f 33//6 34//6 50//6
f 9//3 4//3 18//3
f 9//4 19//4 70//4
f 72//4 70//4 19//4
f 16//4 9//4 71//4
f 16//4 71//4 69//4
f 72//4 19//4 17//4
f 16//4 69//4 72//4
f 45//1 41//1 20//1
f 16//1 17//1 42//1
f 16//1 42//1 46//1
f 45//1 20//1 13//1
f 16//1 46//1 45//1
f 18//2 4//2 62//2
f 63//2 62//2 4//2
f 20//2 18//2 61//2
f 20//2 61//2 64//2
f 63//2 4//2 13//2
f 20//2 64//2 63//2
f 13//5 4//5 9//5
f 48//3 44//3 23//3
f 3//3 21//3 43//3
f 3//3 43//3 47//3
f 48//3 23//3 6//3
f 3//3 47//3 48//3
f 12//4 6//4 23//4
f 31//1 29//1 22//1
f 12//1 24//1 30//1
f 12//1 30//1 32//1
f 31//1 22//1 8//1
f 12//1 32//1 31//1
f 3//2 8//2 22//2
f 8//5 3//5 6//5
f 25//4 32//4 30//4
f 28//2 26//2 29//2
f 37//5 39//5 31//5
f 25//5 28//5 40//5
f 25//5 40//5 38//5
f 37//5 31//5 32//5
f 25//5 38//5 37//5
f 31//5 39//5 40//5
f 34//3 33//3 39//3
f 36//4 34//4 37//4
f 36//1 38//1 40//1
f 35//2 40//2 39//2
f 48//4 46//4 42//4
f 45//2 47//2 43//2
f 53//5 55//5 45//5
f 48//5 47//5 56//5
f 48//5 56//5 54//5
f 53//5 45//5 46//5
f 48//5 54//5 53//5
f 45//5 55//5 56//5
f 49//3 51//3 55//3
f 50//4 49//4 53//4
f 50//1 54//1 56//1
f 52//2 56//2 55//2
f 57//3 61//3 62//3
f 60//1 59//1 63//1
f 57//6 60//6 64//6
f 58//5 62//5 63//5
f 65//3 66//3 71//3
f 67//1 68//1 72//1
f 68//6 65//6 70//6
f 67//5 69//5 71//5
f 74//1 79//1 77//1
f 79//2 86//2 85//2
f 88//3 90//3 85//3
f 83//3 82//3 89//3
f 83//3 89//3 87//3
f 88//3 85//3 86//3
f 83//3 87//3 88//3
f 83//4 74//4 73//4
f 82//5 73//5 77//5
f 77//5 85//5 90//5
f 77//5 90//5 92//5
f 91//5 89//5 82//5
f 96//5 91//5 82//5
f 77//5 92//5 94//5
f 77//5 94//5 93//5
f 95//5 96//5 82//5
f 77//5 93//5 95//5
f 91//5 96//5 94//5
f 79//6 74//6 83//6
f 81//3 76//3 91//3
f 81//4 92//4 90//4
f 87//2 89//2 91//2
f 81//5 88//5 87//5
f 78//3 75//3 95//3
f 84//4 78//4 93//4
f 84//1 94//1 96//1
f 75//2 80//2 96//2
f 80//5 75//5 78//5
f 98//5 100//5 99//5
f 101//2 102//2 100//2
f 99//7 102//7 101//7
f 104//5 106//5 105//5
f 105//4 108//4 107//4
f 107//8 108//8 106//8
f 111//5 112//5 110//5
f 112//3 114//3 113//3
f 113//9 114//9 111//9
f 117//5 118//5 116//5
f 119//1 120//1 117//1
f 118//10 120//10 119//10
f 210//1 212//1 211//1
f 212//2 216//2 215//2
f 216//3 214//3 213//3
f 214//4 210//4 209//4
f 215//5 213//5 209//5
f 212//6 210//6 214//6
usemtl soot
f 122//1 123//1 121//1
f 124//2 127//2 123//2
f 128//3 125//3 127//3
f 126//4 121//4 125//4
f 127//5 121//5 123//5
f 124//6 126//6 128//6
f 130//1 131//1 129//1
f 132//2 135//2 131//2
f 136//3 133//3 135//3
f 134//4 129//4 133//4
f 135//5 129//5 131//5
f 132//6 134//6 136//6
f 122//1 124//1 123//1
f 124//2 128//2 127//2
f 128//3 126//3 125//3
f 126//4 122//4 121//4
f 127//5 125//5 121//5
f 124//6 122//6 126//6
f 130//1 132//1 131//1
f 132//2 136//2 135//2
f 136//3 134//3 133//3
f 134//4 130//4 129//4
f 135//5 133//5 129//5
f 132//6 130//6 134//6
usemtl steel_dark
f 138//1 139//1 137//1
f 140//2 143//2 139//2
f 144//3 141//3 143//3
f 142//4 137//4 141//4
f 143//5 137//5 139//5
f 140//6 142//6 144//6
f 146//1 147//1 145//1
f 148//2 151//2 147//2
f 152//3 149//3 151//3
f 150//4 145//4 149//4
f 151//5 145//5 147//5
f 148//6 150//6 152//6
f 186//1 187//1 185//1
f 188//2 191//2 187//2
f 192//3 189//3 191//3
f 190//4 185//4 189//4
f 191//5 185//5 187//5
f 188//6 190//6 192//6
f 138//1 140//1 139//1
f 140//2 144//2 143//2
f 144//3 142//3 141//3
f 142//4 138//4 137//4
f 143//5 141//5 137//5
f 140//6 138//6 142//6
f 146//1 148//1 147//1
f 148//2 152//2 151//2
f 152//3 150//3 149//3
f 150//4 146//4 145//4
f 151//5 149//5 145//5
f 148//6 146//6 150//6
f 186//1 188//1 187//1
f 188//2 192//2 191//2
f 192//3 190//3 189//3
f 190//4 186//4 185//4
f 191//5 189//5 185//5
f 188//6 186//6 190//6
usemtl mining_ochre
f 154//1 155//1 153//1
f 156//2 159//2 155//2
f 160//3 157//3 159//3
f 158//4 153//4 157//4
f 159//5 153//5 155//5
f 156//6 158//6 160//6
f 162//1 163//1 161//1
f 164//2 167//2 163//2
f 168//3 165//3 167//3
f 166//4 161//4 165//4
f 167//5 161//5 163//5
f 164//6 166//6 168//6
f 170//1 171//1 169//1
f 172//2 175//2 171//2
f 176//3 173//3 175//3
f 174//4 169//4 173//4
f 175//5 169//5 171//5
f 172//6 174//6 176//6
f 178//1 179//1 177//1
f 180//2 183//2 179//2
f 184//3 181//3 183//3
f 182//4 177//4 181//4
f 183//5 177//5 179//5
f 180//6 182//6 184//6
f 154//1 156//1 155//1
f 156//2 160//2 159//2
f 160//3 158//3 157//3
f 158//4 154//4 153//4
f 159//5 157//5 153//5
f 156//6 154//6 158//6
f 162//1 164//1 163//1
f 164//2 168//2 167//2
f 168//3 166//3 165//3
f 166//4 162//4 161//4
f 167//5 165//5 161//5
f 164//6 162//6 166//6
f 170//1 172//1 171//1
f 172//2 176//2 175//2
f 176//3 174//3 173//3
f 174//4 170//4 169//4
f 175//5 173//5 169//5
f 172//6 170//6 174//6
f 178//1 180//1 179//1
f 180//2 184//2 183//2
f 184//3 182//3 181//3
f 182//4 178//4 177//4
f 183//5 181//5 177//5
f 180//6 178//6 182//6
usemtl galvanised
f 194//1 195//1 193//1
f 196//2 199//2 195//2
f 200//3 197//3 199//3
f 198//4 193//4 197//4
f 199//5 193//5 195//5
f 196//6 198//6 200//6
f 290//11 291//11 289//11
f 292//3 293//3 291//3
f 294//12 295//12 293//12
f 296//13 297//13 295//13
f 290//6 298//6 294//6
f 298//1 299//1 297//1
f 300//14 289//14 299//14
f 291//5 295//5 299//5
f 302//15 303//15 301//15
f 304//16 305//16 303//16
f 306//17 307//17 305//17
f 307//18 310//18 309//18
f 310//19 311//19 309//19
f 311//20 314//20 313//20
f 314//6 310//6 306//6
f 314//21 315//21 313//21
f 315//22 302//22 301//22
f 307//5 311//5 315//5
f 342//1 343//1 341//1
f 344//2 347//2 343//2
f 348//3 345//3 347//3
f 346//4 341//4 345//4
f 347//5 341//5 343//5
f 344//6 346//6 348//6
f 194//1 196//1 195//1
f 196//2 200//2 199//2
f 200//3 198//3 197//3
f 198//4 194//4 193//4
f 199//5 197//5 193//5
f 196//6 194//6 198//6
f 290//11 292//11 291//11
f 292//3 294//3 293//3
f 294//12 296//12 295//12
f 296//13 298//13 297//13
f 294//6 292//6 290//6
f 290//6 300//6 298//6
f 298//6 296//6 294//6
f 298//1 300//1 299//1
f 300//14 290//14 289//14
f 299//5 289//5 291//5
f 291//5 293//5 295//5
f 295//5 297//5 299//5
f 302//43 304//43 303//43
f 304//44 306//44 305//44
f 306//45 308//45 307//45
f 307//46 308//46 310//46
f 310//47 312//47 311//47
f 311//48 312//48 314//48
f 306//6 304//6 302//6
f 302//6 316//6 314//6
f 314//6 312//6 310//6
f 310//6 308//6 306//6
f 306//6 302//6 314//6
f 314//49 316//49 315//49
f 315//50 316//50 302//50
f 315//5 301//5 303//5
f 303//5 305//5 307//5
f 307//5 309//5 311//5
f 311//5 313//5 315//5
f 315//5 303//5 307//5
f 342//1 344//1 343//1
f 344//2 348//2 347//2
f 348//3 346//3 345//3
f 346//4 342//4 341//4
f 347//5 345//5 341//5
f 344//6 342//6 346//6
usemtl fluids_teal
f 202//1 203//1 201//1
f 204//2 207//2 203//2
f 208//3 205//3 207//3
f 206//4 201//4 205//4
f 207//5 201//5 203//5
f 204//6 206//6 208//6
f 202//1 204//1 203//1
f 204//2 208//2 207//2
f 208//3 206//3 205//3
f 206//4 202//4 201//4
f 207//5 205//5 201//5
f 204//6 202//6 206//6
usemtl power_yellow
f 218//1 219//1 217//1
f 220//2 223//2 219//2
f 224//3 221//3 223//3
f 222//4 217//4 221//4
f 223//5 217//5 219//5
f 220//6 222//6 224//6
f 226//1 227//1 225//1
f 228//2 231//2 227//2
f 232//3 229//3 231//3
f 230//4 225//4 229//4
f 231//5 225//5 227//5
f 228//6 230//6 232//6
f 234//1 235//1 233//1
f 236//2 239//2 235//2
f 240//3 237//3 239//3
f 238//4 233//4 237//4
f 239//5 233//5 235//5
f 236//6 238//6 240//6
f 242//1 243//1 241//1
f 244//2 247//2 243//2
f 248//3 245//3 247//3
f 246//4 241//4 245//4
f 247//5 241//5 243//5
f 244//6 246//6 248//6
f 250//1 251//1 249//1
f 252//2 255//2 251//2
f 256//3 253//3 255//3
f 254//4 249//4 253//4
f 255//5 249//5 251//5
f 252//6 254//6 256//6
f 258//1 259//1 257//1
f 260//2 263//2 259//2
f 264//3 261//3 263//3
f 262//4 257//4 261//4
f 263//5 257//5 259//5
f 260//6 262//6 264//6
f 218//1 220//1 219//1
f 220//2 224//2 223//2
f 224//3 222//3 221//3
f 222//4 218//4 217//4
f 223//5 221//5 217//5
f 220//6 218//6 222//6
f 226//1 228//1 227//1
f 228//2 232//2 231//2
f 232//3 230//3 229//3
f 230//4 226//4 225//4
f 231//5 229//5 225//5
f 228//6 226//6 230//6
f 234//1 236//1 235//1
f 236//2 240//2 239//2
f 240//3 238//3 237//3
f 238//4 234//4 233//4
f 239//5 237//5 233//5
f 236//6 234//6 238//6
f 242//1 244//1 243//1
f 244//2 248//2 247//2
f 248//3 246//3 245//3
f 246//4 242//4 241//4
f 247//5 245//5 241//5
f 244//6 242//6 246//6
f 250//1 252//1 251//1
f 252//2 256//2 255//2
f 256//3 254//3 253//3
f 254//4 250//4 249//4
f 255//5 253//5 249//5
f 252//6 250//6 254//6
f 258//1 260//1 259//1
f 260//2 264//2 263//2
f 264//3 262//3 261//3
f 262//4 258//4 257//4
f 263//5 261//5 257//5
f 260//6 258//6 262//6
usemtl steel
f 266//1 267//1 265//1
f 268//2 271//2 267//2
f 272//3 269//3 271//3
f 270//4 265//4 269//4
f 271//5 265//5 267//5
f 268//6 270//6 272//6
f 274//1 275//1 273//1
f 276//2 279//2 275//2
f 280//3 277//3 279//3
f 278//4 273//4 277//4
f 279//5 273//5 275//5
f 276//6 278//6 280//6
f 282//1 283//1 281//1
f 284//2 287//2 283//2
f 288//3 285//3 287//3
f 286//4 281//4 285//4
f 287//5 281//5 283//5
f 284//6 286//6 288//6
f 317//23 318//23 319//23
f 320//24 321//24 322//24
f 323//25 324//25 325//25
f 326//26 327//26 328//26
f 329//27 330//27 331//27
f 332//28 333//28 334//28
f 335//29 336//29 337//29
f 338//30 339//30 340//30
f 317//31 324//31 323//31
f 320//32 319//32 318//32
f 326//33 322//33 321//33
f 325//34 328//34 327//34
f 323//35 336//35 335//35
f 338//36 327//36 326//36
f 337//37 340//37 339//37
f 335//38 330//38 329//38
f 332//39 339//39 338//39
f 331//40 334//40 333//40
f 329//41 318//41 317//41
f 321//42 333//42 332//42
f 335//5 317//5 323//5
f 322//1 324//1 319//1
f 333//4 318//4 331//4
f 326//6 332//6 338//6
f 327//2 336//2 325//2
f 339//3 330//3 337//3
f 266//1 268//1 267//1
f 268//2 272//2 271//2
f 272//3 270//3 269//3
f 270//4 266//4 265//4
f 271//5 269//5 265//5
f 268//6 266//6 270//6
f 274//1 276//1 275//1
f 276//2 280//2 279//2
f 280//3 278//3 277//3
f 278//4 274//4 273//4
f 279//5 277//5 273//5
f 276//6 274//6 278//6
f 282//1 284//1 283//1
f 284//2 288//2 287//2
f 288//3 286//3 285//3
f 286//4 282//4 281//4
f 287//5 285//5 281//5
f 284//6 282//6 286//6
f 317//31 319//31 324//31
f 320//32 322//32 319//32
f 326//33 328//33 322//33
f 325//34 324//34 328//34
f 323//35 325//35 336//35
f 338//36 340//36 327//36
f 337//37 336//37 340//37
f 335//38 337//38 330//38
f 332//39 334//39 339//39
f 331//40 330//40 334//40
f 329//41 331//41 318//41
f 321//42 320//42 333//42
f 335//5 329//5 317//5
f 322//1 328//1 324//1
f 333//4 320//4 318//4
f 326//6 321//6 332//6
f 327//2 340//2 336//2
f 339//3 334//3 330//3
