# Blender 5.2.0 LTS
# www.blender.org
mtllib pod_locker.mtl
o body
v -0.480000 0.000000 0.980000
v -0.480000 0.120000 0.980000
v -0.480000 0.000000 -0.980000
v -0.480000 0.120000 -0.980000
v 0.420000 0.000000 0.980000
v 0.420000 0.120000 0.980000
v 0.420000 0.000000 -0.980000
v 0.420000 0.120000 -0.980000
v -0.420000 0.120000 0.920000
v -0.420000 0.150000 0.950000
v -0.450000 0.150000 0.920000
v -0.420000 3.870000 0.950000
v -0.420000 3.900000 0.920000
v -0.450000 3.870000 0.920000
v -0.420000 0.120000 -0.920000
v -0.450000 0.150000 -0.920000
v -0.420000 0.150000 -0.950000
v -0.420000 3.900000 -0.920000
v -0.420000 3.870000 -0.950000
v -0.450000 3.870000 -0.920000
v 0.370000 0.120000 0.920000
v 0.400000 0.150000 0.920000
v 0.370000 0.150000 0.950000
v 0.370000 3.900000 0.920000
v 0.370000 3.870000 0.950000
v 0.400000 3.870000 0.920000
v 0.370000 0.120000 -0.920000
v 0.370000 0.150000 -0.950000
v 0.400000 0.150000 -0.920000
v 0.370000 3.900000 -0.920000
v 0.400000 3.870000 -0.920000
v 0.370000 3.870000 -0.950000
v 0.410000 0.300000 0.890000
v 0.410000 0.310000 0.900000
v 0.400000 0.310000 0.890000
v 0.410000 3.690000 0.900000
v 0.410000 3.700000 0.890000
v 0.400000 3.690000 0.890000
v 0.410000 0.300000 0.050000
v 0.400000 0.310000 0.050000
v 0.410000 0.310000 0.040000
v 0.410000 3.700000 0.050000
v 0.410000 3.690000 0.040000
v 0.400000 3.690000 0.050000
v 0.420000 0.300000 0.890000
v 0.430000 0.310000 0.890000
v 0.420000 0.310000 0.900000
v 0.420000 3.700000 0.890000
v 0.420000 3.690000 0.900000
v 0.430000 3.690000 0.890000
v 0.420000 0.300000 0.050000
v 0.420000 0.310000 0.040000
v 0.430000 0.310000 0.050000
v 0.420000 3.700000 0.050000
v 0.430000 3.690000 0.050000
v 0.420000 3.690000 0.040000
v 0.450000 2.835000 0.685000
v 0.450000 2.865000 0.685000
v 0.450000 2.835000 0.255000
v 0.450000 2.865000 0.255000
v 0.480000 2.835000 0.685000
v 0.480000 2.865000 0.685000
v 0.480000 2.835000 0.255000
v 0.480000 2.865000 0.255000
v 0.410000 0.300000 -0.050000
v 0.410000 0.310000 -0.040000
v 0.400000 0.310000 -0.050000
v 0.410000 3.690000 -0.040000
v 0.410000 3.700000 -0.050000
v 0.400000 3.690000 -0.050000
v 0.410000 0.300000 -0.890000
v 0.400000 0.310000 -0.890000
v 0.410000 0.310000 -0.900000
v 0.410000 3.700000 -0.890000
v 0.410000 3.690000 -0.900000
v 0.400000 3.690000 -0.890000
v 0.420000 0.300000 -0.050000
v 0.430000 0.310000 -0.050000
v 0.420000 0.310000 -0.040000
v 0.420000 3.700000 -0.050000
v 0.420000 3.690000 -0.040000
v 0.430000 3.690000 -0.050000
v 0.420000 0.300000 -0.890000
v 0.420000 0.310000 -0.900000
v 0.430000 0.310000 -0.890000
v 0.420000 3.700000 -0.890000
v 0.430000 3.690000 -0.890000
v 0.420000 3.690000 -0.900000
v 0.450000 2.835000 -0.255000
v 0.450000 2.865000 -0.255000
v 0.450000 2.835000 -0.685000
v 0.450000 2.865000 -0.685000
v 0.480000 2.835000 -0.255000
v 0.480000 2.865000 -0.255000
v 0.480000 2.835000 -0.685000
v 0.480000 2.865000 -0.685000
v 0.360000 0.120000 0.970000
v 0.360000 3.880000 0.970000
v 0.360000 0.120000 0.910000
v 0.360000 3.880000 0.910000
v 0.420000 0.120000 0.970000
v 0.420000 3.880000 0.970000
v 0.420000 0.120000 0.910000
v 0.420000 3.880000 0.910000
v 0.360000 0.120000 -0.910000
v 0.360000 3.880000 -0.910000
v 0.360000 0.120000 -0.970000
v 0.360000 3.880000 -0.970000
v 0.420000 0.120000 -0.910000
v 0.420000 3.880000 -0.910000
v 0.420000 0.120000 -0.970000
v 0.420000 3.880000 -0.970000
v 0.430000 3.061145 0.800000
v 0.430000 3.101145 0.800000
v 0.430000 3.061145 0.200000
v 0.430000 3.101145 0.200000
v 0.450000 3.061145 0.800000
v 0.450000 3.101145 0.800000
v 0.450000 3.061145 0.200000
v 0.450000 3.101145 0.200000
v 0.430000 3.259029 0.800000
v 0.430000 3.299029 0.800000
v 0.430000 3.259029 0.200000
v 0.430000 3.299029 0.200000
v 0.450000 3.259029 0.800000
v 0.450000 3.299029 0.800000
v 0.450000 3.259029 0.200000
v 0.450000 3.299029 0.200000
v 0.430000 3.514354 0.800000
v 0.430000 3.554354 0.800000
v 0.430000 3.514354 0.200000
v 0.430000 3.554354 0.200000
v 0.450000 3.514354 0.800000
v 0.450000 3.554354 0.800000
v 0.450000 3.514354 0.200000
v 0.450000 3.554354 0.200000
v 0.430000 3.150612 -0.200000
v 0.430000 3.190612 -0.200000
v 0.430000 3.150612 -0.800000
v 0.430000 3.190612 -0.800000
v 0.450000 3.150612 -0.200000
v 0.450000 3.190612 -0.200000
v 0.450000 3.150612 -0.800000
v 0.450000 3.190612 -0.800000
v 0.430000 3.441867 -0.200000
v 0.430000 3.481867 -0.200000
v 0.430000 3.441867 -0.800000
v 0.430000 3.481867 -0.800000
v 0.450000 3.441867 -0.200000
v 0.450000 3.481867 -0.200000
v 0.450000 3.441867 -0.800000
v 0.450000 3.481867 -0.800000
vn -1.0000 -0.0000 -0.0000
vn -0.0000 -0.0000 -1.0000
vn 1.0000 -0.0000 -0.0000
vn -0.0000 -0.0000 1.0000
vn -0.0000 -1.0000 -0.0000
vn -0.0000 1.0000 -0.0000
vn -0.5773 -0.5774 0.5774
vn -0.5774 0.5774 0.5774
vn -0.5773 -0.5774 -0.5774
vn -0.5774 0.5774 -0.5774
vn 0.5773 -0.5774 0.5774
vn 0.5774 0.5774 0.5774
vn 0.5773 -0.5774 -0.5774
vn 0.5774 0.5774 -0.5774
vn -0.7071 -0.7071 -0.0000
vn -0.7071 -0.0000 0.7071
vn -0.7071 0.7071 -0.0000
vn -0.7071 -0.0000 -0.7071
vn -0.0000 -0.7071 -0.7071
vn -0.0000 0.7071 -0.7071
vn 0.7071 -0.0000 -0.7071
vn 0.7071 -0.7071 -0.0000
vn 0.7071 0.7071 -0.0000
vn 0.7071 -0.0000 0.7071
vn -0.0000 -0.7071 0.7071
vn -0.0000 0.7071 0.7071
vn -0.5774 0.5773 0.5773
vn -0.5774 -0.5774 -0.5774
vn -0.5774 0.5773 -0.5773
vn 0.5774 0.5773 0.5773
vn 0.5774 -0.5774 -0.5774
vn 0.5774 0.5773 -0.5773
vn -0.5774 -0.5774 0.5774
vn 0.5774 -0.5774 0.5774
s 0
usemtl steel_dark
f 2//1 3//1 1//1
f 4//2 7//2 3//2
f 8//3 5//3 7//3
f 6//4 1//4 5//4
f 7//5 1//5 3//5
f 4//6 6//6 8//6
f 114//1 115//1 113//1
f 116//2 119//2 115//2
f 120//3 117//3 119//3
f 118//4 113//4 117//4
f 119//5 113//5 115//5
f 116//6 118//6 120//6
f 122//1 123//1 121//1
f 124//2 127//2 123//2
f 128//3 125//3 127//3
f 126//4 121//4 125//4
f 127//5 121//5 123//5
f 124//6 126//6 128//6
f 130//1 131//1 129//1
f 132//2 135//2 131//2
f 136//3 133//3 135//3
f 134//4 129//4 133//4
f 135//5 129//5 131//5
f 132//6 134//6 136//6
f 138//1 139//1 137//1
f 140//2 143//2 139//2
f 144//3 141//3 143//3
f 142//4 137//4 141//4
f 143//5 137//5 139//5
f 140//6 142//6 144//6
f 146//1 147//1 145//1
f 148//2 151//2 147//2
f 152//3 149//3 151//3
f 150//4 145//4 149//4
f 151//5 145//5 147//5
f 148//6 150//6 152//6
f 2//1 4//1 3//1
f 4//2 8//2 7//2
f 8//3 6//3 5//3
f 6//4 2//4 1//4
f 7//5 5//5 1//5
f 4//6 2//6 6//6
f 114//1 116//1 115//1
f 116//2 120//2 119//2
f 120//3 118//3 117//3
f 118//4 114//4 113//4
f 119//5 117//5 113//5
f 116//6 114//6 118//6
f 122//1 124//1 123//1
f 124//2 128//2 127//2
f 128//3 126//3 125//3
f 126//4 122//4 121//4
f 127//5 125//5 121//5
f 124//6 122//6 126//6
f 130//1 132//1 131//1
f 132//2 136//2 135//2
f 136//3 134//3 133//3
f 134//4 130//4 129//4
f 135//5 133//5 129//5
f 132//6 130//6 134//6
f 138//1 140//1 139//1
f 140//2 144//2 143//2
f 144//3 142//3 141//3
f 142//4 138//4 137//4
f 143//5 141//5 137//5
f 140//6 138//6 142//6
f 146//1 148//1 147//1
f 148//2 152//2 151//2
f 152//3 150//3 149//3
f 150//4 146//4 145//4
f 151//5 149//5 145//5
f 148//6 146//6 150//6
usemtl logistics_grey
f 9//7 10//7 11//7
f 12//8 13//8 14//8
f 15//9 16//9 17//9
f 18//10 19//10 20//10
f 21//11 22//11 23//11
f 24//12 25//12 26//12
f 27//13 28//13 29//13
f 30//14 31//14 32//14
f 9//15 16//15 15//15
f 12//16 11//16 10//16
f 18//17 14//17 13//17
f 17//18 20//18 19//18
f 15//19 28//19 27//19
f 30//20 19//20 18//20
f 29//21 32//21 31//21
f 27//22 22//22 21//22
f 24//23 31//23 30//23
f 23//24 26//24 25//24
f 21//25 10//25 9//25
f 13//26 25//26 24//26
f 27//5 9//5 15//5
f 14//1 16//1 11//1
f 25//4 10//4 23//4
f 18//6 24//6 30//6
f 19//2 28//2 17//2
f 31//3 22//3 29//3
f 9//15 11//15 16//15
f 12//16 14//16 11//16
f 18//17 20//17 14//17
f 17//18 16//18 20//18
f 15//19 17//19 28//19
f 30//20 32//20 19//20
f 29//21 28//21 32//21
f 27//22 29//22 22//22
f 24//23 26//23 31//23
f 23//24 22//24 26//24
f 21//25 23//25 10//25
f 13//26 12//26 25//26
f 27//5 21//5 9//5
f 14//1 20//1 16//1
f 25//4 12//4 10//4
f 18//6 13//6 24//6
f 19//2 32//2 28//2
f 31//3 26//3 22//3
usemtl steel
f 33//7 34//7 35//7
f 36//27 37//27 38//27
f 39//28 40//28 41//28
f 42//29 43//29 44//29
f 45//11 46//11 47//11
f 48//30 49//30 50//30
f 51//31 52//31 53//31
f 54//32 55//32 56//32
f 33//15 40//15 39//15
f 36//16 35//16 34//16
f 42//17 38//17 37//17
f 41//18 44//18 43//18
f 39//19 52//19 51//19
f 54//20 43//20 42//20
f 53//21 56//21 55//21
f 51//22 46//22 45//22
f 48//23 55//23 54//23
f 47//24 50//24 49//24
f 45//25 34//25 33//25
f 37//26 49//26 48//26
f 51//5 33//5 39//5
f 38//1 40//1 35//1
f 49//4 34//4 47//4
f 42//6 48//6 54//6
f 43//2 52//2 41//2
f 55//3 46//3 53//3
f 65//33 66//33 67//33
f 68//27 69//27 70//27
f 71//9 72//9 73//9
f 74//29 75//29 76//29
f 77//34 78//34 79//34
f 80//30 81//30 82//30
f 83//13 84//13 85//13
f 86//32 87//32 88//32
f 65//15 72//15 71//15
f 68//16 67//16 66//16
f 74//17 70//17 69//17
f 73//18 76//18 75//18
f 71//19 84//19 83//19
f 86//20 75//20 74//20
f 85//21 88//21 87//21
f 83//22 78//22 77//22
f 80//23 87//23 86//23
f 79//24 82//24 81//24
f 77//25 66//25 65//25
f 69//26 81//26 80//26
f 83//5 65//5 71//5
f 70//1 72//1 67//1
f 81//4 66//4 79//4
f 74//6 80//6 86//6
f 75//2 84//2 73//2
f 87//3 78//3 85//3
f 33//15 35//15 40//15
f 36//16 38//16 35//16
f 42//17 44//17 38//17
f 41//18 40//18 44//18
f 39//19 41//19 52//19
f 54//20 56//20 43//20
f 53//21 52//21 56//21
f 51//22 53//22 46//22
f 48//23 50//23 55//23
f 47//24 46//24 50//24
f 45//25 47//25 34//25
f 37//26 36//26 49//26
f 51//5 45//5 33//5
f 38//1 44//1 40//1
f 49//4 36//4 34//4
f 42//6 37//6 48//6
f 43//2 56//2 52//2
f 55//3 50//3 46//3
f 65//15 67//15 72//15
f 68//16 70//16 67//16
f 74//17 76//17 70//17
f 73//18 72//18 76//18
f 71//19 73//19 84//19
f 86//20 88//20 75//20
f 85//21 84//21 88//21
f 83//22 85//22 78//22
f 80//23 82//23 87//23
f 79//24 78//24 82//24
f 77//25 79//25 66//25
f 69//26 68//26 81//26
f 83//5 77//5 65//5
f 70//1 76//1 72//1
f 81//4 68//4 66//4
f 74//6 69//6 80//6
f 75//2 88//2 84//2
f 87//3 82//3 78//3
usemtl galvanised
f 58//1 59//1 57//1
f 60//2 63//2 59//2
f 64//3 61//3 63//3
f 62//4 57//4 61//4
f 63//5 57//5 59//5
f 60//6 62//6 64//6
f 90//1 91//1 89//1
f 92//2 95//2 91//2
f 96//3 93//3 95//3
f 94//4 89//4 93//4
f 95//5 89//5 91//5
f 92//6 94//6 96//6
f 58//1 60//1 59//1
f 60//2 64//2 63//2
f 64//3 62//3 61//3
f 62//4 58//4 57//4
f 63//5 61//5 57//5
f 60//6 58//6 62//6
f 90//1 92//1 91//1
f 92//2 96//2 95//2
f 96//3 94//3 93//3
f 94//4 90//4 89//4
f 95//5 93//5 89//5
f 92//6 90//6 94//6
usemtl power_yellow
f 98//1 99//1 97//1
f 100//2 103//2 99//2
f 104//3 101//3 103//3
f 102//4 97//4 101//4
f 103//5 97//5 99//5
f 100//6 102//6 104//6
f 106//1 107//1 105//1
f 108//2 111//2 107//2
f 112//3 109//3 111//3
f 110//4 105//4 109//4
f 111//5 105//5 107//5
f 108//6 110//6 112//6
f 98//1 100//1 99//1
f 100//2 104//2 103//2
f 104//3 102//3 101//3
f 102//4 98//4 97//4
f 103//5 101//5 97//5
f 100//6 98//6 102//6
f 106//1 108//1 107//1
f 108//2 112//2 111//2
f 112//3 110//3 109//3
f 110//4 106//4 105//4
f 111//5 109//5 105//5
f 108//6 106//6 110//6
