# Blender 5.2.0 LTS
# www.blender.org
mtllib pod_hatch.mtl
o body
v -0.500000 0.000000 1.000000
v -0.500000 4.000000 1.000000
v -0.500000 0.000000 0.880000
v -0.500000 4.000000 0.880000
v 0.500000 0.000000 1.000000
v 0.500000 4.000000 1.000000
v 0.500000 0.000000 0.880000
v 0.500000 4.000000 0.880000
v -0.500000 0.000000 -0.880000
v -0.500000 4.000000 -0.880000
v -0.500000 0.000000 -1.000000
v -0.500000 4.000000 -1.000000
v 0.500000 0.000000 -0.880000
v 0.500000 4.000000 -0.880000
v 0.500000 0.000000 -1.000000
v 0.500000 4.000000 -1.000000
v -0.500000 0.000000 0.880000
v -0.500000 0.060000 0.880000
v -0.500000 0.000000 -0.880000
v -0.500000 0.060000 -0.880000
v 0.500000 0.000000 0.880000
v 0.500000 0.060000 0.880000
v 0.500000 0.000000 -0.880000
v 0.500000 0.060000 -0.880000
v -0.100000 0.060000 0.900000
v -0.100000 3.960000 0.900000
v -0.100000 0.060000 0.860000
v -0.100000 3.960000 0.860000
v -0.070000 0.060000 0.900000
v -0.070000 3.960000 0.900000
v -0.070000 0.060000 0.860000
v -0.070000 3.960000 0.860000
v 0.070000 0.060000 0.900000
v 0.070000 3.960000 0.900000
v 0.070000 0.060000 0.860000
v 0.070000 3.960000 0.860000
v 0.100000 0.060000 0.900000
v 0.100000 3.960000 0.900000
v 0.100000 0.060000 0.860000
v 0.100000 3.960000 0.860000
v -0.100000 0.060000 -0.860000
v -0.100000 3.960000 -0.860000
v -0.100000 0.060000 -0.900000
v -0.100000 3.960000 -0.900000
v -0.070000 0.060000 -0.860000
v -0.070000 3.960000 -0.860000
v -0.070000 0.060000 -0.900000
v -0.070000 3.960000 -0.900000
v 0.070000 0.060000 -0.860000
v 0.070000 3.960000 -0.860000
v 0.070000 0.060000 -0.900000
v 0.070000 3.960000 -0.900000
v 0.100000 0.060000 -0.860000
v 0.100000 3.960000 -0.860000
v 0.100000 0.060000 -0.900000
v 0.100000 3.960000 -0.900000
v 0.480000 2.100000 0.980000
v 0.480000 2.700000 0.980000
v 0.480000 2.100000 0.900000
v 0.480000 2.700000 0.900000
v 0.505000 2.100000 0.980000
v 0.505000 2.700000 0.980000
v 0.505000 2.100000 0.900000
v 0.505000 2.700000 0.900000
v -0.505000 2.100000 -0.900000
v -0.505000 2.700000 -0.900000
v -0.505000 2.100000 -0.980000
v -0.505000 2.700000 -0.980000
v -0.480000 2.100000 -0.900000
v -0.480000 2.700000 -0.900000
v -0.480000 2.100000 -0.980000
v -0.480000 2.700000 -0.980000
vn -1.0000 -0.0000 -0.0000
vn -0.0000 -0.0000 -1.0000
vn 1.0000 -0.0000 -0.0000
vn -0.0000 -0.0000 1.0000
vn -0.0000 -1.0000 -0.0000
vn -0.0000 1.0000 -0.0000
s 0
usemtl steel_dark
f 2//1 3//1 1//1
f 4//2 7//2 3//2
f 8//3 5//3 7//3
f 6//4 1//4 5//4
f 7//5 1//5 3//5
f 4//6 6//6 8//6
f 10//1 11//1 9//1
f 12//2 15//2 11//2
f 16//3 13//3 15//3
f 14//4 9//4 13//4
f 15//5 9//5 11//5
f 12//6 14//6 16//6
f 2//1 4//1 3//1
f 4//2 8//2 7//2
f 8//3 6//3 5//3
f 6//4 2//4 1//4
f 7//5 5//5 1//5
f 4//6 2//6 6//6
f 10//1 12//1 11//1
f 12//2 16//2 15//2
f 16//3 14//3 13//3
f 14//4 10//4 9//4
f 15//5 13//5 9//5
f 12//6 10//6 14//6
usemtl hazard_black
f 18//1 19//1 17//1
f 20//2 23//2 19//2
f 24//3 21//3 23//3
f 22//4 17//4 21//4
f 23//5 17//5 19//5
f 20//6 22//6 24//6
f 18//1 20//1 19//1
f 20//2 24//2 23//2
f 24//3 22//3 21//3
f 22//4 18//4 17//4
f 23//5 21//5 17//5
f 20//6 18//6 22//6
usemtl galvanised
f 26//1 27//1 25//1
f 28//2 31//2 27//2
f 32//3 29//3 31//3
f 30//4 25//4 29//4
f 31//5 25//5 27//5
f 28//6 30//6 32//6
f 34//1 35//1 33//1
f 36//2 39//2 35//2
f 40//3 37//3 39//3
f 38//4 33//4 37//4
f 39//5 33//5 35//5
f 36//6 38//6 40//6
f 42//1 43//1 41//1
f 44//2 47//2 43//2
f 48//3 45//3 47//3
f 46//4 41//4 45//4
f 47//5 41//5 43//5
f 44//6 46//6 48//6
f 50//1 51//1 49//1
f 52//2 55//2 51//2
f 56//3 53//3 55//3
f 54//4 49//4 53//4
f 55//5 49//5 51//5
f 52//6 54//6 56//6
f 26//1 28//1 27//1
f 28//2 32//2 31//2
f 32//3 30//3 29//3
f 30//4 26//4 25//4
f 31//5 29//5 25//5
f 28//6 26//6 30//6
f 34//1 36//1 35//1
f 36//2 40//2 39//2
f 40//3 38//3 37//3
f 38//4 34//4 33//4
f 39//5 37//5 33//5
f 36//6 34//6 38//6
f 42//1 44//1 43//1
f 44//2 48//2 47//2
f 48//3 46//3 45//3
f 46//4 42//4 41//4
f 47//5 45//5 41//5
f 44//6 42//6 46//6
f 50//1 52//1 51//1
f 52//2 56//2 55//2
f 56//3 54//3 53//3
f 54//4 50//4 49//4
f 55//5 53//5 49//5
f 52//6 50//6 54//6
usemtl electric_glow
f 58//1 59//1 57//1
f 60//2 63//2 59//2
f 64//3 61//3 63//3
f 62//4 57//4 61//4
f 63//5 57//5 59//5
f 60//6 62//6 64//6
f 66//1 67//1 65//1
f 68//2 71//2 67//2
f 72//3 69//3 71//3
f 70//4 65//4 69//4
f 71//5 65//5 67//5
f 68//6 70//6 72//6
f 58//1 60//1 59//1
f 60//2 64//2 63//2
f 64//3 62//3 61//3
f 62//4 58//4 57//4
f 63//5 61//5 57//5
f 60//6 58//6 62//6
f 66//1 68//1 67//1
f 68//2 72//2 71//2
f 72//3 70//3 69//3
f 70//4 66//4 65//4
f 71//5 69//5 65//5
f 68//6 66//6 70//6
o part
v -0.050000 0.060000 0.850000
v -0.050000 0.070000 0.860000
v -0.060000 0.070000 0.850000
v -0.050000 3.950000 0.860000
v -0.050000 3.960000 0.850000
v -0.060000 3.950000 0.850000
v -0.050000 0.060000 -0.850000
v -0.060000 0.070000 -0.850000
v -0.050000 0.070000 -0.860000
v -0.050000 3.960000 -0.850000
v -0.050000 3.950000 -0.860000
v -0.060000 3.950000 -0.850000
v 0.050000 0.060000 0.850000
v 0.060000 0.070000 0.850000
v 0.050000 0.070000 0.860000
v 0.050000 3.960000 0.850000
v 0.050000 3.950000 0.860000
v 0.060000 3.950000 0.850000
v 0.050000 0.060000 -0.850000
v 0.050000 0.070000 -0.860000
v 0.060000 0.070000 -0.850000
v 0.050000 3.960000 -0.850000
v 0.060000 3.950000 -0.850000
v 0.050000 3.950000 -0.860000
v -0.065000 2.600000 0.250000
v -0.065000 3.200000 0.250000
v -0.065000 2.600000 -0.250000
v -0.065000 3.200000 -0.250000
v 0.065000 2.600000 0.250000
v 0.065000 3.200000 0.250000
v 0.065000 2.600000 -0.250000
v 0.065000 3.200000 -0.250000
v 0.060000 1.700000 0.550000
v 0.060000 2.300000 0.550000
v 0.060000 1.700000 0.470000
v 0.060000 2.300000 0.470000
v 0.100000 1.700000 0.550000
v 0.100000 2.300000 0.550000
v 0.100000 1.700000 0.470000
v 0.100000 2.300000 0.470000
v -0.100000 1.700000 -0.470000
v -0.100000 2.300000 -0.470000
v -0.100000 1.700000 -0.550000
v -0.100000 2.300000 -0.550000
v -0.060000 1.700000 -0.470000
v -0.060000 2.300000 -0.470000
v -0.060000 1.700000 -0.550000
v -0.060000 2.300000 -0.550000
v -0.065000 0.060000 0.860000
v -0.065000 0.300000 0.860000
v -0.065000 0.060000 -0.860000
v -0.065000 0.300000 -0.860000
v 0.065000 0.060000 0.860000
v 0.065000 0.300000 0.860000
v 0.065000 0.060000 -0.860000
v 0.065000 0.300000 -0.860000
vn -0.5774 -0.5773 0.5774
vn -0.5773 0.5774 0.5774
vn -0.5774 -0.5773 -0.5774
vn -0.5773 0.5774 -0.5774
vn 0.5774 -0.5773 0.5774
vn 0.5773 0.5774 0.5774
vn 0.5774 -0.5773 -0.5774
vn 0.5773 0.5774 -0.5774
vn -0.7071 -0.7071 -0.0000
vn -0.7071 -0.0000 0.7071
vn -0.7071 0.7071 -0.0000
vn -0.7071 -0.0000 -0.7071
vn -0.0000 -0.7071 -0.7071
vn -0.0000 0.7071 -0.7071
vn 0.7071 -0.0000 -0.7071
vn 0.7071 -0.7071 -0.0000
vn 0.7071 0.7071 -0.0000
vn 0.7071 -0.0000 0.7071
vn -0.0000 -0.7071 0.7071
vn -0.0000 0.7071 0.7071
vn -0.0000 -1.0000 -0.0000
vn -1.0000 -0.0000 -0.0000
vn -0.0000 -0.0000 1.0000
vn -0.0000 1.0000 -0.0000
vn -0.0000 -0.0000 -1.0000
vn 1.0000 -0.0000 -0.0000
s 0
usemtl steel
f 73//7 74//7 75//7
f 76//8 77//8 78//8
f 79//9 80//9 81//9
f 82//10 83//10 84//10
f 85//11 86//11 87//11
f 88//12 89//12 90//12
f 91//13 92//13 93//13
f 94//14 95//14 96//14
f 73//15 80//15 79//15
f 76//16 75//16 74//16
f 82//17 78//17 77//17
f 81//18 84//18 83//18
f 79//19 92//19 91//19
f 94//20 83//20 82//20
f 93//21 96//21 95//21
f 91//22 86//22 85//22
f 88//23 95//23 94//23
f 87//24 90//24 89//24
f 85//25 74//25 73//25
f 77//26 89//26 88//26
f 91//27 73//27 79//27
f 78//28 80//28 75//28
f 89//29 74//29 87//29
f 82//30 88//30 94//30
f 83//31 92//31 81//31
f 95//32 86//32 93//32
f 73//15 75//15 80//15
f 76//16 78//16 75//16
f 82//17 84//17 78//17
f 81//18 80//18 84//18
f 79//19 81//19 92//19
f 94//20 96//20 83//20
f 93//21 92//21 96//21
f 91//22 93//22 86//22
f 88//23 90//23 95//23
f 87//24 86//24 90//24
f 85//25 87//25 74//25
f 77//26 76//26 89//26
f 91//27 85//27 73//27
f 78//28 84//28 80//28
f 89//29 76//29 74//29
f 82//30 77//30 88//30
f 83//31 96//31 92//31
f 95//32 90//32 86//32
usemtl soot
f 98//28 99//28 97//28
f 100//31 103//31 99//31
f 104//32 101//32 103//32
f 102//29 97//29 101//29
f 103//27 97//27 99//27
f 100//30 102//30 104//30
f 98//28 100//28 99//28
f 100//31 104//31 103//31
f 104//32 102//32 101//32
f 102//29 98//29 97//29
f 103//27 101//27 97//27
f 100//30 98//30 102//30
usemtl galvanised
f 106//28 107//28 105//28
f 108//31 111//31 107//31
f 112//32 109//32 111//32
f 110//29 105//29 109//29
f 111//27 105//27 107//27
f 108//30 110//30 112//30
f 114//28 115//28 113//28
f 116//31 119//31 115//31
f 120//32 117//32 119//32
f 118//29 113//29 117//29
f 119//27 113//27 115//27
f 116//30 118//30 120//30
f 106//28 108//28 107//28
f 108//31 112//31 111//31
f 112//32 110//32 109//32
f 110//29 106//29 105//29
f 111//27 109//27 105//27
f 108//30 106//30 110//30
f 114//28 116//28 115//28
f 116//31 120//31 119//31
f 120//32 118//32 117//32
f 118//29 114//29 113//29
f 119//27 117//27 113//27
f 116//30 114//30 118//30
usemtl power_yellow
f 122//28 123//28 121//28
f 124//31 127//31 123//31
f 128//32 125//32 127//32
f 126//29 121//29 125//29
f 127//27 121//27 123//27
f 124//30 126//30 128//30
f 122//28 124//28 123//28
f 124//31 128//31 127//31
f 128//32 126//32 125//32
f 126//29 122//29 121//29
f 127//27 125//27 121//27
f 124//30 122//30 126//30
