# Blender 5.2.0 LTS
# www.blender.org
mtllib power_switch.mtl
o body
v -0.250000 0.000000 0.250000
v -0.250000 0.040000 0.250000
v -0.250000 0.000000 -0.250000
v -0.250000 0.040000 -0.250000
v 0.250000 0.000000 0.250000
v 0.250000 0.040000 0.250000
v 0.250000 0.000000 -0.250000
v 0.250000 0.040000 -0.250000
v -0.060000 0.040000 0.060000
v -0.060000 0.250000 0.060000
v -0.060000 0.040000 -0.060000
v -0.060000 0.250000 -0.060000
v 0.060000 0.040000 0.060000
v 0.060000 0.250000 0.060000
v 0.060000 0.040000 -0.060000
v 0.060000 0.250000 -0.060000
v -0.180000 0.250000 0.200000
v -0.180000 0.270000 0.220000
v -0.200000 0.270000 0.200000
v -0.180000 0.730000 0.220000
v -0.180000 0.750000 0.200000
v -0.200000 0.730000 0.200000
v -0.180000 0.250000 -0.200000
v -0.200000 0.270000 -0.200000
v -0.180000 0.270000 -0.220000
v -0.180000 0.750000 -0.200000
v -0.180000 0.730000 -0.220000
v -0.200000 0.730000 -0.200000
v 0.140000 0.250000 0.200000
v 0.160000 0.270000 0.200000
v 0.140000 0.270000 0.220000
v 0.140000 0.750000 0.200000
v 0.140000 0.730000 0.220000
v 0.160000 0.730000 0.200000
v 0.140000 0.250000 -0.200000
v 0.140000 0.270000 -0.220000
v 0.160000 0.270000 -0.200000
v 0.140000 0.750000 -0.200000
v 0.160000 0.730000 -0.200000
v 0.140000 0.730000 -0.220000
v 0.160000 0.550000 -0.130000
v 0.220000 0.550000 -0.130000
v 0.160000 0.514645 -0.115355
v 0.220000 0.514645 -0.115355
v 0.160000 0.500000 -0.080000
v 0.220000 0.500000 -0.080000
v 0.160000 0.514645 -0.044645
v 0.220000 0.514645 -0.044645
v 0.160000 0.550000 -0.030000
v 0.220000 0.550000 -0.030000
v 0.160000 0.585355 -0.044645
v 0.220000 0.585355 -0.044645
v 0.160000 0.600000 -0.080000
v 0.220000 0.600000 -0.080000
v 0.160000 0.585355 -0.115355
v 0.220000 0.585355 -0.115355
v 0.200000 0.550000 -0.060000
v 0.200000 0.720000 -0.060000
v 0.200000 0.550000 -0.100000
v 0.200000 0.720000 -0.100000
v 0.240000 0.550000 -0.060000
v 0.240000 0.720000 -0.060000
v 0.240000 0.550000 -0.100000
v 0.240000 0.720000 -0.100000
v 0.140000 0.595000 0.140000
v 0.140000 0.645000 0.140000
v 0.140000 0.595000 0.060000
v 0.140000 0.645000 0.060000
v 0.165000 0.595000 0.140000
v 0.165000 0.645000 0.140000
v 0.165000 0.595000 0.060000
v 0.165000 0.645000 0.060000
vn -1.0000 -0.0000 -0.0000
vn -0.0000 -0.0000 -1.0000
vn 1.0000 -0.0000 -0.0000
vn -0.0000 -0.0000 1.0000
vn -0.0000 -1.0000 -0.0000
vn -0.0000 1.0000 -0.0000
vn -0.5774 -0.5773 0.5774
vn -0.5773 0.5774 0.5774
vn -0.5774 -0.5773 -0.5774
vn -0.5773 0.5774 -0.5774
vn 0.5774 -0.5773 0.5773
vn 0.5773 0.5774 0.5774
vn 0.5774 -0.5773 -0.5773
vn 0.5773 0.5774 -0.5774
vn -0.7071 -0.7071 -0.0000
vn -0.7071 -0.0000 0.7071
vn -0.7071 0.7071 -0.0000
vn -0.7071 -0.0000 -0.7071
vn -0.0000 -0.7071 -0.7071
vn -0.0000 0.7071 -0.7071
vn 0.7071 -0.0000 -0.7071
vn 0.7071 -0.7071 -0.0000
vn 0.7071 0.7071 -0.0000
vn 0.7071 -0.0000 0.7071
vn -0.0000 -0.7071 0.7071
vn -0.0000 0.7071 0.7071
vn -0.0000 -0.3827 -0.9239
vn -0.0000 -0.9239 -0.3827
vn -0.0000 -0.9239 0.3827
vn -0.0000 -0.3827 0.9239
vn -0.0000 0.3827 0.9239
vn -0.0000 0.9239 0.3827
vn -0.0000 0.9239 -0.3827
vn -0.0000 0.3827 -0.9239
s 0
usemtl hazard_black
f 2//1 3//1 1//1
f 4//2 7//2 3//2
f 8//3 5//3 7//3
f 6//4 1//4 5//4
f 7//5 1//5 3//5
f 4//6 6//6 8//6
f 58//1 59//1 57//1
f 60//2 63//2 59//2
f 64//3 61//3 63//3
f 62//4 57//4 61//4
f 63//5 57//5 59//5
f 60//6 62//6 64//6
f 2//1 4//1 3//1
f 4//2 8//2 7//2
f 8//3 6//3 5//3
f 6//4 2//4 1//4
f 7//5 5//5 1//5
f 4//6 2//6 6//6
f 58//1 60//1 59//1
f 60//2 64//2 63//2
f 64//3 62//3 61//3
f 62//4 58//4 57//4
f 63//5 61//5 57//5
f 60//6 58//6 62//6
usemtl steel
f 10//1 11//1 9//1
f 12//2 15//2 11//2
f 16//3 13//3 15//3
f 14//4 9//4 13//4
f 15//5 9//5 11//5
f 12//6 14//6 16//6
f 10//1 12//1 11//1
f 12//2 16//2 15//2
f 16//3 14//3 13//3
f 14//4 10//4 9//4
f 15//5 13//5 9//5
f 12//6 10//6 14//6
usemtl power_yellow
f 17//7 18//7 19//7
f 20//8 21//8 22//8
f 23//9 24//9 25//9
f 26//10 27//10 28//10
f 29//11 30//11 31//11
f 32//12 33//12 34//12
f 35//13 36//13 37//13
f 38//14 39//14 40//14
f 17//15 24//15 23//15
f 20//16 19//16 18//16
f 26//17 22//17 21//17
f 25//18 28//18 27//18
f 23//19 36//19 35//19
f 38//20 27//20 26//20
f 37//21 40//21 39//21
f 35//22 30//22 29//22
f 32//23 39//23 38//23
f 31//24 34//24 33//24
f 29//25 18//25 17//25
f 21//26 33//26 32//26
f 35//5 17//5 23//5
f 22//1 24//1 19//1
f 33//4 18//4 31//4
f 26//6 32//6 38//6
f 27//2 36//2 25//2
f 39//3 30//3 37//3
f 17//15 19//15 24//15
f 20//16 22//16 19//16
f 26//17 28//17 22//17
f 25//18 24//18 28//18
f 23//19 25//19 36//19
f 38//20 40//20 27//20
f 37//21 36//21 40//21
f 35//22 37//22 30//22
f 32//23 34//23 39//23
f 31//24 30//24 34//24
f 29//25 31//25 18//25
f 21//26 20//26 33//26
f 35//5 29//5 17//5
f 22//1 28//1 24//1
f 33//4 20//4 18//4
f 26//6 21//6 32//6
f 27//2 40//2 36//2
f 39//3 34//3 30//3
usemtl galvanised
f 42//27 43//27 41//27
f 44//28 45//28 43//28
f 46//29 47//29 45//29
f 48//30 49//30 47//30
f 50//31 51//31 49//31
f 52//32 53//32 51//32
f 54//3 50//3 46//3
f 54//33 55//33 53//33
f 56//34 41//34 55//34
f 47//1 51//1 55//1
f 42//27 44//27 43//27
f 44//28 46//28 45//28
f 46//29 48//29 47//29
f 48//30 50//30 49//30
f 50//31 52//31 51//31
f 52//32 54//32 53//32
f 46//3 44//3 42//3
f 42//3 56//3 54//3
f 54//3 52//3 50//3
f 50//3 48//3 46//3
f 46//3 42//3 54//3
f 54//33 56//33 55//33
f 56//34 42//34 41//34
f 55//1 41//1 43//1
f 43//1 45//1 47//1
f 47//1 49//1 51//1
f 51//1 53//1 55//1
f 55//1 43//1 47//1
usemtl electric_glow
f 66//1 67//1 65//1
f 68//2 71//2 67//2
f 72//3 69//3 71//3
f 70//4 65//4 69//4
f 71//5 65//5 67//5
f 68//6 70//6 72//6
f 66//1 68//1 67//1
f 68//2 72//2 71//2
f 72//3 70//3 69//3
f 70//4 66//4 65//4
f 71//5 69//5 65//5
f 68//6 66//6 70//6
