# Blender 5.2.0 LTS
# www.blender.org
mtllib pump.mtl
o body
v -0.900000 0.000000 0.400000
v -0.900000 0.080000 0.400000
v -0.900000 0.000000 -0.400000
v -0.900000 0.080000 -0.400000
v 0.900000 0.000000 0.400000
v 0.900000 0.080000 0.400000
v 0.900000 0.000000 -0.400000
v 0.900000 0.080000 -0.400000
v -0.670000 0.080000 0.180000
v -0.670000 0.380000 0.180000
v -0.670000 0.080000 -0.180000
v -0.670000 0.380000 -0.180000
v -0.570000 0.080000 0.180000
v -0.570000 0.380000 0.180000
v -0.570000 0.080000 -0.180000
v -0.570000 0.380000 -0.180000
v 0.500000 0.080000 0.180000
v 0.500000 0.380000 0.180000
v 0.500000 0.080000 -0.180000
v 0.500000 0.380000 -0.180000
v 0.600000 0.080000 0.180000
v 0.600000 0.380000 0.180000
v 0.600000 0.080000 -0.180000
v 0.600000 0.380000 -0.180000
v -0.980000 0.500000 -0.160000
v 0.980000 0.500000 -0.160000
v -0.980000 0.405954 -0.129443
v 0.980000 0.405954 -0.129443
v -0.980000 0.347831 -0.049443
v 0.980000 0.347831 -0.049443
v -0.980000 0.347831 0.049443
v 0.980000 0.347831 0.049443
v -0.980000 0.405954 0.129443
v 0.980000 0.405954 0.129443
v -0.980000 0.500000 0.160000
v 0.980000 0.500000 0.160000
v -0.980000 0.594046 0.129443
v 0.980000 0.594046 0.129443
v -0.980000 0.652169 0.049443
v 0.980000 0.652169 0.049443
v -0.980000 0.652169 -0.049443
v 0.980000 0.652169 -0.049443
v -0.980000 0.594046 -0.129443
v 0.980000 0.594046 -0.129443
v 0.920000 0.500000 -0.220000
v 1.000000 0.500000 -0.220000
v 0.920000 0.344437 -0.155563
v 1.000000 0.344437 -0.155563
v 0.920000 0.280000 0.000000
v 1.000000 0.280000 0.000000
v 0.920000 0.344437 0.155563
v 1.000000 0.344437 0.155563
v 0.920000 0.500000 0.220000
v 1.000000 0.500000 0.220000
v 0.920000 0.655563 0.155563
v 1.000000 0.655563 0.155563
v 0.920000 0.720000 0.000000
v 1.000000 0.720000 0.000000
v 0.920000 0.655563 -0.155563
v 1.000000 0.655563 -0.155563
v -1.000000 0.500000 -0.220000
v -0.920000 0.500000 -0.220000
v -1.000000 0.344437 -0.155563
v -0.920000 0.344437 -0.155563
v -1.000000 0.280000 0.000000
v -0.920000 0.280000 0.000000
v -1.000000 0.344437 0.155563
v -0.920000 0.344437 0.155563
v -1.000000 0.500000 0.220000
v -0.920000 0.500000 0.220000
v -1.000000 0.655563 0.155563
v -0.920000 0.655563 0.155563
v -1.000000 0.720000 0.000000
v -0.920000 0.720000 0.000000
v -1.000000 0.655563 -0.155563
v -0.920000 0.655563 -0.155563
v -0.050000 0.200000 0.220000
v -0.050000 0.200000 -0.220000
v 0.126336 0.257295 0.220000
v 0.126336 0.257295 -0.220000
v 0.235317 0.407295 0.220000
v 0.235317 0.407295 -0.220000
v 0.235317 0.592705 0.220000
v 0.235317 0.592705 -0.220000
v 0.126336 0.742705 0.220000
v 0.126336 0.742705 -0.220000
v -0.050000 0.800000 0.220000
v -0.050000 0.800000 -0.220000
v -0.226336 0.742705 0.220000
v -0.226336 0.742705 -0.220000
v -0.335317 0.592705 0.220000
v -0.335317 0.592705 -0.220000
v -0.335317 0.407295 0.220000
v -0.335317 0.407295 -0.220000
v -0.226336 0.257295 0.220000
v -0.226336 0.257295 -0.220000
v 0.000000 0.740000 -0.160000
v 0.000000 0.980000 -0.160000
v 0.000000 0.740000 -0.200000
v 0.000000 0.980000 -0.200000
v 0.300000 0.740000 -0.160000
v 0.300000 0.980000 -0.160000
v 0.300000 0.740000 -0.200000
v 0.300000 0.980000 -0.200000
v 0.000000 0.740000 0.200000
v 0.000000 0.980000 0.200000
v 0.000000 0.740000 0.160000
v 0.000000 0.980000 0.160000
v 0.300000 0.740000 0.200000
v 0.300000 0.980000 0.200000
v 0.300000 0.740000 0.160000
v 0.300000 0.980000 0.160000
v -0.600000 0.660000 -0.030000
v -0.600000 0.860000 -0.030000
v -0.574019 0.660000 -0.015000
v -0.574019 0.860000 -0.015000
v -0.574019 0.660000 0.015000
v -0.574019 0.860000 0.015000
v -0.600000 0.660000 0.030000
v -0.600000 0.860000 0.030000
v -0.625981 0.660000 0.015000
v -0.625981 0.860000 0.015000
v -0.625981 0.660000 -0.015000
v -0.625981 0.860000 -0.015000
v -0.325000 0.885981 0.000000
v -0.370000 0.860000 0.000000
v -0.325000 0.834019 0.000000
v -0.405546 0.885981 -0.194454
v -0.437365 0.860000 -0.162635
v -0.405546 0.834019 -0.194454
v -0.600000 0.885981 -0.275000
v -0.600000 0.860000 -0.230000
v -0.600000 0.834019 -0.275000
v -0.794454 0.885981 -0.194454
v -0.762635 0.860000 -0.162635
v -0.794454 0.834019 -0.194454
v -0.875000 0.885981 -0.000000
v -0.830000 0.860000 -0.000000
v -0.875000 0.834019 -0.000000
v -0.794454 0.885981 0.194454
v -0.762635 0.860000 0.162635
v -0.794454 0.834019 0.194454
v -0.600000 0.885981 0.275000
v -0.600000 0.860000 0.230000
v -0.600000 0.834019 0.275000
v -0.405546 0.885981 0.194454
v -0.437365 0.860000 0.162635
v -0.405546 0.834019 0.194454
vn -1.0000 -0.0000 -0.0000
vn -0.0000 -0.0000 -1.0000
vn 1.0000 -0.0000 -0.0000
vn -0.0000 -0.0000 1.0000
vn -0.0000 -1.0000 -0.0000
vn -0.0000 1.0000 -0.0000
vn -0.0000 -0.3090 -0.9511
vn -0.0000 -0.8090 -0.5878
vn -0.0000 -0.8090 0.5878
vn -0.0000 -0.3090 0.9511
vn -0.0000 0.3090 0.9511
vn -0.0000 0.8090 0.5878
vn -0.0000 0.8090 -0.5878
vn -0.0000 0.3090 -0.9511
vn -0.0000 -0.3827 -0.9239
vn -0.0000 -0.9239 -0.3827
vn -0.0000 -0.9239 0.3827
vn -0.0000 -0.3827 0.9239
vn -0.0000 0.3827 0.9239
vn -0.0000 0.9239 0.3827
vn -0.0000 0.9239 -0.3827
vn -0.0000 0.3827 -0.9239
vn 0.3090 -0.9511 -0.0000
vn 0.8090 -0.5878 -0.0000
vn 0.8090 0.5878 -0.0000
vn 0.3090 0.9511 -0.0000
vn -0.3090 0.9511 -0.0000
vn -0.8090 0.5878 -0.0000
vn -0.8090 -0.5878 -0.0000
vn -0.3090 -0.9511 -0.0000
vn 0.5000 -0.0000 -0.8660
vn 0.5000 -0.0000 0.8660
vn -0.5000 -0.0000 0.8660
vn -0.5000 -0.0000 -0.8660
vn -0.4896 0.8480 0.2028
vn -0.4896 -0.8480 0.2028
vn 0.9239 -0.0000 -0.3827
vn -0.2028 0.8480 0.4896
vn -0.2028 -0.8480 0.4896
vn 0.3827 -0.0000 -0.9239
vn 0.2028 0.8480 0.4896
vn 0.2028 -0.8480 0.4896
vn -0.3827 -0.0000 -0.9239
vn 0.4896 0.8480 0.2028
vn 0.4896 -0.8480 0.2028
vn -0.9239 -0.0000 -0.3827
vn 0.4896 0.8480 -0.2028
vn 0.4896 -0.8480 -0.2028
vn -0.9239 -0.0000 0.3827
vn 0.2028 0.8480 -0.4896
vn 0.2028 -0.8480 -0.4896
vn -0.3827 -0.0000 0.9239
vn -0.2028 0.8480 -0.4896
vn -0.2028 -0.8480 -0.4896
vn 0.3827 -0.0000 0.9239
vn -0.4896 0.8480 -0.2028
vn -0.4896 -0.8480 -0.2028
vn 0.9239 -0.0000 0.3827
s 0
usemtl steel_dark
f 2//1 3//1 1//1
f 4//2 7//2 3//2
f 8//3 5//3 7//3
f 6//4 1//4 5//4
f 7//5 1//5 3//5
f 4//6 6//6 8//6
f 10//1 11//1 9//1
f 12//2 15//2 11//2
f 16//3 13//3 15//3
f 14//4 9//4 13//4
f 15//5 9//5 11//5
f 12//6 14//6 16//6
f 18//1 19//1 17//1
f 20//2 23//2 19//2
f 24//3 21//3 23//3
f 22//4 17//4 21//4
f 23//5 17//5 19//5
f 20//6 22//6 24//6
f 2//1 4//1 3//1
f 4//2 8//2 7//2
f 8//3 6//3 5//3
f 6//4 2//4 1//4
f 7//5 5//5 1//5
f 4//6 2//6 6//6
f 10//1 12//1 11//1
f 12//2 16//2 15//2
f 16//3 14//3 13//3
f 14//4 10//4 9//4
f 15//5 13//5 9//5
f 12//6 10//6 14//6
f 18//1 20//1 19//1
f 20//2 24//2 23//2
f 24//3 22//3 21//3
f 22//4 18//4 17//4
f 23//5 21//5 17//5
f 20//6 18//6 22//6
usemtl fluids_teal
f 26//7 27//7 25//7
f 28//8 29//8 27//8
f 30//5 31//5 29//5
f 32//9 33//9 31//9
f 34//10 35//10 33//10
f 36//11 37//11 35//11
f 38//12 39//12 37//12
f 40//6 41//6 39//6
f 42//3 34//3 30//3
f 42//13 43//13 41//13
f 44//14 25//14 43//14
f 31//1 39//1 43//1
f 78//23 79//23 77//23
f 80//24 81//24 79//24
f 82//3 83//3 81//3
f 84//25 85//25 83//25
f 86//26 87//26 85//26
f 88//27 89//27 87//27
f 90//28 91//28 89//28
f 92//1 93//1 91//1
f 94//2 86//2 82//2
f 94//29 95//29 93//29
f 96//30 77//30 95//30
f 83//4 91//4 95//4
f 26//7 28//7 27//7
f 28//8 30//8 29//8
f 30//5 32//5 31//5
f 32//9 34//9 33//9
f 34//10 36//10 35//10
f 36//11 38//11 37//11
f 38//12 40//12 39//12
f 40//6 42//6 41//6
f 30//3 28//3 26//3
f 26//3 44//3 42//3
f 42//3 40//3 38//3
f 38//3 36//3 34//3
f 34//3 32//3 30//3
f 30//3 26//3 42//3
f 42//3 38//3 34//3
f 42//13 44//13 43//13
f 44//14 26//14 25//14
f 43//1 25//1 27//1
f 27//1 29//1 31//1
f 31//1 33//1 35//1
f 35//1 37//1 39//1
f 39//1 41//1 43//1
f 43//1 27//1 31//1
f 31//1 35//1 39//1
f 78//23 80//23 79//23
f 80//24 82//24 81//24
f 82//3 84//3 83//3
f 84//25 86//25 85//25
f 86//26 88//26 87//26
f 88//27 90//27 89//27
f 90//28 92//28 91//28
f 92//1 94//1 93//1
f 82//2 80//2 78//2
f 78//2 96//2 94//2
f 94//2 92//2 90//2
f 90//2 88//2 86//2
f 86//2 84//2 82//2
f 82//2 78//2 94//2
f 94//2 90//2 86//2
f 94//29 96//29 95//29
f 96//30 78//30 77//30
f 95//4 77//4 79//4
f 79//4 81//4 83//4
f 83//4 85//4 87//4
f 87//4 89//4 91//4
f 91//4 93//4 95//4
f 95//4 79//4 83//4
f 83//4 87//4 91//4
usemtl steel
f 46//15 47//15 45//15
f 48//16 49//16 47//16
f 50//17 51//17 49//17
f 51//18 54//18 53//18
f 53//19 56//19 55//19
f 56//20 57//20 55//20
f 58//3 54//3 50//3
f 58//21 59//21 57//21
f 60//22 45//22 59//22
f 51//1 55//1 59//1
f 62//15 63//15 61//15
f 64//16 65//16 63//16
f 66//17 67//17 65//17
f 67//18 70//18 69//18
f 69//19 72//19 71//19
f 72//20 73//20 71//20
f 74//3 70//3 66//3
f 74//21 75//21 73//21
f 76//22 61//22 75//22
f 67//1 71//1 75//1
f 98//1 99//1 97//1
f 100//2 103//2 99//2
f 104//3 101//3 103//3
f 102//4 97//4 101//4
f 103//5 97//5 99//5
f 100//6 102//6 104//6
f 106//1 107//1 105//1
f 108//2 111//2 107//2
f 112//3 109//3 111//3
f 110//4 105//4 109//4
f 111//5 105//5 107//5
f 108//6 110//6 112//6
f 46//15 48//15 47//15
f 48//16 50//16 49//16
f 50//17 52//17 51//17
f 51//18 52//18 54//18
f 53//19 54//19 56//19
f 56//20 58//20 57//20
f 50//3 48//3 46//3
f 46//3 60//3 58//3
f 58//3 56//3 54//3
f 54//3 52//3 50//3
f 50//3 46//3 58//3
f 58//21 60//21 59//21
f 60//22 46//22 45//22
f 59//1 45//1 47//1
f 47//1 49//1 51//1
f 51//1 53//1 55//1
f 55//1 57//1 59//1
f 59//1 47//1 51//1
f 62//15 64//15 63//15
f 64//16 66//16 65//16
f 66//17 68//17 67//17
f 67//18 68//18 70//18
f 69//19 70//19 72//19
f 72//20 74//20 73//20
f 66//3 64//3 62//3
f 62//3 76//3 74//3
f 74//3 72//3 70//3
f 70//3 68//3 66//3
f 66//3 62//3 74//3
f 74//21 76//21 75//21
f 76//22 62//22 61//22
f 75//1 61//1 63//1
f 63//1 65//1 67//1
f 67//1 69//1 71//1
f 71//1 73//1 75//1
f 75//1 63//1 67//1
f 98//1 100//1 99//1
f 100//2 104//2 103//2
f 104//3 102//3 101//3
f 102//4 98//4 97//4
f 103//5 101//5 97//5
f 100//6 98//6 102//6
f 106//1 108//1 107//1
f 108//2 112//2 111//2
f 112//3 110//3 109//3
f 110//4 106//4 105//4
f 111//5 109//5 105//5
f 108//6 106//6 110//6
usemtl galvanised
f 114//31 115//31 113//31
f 116//3 117//3 115//3
f 118//32 119//32 117//32
f 120//33 121//33 119//33
f 114//6 122//6 118//6
f 122//1 123//1 121//1
f 124//34 113//34 123//34
f 115//5 119//5 123//5
f 128//35 126//35 125//35
f 126//36 130//36 127//36
f 130//37 125//37 127//37
f 131//38 129//38 128//38
f 132//39 130//39 129//39
f 133//40 128//40 130//40
f 134//41 132//41 131//41
f 135//42 133//42 132//42
f 136//43 131//43 133//43
f 137//44 135//44 134//44
f 138//45 136//45 135//45
f 139//46 134//46 136//46
f 140//47 138//47 137//47
f 141//48 139//48 138//48
f 142//49 137//49 139//49
f 143//50 141//50 140//50
f 144//51 142//51 141//51
f 145//52 140//52 142//52
f 146//53 144//53 143//53
f 147//54 145//54 144//54
f 148//55 143//55 145//55
f 146//56 126//56 147//56
f 126//57 148//57 147//57
f 127//58 146//58 148//58
f 114//31 116//31 115//31
f 116//3 118//3 117//3
f 118//32 120//32 119//32
f 120//33 122//33 121//33
f 118//6 116//6 114//6
f 114//6 124//6 122//6
f 122//6 120//6 118//6
f 122//1 124//1 123//1
f 124//34 114//34 113//34
f 123//5 113//5 115//5
f 115//5 117//5 119//5
f 119//5 121//5 123//5
f 128//35 129//35 126//35
f 126//36 129//36 130//36
f 130//37 128//37 125//37
f 131//38 132//38 129//38
f 132//39 133//39 130//39
f 133//40 131//40 128//40
f 134//41 135//41 132//41
f 135//42 136//42 133//42
f 136//43 134//43 131//43
f 137//44 138//44 135//44
f 138//45 139//45 136//45
f 139//46 137//46 134//46
f 140//47 141//47 138//47
f 141//48 142//48 139//48
f 142//49 140//49 137//49
f 143//50 144//50 141//50
f 144//51 145//51 142//51
f 145//52 143//52 140//52
f 146//53 147//53 144//53
f 147//54 148//54 145//54
f 148//55 146//55 143//55
f 146//56 125//56 126//56
f 126//57 127//57 148//57
f 127//58 125//58 146//58
o part
v -0.150000 1.000000 -0.130000
v 0.450000 1.000000 -0.130000
v -0.150000 0.923588 -0.105172
v 0.450000 0.923588 -0.105172
v -0.150000 0.876363 -0.040172
v 0.450000 0.876363 -0.040172
v -0.150000 0.876363 0.040172
v 0.450000 0.876363 0.040172
v -0.150000 0.923588 0.105172
v 0.450000 0.923588 0.105172
v -0.150000 1.000000 0.130000
v 0.450000 1.000000 0.130000
v -0.150000 1.076412 0.105172
v 0.450000 1.076412 0.105172
v -0.150000 1.123637 0.040172
v 0.450000 1.123637 0.040172
v -0.150000 1.123637 -0.040172
v 0.450000 1.123637 -0.040172
v -0.150000 1.076412 -0.105172
v 0.450000 1.076412 -0.105172
v 0.450000 1.000000 -0.090000
v 0.520000 1.000000 -0.090000
v 0.450000 0.936360 -0.063640
v 0.520000 0.936360 -0.063640
v 0.450000 0.910000 0.000000
v 0.520000 0.910000 0.000000
v 0.450000 0.936360 0.063640
v 0.520000 0.936360 0.063640
v 0.450000 1.000000 0.090000
v 0.520000 1.000000 0.090000
v 0.450000 1.063640 0.063640
v 0.520000 1.063640 0.063640
v 0.450000 1.090000 0.000000
v 0.520000 1.090000 0.000000
v 0.450000 1.063640 -0.063640
v 0.520000 1.063640 -0.063640
v 0.050000 1.100000 0.060000
v 0.050000 1.200000 0.060000
v 0.050000 1.100000 -0.060000
v 0.050000 1.200000 -0.060000
v 0.200000 1.100000 0.060000
v 0.200000 1.200000 0.060000
v 0.200000 1.100000 -0.060000
v 0.200000 1.200000 -0.060000
vn -0.0000 -0.3090 -0.9511
vn -0.0000 -0.8090 -0.5878
vn -0.0000 -1.0000 -0.0000
vn -0.0000 -0.8090 0.5878
vn -0.0000 -0.3090 0.9511
vn -0.0000 0.3090 0.9511
vn -0.0000 0.8090 0.5878
vn -0.0000 1.0000 -0.0000
vn 1.0000 -0.0000 -0.0000
vn -0.0000 0.8090 -0.5878
vn -0.0000 0.3090 -0.9511
vn -1.0000 -0.0000 -0.0000
vn -0.0000 -0.3827 -0.9239
vn -0.0000 -0.9239 -0.3827
vn -0.0000 -0.9239 0.3827
vn -0.0000 -0.3827 0.9239
vn -0.0000 0.3827 0.9239
vn -0.0000 0.9239 0.3827
vn -0.0000 0.9239 -0.3827
vn -0.0000 0.3827 -0.9239
vn -0.0000 -0.0000 -1.0000
vn -0.0000 -0.0000 1.0000
s 0
usemtl steel_dark
f 150//59 151//59 149//59
f 151//60 154//60 153//60
f 154//61 155//61 153//61
f 156//62 157//62 155//62
f 158//63 159//63 157//63
f 160//64 161//64 159//64
f 162//65 163//65 161//65
f 164//66 165//66 163//66
f 166//67 158//67 154//67
f 166//68 167//68 165//68
f 168//69 149//69 167//69
f 155//70 163//70 167//70
f 150//59 152//59 151//59
f 151//60 152//60 154//60
f 154//61 156//61 155//61
f 156//62 158//62 157//62
f 158//63 160//63 159//63
f 160//64 162//64 161//64
f 162//65 164//65 163//65
f 164//66 166//66 165//66
f 154//67 152//67 150//67
f 150//67 168//67 166//67
f 166//67 164//67 162//67
f 162//67 160//67 158//67
f 158//67 156//67 154//67
f 154//67 150//67 166//67
f 166//67 162//67 158//67
f 166//68 168//68 167//68
f 168//69 150//69 149//69
f 167//70 149//70 151//70
f 151//70 153//70 155//70
f 155//70 157//70 159//70
f 159//70 161//70 163//70
f 163//70 165//70 167//70
f 167//70 151//70 155//70
f 155//70 159//70 163//70
usemtl galvanised
f 170//71 171//71 169//71
f 172//72 173//72 171//72
f 174//73 175//73 173//73
f 176//74 177//74 175//74
f 177//75 180//75 179//75
f 180//76 181//76 179//76
f 182//67 178//67 174//67
f 182//77 183//77 181//77
f 184//78 169//78 183//78
f 175//70 179//70 183//70
f 170//71 172//71 171//71
f 172//72 174//72 173//72
f 174//73 176//73 175//73
f 176//74 178//74 177//74
f 177//75 178//75 180//75
f 180//76 182//76 181//76
f 174//67 172//67 170//67
f 170//67 184//67 182//67
f 182//67 180//67 178//67
f 178//67 176//67 174//67
f 174//67 170//67 182//67
f 182//77 184//77 183//77
f 184//78 170//78 169//78
f 183//70 169//70 171//70
f 171//70 173//70 175//70
f 175//70 177//70 179//70
f 179//70 181//70 183//70
f 183//70 171//70 175//70
usemtl power_yellow
f 186//70 187//70 185//70
f 188//79 191//79 187//79
f 192//67 189//67 191//67
f 190//80 185//80 189//80
f 191//61 185//61 187//61
f 188//66 190//66 192//66
f 186//70 188//70 187//70
f 188//79 192//79 191//79
f 192//67 190//67 189//67
f 190//80 186//80 185//80
f 191//61 189//61 185//61
f 188//66 186//66 190//66
