# Blender 5.2.0 LTS
# www.blender.org
mtllib schematic_crate.mtl
o body
v -0.400000 0.000000 0.400000
v -0.400000 0.020000 0.420000
v -0.420000 0.020000 0.400000
v -0.400000 0.680000 0.420000
v -0.400000 0.700000 0.400000
v -0.420000 0.680000 0.400000
v -0.400000 0.000000 -0.400000
v -0.420000 0.020000 -0.400000
v -0.400000 0.020000 -0.420000
v -0.400000 0.700000 -0.400000
v -0.400000 0.680000 -0.420000
v -0.420000 0.680000 -0.400000
v 0.400000 0.000000 0.400000
v 0.420000 0.020000 0.400000
v 0.400000 0.020000 0.420000
v 0.400000 0.700000 0.400000
v 0.400000 0.680000 0.420000
v 0.420000 0.680000 0.400000
v 0.400000 0.000000 -0.400000
v 0.400000 0.020000 -0.420000
v 0.420000 0.020000 -0.400000
v 0.400000 0.700000 -0.400000
v 0.420000 0.680000 -0.400000
v 0.400000 0.680000 -0.420000
v -0.440000 0.000000 0.440000
v -0.440000 0.060000 0.440000
v -0.440000 0.000000 -0.440000
v -0.440000 0.060000 -0.440000
v 0.440000 0.000000 0.440000
v 0.440000 0.060000 0.440000
v 0.440000 0.000000 -0.440000
v 0.440000 0.060000 -0.440000
v -0.440000 0.640000 0.440000
v -0.440000 0.720000 0.440000
v -0.440000 0.640000 -0.440000
v -0.440000 0.720000 -0.440000
v 0.440000 0.640000 0.440000
v 0.440000 0.720000 0.440000
v 0.440000 0.640000 -0.440000
v 0.440000 0.720000 -0.440000
v 0.450000 0.300000 0.050000
v 0.450000 0.460000 0.050000
v 0.450000 0.300000 -0.050000
v 0.450000 0.460000 -0.050000
v 0.490000 0.300000 0.050000
v 0.490000 0.460000 0.050000
v 0.490000 0.300000 -0.050000
v 0.490000 0.460000 -0.050000
v -0.150000 0.375000 -0.400000
v -0.150000 0.425000 -0.400000
v -0.150000 0.375000 -0.425000
v -0.150000 0.425000 -0.425000
v 0.150000 0.375000 -0.400000
v 0.150000 0.425000 -0.400000
v 0.150000 0.375000 -0.425000
v 0.150000 0.425000 -0.425000
v 0.420000 0.060000 0.234247
v 0.420000 0.640000 0.234247
v 0.420000 0.060000 0.174247
v 0.420000 0.640000 0.174247
v 0.450000 0.060000 0.234247
v 0.450000 0.640000 0.234247
v 0.450000 0.060000 0.174247
v 0.450000 0.640000 0.174247
v 0.420000 0.060000 -0.089329
v 0.420000 0.640000 -0.089329
v 0.420000 0.060000 -0.149329
v 0.420000 0.640000 -0.149329
v 0.450000 0.060000 -0.089329
v 0.450000 0.640000 -0.089329
v 0.450000 0.060000 -0.149329
v 0.450000 0.640000 -0.149329
v -0.450000 0.060000 0.279092
v -0.450000 0.640000 0.279092
v -0.450000 0.060000 0.219092
v -0.450000 0.640000 0.219092
v -0.420000 0.060000 0.279092
v -0.420000 0.640000 0.279092
v -0.420000 0.060000 0.219092
v -0.420000 0.640000 0.219092
v -0.450000 0.060000 0.031004
v -0.450000 0.640000 0.031004
v -0.450000 0.060000 -0.028996
v -0.450000 0.640000 -0.028996
v -0.420000 0.060000 0.031004
v -0.420000 0.640000 0.031004
v -0.420000 0.060000 -0.028996
v -0.420000 0.640000 -0.028996
v -0.450000 0.060000 -0.162385
v -0.450000 0.640000 -0.162385
v -0.450000 0.060000 -0.222385
v -0.450000 0.640000 -0.222385
v -0.420000 0.060000 -0.162385
v -0.420000 0.640000 -0.162385
v -0.420000 0.060000 -0.222385
v -0.420000 0.640000 -0.222385
vn -0.5774 -0.5773 0.5773
vn -0.5774 0.5774 0.5774
vn -0.5774 -0.5773 -0.5773
vn -0.5774 0.5774 -0.5774
vn 0.5774 -0.5773 0.5773
vn 0.5774 0.5774 0.5774
vn 0.5774 -0.5773 -0.5773
vn 0.5774 0.5774 -0.5774
vn -0.7071 -0.7071 -0.0000
vn -0.7071 -0.0000 0.7071
vn -0.7071 0.7071 -0.0000
vn -0.7071 -0.0000 -0.7071
vn -0.0000 -0.7071 -0.7071
vn -0.0000 0.7071 -0.7071
vn 0.7071 -0.0000 -0.7071
vn 0.7071 -0.7071 -0.0000
vn 0.7071 0.7071 -0.0000
vn 0.7071 -0.0000 0.7071
vn -0.0000 -0.7071 0.7071
vn -0.0000 0.7071 0.7071
vn -0.0000 -1.0000 -0.0000
vn -1.0000 -0.0000 -0.0000
vn -0.0000 -0.0000 1.0000
vn -0.0000 1.0000 -0.0000
vn -0.0000 -0.0000 -1.0000
vn 1.0000 -0.0000 -0.0000
s 0
usemtl timber
f 1//1 2//1 3//1
f 4//2 5//2 6//2
f 7//3 8//3 9//3
f 10//4 11//4 12//4
f 13//5 14//5 15//5
f 16//6 17//6 18//6
f 19//7 20//7 21//7
f 22//8 23//8 24//8
f 1//9 8//9 7//9
f 4//10 3//10 2//10
f 10//11 6//11 5//11
f 9//12 12//12 11//12
f 7//13 20//13 19//13
f 22//14 11//14 10//14
f 21//15 24//15 23//15
f 19//16 14//16 13//16
f 16//17 23//17 22//17
f 15//18 18//18 17//18
f 13//19 2//19 1//19
f 5//20 17//20 16//20
f 19//21 1//21 7//21
f 6//22 8//22 3//22
f 17//23 2//23 15//23
f 10//24 16//24 22//24
f 11//25 20//25 9//25
f 23//26 14//26 21//26
f 1//9 3//9 8//9
f 4//10 6//10 3//10
f 10//11 12//11 6//11
f 9//12 8//12 12//12
f 7//13 9//13 20//13
f 22//14 24//14 11//14
f 21//15 20//15 24//15
f 19//16 21//16 14//16
f 16//17 18//17 23//17
f 15//18 14//18 18//18
f 13//19 15//19 2//19
f 5//20 4//20 17//20
f 19//21 13//21 1//21
f 6//22 12//22 8//22
f 17//23 4//23 2//23
f 10//24 5//24 16//24
f 11//25 24//25 20//25
f 23//26 18//26 14//26
usemtl steel_dark
f 26//22 27//22 25//22
f 28//25 31//25 27//25
f 32//26 29//26 31//26
f 30//23 25//23 29//23
f 31//21 25//21 27//21
f 28//24 30//24 32//24
f 34//22 35//22 33//22
f 36//25 39//25 35//25
f 40//26 37//26 39//26
f 38//23 33//23 37//23
f 39//21 33//21 35//21
f 36//24 38//24 40//24
f 26//22 28//22 27//22
f 28//25 32//25 31//25
f 32//26 30//26 29//26
f 30//23 26//23 25//23
f 31//21 29//21 25//21
f 28//24 26//24 30//24
f 34//22 36//22 35//22
f 36//25 40//25 39//25
f 40//26 38//26 37//26
f 38//23 34//23 33//23
f 39//21 37//21 33//21
f 36//24 34//24 38//24
usemtl galvanised
f 42//22 43//22 41//22
f 44//25 47//25 43//25
f 48//26 45//26 47//26
f 46//23 41//23 45//23
f 47//21 41//21 43//21
f 44//24 46//24 48//24
f 42//22 44//22 43//22
f 44//25 48//25 47//25
f 48//26 46//26 45//26
f 46//23 42//23 41//23
f 47//21 45//21 41//21
f 44//24 42//24 46//24
usemtl electric_glow
f 50//22 51//22 49//22
f 52//25 55//25 51//25
f 56//26 53//26 55//26
f 54//23 49//23 53//23
f 55//21 49//21 51//21
f 52//24 54//24 56//24
f 50//22 52//22 51//22
f 52//25 56//25 55//25
f 56//26 54//26 53//26
f 54//23 50//23 49//23
f 55//21 53//21 49//21
f 52//24 50//24 54//24
usemtl timber_dark
f 58//22 59//22 57//22
f 60//25 63//25 59//25
f 64//26 61//26 63//26
f 62//23 57//23 61//23
f 63//21 57//21 59//21
f 60//24 62//24 64//24
f 66//22 67//22 65//22
f 68//25 71//25 67//25
f 72//26 69//26 71//26
f 70//23 65//23 69//23
f 71//21 65//21 67//21
f 68//24 70//24 72//24
f 74//22 75//22 73//22
f 76//25 79//25 75//25
f 80//26 77//26 79//26
f 78//23 73//23 77//23
f 79//21 73//21 75//21
f 76//24 78//24 80//24
f 82//22 83//22 81//22
f 84//25 87//25 83//25
f 88//26 85//26 87//26
f 86//23 81//23 85//23
f 87//21 81//21 83//21
f 84//24 86//24 88//24
f 90//22 91//22 89//22
f 92//25 95//25 91//25
f 96//26 93//26 95//26
f 94//23 89//23 93//23
f 95//21 89//21 91//21
f 92//24 94//24 96//24
f 58//22 60//22 59//22
f 60//25 64//25 63//25
f 64//26 62//26 61//26
f 62//23 58//23 57//23
f 63//21 61//21 57//21
f 60//24 58//24 62//24
f 66//22 68//22 67//22
f 68//25 72//25 71//25
f 72//26 70//26 69//26
f 70//23 66//23 65//23
f 71//21 69//21 65//21
f 68//24 66//24 70//24
f 74//22 76//22 75//22
f 76//25 80//25 79//25
f 80//26 78//26 77//26
f 78//23 74//23 73//23
f 79//21 77//21 73//21
f 76//24 74//24 78//24
f 82//22 84//22 83//22
f 84//25 88//25 87//25
f 88//26 86//26 85//26
f 86//23 82//23 81//23
f 87//21 85//21 81//21
f 84//24 82//24 86//24
f 90//22 92//22 91//22
f 92//25 96//25 95//25
f 96//26 94//26 93//26
f 94//23 90//23 89//23
f 95//21 93//21 89//21
f 92//24 90//24 94//24
