# Blender 5.2.0 LTS
# www.blender.org
mtllib small_pole.mtl
o body
v -0.200000 0.000000 0.200000
v -0.200000 0.050000 0.200000
v -0.200000 0.000000 -0.200000
v -0.200000 0.050000 -0.200000
v 0.200000 0.000000 0.200000
v 0.200000 0.050000 0.200000
v 0.200000 0.000000 -0.200000
v 0.200000 0.050000 -0.200000
v 0.000000 0.050000 -0.090000
v 0.000000 2.800000 -0.090000
v 0.063640 0.050000 -0.063640
v 0.063640 2.800000 -0.063640
v 0.090000 0.050000 0.000000
v 0.090000 2.800000 0.000000
v 0.063640 0.050000 0.063640
v 0.063640 2.800000 0.063640
v 0.000000 0.050000 0.090000
v 0.000000 2.800000 0.090000
v -0.063640 0.050000 0.063640
v -0.063640 2.800000 0.063640
v -0.090000 0.050000 0.000000
v -0.090000 2.800000 0.000000
v -0.063640 0.050000 -0.063640
v -0.063640 2.800000 -0.063640
v 0.000000 0.300000 -0.100000
v 0.000000 0.460000 -0.100000
v 0.070711 0.300000 -0.070711
v 0.070711 0.460000 -0.070711
v 0.100000 0.300000 0.000000
v 0.100000 0.460000 0.000000
v 0.070711 0.300000 0.070711
v 0.070711 0.460000 0.070711
v 0.000000 0.300000 0.100000
v 0.000000 0.460000 0.100000
v -0.070711 0.300000 0.070711
v -0.070711 0.460000 0.070711
v -0.100000 0.300000 0.000000
v -0.100000 0.460000 0.000000
v -0.070711 0.300000 -0.070711
v -0.070711 0.460000 -0.070711
v 0.090000 0.900000 0.120000
v 0.090000 1.500000 0.120000
v 0.090000 0.900000 -0.120000
v 0.090000 1.500000 -0.120000
v 0.200000 0.900000 0.120000
v 0.200000 1.500000 0.120000
v 0.200000 0.900000 -0.120000
v 0.200000 1.500000 -0.120000
v -0.050000 2.600000 0.220000
v -0.050000 2.680000 0.220000
v -0.050000 2.600000 -0.220000
v -0.050000 2.680000 -0.220000
v 0.050000 2.600000 0.220000
v 0.050000 2.680000 0.220000
v 0.050000 2.600000 -0.220000
v 0.050000 2.680000 -0.220000
v 0.000000 2.800000 -0.050000
v 0.000000 2.920000 -0.050000
v 0.043301 2.800000 -0.025000
v 0.043301 2.920000 -0.025000
v 0.043301 2.800000 0.025000
v 0.043301 2.920000 0.025000
v 0.000000 2.800000 0.050000
v 0.000000 2.920000 0.050000
v -0.043301 2.800000 0.025000
v -0.043301 2.920000 0.025000
v -0.043301 2.800000 -0.025000
v -0.043301 2.920000 -0.025000
vn -1.0000 -0.0000 -0.0000
vn -0.0000 -0.0000 -1.0000
vn 1.0000 -0.0000 -0.0000
vn -0.0000 -0.0000 1.0000
vn -0.0000 -1.0000 -0.0000
vn -0.0000 1.0000 -0.0000
vn 0.3827 -0.0000 -0.9239
vn 0.9239 -0.0000 -0.3827
vn 0.9239 -0.0000 0.3827
vn 0.3827 -0.0000 0.9239
vn -0.3827 -0.0000 0.9239
vn -0.9239 -0.0000 0.3827
vn -0.9239 -0.0000 -0.3827
vn -0.3827 -0.0000 -0.9239
vn 0.5000 -0.0000 -0.8660
vn 0.5000 -0.0000 0.8660
vn -0.5000 -0.0000 0.8660
vn -0.5000 -0.0000 -0.8660
s 0
usemtl hazard_black
f 2//1 3//1 1//1
f 4//2 7//2 3//2
f 8//3 5//3 7//3
f 6//4 1//4 5//4
f 7//5 1//5 3//5
f 4//6 6//6 8//6
f 2//1 4//1 3//1
f 4//2 8//2 7//2
f 8//3 6//3 5//3
f 6//4 2//4 1//4
f 7//5 5//5 1//5
f 4//6 2//6 6//6
usemtl timber
f 10//7 11//7 9//7
f 12//8 13//8 11//8
f 14//9 15//9 13//9
f 16//10 17//10 15//10
f 18//11 19//11 17//11
f 20//12 21//12 19//12
f 22//6 18//6 14//6
f 22//13 23//13 21//13
f 24//14 9//14 23//14
f 15//5 19//5 23//5
f 10//7 12//7 11//7
f 12//8 14//8 13//8
f 14//9 16//9 15//9
f 16//10 18//10 17//10
f 18//11 20//11 19//11
f 20//12 22//12 21//12
f 14//6 12//6 10//6
f 10//6 24//6 22//6
f 22//6 20//6 18//6
f 18//6 16//6 14//6
f 14//6 10//6 22//6
f 22//13 24//13 23//13
f 24//14 10//14 9//14
f 23//5 9//5 11//5
f 11//5 13//5 15//5
f 15//5 17//5 19//5
f 19//5 21//5 23//5
f 23//5 11//5 15//5
usemtl power_yellow
f 26//7 27//7 25//7
f 28//8 29//8 27//8
f 30//9 31//9 29//9
f 32//10 33//10 31//10
f 34//11 35//11 33//11
f 36//12 37//12 35//12
f 38//6 34//6 30//6
f 38//13 39//13 37//13
f 40//14 25//14 39//14
f 31//5 35//5 39//5
f 42//1 43//1 41//1
f 44//2 47//2 43//2
f 48//3 45//3 47//3
f 46//4 41//4 45//4
f 47//5 41//5 43//5
f 44//6 46//6 48//6
f 26//7 28//7 27//7
f 28//8 30//8 29//8
f 30//9 32//9 31//9
f 32//10 34//10 33//10
f 34//11 36//11 35//11
f 36//12 38//12 37//12
f 30//6 28//6 26//6
f 26//6 40//6 38//6
f 38//6 36//6 34//6
f 34//6 32//6 30//6
f 30//6 26//6 38//6
f 38//13 40//13 39//13
f 40//14 26//14 25//14
f 39//5 25//5 27//5
f 27//5 29//5 31//5
f 31//5 33//5 35//5
f 35//5 37//5 39//5
f 39//5 27//5 31//5
f 42//1 44//1 43//1
f 44//2 48//2 47//2
f 48//3 46//3 45//3
f 46//4 42//4 41//4
f 47//5 45//5 41//5
f 44//6 42//6 46//6
usemtl timber_dark
f 50//1 51//1 49//1
f 52//2 55//2 51//2
f 56//3 53//3 55//3
f 54//4 49//4 53//4
f 55//5 49//5 51//5
f 52//6 54//6 56//6
f 50//1 52//1 51//1
f 52//2 56//2 55//2
f 56//3 54//3 53//3
f 54//4 50//4 49//4
f 55//5 53//5 49//5
f 52//6 50//6 54//6
usemtl galvanised
f 58//15 59//15 57//15
f 60//3 61//3 59//3
f 62//16 63//16 61//16
f 64//17 65//17 63//17
f 58//6 66//6 62//6
f 66//1 67//1 65//1
f 68//18 57//18 67//18
f 59//5 63//5 67//5
f 58//15 60//15 59//15
f 60//3 62//3 61//3
f 62//16 64//16 63//16
f 64//17 66//17 65//17
f 62//6 60//6 58//6
f 58//6 68//6 66//6
f 66//6 64//6 62//6
f 66//1 68//1 67//1
f 68//18 58//18 57//18
f 67//5 57//5 59//5
f 59//5 61//5 63//5
f 63//5 65//5 67//5
