# Blender 5.2.0 LTS
# www.blender.org
mtllib splitter.mtl
o body
v -0.460000 0.000000 0.980000
v -0.460000 0.020000 1.000000
v -0.480000 0.020000 0.980000
v -0.460000 0.480000 1.000000
v -0.460000 0.500000 0.980000
v -0.480000 0.480000 0.980000
v -0.460000 0.000000 0.940000
v -0.480000 0.020000 0.940000
v -0.460000 0.020000 0.920000
v -0.460000 0.500000 0.940000
v -0.460000 0.480000 0.920000
v -0.480000 0.480000 0.940000
v 0.460000 0.000000 0.980000
v 0.480000 0.020000 0.980000
v 0.460000 0.020000 1.000000
v 0.460000 0.500000 0.980000
v 0.460000 0.480000 1.000000
v 0.480000 0.480000 0.980000
v 0.460000 0.000000 0.940000
v 0.460000 0.020000 0.920000
v 0.480000 0.020000 0.940000
v 0.460000 0.500000 0.940000
v 0.480000 0.480000 0.940000
v 0.460000 0.480000 0.920000
v -0.480000 0.500000 1.000000
v -0.480000 0.530000 1.000000
v -0.480000 0.500000 0.910000
v -0.480000 0.530000 0.910000
v 0.480000 0.500000 1.000000
v 0.480000 0.530000 1.000000
v 0.480000 0.500000 0.910000
v 0.480000 0.530000 0.910000
v -0.460000 0.000000 -0.940000
v -0.460000 0.020000 -0.920000
v -0.480000 0.020000 -0.940000
v -0.460000 0.480000 -0.920000
v -0.460000 0.500000 -0.940000
v -0.480000 0.480000 -0.940000
v -0.460000 0.000000 -0.980000
v -0.480000 0.020000 -0.980000
v -0.460000 0.020000 -1.000000
v -0.460000 0.500000 -0.980000
v -0.460000 0.480000 -1.000000
v -0.480000 0.480000 -0.980000
v 0.460000 0.000000 -0.940000
v 0.480000 0.020000 -0.940000
v 0.460000 0.020000 -0.920000
v 0.460000 0.500000 -0.940000
v 0.460000 0.480000 -0.920000
v 0.480000 0.480000 -0.940000
v 0.460000 0.000000 -0.980000
v 0.460000 0.020000 -1.000000
v 0.480000 0.020000 -0.980000
v 0.460000 0.500000 -0.980000
v 0.480000 0.480000 -0.980000
v 0.460000 0.480000 -1.000000
v -0.480000 0.500000 -0.910000
v -0.480000 0.530000 -0.910000
v -0.480000 0.500000 -1.000000
v -0.480000 0.530000 -1.000000
v 0.480000 0.500000 -0.910000
v 0.480000 0.530000 -0.910000
v 0.480000 0.500000 -1.000000
v 0.480000 0.530000 -1.000000
v -0.100000 0.500000 0.980000
v -0.100000 0.620000 0.980000
v -0.100000 0.500000 -0.980000
v -0.100000 0.620000 -0.980000
v 0.100000 0.500000 0.980000
v 0.100000 0.620000 0.980000
v 0.100000 0.500000 -0.980000
v 0.100000 0.620000 -0.980000
v 0.100000 0.520000 0.900000
v 0.100000 0.600000 0.900000
v 0.100000 0.520000 -0.900000
v 0.100000 0.600000 -0.900000
v 0.120000 0.520000 0.900000
v 0.120000 0.600000 0.900000
v 0.120000 0.520000 -0.900000
v 0.120000 0.600000 -0.900000
v -0.120000 0.520000 0.900000
v -0.120000 0.600000 0.900000
v -0.120000 0.520000 -0.900000
v -0.120000 0.600000 -0.900000
v -0.100000 0.520000 0.900000
v -0.100000 0.600000 0.900000
v -0.100000 0.520000 -0.900000
v -0.100000 0.600000 -0.900000
v -0.140000 0.620000 0.200000
v -0.140000 0.740000 0.200000
v -0.140000 0.620000 -0.120000
v -0.140000 0.740000 -0.120000
v 0.140000 0.620000 0.200000
v 0.140000 0.740000 0.200000
v 0.140000 0.620000 -0.120000
v 0.140000 0.740000 -0.120000
v -0.020000 0.660000 -0.250000
v -0.020000 0.700000 -0.250000
v -0.020000 0.660000 -0.850000
v -0.020000 0.700000 -0.850000
v 0.020000 0.660000 -0.250000
v 0.020000 0.700000 -0.250000
v 0.020000 0.660000 -0.850000
v 0.020000 0.700000 -0.850000
v -0.020000 0.620000 -0.250000
v -0.020000 0.660000 -0.250000
v -0.020000 0.620000 -0.290000
v -0.020000 0.660000 -0.290000
v 0.020000 0.620000 -0.250000
v 0.020000 0.660000 -0.250000
v 0.020000 0.620000 -0.290000
v 0.020000 0.660000 -0.290000
v -0.020000 0.620000 -0.810000
v -0.020000 0.660000 -0.810000
v -0.020000 0.620000 -0.850000
v -0.020000 0.660000 -0.850000
v 0.020000 0.620000 -0.810000
v 0.020000 0.660000 -0.810000
v 0.020000 0.620000 -0.850000
v 0.020000 0.660000 -0.850000
vn -0.5774 -0.5774 0.5774
vn -0.5774 0.5773 0.5773
vn -0.5774 -0.5774 -0.5774
vn -0.5774 0.5773 -0.5773
vn 0.5774 -0.5774 0.5774
vn 0.5774 0.5773 0.5773
vn 0.5774 -0.5774 -0.5774
vn 0.5774 0.5773 -0.5773
vn -0.7071 -0.7071 -0.0000
vn -0.7071 -0.0000 0.7071
vn -0.7071 0.7071 -0.0000
vn -0.7071 -0.0000 -0.7071
vn -0.0000 -0.7071 -0.7071
vn -0.0000 0.7071 -0.7071
vn 0.7071 -0.0000 -0.7071
vn 0.7071 -0.7071 -0.0000
vn 0.7071 0.7071 -0.0000
vn 0.7071 -0.0000 0.7071
vn -0.0000 -0.7071 0.7071
vn -0.0000 0.7071 0.7071
vn -0.0000 -1.0000 -0.0000
vn -1.0000 -0.0000 -0.0000
vn -0.0000 -0.0000 1.0000
vn -0.0000 1.0000 -0.0000
vn -0.0000 -0.0000 -1.0000
vn 1.0000 -0.0000 -0.0000
s 0
usemtl logistics_grey
f 1//1 2//1 3//1
f 4//2 5//2 6//2
f 7//3 8//3 9//3
f 10//4 11//4 12//4
f 13//5 14//5 15//5
f 16//6 17//6 18//6
f 19//7 20//7 21//7
f 22//8 23//8 24//8
f 1//9 8//9 7//9
f 4//10 3//10 2//10
f 10//11 6//11 5//11
f 9//12 12//12 11//12
f 7//13 20//13 19//13
f 22//14 11//14 10//14
f 21//15 24//15 23//15
f 19//16 14//16 13//16
f 16//17 23//17 22//17
f 15//18 18//18 17//18
f 13//19 2//19 1//19
f 5//20 17//20 16//20
f 19//21 1//21 7//21
f 6//22 8//22 3//22
f 17//23 2//23 15//23
f 10//24 16//24 22//24
f 11//25 20//25 9//25
f 23//26 14//26 21//26
f 33//1 34//1 35//1
f 36//2 37//2 38//2
f 39//3 40//3 41//3
f 42//4 43//4 44//4
f 45//5 46//5 47//5
f 48//6 49//6 50//6
f 51//7 52//7 53//7
f 54//8 55//8 56//8
f 33//9 40//9 39//9
f 36//10 35//10 34//10
f 42//11 38//11 37//11
f 41//12 44//12 43//12
f 39//13 52//13 51//13
f 54//14 43//14 42//14
f 53//15 56//15 55//15
f 51//16 46//16 45//16
f 48//17 55//17 54//17
f 47//18 50//18 49//18
f 45//19 34//19 33//19
f 37//20 49//20 48//20
f 51//21 33//21 39//21
f 38//22 40//22 35//22
f 49//23 34//23 47//23
f 42//24 48//24 54//24
f 43//25 52//25 41//25
f 55//26 46//26 53//26
f 66//22 67//22 65//22
f 68//25 71//25 67//25
f 72//26 69//26 71//26
f 70//23 65//23 69//23
f 71//21 65//21 67//21
f 68//24 70//24 72//24
f 1//9 3//9 8//9
f 4//10 6//10 3//10
f 10//11 12//11 6//11
f 9//12 8//12 12//12
f 7//13 9//13 20//13
f 22//14 24//14 11//14
f 21//15 20//15 24//15
f 19//16 21//16 14//16
f 16//17 18//17 23//17
f 15//18 14//18 18//18
f 13//19 15//19 2//19
f 5//20 4//20 17//20
f 19//21 13//21 1//21
f 6//22 12//22 8//22
f 17//23 4//23 2//23
f 10//24 5//24 16//24
f 11//25 24//25 20//25
f 23//26 18//26 14//26
f 33//9 35//9 40//9
f 36//10 38//10 35//10
f 42//11 44//11 38//11
f 41//12 40//12 44//12
f 39//13 41//13 52//13
f 54//14 56//14 43//14
f 53//15 52//15 56//15
f 51//16 53//16 46//16
f 48//17 50//17 55//17
f 47//18 46//18 50//18
f 45//19 47//19 34//19
f 37//20 36//20 49//20
f 51//21 45//21 33//21
f 38//22 44//22 40//22
f 49//23 36//23 34//23
f 42//24 37//24 48//24
f 43//25 56//25 52//25
f 55//26 50//26 46//26
f 66//22 68//22 67//22
f 68//25 72//25 71//25
f 72//26 70//26 69//26
f 70//23 66//23 65//23
f 71//21 69//21 65//21
f 68//24 66//24 70//24
usemtl power_yellow
f 26//22 27//22 25//22
f 28//25 31//25 27//25
f 32//26 29//26 31//26
f 30//23 25//23 29//23
f 31//21 25//21 27//21
f 28//24 30//24 32//24
f 58//22 59//22 57//22
f 60//25 63//25 59//25
f 64//26 61//26 63//26
f 62//23 57//23 61//23
f 63//21 57//21 59//21
f 60//24 62//24 64//24
f 74//22 75//22 73//22
f 76//25 79//25 75//25
f 80//26 77//26 79//26
f 78//23 73//23 77//23
f 79//21 73//21 75//21
f 76//24 78//24 80//24
f 82//22 83//22 81//22
f 84//25 87//25 83//25
f 88//26 85//26 87//26
f 86//23 81//23 85//23
f 87//21 81//21 83//21
f 84//24 86//24 88//24
f 26//22 28//22 27//22
f 28//25 32//25 31//25
f 32//26 30//26 29//26
f 30//23 26//23 25//23
f 31//21 29//21 25//21
f 28//24 26//24 30//24
f 58//22 60//22 59//22
f 60//25 64//25 63//25
f 64//26 62//26 61//26
f 62//23 58//23 57//23
f 63//21 61//21 57//21
f 60//24 58//24 62//24
f 74//22 76//22 75//22
f 76//25 80//25 79//25
f 80//26 78//26 77//26
f 78//23 74//23 73//23
f 79//21 77//21 73//21
f 76//24 74//24 78//24
f 82//22 84//22 83//22
f 84//25 88//25 87//25
f 88//26 86//26 85//26
f 86//23 82//23 81//23
f 87//21 85//21 81//21
f 84//24 82//24 86//24
usemtl steel_dark
f 90//22 91//22 89//22
f 92//25 95//25 91//25
f 96//26 93//26 95//26
f 94//23 89//23 93//23
f 95//21 89//21 91//21
f 92//24 94//24 96//24
f 90//22 92//22 91//22
f 92//25 96//25 95//25
f 96//26 94//26 93//26
f 94//23 90//23 89//23
f 95//21 93//21 89//21
f 92//24 90//24 94//24
usemtl galvanised
f 98//22 99//22 97//22
f 100//25 103//25 99//25
f 104//26 101//26 103//26
f 102//23 97//23 101//23
f 103//21 97//21 99//21
f 100//24 102//24 104//24
f 106//22 107//22 105//22
f 108//25 111//25 107//25
f 112//26 109//26 111//26
f 110//23 105//23 109//23
f 111//21 105//21 107//21
f 108//24 110//24 112//24
f 114//22 115//22 113//22
f 116//25 119//25 115//25
f 120//26 117//26 119//26
f 118//23 113//23 117//23
f 119//21 113//21 115//21
f 116//24 118//24 120//24
f 98//22 100//22 99//22
f 100//25 104//25 103//25
f 104//26 102//26 101//26
f 102//23 98//23 97//23
f 103//21 101//21 97//21
f 100//24 98//24 102//24
f 106//22 108//22 107//22
f 108//25 112//25 111//25
f 112//26 110//26 109//26
f 110//23 106//23 105//23
f 111//21 109//21 105//21
f 108//24 106//24 110//24
f 114//22 116//22 115//22
f 116//25 120//25 119//25
f 120//26 118//26 117//26
f 118//23 114//23 113//23
f 119//21 117//21 113//21
f 116//24 114//24 118//24
