# Blender 5.2.0 LTS
# www.blender.org
mtllib steam_engine.mtl
o body
v -1.400000 0.000000 2.400000
v -1.400000 0.140000 2.400000
v -1.400000 0.000000 -2.400000
v -1.400000 0.140000 -2.400000
v 0.700000 0.000000 2.400000
v 0.700000 0.140000 2.400000
v 0.700000 0.000000 -2.400000
v 0.700000 0.140000 -2.400000
v -0.500000 0.140000 -0.200000
v -0.500000 0.400000 -0.200000
v -0.500000 0.140000 -0.300000
v -0.500000 0.400000 -0.300000
v 0.300000 0.140000 -0.200000
v 0.300000 0.400000 -0.200000
v 0.300000 0.140000 -0.300000
v 0.300000 0.400000 -0.300000
v -0.500000 0.140000 -1.650000
v -0.500000 0.400000 -1.650000
v -0.500000 0.140000 -1.750000
v -0.500000 0.400000 -1.750000
v 0.300000 0.140000 -1.650000
v 0.300000 0.400000 -1.650000
v 0.300000 0.140000 -1.750000
v 0.300000 0.400000 -1.750000
v -0.100000 0.300000 0.300000
v -0.100000 0.300000 -2.300000
v 0.182137 0.391672 0.300000
v 0.182137 0.391672 -2.300000
v 0.356507 0.631672 0.300000
v 0.356507 0.631672 -2.300000
v 0.356507 0.928328 0.300000
v 0.356507 0.928328 -2.300000
v 0.182137 1.168328 0.300000
v 0.182137 1.168328 -2.300000
v -0.100000 1.260000 0.300000
v -0.100000 1.260000 -2.300000
v -0.382137 1.168328 0.300000
v -0.382137 1.168328 -2.300000
v -0.556507 0.928328 0.300000
v -0.556507 0.928328 -2.300000
v -0.556507 0.631672 0.300000
v -0.556507 0.631672 -2.300000
v -0.382137 0.391672 0.300000
v -0.382137 0.391672 -2.300000
v -0.100000 0.240000 -2.220000
v -0.100000 0.240000 -2.360000
v 0.217404 0.343131 -2.220000
v 0.217404 0.343131 -2.360000
v 0.413571 0.613131 -2.220000
v 0.413571 0.613131 -2.360000
v 0.413571 0.946869 -2.220000
v 0.413571 0.946869 -2.360000
v 0.217404 1.216869 -2.220000
v 0.217404 1.216869 -2.360000
v -0.100000 1.320000 -2.220000
v -0.100000 1.320000 -2.360000
v -0.417404 1.216869 -2.220000
v -0.417404 1.216869 -2.360000
v -0.613571 0.946869 -2.220000
v -0.613571 0.946869 -2.360000
v -0.613571 0.613131 -2.220000
v -0.613571 0.613131 -2.360000
v -0.417404 0.343131 -2.220000
v -0.417404 0.343131 -2.360000
v -0.100000 0.240000 0.360000
v -0.100000 0.240000 0.220000
v 0.217404 0.343131 0.360000
v 0.217404 0.343131 0.220000
v 0.413571 0.613131 0.360000
v 0.413571 0.613131 0.220000
v 0.413571 0.946869 0.360000
v 0.413571 0.946869 0.220000
v 0.217404 1.216869 0.360000
v 0.217404 1.216869 0.220000
v -0.100000 1.320000 0.360000
v -0.100000 1.320000 0.220000
v -0.417404 1.216869 0.360000
v -0.417404 1.216869 0.220000
v -0.613571 0.946869 0.360000
v -0.613571 0.946869 0.220000
v -0.613571 0.613131 0.360000
v -0.613571 0.613131 0.220000
v -0.417404 0.343131 0.360000
v -0.417404 0.343131 0.220000
v -0.500000 0.550000 1.100000
v -0.500000 1.000000 1.100000
v -0.500000 0.550000 0.300000
v -0.500000 1.000000 0.300000
v 0.300000 0.550000 1.100000
v 0.300000 1.000000 1.100000
v 0.300000 0.550000 0.300000
v 0.300000 1.000000 0.300000
v 0.280000 0.775000 0.900000
v 0.280000 0.825000 0.900000
v 0.280000 0.775000 0.500000
v 0.280000 0.825000 0.500000
v 0.305000 0.775000 0.900000
v 0.305000 0.825000 0.900000
v 0.305000 0.775000 0.500000
v 0.305000 0.825000 0.500000
v 0.360000 0.140000 1.410000
v 0.360000 1.160000 1.410000
v 0.360000 0.140000 1.090000
v 0.360000 1.160000 1.090000
v 0.600000 0.140000 1.410000
v 0.600000 1.160000 1.410000
v 0.600000 0.140000 1.090000
v 0.600000 1.160000 1.090000
v -0.250000 1.220000 -0.200000
v -0.250000 1.420000 -0.200000
v -0.250000 1.220000 -1.900000
v -0.250000 1.420000 -1.900000
v 0.250000 1.220000 -0.200000
v 0.250000 1.420000 -0.200000
v 0.250000 1.220000 -1.900000
v 0.250000 1.420000 -1.900000
v 0.000000 0.380000 -2.360000
v 0.000000 0.380000 -2.500000
v 0.084853 0.415147 -2.360000
v 0.084853 0.415147 -2.500000
v 0.120000 0.500000 -2.360000
v 0.120000 0.500000 -2.500000
v 0.084853 0.584853 -2.360000
v 0.084853 0.584853 -2.500000
v 0.000000 0.620000 -2.360000
v 0.000000 0.620000 -2.500000
v -0.084853 0.584853 -2.360000
v -0.084853 0.584853 -2.500000
v -0.120000 0.500000 -2.360000
v -0.120000 0.500000 -2.500000
v -0.084853 0.415147 -2.360000
v -0.084853 0.415147 -2.500000
v -0.056569 1.456568 -0.250000
v -0.000000 1.480000 -0.250000
v 0.056569 1.456568 -0.250000
v 0.080000 1.400000 -0.250000
v 0.056569 1.343431 -0.250000
v 0.000000 1.320000 -0.250000
v -0.056569 1.343431 -0.250000
v -0.080000 1.400000 -0.250000
v -0.056569 0.556569 2.490000
v -0.000000 0.580000 2.490000
v 0.056569 0.556569 2.490000
v 0.080000 0.500000 2.490000
v 0.056569 0.443431 2.490000
v 0.000000 0.420000 2.490000
v -0.056569 0.443431 2.490000
v -0.080000 0.500000 2.490000
v -0.056569 0.556569 2.490000
v -0.000000 0.580000 2.490000
v 0.056569 0.556569 2.490000
v 0.080000 0.500000 2.490000
v 0.056569 0.443431 2.490000
v 0.000000 0.420000 2.490000
v -0.056569 0.443431 2.490000
v -0.080000 0.500000 2.490000
v -0.056569 0.555482 2.471036
v -0.000000 0.578463 2.475607
v 0.056569 0.555482 2.471036
v 0.080000 0.500000 2.460000
v 0.056569 0.444518 2.448964
v 0.000000 0.421537 2.444393
v -0.056569 0.444518 2.448964
v -0.080000 0.500000 2.460000
v -0.056569 0.586863 2.386863
v -0.000000 0.603432 2.403432
v 0.056569 0.586863 2.386863
v 0.080000 0.546863 2.346863
v 0.056569 0.506863 2.306863
v 0.000000 0.490294 2.290294
v -0.056569 0.506863 2.306863
v -0.080000 0.546863 2.346863
v -0.056569 0.671036 2.355482
v -0.000000 0.675607 2.378463
v 0.056569 0.671036 2.355482
v 0.080000 0.660000 2.300000
v 0.056569 0.648964 2.244518
v 0.000000 0.644393 2.221537
v -0.056569 0.648964 2.244518
v -0.080000 0.660000 2.300000
v -0.056569 1.251036 2.355482
v -0.000000 1.255607 2.378463
v 0.056569 1.251036 2.355482
v 0.080000 1.240000 2.300000
v 0.056569 1.228964 2.244518
v 0.000000 1.224393 2.221537
v -0.056569 1.228964 2.244518
v -0.080000 1.240000 2.300000
v -0.056569 1.393137 2.293137
v -0.000000 1.409706 2.309705
v 0.056569 1.393137 2.293137
v 0.080000 1.353137 2.253137
v 0.056569 1.313137 2.213137
v 0.000000 1.296569 2.196568
v -0.056569 1.313137 2.213137
v -0.080000 1.353137 2.253137
v -0.056569 1.455482 2.151036
v -0.000000 1.478463 2.155607
v 0.056569 1.455482 2.151036
v 0.080000 1.400000 2.140000
v 0.056569 1.344518 2.128964
v 0.000000 1.321537 2.124393
v -0.056569 1.344518 2.128964
v -0.080000 1.400000 2.140000
v -0.056569 1.456568 -0.250000
v -0.000000 1.480000 -0.250000
v 0.056569 1.456568 -0.250000
v 0.080000 1.400000 -0.250000
v 0.056569 1.343431 -0.250000
v 0.000000 1.320000 -0.250000
v -0.056569 1.343431 -0.250000
v -0.080000 1.400000 -0.250000
v 0.000000 1.420000 -1.230000
v 0.000000 1.620000 -1.230000
v 0.025981 1.420000 -1.215000
v 0.025981 1.620000 -1.215000
v 0.025981 1.420000 -1.185000
v 0.025981 1.620000 -1.185000
v 0.000000 1.420000 -1.170000
v 0.000000 1.620000 -1.170000
v -0.025981 1.420000 -1.185000
v -0.025981 1.620000 -1.185000
v -0.025981 1.420000 -1.215000
v -0.025981 1.620000 -1.215000
v 0.295000 1.645981 -1.200000
v 0.250000 1.620000 -1.200000
v 0.295000 1.594019 -1.200000
v 0.208596 1.645981 -1.408597
v 0.176777 1.620000 -1.376777
v 0.208596 1.594019 -1.408597
v 0.000000 1.645981 -1.495000
v 0.000000 1.620000 -1.450000
v 0.000000 1.594019 -1.495000
v -0.208596 1.645981 -1.408597
v -0.176777 1.620000 -1.376777
v -0.208596 1.594019 -1.408597
v -0.295000 1.645981 -1.200000
v -0.250000 1.620000 -1.200000
v -0.295000 1.594019 -1.200000
v -0.208596 1.645981 -0.991404
v -0.176777 1.620000 -1.023223
v -0.208596 1.594019 -0.991404
v -0.000000 1.645981 -0.905000
v -0.000000 1.620000 -0.950000
v -0.000000 1.594019 -0.905000
v 0.208596 1.645981 -0.991404
v 0.176777 1.620000 -1.023223
v 0.208596 1.594019 -0.991404
vn -1.0000 -0.0000 -0.0000
vn -0.0000 -0.0000 -1.0000
vn 1.0000 -0.0000 -0.0000
vn -0.0000 -0.0000 1.0000
vn -0.0000 -1.0000 -0.0000
vn -0.0000 1.0000 -0.0000
vn 0.3090 -0.9511 -0.0000
vn 0.8090 -0.5878 -0.0000
vn 0.8090 0.5878 -0.0000
vn 0.3090 0.9511 -0.0000
vn -0.3090 0.9511 -0.0000
vn -0.8090 0.5878 -0.0000
vn -0.8090 -0.5878 -0.0000
vn -0.3090 -0.9511 -0.0000
vn 0.3827 -0.9239 -0.0000
vn 0.9239 -0.3827 -0.0000
vn 0.9239 0.3827 -0.0000
vn 0.3827 0.9239 -0.0000
vn -0.3827 0.9239 -0.0000
vn -0.9239 0.3827 -0.0000
vn -0.9239 -0.3827 -0.0000
vn -0.3827 -0.9239 -0.0000
vn -0.9237 0.3826 -0.0219
vn -0.3808 0.9194 -0.0982
vn 0.3808 0.9194 -0.0982
vn 0.9237 0.3826 -0.0219
vn 0.3826 -0.9236 -0.0245
vn -0.3826 -0.9236 -0.0245
vn -0.9221 0.3625 0.1352
vn -0.3796 0.8743 0.3025
vn 0.3796 0.8743 0.3025
vn 0.9221 0.3625 0.1352
vn 0.9212 -0.3594 -0.1489
vn 0.3750 -0.8489 -0.3725
vn -0.3750 -0.8489 -0.3725
vn -0.9212 -0.3594 -0.1489
vn -0.9125 0.1566 0.3780
vn -0.3526 0.3269 0.8768
vn 0.3526 0.3269 0.8768
vn 0.9125 0.1566 0.3780
vn 0.9138 -0.1632 -0.3720
vn 0.3608 -0.3800 -0.8517
vn -0.3608 -0.3800 -0.8517
vn -0.9138 -0.1632 -0.3720
vn -0.9212 -0.0000 0.3891
vn -0.3764 -0.0000 0.9265
vn 0.3764 -0.0000 0.9265
vn 0.9212 -0.0000 0.3891
vn 0.9212 -0.0000 -0.3891
vn 0.3764 -0.0000 -0.9265
vn -0.3764 -0.0000 -0.9265
vn -0.9212 -0.0000 -0.3891
vn -0.9212 0.1489 0.3594
vn -0.3750 0.3725 0.8489
vn 0.3750 0.3725 0.8489
vn 0.9212 0.1489 0.3594
vn 0.9221 -0.1352 -0.3625
vn 0.3796 -0.3025 -0.8743
vn -0.3796 -0.3025 -0.8743
vn -0.9221 -0.1352 -0.3625
vn -0.9138 0.3720 0.1632
vn -0.3608 0.8517 0.3800
vn 0.3608 0.8517 0.3800
vn 0.9138 0.3720 0.1632
vn 0.9125 -0.3780 -0.1566
vn 0.3526 -0.8768 -0.3269
vn -0.3526 -0.8768 -0.3269
vn -0.9125 -0.3780 -0.1566
vn -0.9212 0.3890 0.0002
vn -0.3764 0.9264 0.0006
vn 0.3764 0.9264 0.0006
vn 0.9212 0.3890 0.0002
vn 0.9212 -0.3891 -0.0000
vn 0.3764 -0.9265 0.0004
vn -0.3764 -0.9265 0.0004
vn -0.9212 -0.3891 -0.0000
vn 0.5000 -0.0000 -0.8660
vn 0.5000 -0.0000 0.8660
vn -0.5000 -0.0000 0.8660
vn -0.5000 -0.0000 -0.8660
vn -0.4896 0.8480 0.2028
vn -0.4896 -0.8480 0.2028
vn 0.9239 -0.0000 -0.3827
vn -0.2028 0.8480 0.4896
vn -0.2028 -0.8480 0.4896
vn 0.3827 -0.0000 -0.9239
vn 0.2028 0.8480 0.4896
vn 0.2028 -0.8480 0.4896
vn -0.3827 -0.0000 -0.9239
vn 0.4896 0.8480 0.2028
vn 0.4896 -0.8480 0.2028
vn -0.9239 -0.0000 -0.3827
vn 0.4896 0.8480 -0.2028
vn 0.4896 -0.8480 -0.2028
vn -0.9239 -0.0000 0.3827
vn 0.2028 0.8480 -0.4896
vn 0.2028 -0.8480 -0.4896
vn -0.3827 -0.0000 0.9239
vn -0.2028 0.8480 -0.4896
vn -0.2028 -0.8480 -0.4896
vn 0.3827 -0.0000 0.9239
vn -0.4896 0.8480 -0.2028
vn -0.4896 -0.8480 -0.2028
vn 0.9239 -0.0000 0.3827
vn -0.9212 0.3891 -0.0000
vn -0.3722 0.9266 -0.0531
vn 0.3722 0.9266 -0.0531
vn 0.9212 0.3891 -0.0000
vn 0.9219 -0.3873 -0.0103
vn 0.3784 -0.9251 -0.0312
vn -0.3784 -0.9251 -0.0312
vn -0.9219 -0.3873 -0.0103
vn -0.9125 0.3780 0.1566
vn -0.3526 0.8768 0.3269
vn 0.3526 0.8768 0.3269
vn 0.9125 0.3780 0.1566
vn 0.9138 -0.3720 -0.1632
vn 0.3608 -0.8517 -0.3800
vn -0.3608 -0.8517 -0.3800
vn -0.9138 -0.3720 -0.1632
vn -0.9221 0.1352 0.3625
vn -0.3796 0.3025 0.8743
vn 0.3796 0.3025 0.8743
vn 0.9221 0.1352 0.3625
vn 0.9212 -0.1489 -0.3594
vn 0.3750 -0.3725 -0.8489
vn -0.3750 -0.3725 -0.8489
vn -0.9212 -0.1489 -0.3594
vn -0.9138 0.1632 0.3720
vn -0.3608 0.3800 0.8517
vn 0.3608 0.3800 0.8517
vn 0.9138 0.1632 0.3720
vn 0.9125 -0.1566 -0.3780
vn 0.3526 -0.3269 -0.8768
vn -0.3526 -0.3269 -0.8768
vn -0.9125 -0.1566 -0.3780
vn -0.9212 0.3594 0.1489
vn -0.3750 0.8489 0.3725
vn 0.3750 0.8489 0.3725
vn 0.9212 0.3594 0.1489
vn 0.9221 -0.3625 -0.1352
vn 0.3796 -0.8743 -0.3025
vn -0.3796 -0.8743 -0.3025
vn -0.9221 -0.3625 -0.1352
vn -0.3827 0.9239 0.0004
vn 0.3827 0.9239 0.0004
vn 0.9239 -0.3827 0.0002
vn 0.3827 -0.9239 0.0006
vn -0.3827 -0.9239 0.0006
vn -0.9239 -0.3827 0.0002
s 0
usemtl steel_dark
f 2//1 3//1 1//1
f 4//2 7//2 3//2
f 8//3 5//3 7//3
f 6//4 1//4 5//4
f 7//5 1//5 3//5
f 4//6 6//6 8//6
f 10//1 11//1 9//1
f 12//2 15//2 11//2
f 16//3 13//3 15//3
f 14//4 9//4 13//4
f 15//5 9//5 11//5
f 12//6 14//6 16//6
f 18//1 19//1 17//1
f 20//2 23//2 19//2
f 24//3 21//3 23//3
f 22//4 17//4 21//4
f 23//5 17//5 19//5
f 20//6 22//6 24//6
f 46//7 47//7 45//7
f 48//8 49//8 47//8
f 50//3 51//3 49//3
f 52//9 53//9 51//9
f 54//10 55//10 53//10
f 56//11 57//11 55//11
f 58//12 59//12 57//12
f 60//1 61//1 59//1
f 62//2 54//2 50//2
f 62//13 63//13 61//13
f 64//14 45//14 63//14
f 51//4 59//4 63//4
f 66//7 67//7 65//7
f 68//8 69//8 67//8
f 70//3 71//3 69//3
f 72//9 73//9 71//9
f 74//10 75//10 73//10
f 76//11 77//11 75//11
f 77//12 80//12 79//12
f 80//1 81//1 79//1
f 82//2 74//2 70//2
f 82//13 83//13 81//13
f 84//14 65//14 83//14
f 71//4 79//4 83//4
f 102//1 103//1 101//1
f 104//2 107//2 103//2
f 108//3 105//3 107//3
f 106//4 101//4 105//4
f 107//5 101//5 103//5
f 104//6 106//6 108//6
f 2//1 4//1 3//1
f 4//2 8//2 7//2
f 8//3 6//3 5//3
f 6//4 2//4 1//4
f 7//5 5//5 1//5
f 4//6 2//6 6//6
f 10//1 12//1 11//1
f 12//2 16//2 15//2
f 16//3 14//3 13//3
f 14//4 10//4 9//4
f 15//5 13//5 9//5
f 12//6 10//6 14//6
f 18//1 20//1 19//1
f 20//2 24//2 23//2
f 24//3 22//3 21//3
f 22//4 18//4 17//4
f 23//5 21//5 17//5
f 20//6 18//6 22//6
f 46//7 48//7 47//7
f 48//8 50//8 49//8
f 50//3 52//3 51//3
f 52//9 54//9 53//9
f 54//10 56//10 55//10
f 56//11 58//11 57//11
f 58//12 60//12 59//12
f 60//1 62//1 61//1
f 50//2 48//2 46//2
f 46//2 64//2 62//2
f 62//2 60//2 58//2
f 58//2 56//2 54//2
f 54//2 52//2 50//2
f 50//2 46//2 62//2
f 62//2 58//2 54//2
f 62//13 64//13 63//13
f 64//14 46//14 45//14
f 63//4 45//4 47//4
f 47//4 49//4 51//4
f 51//4 53//4 55//4
f 55//4 57//4 59//4
f 59//4 61//4 63//4
f 63//4 47//4 51//4
f 51//4 55//4 59//4
f 66//7 68//7 67//7
f 68//8 70//8 69//8
f 70//3 72//3 71//3
f 72//9 74//9 73//9
f 74//10 76//10 75//10
f 76//11 78//11 77//11
f 77//12 78//12 80//12
f 80//1 82//1 81//1
f 70//2 68//2 66//2
f 66//2 84//2 82//2
f 82//2 80//2 78//2
f 78//2 76//2 74//2
f 74//2 72//2 70//2
f 70//2 66//2 82//2
f 82//2 78//2 74//2
f 82//13 84//13 83//13
f 84//14 66//14 65//14
f 83//4 65//4 67//4
f 67//4 69//4 71//4
f 71//4 73//4 75//4
f 75//4 77//4 79//4
f 79//4 81//4 83//4
f 83//4 67//4 71//4
f 71//4 75//4 79//4
f 102//1 104//1 103//1
f 104//2 108//2 107//2
f 108//3 106//3 105//3
f 106//4 102//4 101//4
f 107//5 105//5 101//5
f 104//6 102//6 106//6
usemtl power_yellow
f 26//7 27//7 25//7
f 28//8 29//8 27//8
f 30//3 31//3 29//3
f 32//9 33//9 31//9
f 34//10 35//10 33//10
f 36//11 37//11 35//11
f 38//12 39//12 37//12
f 40//1 41//1 39//1
f 42//2 34//2 30//2
f 42//13 43//13 41//13
f 44//14 25//14 43//14
f 31//4 39//4 43//4
f 26//7 28//7 27//7
f 28//8 30//8 29//8
f 30//3 32//3 31//3
f 32//9 34//9 33//9
f 34//10 36//10 35//10
f 36//11 38//11 37//11
f 38//12 40//12 39//12
f 40//1 42//1 41//1
f 30//2 28//2 26//2
f 26//2 44//2 42//2
f 42//2 40//2 38//2
f 38//2 36//2 34//2
f 34//2 32//2 30//2
f 30//2 26//2 42//2
f 42//2 38//2 34//2
f 42//13 44//13 43//13
f 44//14 26//14 25//14
f 43//4 25//4 27//4
f 27//4 29//4 31//4
f 31//4 33//4 35//4
f 35//4 37//4 39//4
f 39//4 41//4 43//4
f 43//4 27//4 31//4
f 31//4 35//4 39//4
usemtl steel
f 86//1 87//1 85//1
f 88//2 91//2 87//2
f 92//3 89//3 91//3
f 90//4 85//4 89//4
f 91//5 85//5 87//5
f 88//6 90//6 92//6
f 86//1 88//1 87//1
f 88//2 92//2 91//2
f 92//3 90//3 89//3
f 90//4 86//4 85//4
f 91//5 89//5 85//5
f 88//6 86//6 90//6
usemtl electric_glow
f 94//1 95//1 93//1
f 96//2 99//2 95//2
f 100//3 97//3 99//3
f 98//4 93//4 97//4
f 99//5 93//5 95//5
f 96//6 98//6 100//6
f 94//1 96//1 95//1
f 96//2 100//2 99//2
f 100//3 98//3 97//3
f 98//4 94//4 93//4
f 99//5 97//5 93//5
f 96//6 94//6 98//6
usemtl galvanised
f 110//1 111//1 109//1
f 112//2 115//2 111//2
f 116//3 113//3 115//3
f 114//4 109//4 113//4
f 115//5 109//5 111//5
f 112//6 114//6 116//6
f 118//15 119//15 117//15
f 120//16 121//16 119//16
f 122//17 123//17 121//17
f 124//18 125//18 123//18
f 126//19 127//19 125//19
f 128//20 129//20 127//20
f 130//2 126//2 122//2
f 130//21 131//21 129//21
f 132//22 117//22 131//22
f 123//4 127//4 131//4
f 139//2 137//2 138//2
f 140//2 137//2 139//2
f 140//2 136//2 137//2
f 133//2 136//2 140//2
f 133//2 135//2 136//2
f 134//2 135//2 133//2
f 145//4 147//4 146//4
f 145//4 148//4 147//4
f 144//4 148//4 145//4
f 143//4 148//4 144//4
f 143//4 141//4 148//4
f 142//4 141//4 143//4
f 157//23 156//23 149//23
f 158//24 149//24 150//24
f 151//25 158//25 150//25
f 152//26 159//26 151//26
f 153//16 160//16 152//16
f 154//27 161//27 153//27
f 163//28 154//28 155//28
f 164//21 155//21 156//21
f 165//29 164//29 157//29
f 166//30 157//30 158//30
f 159//31 166//31 158//31
f 160//32 167//32 159//32
f 161//33 168//33 160//33
f 162//34 169//34 161//34
f 171//35 162//35 163//35
f 172//36 163//36 164//36
f 165//37 180//37 172//37
f 166//38 173//38 165//38
f 175//39 166//39 167//39
f 176//40 167//40 168//40
f 177//41 168//41 169//41
f 178//42 169//42 170//42
f 171//43 178//43 170//43
f 172//44 179//44 171//44
f 173//45 188//45 180//45
f 174//46 181//46 173//46
f 183//47 174//47 175//47
f 184//48 175//48 176//48
f 185//49 176//49 177//49
f 186//50 177//50 178//50
f 179//51 186//51 178//51
f 180//52 187//52 179//52
f 181//53 196//53 188//53
f 182//54 189//54 181//54
f 191//55 182//55 183//55
f 192//56 183//56 184//56
f 193//57 184//57 185//57
f 194//58 185//58 186//58
f 187//59 194//59 186//59
f 188//60 195//60 187//60
f 197//61 196//61 189//61
f 198//62 189//62 190//62
f 191//63 198//63 190//63
f 192//64 199//64 191//64
f 193//65 200//65 192//65
f 194//66 201//66 193//66
f 203//67 194//67 195//67
f 204//68 195//68 196//68
f 205//69 204//69 197//69
f 206//70 197//70 198//70
f 199//71 206//71 198//71
f 200//72 207//72 199//72
f 201//73 208//73 200//73
f 202//74 209//74 201//74
f 211//75 202//75 203//75
f 212//76 203//76 204//76
f 214//77 215//77 213//77
f 216//3 217//3 215//3
f 218//78 219//78 217//78
f 220//79 221//79 219//79
f 214//6 222//6 218//6
f 222//1 223//1 221//1
f 224//80 213//80 223//80
f 215//5 219//5 223//5
f 225//81 229//81 226//81
f 229//82 227//82 226//82
f 230//83 225//83 227//83
f 228//84 232//84 229//84
f 232//85 230//85 229//85
f 233//86 228//86 230//86
f 234//87 232//87 231//87
f 232//88 236//88 233//88
f 236//89 231//89 233//89
f 237//90 235//90 234//90
f 235//91 239//91 236//91
f 239//92 234//92 236//92
f 240//93 238//93 237//93
f 241//94 239//94 238//94
f 242//95 237//95 239//95
f 243//96 241//96 240//96
f 241//97 245//97 242//97
f 245//98 240//98 242//98
f 243//99 247//99 244//99
f 247//100 245//100 244//100
f 248//101 243//101 245//101
f 225//102 247//102 246//102
f 226//103 248//103 247//103
f 227//104 246//104 248//104
f 110//1 112//1 111//1
f 112//2 116//2 115//2
f 116//3 114//3 113//3
f 114//4 110//4 109//4
f 115//5 113//5 109//5
f 112//6 110//6 114//6
f 118//15 120//15 119//15
f 120//16 122//16 121//16
f 122//17 124//17 123//17
f 124//18 126//18 125//18
f 126//19 128//19 127//19
f 128//20 130//20 129//20
f 122//2 120//2 118//2
f 118//2 132//2 130//2
f 130//2 128//2 126//2
f 126//2 124//2 122//2
f 122//2 118//2 130//2
f 130//21 132//21 131//21
f 132//22 118//22 117//22
f 131//4 117//4 119//4
f 119//4 121//4 123//4
f 123//4 125//4 127//4
f 127//4 129//4 131//4
f 131//4 119//4 123//4
f 157//105 164//105 156//105
f 158//106 157//106 149//106
f 151//107 159//107 158//107
f 152//108 160//108 159//108
f 153//109 161//109 160//109
f 154//110 162//110 161//110
f 163//111 162//111 154//111
f 164//112 163//112 155//112
f 165//113 172//113 164//113
f 166//114 165//114 157//114
f 159//115 167//115 166//115
f 160//116 168//116 167//116
f 161//117 169//117 168//117
f 162//118 170//118 169//118
f 171//119 170//119 162//119
f 172//120 171//120 163//120
f 165//121 173//121 180//121
f 166//122 174//122 173//122
f 175//123 174//123 166//123
f 176//124 175//124 167//124
f 177//125 176//125 168//125
f 178//126 177//126 169//126
f 171//127 179//127 178//127
f 172//128 180//128 179//128
f 173//45 181//45 188//45
f 174//46 182//46 181//46
f 183//47 182//47 174//47
f 184//48 183//48 175//48
f 185//49 184//49 176//49
f 186//50 185//50 177//50
f 179//51 187//51 186//51
f 180//52 188//52 187//52
f 181//129 189//129 196//129
f 182//130 190//130 189//130
f 191//131 190//131 182//131
f 192//132 191//132 183//132
f 193//133 192//133 184//133
f 194//134 193//134 185//134
f 187//135 195//135 194//135
f 188//136 196//136 195//136
f 197//137 204//137 196//137
f 198//138 197//138 189//138
f 191//139 199//139 198//139
f 192//140 200//140 199//140
f 193//141 201//141 200//141
f 194//142 202//142 201//142
f 203//143 202//143 194//143
f 204//144 203//144 195//144
f 205//20 212//20 204//20
f 206//145 205//145 197//145
f 199//146 207//146 206//146
f 200//17 208//17 207//17
f 201//147 209//147 208//147
f 202//148 210//148 209//148
f 211//149 210//149 202//149
f 212//150 211//150 203//150
f 214//77 216//77 215//77
f 216//3 218//3 217//3
f 218//78 220//78 219//78
f 220//79 222//79 221//79
f 218//6 216//6 214//6
f 214//6 224//6 222//6
f 222//6 220//6 218//6
f 222//1 224//1 223//1
f 224//80 214//80 213//80
f 223//5 213//5 215//5
f 215//5 217//5 219//5
f 219//5 221//5 223//5
f 225//81 228//81 229//81
f 229//82 230//82 227//82
f 230//83 228//83 225//83
f 228//84 231//84 232//84
f 232//85 233//85 230//85
f 233//86 231//86 228//86
f 234//87 235//87 232//87
f 232//88 235//88 236//88
f 236//89 234//89 231//89
f 237//90 238//90 235//90
f 235//91 238//91 239//91
f 239//92 237//92 234//92
f 240//93 241//93 238//93
f 241//94 242//94 239//94
f 242//95 240//95 237//95
f 243//96 244//96 241//96
f 241//97 244//97 245//97
f 245//98 243//98 240//98
f 243//99 246//99 247//99
f 247//100 248//100 245//100
f 248//101 246//101 243//101
f 225//102 226//102 247//102
f 226//103 227//103 248//103
f 227//104 225//104 246//104
o part
v 0.909641 0.120000 1.250000
v 0.875000 0.180000 1.250000
v 0.840359 0.120000 1.250000
v 0.909641 0.237898 0.810000
v 0.875000 0.289859 0.840000
v 0.840359 0.237898 0.810000
v 0.909641 0.560000 0.487898
v 0.875000 0.590000 0.539859
v 0.840359 0.560000 0.487898
v 0.909641 1.000000 0.370000
v 0.875000 1.000000 0.430000
v 0.840359 1.000000 0.370000
v 0.909641 1.440000 0.487898
v 0.875000 1.410000 0.539859
v 0.840359 1.440000 0.487898
v 0.909641 1.762102 0.810000
v 0.875000 1.710141 0.840000
v 0.840359 1.762102 0.810000
v 0.909641 1.880000 1.250000
v 0.875000 1.820000 1.250000
v 0.840359 1.880000 1.250000
v 0.909641 1.762102 1.690000
v 0.875000 1.710141 1.660000
v 0.840359 1.762102 1.690000
v 0.909641 1.440000 2.012102
v 0.875000 1.410000 1.960141
v 0.840359 1.440000 2.012102
v 0.909641 1.000000 2.130000
v 0.875000 1.000000 2.070000
v 0.840359 1.000000 2.130000
v 0.909641 0.560000 2.012102
v 0.875000 0.590000 1.960141
v 0.840359 0.560000 2.012102
v 0.909641 0.237898 1.690000
v 0.875000 0.289859 1.660000
v 0.840359 0.237898 1.690000
v 0.840000 0.950000 2.090000
v 0.840000 1.050000 2.090000
v 0.840000 0.950000 0.410000
v 0.840000 1.050000 0.410000
v 0.910000 0.950000 2.090000
v 0.910000 1.050000 2.090000
v 0.910000 0.950000 0.410000
v 0.910000 1.050000 0.410000
v 0.840000 0.160000 1.300000
v 0.840000 1.840000 1.300000
v 0.840000 0.160000 1.200000
v 0.840000 1.840000 1.200000
v 0.910000 0.160000 1.300000
v 0.910000 1.840000 1.300000
v 0.910000 0.160000 1.200000
v 0.910000 1.840000 1.200000
v 0.800000 1.000000 1.110000
v 0.960000 1.000000 1.110000
v 0.800000 0.901005 1.151005
v 0.960000 0.901005 1.151005
v 0.800000 0.860000 1.250000
v 0.960000 0.860000 1.250000
v 0.800000 0.901005 1.348995
v 0.960000 0.901005 1.348995
v 0.800000 1.000000 1.390000
v 0.960000 1.000000 1.390000
v 0.800000 1.098995 1.348995
v 0.960000 1.098995 1.348995
v 0.800000 1.140000 1.250000
v 0.960000 1.140000 1.250000
v 0.800000 1.098995 1.151005
v 0.960000 1.098995 1.151005
v 0.620000 1.000000 1.180000
v 0.800000 1.000000 1.180000
v 0.620000 0.950503 1.200503
v 0.800000 0.950503 1.200503
v 0.620000 0.930000 1.250000
v 0.800000 0.930000 1.250000
v 0.620000 0.950503 1.299497
v 0.800000 0.950503 1.299497
v 0.620000 1.000000 1.320000
v 0.800000 1.000000 1.320000
v 0.620000 1.049497 1.299497
v 0.800000 1.049497 1.299497
v 0.620000 1.070000 1.250000
v 0.800000 1.070000 1.250000
v 0.620000 1.049497 1.200503
v 0.800000 1.049497 1.200503
v 0.910000 0.940000 0.860000
v 0.910000 1.060000 0.860000
v 0.910000 0.940000 0.740000
v 0.910000 1.060000 0.740000
v 1.000000 0.940000 0.860000
v 1.000000 1.060000 0.860000
v 1.000000 0.940000 0.740000
v 1.000000 1.060000 0.740000
vn 0.8584 0.4956 0.1328
vn -0.8584 0.4956 0.1328
vn -0.0000 -0.9659 -0.2588
vn 0.8584 0.3628 0.3628
vn -0.8584 0.3628 0.3628
vn -0.0000 -0.7071 -0.7071
vn 0.8584 0.1328 0.4956
vn -0.8584 0.1328 0.4956
vn -0.0000 -0.2588 -0.9659
vn 0.8584 -0.1328 0.4956
vn -0.8584 -0.1328 0.4956
vn -0.0000 0.2588 -0.9659
vn 0.8584 -0.3628 0.3628
vn -0.8584 -0.3628 0.3628
vn -0.0000 0.7071 -0.7071
vn 0.8584 -0.4956 0.1328
vn -0.8584 -0.4956 0.1328
vn -0.0000 0.9659 -0.2588
vn 0.8584 -0.4956 -0.1328
vn -0.8584 -0.4956 -0.1328
vn -0.0000 0.9659 0.2588
vn 0.8584 -0.3628 -0.3628
vn -0.8584 -0.3628 -0.3628
vn -0.0000 0.7071 0.7071
vn 0.8584 -0.1328 -0.4956
vn -0.8584 -0.1328 -0.4956
vn -0.0000 0.2588 0.9659
vn 0.8584 0.1328 -0.4956
vn -0.8584 0.1328 -0.4956
vn -0.0000 -0.2588 0.9659
vn 0.8584 0.3628 -0.3628
vn -0.8584 0.3628 -0.3628
vn -0.0000 -0.7071 0.7071
vn 0.8584 0.4956 -0.1328
vn -0.8584 0.4956 -0.1328
vn -0.0000 -0.9659 0.2588
vn -1.0000 -0.0000 -0.0000
vn -0.0000 -0.0000 -1.0000
vn 1.0000 -0.0000 -0.0000
vn -0.0000 -0.0000 1.0000
vn -0.0000 -1.0000 -0.0000
vn -0.0000 1.0000 -0.0000
vn -0.0000 -0.3827 -0.9239
vn -0.0000 -0.9239 -0.3827
vn -0.0000 -0.9239 0.3827
vn -0.0000 -0.3827 0.9239
vn -0.0000 0.3827 0.9239
vn -0.0000 0.9239 0.3827
vn -0.0000 0.9239 -0.3827
vn -0.0000 0.3827 -0.9239
s 0
usemtl steel_dark
f 252//151 250//151 249//151
f 253//152 251//152 250//152
f 254//153 249//153 251//153
f 252//154 256//154 253//154
f 256//155 254//155 253//155
f 257//156 252//156 254//156
f 258//157 256//157 255//157
f 256//158 260//158 257//158
f 260//159 255//159 257//159
f 258//160 262//160 259//160
f 259//161 263//161 260//161
f 263//162 258//162 260//162
f 264//163 262//163 261//163
f 262//164 266//164 263//164
f 263//165 264//165 261//165
f 264//166 268//166 265//166
f 268//167 266//167 265//167
f 269//168 264//168 266//168
f 267//169 271//169 268//169
f 271//170 269//170 268//170
f 272//171 267//171 269//171
f 273//172 271//172 270//172
f 274//173 272//173 271//173
f 275//174 270//174 272//174
f 273//175 277//175 274//175
f 277//176 275//176 274//176
f 275//177 276//177 273//177
f 279//178 277//178 276//178
f 277//179 281//179 278//179
f 281//180 276//180 278//180
f 279//181 283//181 280//181
f 280//182 284//182 281//182
f 284//183 279//183 281//183
f 249//184 283//184 282//184
f 283//185 251//185 284//185
f 251//186 282//186 284//186
f 302//193 303//193 301//193
f 304//194 305//194 303//194
f 306//195 307//195 305//195
f 308//196 309//196 307//196
f 310//197 311//197 309//197
f 312//198 313//198 311//198
f 314//189 310//189 306//189
f 314//199 315//199 313//199
f 316//200 301//200 315//200
f 307//187 311//187 315//187
f 252//151 253//151 250//151
f 253//152 254//152 251//152
f 254//153 252//153 249//153
f 252//154 255//154 256//154
f 256//155 257//155 254//155
f 257//156 255//156 252//156
f 258//157 259//157 256//157
f 256//158 259//158 260//158
f 260//159 258//159 255//159
f 258//160 261//160 262//160
f 259//161 262//161 263//161
f 263//162 261//162 258//162
f 264//163 265//163 262//163
f 262//164 265//164 266//164
f 263//165 266//165 264//165
f 264//166 267//166 268//166
f 268//167 269//167 266//167
f 269//168 267//168 264//168
f 267//169 270//169 271//169
f 271//170 272//170 269//170
f 272//171 270//171 267//171
f 273//172 274//172 271//172
f 274//173 275//173 272//173
f 275//174 273//174 270//174
f 273//175 276//175 277//175
f 277//176 278//176 275//176
f 275//177 278//177 276//177
f 279//178 280//178 277//178
f 277//179 280//179 281//179
f 281//180 279//180 276//180
f 279//181 282//181 283//181
f 280//182 283//182 284//182
f 284//183 282//183 279//183
f 249//184 250//184 283//184
f 283//185 250//185 251//185
f 251//186 249//186 282//186
f 302//193 304//193 303//193
f 304//194 306//194 305//194
f 306//195 308//195 307//195
f 308//196 310//196 309//196
f 310//197 312//197 311//197
f 312//198 314//198 313//198
f 306//189 304//189 302//189
f 302//189 316//189 314//189
f 314//189 312//189 310//189
f 310//189 308//189 306//189
f 306//189 302//189 314//189
f 314//199 316//199 315//199
f 316//200 302//200 301//200
f 315//187 301//187 303//187
f 303//187 305//187 307//187
f 307//187 309//187 311//187
f 311//187 313//187 315//187
f 315//187 303//187 307//187
usemtl steel
f 286//187 287//187 285//187
f 288//188 291//188 287//188
f 292//189 289//189 291//189
f 290//190 285//190 289//190
f 291//191 285//191 287//191
f 288//192 290//192 292//192
f 294//187 295//187 293//187
f 296//188 299//188 295//188
f 300//189 297//189 299//189
f 298//190 293//190 297//190
f 299//191 293//191 295//191
f 296//192 298//192 300//192
f 318//193 319//193 317//193
f 320//194 321//194 319//194
f 322//195 323//195 321//195
f 323//196 326//196 325//196
f 325//197 328//197 327//197
f 328//198 329//198 327//198
f 330//189 326//189 322//189
f 330//199 331//199 329//199
f 332//200 317//200 331//200
f 323//187 327//187 331//187
f 286//187 288//187 287//187
f 288//188 292//188 291//188
f 292//189 290//189 289//189
f 290//190 286//190 285//190
f 291//191 289//191 285//191
f 288//192 286//192 290//192
f 294//187 296//187 295//187
f 296//188 300//188 299//188
f 300//189 298//189 297//189
f 298//190 294//190 293//190
f 299//191 297//191 293//191
f 296//192 294//192 298//192
f 318//193 320//193 319//193
f 320//194 322//194 321//194
f 322//195 324//195 323//195
f 323//196 324//196 326//196
f 325//197 326//197 328//197
f 328//198 330//198 329//198
f 322//189 320//189 318//189
f 318//189 332//189 330//189
f 330//189 328//189 326//189
f 326//189 324//189 322//189
f 322//189 318//189 330//189
f 330//199 332//199 331//199
f 332//200 318//200 317//200
f 331//187 317//187 319//187
f 319//187 321//187 323//187
f 323//187 325//187 327//187
f 327//187 329//187 331//187
f 331//187 319//187 323//187
usemtl galvanised
f 334//187 335//187 333//187
f 336//188 339//188 335//188
f 340//189 337//189 339//189
f 338//190 333//190 337//190
f 339//191 333//191 335//191
f 336//192 338//192 340//192
f 334//187 336//187 335//187
f 336//188 340//188 339//188
f 340//189 338//189 337//189
f 338//190 334//190 333//190
f 339//191 337//191 333//191
f 336//192 334//192 338//192
