# Blender 5.2.0 LTS
# www.blender.org
mtllib stone_cutting_table.mtl
o body
v -0.900000 0.000000 0.430000
v -0.900000 1.600000 0.430000
v -0.900000 0.000000 0.330000
v -0.900000 1.600000 0.330000
v -0.800000 0.000000 0.430000
v -0.800000 1.600000 0.430000
v -0.800000 0.000000 0.330000
v -0.800000 1.600000 0.330000
v -0.900000 0.000000 -0.330000
v -0.900000 1.600000 -0.330000
v -0.900000 0.000000 -0.430000
v -0.900000 1.600000 -0.430000
v -0.800000 0.000000 -0.330000
v -0.800000 1.600000 -0.330000
v -0.800000 0.000000 -0.430000
v -0.800000 1.600000 -0.430000
v 0.800000 0.000000 0.430000
v 0.800000 1.600000 0.430000
v 0.800000 0.000000 0.330000
v 0.800000 1.600000 0.330000
v 0.900000 0.000000 0.430000
v 0.900000 1.600000 0.430000
v 0.900000 0.000000 0.330000
v 0.900000 1.600000 0.330000
v 0.800000 0.000000 -0.330000
v 0.800000 1.600000 -0.330000
v 0.800000 0.000000 -0.430000
v 0.800000 1.600000 -0.430000
v 0.900000 0.000000 -0.330000
v 0.900000 1.600000 -0.330000
v 0.900000 0.000000 -0.430000
v 0.900000 1.600000 -0.430000
v -0.880000 0.400000 0.400000
v -0.880000 0.460000 0.400000
v -0.880000 0.400000 -0.400000
v -0.880000 0.460000 -0.400000
v 0.880000 0.400000 0.400000
v 0.880000 0.460000 0.400000
v 0.880000 0.400000 -0.400000
v 0.880000 0.460000 -0.400000
v -0.960000 1.600000 0.460000
v -0.960000 1.620000 0.480000
v -0.980000 1.620000 0.460000
v -0.960000 1.700000 0.480000
v -0.960000 1.720000 0.460000
v -0.980000 1.700000 0.460000
v -0.960000 1.600000 -0.460000
v -0.980000 1.620000 -0.460000
v -0.960000 1.620000 -0.480000
v -0.960000 1.720000 -0.460000
v -0.960000 1.700000 -0.480000
v -0.980000 1.700000 -0.460000
v 0.960000 1.600000 0.460000
v 0.980000 1.620000 0.460000
v 0.960000 1.620000 0.480000
v 0.960000 1.720000 0.460000
v 0.960000 1.700000 0.480000
v 0.980000 1.700000 0.460000
v 0.960000 1.600000 -0.460000
v 0.960000 1.620000 -0.480000
v 0.980000 1.620000 -0.460000
v 0.960000 1.720000 -0.460000
v 0.980000 1.700000 -0.460000
v 0.960000 1.700000 -0.480000
v -0.550000 1.720000 0.250000
v -0.550000 1.980000 0.250000
v -0.550000 1.720000 -0.200000
v -0.550000 1.980000 -0.200000
v -0.050000 1.720000 0.250000
v -0.050000 1.980000 0.250000
v -0.050000 1.720000 -0.200000
v -0.050000 1.980000 -0.200000
v -0.300000 1.850000 -0.200000
v -0.300000 1.980000 -0.200000
v -0.270000 1.980000 -0.200000
v -0.270000 1.850000 -0.200000
v -0.300000 1.850000 0.250000
v -0.300000 1.980000 0.250000
v -0.270000 1.850000 0.250000
v -0.270000 1.980000 0.250000
v 0.250000 1.720000 -0.100000
v 0.250000 1.750000 -0.100000
v 0.250000 1.720000 -0.140000
v 0.250000 1.750000 -0.140000
v 0.550000 1.720000 -0.100000
v 0.550000 1.750000 -0.100000
v 0.550000 1.720000 -0.140000
v 0.550000 1.750000 -0.140000
v 0.550000 1.735000 -0.145000
v 0.750000 1.735000 -0.145000
v 0.550000 1.713349 -0.132500
v 0.750000 1.713349 -0.132500
v 0.550000 1.713349 -0.107500
v 0.750000 1.713349 -0.107500
v 0.550000 1.735000 -0.095000
v 0.750000 1.735000 -0.095000
v 0.550000 1.756651 -0.107500
v 0.750000 1.756651 -0.107500
v 0.550000 1.756651 -0.132500
v 0.750000 1.756651 -0.132500
v 0.200000 1.720000 0.300000
v 0.200000 1.840000 0.300000
v 0.200000 1.720000 0.160000
v 0.200000 1.840000 0.160000
v 0.360000 1.720000 0.300000
v 0.360000 1.840000 0.300000
v 0.360000 1.720000 0.160000
v 0.360000 1.840000 0.160000
v 0.360000 1.780000 0.210000
v 0.620000 1.780000 0.210000
v 0.360000 1.762679 0.220000
v 0.620000 1.762679 0.220000
v 0.360000 1.762679 0.240000
v 0.620000 1.762679 0.240000
v 0.360000 1.780000 0.250000
v 0.620000 1.780000 0.250000
v 0.360000 1.797320 0.240000
v 0.620000 1.797320 0.240000
v 0.360000 1.797320 0.220000
v 0.620000 1.797320 0.220000
vn -1.0000 -0.0000 -0.0000
vn -0.0000 -0.0000 -1.0000
vn 1.0000 -0.0000 -0.0000
vn -0.0000 -0.0000 1.0000
vn -0.0000 -1.0000 -0.0000
vn -0.0000 1.0000 -0.0000
vn -0.5774 -0.5774 0.5774
vn -0.5774 0.5774 0.5774
vn -0.5774 -0.5774 -0.5774
vn -0.5774 0.5774 -0.5774
vn 0.5774 -0.5774 0.5774
vn 0.5774 0.5774 0.5774
vn 0.5774 -0.5774 -0.5774
vn 0.5774 0.5774 -0.5774
vn -0.7071 -0.7071 -0.0000
vn -0.7071 -0.0000 0.7071
vn -0.7071 0.7071 -0.0000
vn -0.7071 -0.0000 -0.7071
vn -0.0000 -0.7071 -0.7071
vn -0.0000 0.7071 -0.7071
vn 0.7071 -0.0000 -0.7071
vn 0.7071 -0.7071 -0.0000
vn 0.7071 0.7071 -0.0000
vn 0.7071 -0.0000 0.7071
vn -0.0000 -0.7071 0.7071
vn -0.0000 0.7071 0.7071
vn -0.0000 -0.5000 -0.8660
vn -0.0000 -0.5000 0.8660
vn -0.0000 0.5000 0.8660
vn -0.0000 0.5000 -0.8660
s 0
usemtl timber_dark
f 2//1 3//1 1//1
f 4//2 7//2 3//2
f 8//3 5//3 7//3
f 6//4 1//4 5//4
f 7//5 1//5 3//5
f 4//6 6//6 8//6
f 10//1 11//1 9//1
f 12//2 15//2 11//2
f 16//3 13//3 15//3
f 14//4 9//4 13//4
f 15//5 9//5 11//5
f 12//6 14//6 16//6
f 18//1 19//1 17//1
f 20//2 23//2 19//2
f 24//3 21//3 23//3
f 22//4 17//4 21//4
f 23//5 17//5 19//5
f 20//6 22//6 24//6
f 26//1 27//1 25//1
f 28//2 31//2 27//2
f 32//3 29//3 31//3
f 30//4 25//4 29//4
f 31//5 25//5 27//5
f 28//6 30//6 32//6
f 102//1 103//1 101//1
f 104//2 107//2 103//2
f 108//3 105//3 107//3
f 106//4 101//4 105//4
f 107//5 101//5 103//5
f 104//6 106//6 108//6
f 2//1 4//1 3//1
f 4//2 8//2 7//2
f 8//3 6//3 5//3
f 6//4 2//4 1//4
f 7//5 5//5 1//5
f 4//6 2//6 6//6
f 10//1 12//1 11//1
f 12//2 16//2 15//2
f 16//3 14//3 13//3
f 14//4 10//4 9//4
f 15//5 13//5 9//5
f 12//6 10//6 14//6
f 18//1 20//1 19//1
f 20//2 24//2 23//2
f 24//3 22//3 21//3
f 22//4 18//4 17//4
f 23//5 21//5 17//5
f 20//6 18//6 22//6
f 26//1 28//1 27//1
f 28//2 32//2 31//2
f 32//3 30//3 29//3
f 30//4 26//4 25//4
f 31//5 29//5 25//5
f 28//6 26//6 30//6
f 102//1 104//1 103//1
f 104//2 108//2 107//2
f 108//3 106//3 105//3
f 106//4 102//4 101//4
f 107//5 105//5 101//5
f 104//6 102//6 106//6
usemtl timber
f 34//1 35//1 33//1
f 36//2 39//2 35//2
f 40//3 37//3 39//3
f 38//4 33//4 37//4
f 39//5 33//5 35//5
f 36//6 38//6 40//6
f 41//7 42//7 43//7
f 44//8 45//8 46//8
f 47//9 48//9 49//9
f 50//10 51//10 52//10
f 53//11 54//11 55//11
f 56//12 57//12 58//12
f 59//13 60//13 61//13
f 62//14 63//14 64//14
f 41//15 48//15 47//15
f 44//16 43//16 42//16
f 50//17 46//17 45//17
f 49//18 52//18 51//18
f 47//19 60//19 59//19
f 62//20 51//20 50//20
f 61//21 64//21 63//21
f 59//22 54//22 53//22
f 56//23 63//23 62//23
f 55//24 58//24 57//24
f 53//25 42//25 41//25
f 45//26 57//26 56//26
f 59//5 41//5 47//5
f 46//1 48//1 43//1
f 57//4 42//4 55//4
f 50//6 56//6 62//6
f 51//2 60//2 49//2
f 63//3 54//3 61//3
f 90//27 91//27 89//27
f 92//5 93//5 91//5
f 94//28 95//28 93//28
f 96//29 97//29 95//29
f 90//3 98//3 94//3
f 98//6 99//6 97//6
f 100//30 89//30 99//30
f 91//1 95//1 99//1
f 110//27 111//27 109//27
f 112//5 113//5 111//5
f 114//28 115//28 113//28
f 116//29 117//29 115//29
f 110//3 118//3 114//3
f 118//6 119//6 117//6
f 120//30 109//30 119//30
f 111//1 115//1 119//1
f 34//1 36//1 35//1
f 36//2 40//2 39//2
f 40//3 38//3 37//3
f 38//4 34//4 33//4
f 39//5 37//5 33//5
f 36//6 34//6 38//6
f 41//15 43//15 48//15
f 44//16 46//16 43//16
f 50//17 52//17 46//17
f 49//18 48//18 52//18
f 47//19 49//19 60//19
f 62//20 64//20 51//20
f 61//21 60//21 64//21
f 59//22 61//22 54//22
f 56//23 58//23 63//23
f 55//24 54//24 58//24
f 53//25 55//25 42//25
f 45//26 44//26 57//26
f 59//5 53//5 41//5
f 46//1 52//1 48//1
f 57//4 44//4 42//4
f 50//6 45//6 56//6
f 51//2 64//2 60//2
f 63//3 58//3 54//3
f 90//27 92//27 91//27
f 92//5 94//5 93//5
f 94//28 96//28 95//28
f 96//29 98//29 97//29
f 94//3 92//3 90//3
f 90//3 100//3 98//3
f 98//3 96//3 94//3
f 98//6 100//6 99//6
f 100//30 90//30 89//30
f 99//1 89//1 91//1
f 91//1 93//1 95//1
f 95//1 97//1 99//1
f 110//27 112//27 111//27
f 112//5 114//5 113//5
f 114//28 116//28 115//28
f 116//29 118//29 117//29
f 114//3 112//3 110//3
f 110//3 120//3 118//3
f 118//3 116//3 114//3
f 118//6 120//6 119//6
f 120//30 110//30 109//30
f 119//1 109//1 111//1
f 111//1 113//1 115//1
f 115//1 117//1 119//1
usemtl stone
f 66//1 67//1 65//1
f 71//2 73//2 76//2
f 72//3 69//3 71//3
f 69//4 79//4 77//4
f 71//5 65//5 67//5
f 66//6 74//6 68//6
f 72//6 80//6 70//6
f 77//3 74//3 78//3
f 79//1 75//1 76//1
f 76//6 77//6 79//6
f 66//1 68//1 67//1
f 75//2 72//2 71//2
f 71//2 67//2 68//2
f 68//2 74//2 73//2
f 76//2 75//2 71//2
f 71//2 68//2 73//2
f 72//3 70//3 69//3
f 77//4 78//4 66//4
f 66//4 65//4 69//4
f 69//4 70//4 80//4
f 69//4 80//4 79//4
f 77//4 66//4 69//4
f 71//5 69//5 65//5
f 66//6 78//6 74//6
f 72//6 75//6 80//6
f 77//3 73//3 74//3
f 79//1 80//1 75//1
f 76//6 73//6 77//6
usemtl steel
f 82//1 83//1 81//1
f 84//2 87//2 83//2
f 88//3 85//3 87//3
f 86//4 81//4 85//4
f 87//5 81//5 83//5
f 84//6 86//6 88//6
f 82//1 84//1 83//1
f 84//2 88//2 87//2
f 88//3 86//3 85//3
f 86//4 82//4 81//4
f 87//5 85//5 81//5
f 84//6 82//6 86//6
