# Blender 5.2.0 LTS
# www.blender.org
mtllib stone_cutter.mtl
o body
v -0.950000 0.000000 0.950000
v -0.950000 0.100000 0.950000
v -0.950000 0.000000 -0.950000
v -0.950000 0.100000 -0.950000
v 0.950000 0.000000 0.950000
v 0.950000 0.100000 0.950000
v 0.950000 0.000000 -0.950000
v 0.950000 0.100000 -0.950000
v -0.810000 0.100000 0.810000
v -0.810000 0.140000 0.850000
v -0.850000 0.140000 0.810000
v -0.810000 0.960000 0.850000
v -0.810000 1.000000 0.810000
v -0.850000 0.960000 0.810000
v -0.810000 0.100000 -0.810000
v -0.850000 0.140000 -0.810000
v -0.810000 0.140000 -0.850000
v -0.810000 1.000000 -0.810000
v -0.810000 0.960000 -0.850000
v -0.850000 0.960000 -0.810000
v 0.810000 0.100000 0.810000
v 0.850000 0.140000 0.810000
v 0.810000 0.140000 0.850000
v 0.810000 1.000000 0.810000
v 0.810000 0.960000 0.850000
v 0.850000 0.960000 0.810000
v 0.810000 0.100000 -0.810000
v 0.810000 0.140000 -0.850000
v 0.850000 0.140000 -0.810000
v 0.810000 1.000000 -0.810000
v 0.850000 0.960000 -0.810000
v 0.810000 0.960000 -0.850000
v -0.920000 1.100000 0.920000
v -0.920000 1.200000 0.920000
v -0.920000 1.100000 -0.920000
v -0.920000 1.200000 -0.920000
v 0.920000 1.100000 0.920000
v 0.920000 1.200000 0.920000
v 0.920000 1.100000 -0.920000
v 0.920000 1.200000 -0.920000
v 0.500000 1.100000 0.060000
v 0.500000 1.100000 -0.060000
v -0.500000 1.100000 0.060000
v -0.500000 1.100000 -0.060000
v -0.500000 1.200000 0.060000
v -0.500000 1.200000 -0.060000
v 0.500000 1.200000 0.060000
v 0.500000 1.200000 -0.060000
v 0.850000 0.250000 0.280000
v 0.850000 0.650000 0.280000
v 0.850000 0.250000 -0.280000
v 0.850000 0.650000 -0.280000
v 0.900000 0.250000 0.280000
v 0.900000 0.650000 0.280000
v 0.900000 0.250000 -0.280000
v 0.900000 0.650000 -0.280000
v 0.900000 0.320000 0.200000
v 0.900000 0.400000 0.200000
v 0.900000 0.320000 -0.200000
v 0.900000 0.400000 -0.200000
v 0.920000 0.320000 0.200000
v 0.920000 0.400000 0.200000
v 0.920000 0.320000 -0.200000
v 0.920000 0.400000 -0.200000
v -0.500000 1.600000 -0.050000
v -0.500000 2.040000 -0.050000
v -0.500000 1.600000 -0.080000
v -0.500000 2.040000 -0.080000
v 0.500000 1.600000 -0.050000
v 0.500000 2.040000 -0.050000
v 0.500000 1.600000 -0.080000
v 0.500000 2.040000 -0.080000
v -0.500000 1.600000 0.080000
v -0.500000 2.040000 0.080000
v -0.500000 1.600000 0.050000
v -0.500000 2.040000 0.050000
v 0.500000 1.600000 0.080000
v 0.500000 2.040000 0.080000
v 0.500000 1.600000 0.050000
v 0.500000 2.040000 0.050000
v -0.500000 2.000000 0.080000
v -0.500000 2.040000 0.080000
v -0.500000 2.000000 -0.080000
v -0.500000 2.040000 -0.080000
v 0.500000 2.000000 0.080000
v 0.500000 2.040000 0.080000
v 0.500000 2.000000 -0.080000
v 0.500000 2.040000 -0.080000
v -0.850000 1.980000 0.030000
v -0.850000 2.040000 0.030000
v -0.850000 1.980000 -0.030000
v -0.850000 2.040000 -0.030000
v -0.500000 1.980000 0.030000
v -0.500000 2.040000 0.030000
v -0.500000 1.980000 -0.030000
v -0.500000 2.040000 -0.030000
v -0.850000 1.200000 0.030000
v -0.850000 2.040000 0.030000
v -0.850000 1.200000 -0.030000
v -0.850000 2.040000 -0.030000
v -0.790000 1.200000 0.030000
v -0.790000 2.040000 0.030000
v -0.790000 1.200000 -0.030000
v -0.790000 2.040000 -0.030000
v -0.550000 1.200000 -0.630000
v -0.550000 1.800000 -0.630000
v -0.493431 1.200000 -0.606569
v -0.493431 1.800000 -0.606569
v -0.470000 1.200000 -0.550000
v -0.470000 1.800000 -0.550000
v -0.493431 1.200000 -0.493431
v -0.493431 1.800000 -0.493431
v -0.550000 1.200000 -0.470000
v -0.550000 1.800000 -0.470000
v -0.606569 1.200000 -0.493431
v -0.606569 1.800000 -0.493431
v -0.630000 1.200000 -0.550000
v -0.630000 1.800000 -0.550000
v -0.606569 1.200000 -0.606569
v -0.606569 1.800000 -0.606569
v 0.300000 0.570000 -0.850000
v 0.300000 0.570000 -0.950000
v 0.325981 0.585000 -0.850000
v 0.325981 0.585000 -0.950000
v 0.325981 0.615000 -0.850000
v 0.325981 0.615000 -0.950000
v 0.300000 0.630000 -0.850000
v 0.300000 0.630000 -0.950000
v 0.274019 0.615000 -0.850000
v 0.274019 0.615000 -0.950000
v 0.274019 0.585000 -0.850000
v 0.274019 0.585000 -0.950000
v 0.535000 0.600000 -0.975981
v 0.490000 0.600000 -0.950000
v 0.535000 0.600000 -0.924019
v 0.466170 0.433830 -0.975981
v 0.434350 0.465650 -0.950000
v 0.466170 0.433830 -0.924019
v 0.300000 0.365000 -0.975981
v 0.300000 0.410000 -0.950000
v 0.300000 0.365000 -0.924019
v 0.133830 0.433830 -0.975981
v 0.165650 0.465650 -0.950000
v 0.133830 0.433830 -0.924019
v 0.065000 0.600000 -0.975981
v 0.110000 0.600000 -0.950000
v 0.065000 0.600000 -0.924019
v 0.133830 0.766170 -0.975981
v 0.165650 0.734350 -0.950000
v 0.133830 0.766170 -0.924019
v 0.300000 0.835000 -0.975981
v 0.300000 0.790000 -0.950000
v 0.300000 0.835000 -0.924019
v 0.466170 0.766170 -0.975981
v 0.434350 0.734350 -0.950000
v 0.466170 0.766170 -0.924019
v -0.920000 0.100000 0.920000
v -0.920000 1.100000 0.920000
v -0.920000 0.100000 0.840000
v -0.920000 1.100000 0.840000
v -0.840000 0.100000 0.920000
v -0.840000 1.100000 0.920000
v -0.840000 0.100000 0.840000
v -0.840000 1.100000 0.840000
v -0.920000 0.100000 -0.840000
v -0.920000 1.100000 -0.840000
v -0.920000 0.100000 -0.920000
v -0.920000 1.100000 -0.920000
v -0.840000 0.100000 -0.840000
v -0.840000 1.100000 -0.840000
v -0.840000 0.100000 -0.920000
v -0.840000 1.100000 -0.920000
v 0.840000 0.100000 0.920000
v 0.840000 1.100000 0.920000
v 0.840000 0.100000 0.840000
v 0.840000 1.100000 0.840000
v 0.920000 0.100000 0.920000
v 0.920000 1.100000 0.920000
v 0.920000 0.100000 0.840000
v 0.920000 1.100000 0.840000
v 0.840000 0.100000 -0.840000
v 0.840000 1.100000 -0.840000
v 0.840000 0.100000 -0.920000
v 0.840000 1.100000 -0.920000
v 0.920000 0.100000 -0.840000
v 0.920000 1.100000 -0.840000
v 0.920000 0.100000 -0.920000
v 0.920000 1.100000 -0.920000
vn -1.0000 -0.0000 -0.0000
vn -0.0000 -0.0000 -1.0000
vn 1.0000 -0.0000 -0.0000
vn -0.0000 -0.0000 1.0000
vn -0.0000 -1.0000 -0.0000
vn -0.0000 1.0000 -0.0000
vn -0.5773 -0.5774 0.5774
vn -0.5774 0.5774 0.5774
vn -0.5773 -0.5774 -0.5774
vn -0.5774 0.5774 -0.5774
vn 0.5773 -0.5774 0.5774
vn 0.5774 0.5774 0.5774
vn 0.5773 -0.5774 -0.5774
vn 0.5774 0.5774 -0.5774
vn -0.7071 -0.7071 -0.0000
vn -0.7071 -0.0000 0.7071
vn -0.7071 0.7071 -0.0000
vn -0.7071 -0.0000 -0.7071
vn -0.0000 -0.7071 -0.7071
vn -0.0000 0.7071 -0.7071
vn 0.7071 -0.0000 -0.7071
vn 0.7071 -0.7071 -0.0000
vn 0.7071 0.7071 -0.0000
vn 0.7071 -0.0000 0.7071
vn -0.0000 -0.7071 0.7071
vn -0.0000 0.7071 0.7071
vn 0.3827 -0.0000 -0.9239
vn 0.9239 -0.0000 -0.3827
vn 0.9239 -0.0000 0.3827
vn 0.3827 -0.0000 0.9239
vn -0.3827 -0.0000 0.9239
vn -0.9239 -0.0000 0.3827
vn -0.9239 -0.0000 -0.3827
vn -0.3827 -0.0000 -0.9239
vn 0.5000 -0.8660 -0.0000
vn 0.5000 0.8660 -0.0000
vn -0.5000 0.8660 -0.0000
vn -0.5000 -0.8660 -0.0000
vn -0.4896 0.2028 -0.8480
vn -0.4896 0.2028 0.8480
vn 0.9239 -0.3827 -0.0000
vn -0.2028 0.4896 -0.8480
vn -0.2028 0.4896 0.8480
vn 0.3827 -0.9239 -0.0000
vn 0.2028 0.4896 -0.8480
vn 0.2028 0.4896 0.8480
vn -0.3827 -0.9239 -0.0000
vn 0.4896 0.2028 -0.8480
vn 0.4896 0.2028 0.8480
vn -0.9239 -0.3827 -0.0000
vn 0.4896 -0.2028 -0.8480
vn 0.4896 -0.2028 0.8480
vn -0.9239 0.3827 -0.0000
vn 0.2028 -0.4896 -0.8480
vn 0.2028 -0.4896 0.8480
vn -0.3827 0.9239 -0.0000
vn -0.2028 -0.4896 -0.8480
vn -0.2028 -0.4896 0.8480
vn 0.3827 0.9239 -0.0000
vn -0.4896 -0.2028 -0.8480
vn -0.4896 -0.2028 0.8480
vn 0.9239 0.3827 -0.0000
s 0
usemtl steel_dark
f 2//1 3//1 1//1
f 4//2 7//2 3//2
f 8//3 5//3 7//3
f 6//4 1//4 5//4
f 7//5 1//5 3//5
f 4//6 6//6 8//6
f 50//1 51//1 49//1
f 52//2 55//2 51//2
f 56//3 53//3 55//3
f 54//4 49//4 53//4
f 55//5 49//5 51//5
f 52//6 54//6 56//6
f 66//1 67//1 65//1
f 68//2 71//2 67//2
f 72//3 69//3 71//3
f 70//4 65//4 69//4
f 71//5 65//5 67//5
f 68//6 70//6 72//6
f 74//1 75//1 73//1
f 76//2 79//2 75//2
f 80//3 77//3 79//3
f 78//4 73//4 77//4
f 79//5 73//5 75//5
f 76//6 78//6 80//6
f 82//1 83//1 81//1
f 84//2 87//2 83//2
f 88//3 85//3 87//3
f 86//4 81//4 85//4
f 87//5 81//5 83//5
f 84//6 86//6 88//6
f 90//1 91//1 89//1
f 92//2 95//2 91//2
f 96//3 93//3 95//3
f 94//4 89//4 93//4
f 95//5 89//5 91//5
f 92//6 94//6 96//6
f 98//1 99//1 97//1
f 100//2 103//2 99//2
f 104//3 101//3 103//3
f 102//4 97//4 101//4
f 103//5 97//5 99//5
f 100//6 102//6 104//6
f 106//27 107//27 105//27
f 108//28 109//28 107//28
f 110//29 111//29 109//29
f 112//30 113//30 111//30
f 114//31 115//31 113//31
f 116//32 117//32 115//32
f 118//6 114//6 110//6
f 118//33 119//33 117//33
f 120//34 105//34 119//34
f 111//5 115//5 119//5
f 2//1 4//1 3//1
f 4//2 8//2 7//2
f 8//3 6//3 5//3
f 6//4 2//4 1//4
f 7//5 5//5 1//5
f 4//6 2//6 6//6
f 50//1 52//1 51//1
f 52//2 56//2 55//2
f 56//3 54//3 53//3
f 54//4 50//4 49//4
f 55//5 53//5 49//5
f 52//6 50//6 54//6
f 66//1 68//1 67//1
f 68//2 72//2 71//2
f 72//3 70//3 69//3
f 70//4 66//4 65//4
f 71//5 69//5 65//5
f 68//6 66//6 70//6
f 74//1 76//1 75//1
f 76//2 80//2 79//2
f 80//3 78//3 77//3
f 78//4 74//4 73//4
f 79//5 77//5 73//5
f 76//6 74//6 78//6
f 82//1 84//1 83//1
f 84//2 88//2 87//2
f 88//3 86//3 85//3
f 86//4 82//4 81//4
f 87//5 85//5 81//5
f 84//6 82//6 86//6
f 90//1 92//1 91//1
f 92//2 96//2 95//2
f 96//3 94//3 93//3
f 94//4 90//4 89//4
f 95//5 93//5 89//5
f 92//6 90//6 94//6
f 98//1 100//1 99//1
f 100//2 104//2 103//2
f 104//3 102//3 101//3
f 102//4 98//4 97//4
f 103//5 101//5 97//5
f 100//6 98//6 102//6
f 106//27 108//27 107//27
f 108//28 110//28 109//28
f 110//29 112//29 111//29
f 112//30 114//30 113//30
f 114//31 116//31 115//31
f 116//32 118//32 117//32
f 110//6 108//6 106//6
f 106//6 120//6 118//6
f 118//6 116//6 114//6
f 114//6 112//6 110//6
f 110//6 106//6 118//6
f 118//33 120//33 119//33
f 120//34 106//34 105//34
f 119//5 105//5 107//5
f 107//5 109//5 111//5
f 111//5 113//5 115//5
f 115//5 117//5 119//5
f 119//5 107//5 111//5
usemtl stone
f 9//7 10//7 11//7
f 12//8 13//8 14//8
f 15//9 16//9 17//9
f 18//10 19//10 20//10
f 21//11 22//11 23//11
f 24//12 25//12 26//12
f 27//13 28//13 29//13
f 30//14 31//14 32//14
f 9//15 16//15 15//15
f 12//16 11//16 10//16
f 18//17 14//17 13//17
f 17//18 20//18 19//18
f 15//19 28//19 27//19
f 30//20 19//20 18//20
f 29//21 32//21 31//21
f 27//22 22//22 21//22
f 24//23 31//23 30//23
f 23//24 26//24 25//24
f 21//25 10//25 9//25
f 13//26 25//26 24//26
f 27//5 9//5 15//5
f 14//1 16//1 11//1
f 25//4 10//4 23//4
f 18//6 24//6 30//6
f 19//2 28//2 17//2
f 31//3 22//3 29//3
f 9//15 11//15 16//15
f 12//16 14//16 11//16
f 18//17 20//17 14//17
f 17//18 16//18 20//18
f 15//19 17//19 28//19
f 30//20 32//20 19//20
f 29//21 28//21 32//21
f 27//22 29//22 22//22
f 24//23 26//23 31//23
f 23//24 22//24 26//24
f 21//25 23//25 10//25
f 13//26 12//26 25//26
f 27//5 21//5 9//5
f 14//1 20//1 16//1
f 25//4 12//4 10//4
f 18//6 13//6 24//6
f 19//2 32//2 28//2
f 31//3 26//3 22//3
usemtl steel
f 34//1 35//1 33//1
f 36//2 39//2 35//2
f 40//3 37//3 39//3
f 38//4 33//4 37//4
f 43//5 35//5 44//5
f 39//5 37//5 42//5
f 47//6 40//6 48//6
f 36//6 34//6 46//6
f 43//3 46//3 45//3
f 44//4 48//4 46//4
f 41//1 48//1 42//1
f 43//2 47//2 41//2
f 122//35 123//35 121//35
f 124//3 125//3 123//3
f 126//36 127//36 125//36
f 128//37 129//37 127//37
f 122//2 130//2 126//2
f 130//1 131//1 129//1
f 132//38 121//38 131//38
f 123//4 127//4 131//4
f 136//39 134//39 133//39
f 134//40 138//40 135//40
f 138//41 133//41 135//41
f 139//42 137//42 136//42
f 140//43 138//43 137//43
f 141//44 136//44 138//44
f 142//45 140//45 139//45
f 143//46 141//46 140//46
f 144//47 139//47 141//47
f 142//48 146//48 143//48
f 146//49 144//49 143//49
f 147//50 142//50 144//50
f 148//51 146//51 145//51
f 149//52 147//52 146//52
f 147//53 148//53 145//53
f 151//54 149//54 148//54
f 149//55 153//55 150//55
f 153//56 148//56 150//56
f 154//57 152//57 151//57
f 155//58 153//58 152//58
f 156//59 151//59 153//59
f 133//60 155//60 154//60
f 155//61 135//61 156//61
f 135//62 154//62 156//62
f 158//1 159//1 157//1
f 160//2 163//2 159//2
f 164//3 161//3 163//3
f 162//4 157//4 161//4
f 163//5 157//5 159//5
f 160//6 162//6 164//6
f 166//1 167//1 165//1
f 168//2 171//2 167//2
f 172//3 169//3 171//3
f 170//4 165//4 169//4
f 171//5 165//5 167//5
f 168//6 170//6 172//6
f 174//1 175//1 173//1
f 176//2 179//2 175//2
f 180//3 177//3 179//3
f 178//4 173//4 177//4
f 179//5 173//5 175//5
f 176//6 178//6 180//6
f 182//1 183//1 181//1
f 184//2 187//2 183//2
f 188//3 185//3 187//3
f 186//4 181//4 185//4
f 187//5 181//5 183//5
f 184//6 186//6 188//6
f 34//1 36//1 35//1
f 36//2 40//2 39//2
f 40//3 38//3 37//3
f 38//4 34//4 33//4
f 43//5 33//5 35//5
f 42//5 44//5 35//5
f 37//5 33//5 43//5
f 37//5 43//5 41//5
f 42//5 35//5 39//5
f 37//5 41//5 42//5
f 47//6 38//6 40//6
f 46//6 48//6 40//6
f 34//6 38//6 47//6
f 34//6 47//6 45//6
f 46//6 40//6 36//6
f 34//6 45//6 46//6
f 43//3 44//3 46//3
f 44//4 42//4 48//4
f 41//1 47//1 48//1
f 43//2 45//2 47//2
f 122//35 124//35 123//35
f 124//3 126//3 125//3
f 126//36 128//36 127//36
f 128//37 130//37 129//37
f 126//2 124//2 122//2
f 122//2 132//2 130//2
f 130//2 128//2 126//2
f 130//1 132//1 131//1
f 132//38 122//38 121//38
f 131//4 121//4 123//4
f 123//4 125//4 127//4
f 127//4 129//4 131//4
f 136//39 137//39 134//39
f 134//40 137//40 138//40
f 138//41 136//41 133//41
f 139//42 140//42 137//42
f 140//43 141//43 138//43
f 141//44 139//44 136//44
f 142//45 143//45 140//45
f 143//46 144//46 141//46
f 144//47 142//47 139//47
f 142//48 145//48 146//48
f 146//49 147//49 144//49
f 147//50 145//50 142//50
f 148//51 149//51 146//51
f 149//52 150//52 147//52
f 147//53 150//53 148//53
f 151//54 152//54 149//54
f 149//55 152//55 153//55
f 153//56 151//56 148//56
f 154//57 155//57 152//57
f 155//58 156//58 153//58
f 156//59 154//59 151//59
f 133//60 134//60 155//60
f 155//61 134//61 135//61
f 135//62 133//62 154//62
f 158//1 160//1 159//1
f 160//2 164//2 163//2
f 164//3 162//3 161//3
f 162//4 158//4 157//4
f 163//5 161//5 157//5
f 160//6 158//6 162//6
f 166//1 168//1 167//1
f 168//2 172//2 171//2
f 172//3 170//3 169//3
f 170//4 166//4 165//4
f 171//5 169//5 165//5
f 168//6 166//6 170//6
f 174//1 176//1 175//1
f 176//2 180//2 179//2
f 180//3 178//3 177//3
f 178//4 174//4 173//4
f 179//5 177//5 173//5
f 176//6 174//6 178//6
f 182//1 184//1 183//1
f 184//2 188//2 187//2
f 188//3 186//3 185//3
f 186//4 182//4 181//4
f 187//5 185//5 181//5
f 184//6 182//6 186//6
usemtl heat_glow
f 58//1 59//1 57//1
f 60//2 63//2 59//2
f 64//3 61//3 63//3
f 62//4 57//4 61//4
f 63//5 57//5 59//5
f 60//6 62//6 64//6
f 58//1 60//1 59//1
f 60//2 64//2 63//2
f 64//3 62//3 61//3
f 62//4 58//4 57//4
f 63//5 61//5 57//5
f 60//6 58//6 62//6
o part
v 0.000000 1.050000 0.020000
v 0.000000 1.050000 -0.020000
v 0.225000 1.110289 0.020000
v 0.225000 1.110289 -0.020000
v 0.389711 1.275000 0.020000
v 0.389711 1.275000 -0.020000
v 0.450000 1.500000 0.020000
v 0.450000 1.500000 -0.020000
v 0.389711 1.725000 0.020000
v 0.389711 1.725000 -0.020000
v 0.225000 1.889711 0.020000
v 0.225000 1.889711 -0.020000
v 0.000000 1.950000 0.020000
v 0.000000 1.950000 -0.020000
v -0.225000 1.889711 0.020000
v -0.225000 1.889711 -0.020000
v -0.389711 1.725000 0.020000
v -0.389711 1.725000 -0.020000
v -0.450000 1.500000 0.020000
v -0.450000 1.500000 -0.020000
v -0.389711 1.275000 0.020000
v -0.389711 1.275000 -0.020000
v -0.225000 1.110289 0.020000
v -0.225000 1.110289 -0.020000
v 0.000000 1.400000 0.040000
v 0.000000 1.400000 -0.040000
v 0.070711 1.429289 0.040000
v 0.070711 1.429289 -0.040000
v 0.100000 1.500000 0.040000
v 0.100000 1.500000 -0.040000
v 0.070711 1.570711 0.040000
v 0.070711 1.570711 -0.040000
v 0.000000 1.600000 0.040000
v 0.000000 1.600000 -0.040000
v -0.070711 1.570711 0.040000
v -0.070711 1.570711 -0.040000
v -0.100000 1.500000 0.040000
v -0.100000 1.500000 -0.040000
v -0.070711 1.429289 0.040000
v -0.070711 1.429289 -0.040000
v 0.150000 1.480000 -0.020000
v 0.150000 1.520000 -0.020000
v 0.150000 1.480000 -0.025000
v 0.150000 1.520000 -0.025000
v 0.300000 1.480000 -0.020000
v 0.300000 1.520000 -0.020000
v 0.300000 1.480000 -0.025000
v 0.300000 1.520000 -0.025000
v 0.150000 1.480000 0.025000
v 0.150000 1.520000 0.025000
v 0.150000 1.480000 0.020000
v 0.150000 1.520000 0.020000
v 0.300000 1.480000 0.025000
v 0.300000 1.520000 0.025000
v 0.300000 1.480000 0.020000
v 0.300000 1.520000 0.020000
vn 0.2588 -0.9659 -0.0000
vn 0.7071 -0.7071 -0.0000
vn 0.9659 -0.2588 -0.0000
vn 0.9659 0.2588 -0.0000
vn 0.7071 0.7071 -0.0000
vn 0.2588 0.9659 -0.0000
vn -0.2588 0.9659 -0.0000
vn -0.7071 0.7071 -0.0000
vn -0.9659 0.2588 -0.0000
vn -0.9659 -0.2588 -0.0000
vn -0.0000 -0.0000 -1.0000
vn -0.7071 -0.7071 -0.0000
vn -0.2588 -0.9659 -0.0000
vn -0.0000 -0.0000 1.0000
vn 0.3827 -0.9239 -0.0000
vn 0.9239 -0.3827 -0.0000
vn 0.9239 0.3827 -0.0000
vn 0.3827 0.9239 -0.0000
vn -0.3827 0.9239 -0.0000
vn -0.9239 0.3827 -0.0000
vn -0.9239 -0.3827 -0.0000
vn -0.3827 -0.9239 -0.0000
vn -1.0000 -0.0000 -0.0000
vn 1.0000 -0.0000 -0.0000
vn -0.0000 -1.0000 -0.0000
vn -0.0000 1.0000 -0.0000
s 0
usemtl steel
f 190//63 191//63 189//63
f 192//64 193//64 191//64
f 194//65 195//65 193//65
f 196//66 197//66 195//66
f 198//67 199//67 197//67
f 200//68 201//68 199//68
f 202//69 203//69 201//69
f 204//70 205//70 203//70
f 206//71 207//71 205//71
f 208//72 209//72 207//72
f 210//73 202//73 194//73
f 210//74 211//74 209//74
f 212//75 189//75 211//75
f 195//76 203//76 211//76
f 190//63 192//63 191//63
f 192//64 194//64 193//64
f 194//65 196//65 195//65
f 196//66 198//66 197//66
f 198//67 200//67 199//67
f 200//68 202//68 201//68
f 202//69 204//69 203//69
f 204//70 206//70 205//70
f 206//71 208//71 207//71
f 208//72 210//72 209//72
f 194//73 192//73 190//73
f 190//73 212//73 210//73
f 210//73 208//73 206//73
f 206//73 204//73 202//73
f 202//73 200//73 198//73
f 198//73 196//73 194//73
f 194//73 190//73 210//73
f 210//73 206//73 202//73
f 202//73 198//73 194//73
f 210//74 212//74 211//74
f 212//75 190//75 189//75
f 211//76 189//76 191//76
f 191//76 193//76 195//76
f 195//76 197//76 199//76
f 199//76 201//76 203//76
f 203//76 205//76 207//76
f 207//76 209//76 211//76
f 211//76 191//76 195//76
f 195//76 199//76 203//76
f 203//76 207//76 211//76
usemtl steel_dark
f 214//77 215//77 213//77
f 216//78 217//78 215//78
f 218//79 219//79 217//79
f 220//80 221//80 219//80
f 222//81 223//81 221//81
f 223//82 226//82 225//82
f 226//73 222//73 218//73
f 226//83 227//83 225//83
f 228//84 213//84 227//84
f 219//76 223//76 227//76
f 214//77 216//77 215//77
f 216//78 218//78 217//78
f 218//79 220//79 219//79
f 220//80 222//80 221//80
f 222//81 224//81 223//81
f 223//82 224//82 226//82
f 218//73 216//73 214//73
f 214//73 228//73 226//73
f 226//73 224//73 222//73
f 222//73 220//73 218//73
f 218//73 214//73 226//73
f 226//83 228//83 227//83
f 228//84 214//84 213//84
f 227//76 213//76 215//76
f 215//76 217//76 219//76
f 219//76 221//76 223//76
f 223//76 225//76 227//76
f 227//76 215//76 219//76
usemtl hazard_black
f 230//85 231//85 229//85
f 232//73 235//73 231//73
f 236//86 233//86 235//86
f 234//76 229//76 233//76
f 235//87 229//87 231//87
f 232//88 234//88 236//88
f 238//85 239//85 237//85
f 240//73 243//73 239//73
f 244//86 241//86 243//86
f 242//76 237//76 241//76
f 243//87 237//87 239//87
f 240//88 242//88 244//88
f 230//85 232//85 231//85
f 232//73 236//73 235//73
f 236//86 234//86 233//86
f 234//76 230//76 229//76
f 235//87 233//87 229//87
f 232//88 230//88 234//88
f 238//85 240//85 239//85
f 240//73 244//73 243//73
f 244//86 242//86 241//86
f 242//76 238//76 237//76
f 243//87 241//87 237//87
f 240//88 238//88 242//88
