# Blender 5.2.0 LTS
# www.blender.org
mtllib stone_furnace.mtl
o body
v -0.930000 0.000000 0.930000
v -0.930000 0.030000 0.960000
v -0.960000 0.030000 0.930000
v -0.930000 0.090000 0.960000
v -0.930000 0.120000 0.930000
v -0.960000 0.090000 0.930000
v -0.930000 0.000000 -0.930000
v -0.960000 0.030000 -0.930000
v -0.930000 0.030000 -0.960000
v -0.930000 0.120000 -0.930000
v -0.930000 0.090000 -0.960000
v -0.960000 0.090000 -0.930000
v 0.930000 0.000000 0.930000
v 0.960000 0.030000 0.930000
v 0.930000 0.030000 0.960000
v 0.930000 0.120000 0.930000
v 0.930000 0.090000 0.960000
v 0.960000 0.090000 0.930000
v 0.930000 0.000000 -0.930000
v 0.930000 0.030000 -0.960000
v 0.960000 0.030000 -0.930000
v 0.930000 0.120000 -0.930000
v 0.960000 0.090000 -0.930000
v 0.930000 0.090000 -0.960000
v -0.770000 0.120000 0.750000
v 0.600000 0.300000 0.300000
v -0.770000 0.170000 0.800000
v 0.600000 0.750000 0.300000
v -0.820000 0.170000 0.750000
v 0.600000 0.300000 -0.300000
v 0.600000 0.750000 -0.300000
v -0.770000 1.200000 0.800000
v -0.770000 1.250000 0.750000
v -0.820000 1.200000 0.750000
v -0.770000 0.120000 -0.750000
v -0.820000 0.170000 -0.750000
v -0.770000 0.170000 -0.800000
v -0.770000 1.250000 -0.750000
v -0.770000 1.200000 -0.800000
v -0.820000 1.200000 -0.750000
v 0.730000 0.120000 0.750000
v 0.780000 0.170000 0.750000
v 0.730000 0.170000 0.800000
v 0.730000 1.250000 0.750000
v 0.730000 1.200000 0.800000
v 0.780000 1.200000 0.750000
v 0.730000 0.120000 -0.750000
v 0.730000 0.170000 -0.800000
v 0.780000 0.170000 -0.750000
v 0.730000 1.250000 -0.750000
v 0.780000 1.200000 -0.750000
v 0.730000 1.200000 -0.800000
v 0.780000 0.750000 -0.300000
v 0.780000 0.300000 0.300000
v 0.780000 0.750000 0.300000
v 0.780000 0.300000 -0.300000
v 0.580000 0.300000 0.300000
v 0.580000 0.750000 0.300000
v 0.580000 0.300000 -0.300000
v 0.580000 0.750000 -0.300000
v 0.620000 0.300000 0.300000
v 0.620000 0.750000 0.300000
v 0.620000 0.300000 -0.300000
v 0.620000 0.750000 -0.300000
v 0.620000 0.300000 0.260000
v 0.620000 0.380000 0.260000
v 0.620000 0.300000 -0.260000
v 0.620000 0.380000 -0.260000
v 0.680000 0.300000 0.260000
v 0.680000 0.380000 0.260000
v 0.680000 0.300000 -0.260000
v 0.680000 0.380000 -0.260000
v 0.760000 0.730000 0.360000
v 0.760000 0.830000 0.360000
v 0.760000 0.730000 -0.360000
v 0.760000 0.830000 -0.360000
v 0.840000 0.730000 0.360000
v 0.840000 0.830000 0.360000
v 0.840000 0.730000 -0.360000
v 0.840000 0.830000 -0.360000
v -0.840000 0.160000 0.820000
v -0.840000 0.220000 0.820000
v -0.840000 0.160000 -0.820000
v -0.840000 0.220000 -0.820000
v 0.800000 0.160000 0.820000
v 0.800000 0.220000 0.820000
v 0.800000 0.160000 -0.820000
v 0.800000 0.220000 -0.820000
v -0.840000 0.880000 0.820000
v -0.840000 0.940000 0.820000
v -0.840000 0.880000 -0.820000
v -0.840000 0.940000 -0.820000
v 0.800000 0.880000 0.820000
v 0.800000 0.940000 0.820000
v 0.800000 0.880000 -0.820000
v 0.800000 0.940000 -0.820000
v -0.596985 1.250000 -0.546985
v -0.476777 1.500000 -0.426777
v -0.003015 1.250000 -0.546985
v -0.123223 1.500000 -0.426777
v -0.003015 1.250000 0.046985
v -0.123223 1.500000 -0.073223
v -0.596985 1.250000 0.046985
v -0.476777 1.500000 -0.073223
v -0.500000 1.250000 0.310000
v -0.500000 2.350000 0.310000
v -0.417710 1.250000 0.336738
v -0.417710 2.350000 0.336738
v -0.366852 1.250000 0.406738
v -0.366852 2.350000 0.406738
v -0.366852 1.250000 0.493262
v -0.366852 2.350000 0.493262
v -0.417710 1.250000 0.563262
v -0.417710 2.350000 0.563262
v -0.500000 1.250000 0.590000
v -0.500000 2.350000 0.590000
v -0.582290 1.250000 0.563262
v -0.582290 2.350000 0.563262
v -0.633148 1.250000 0.493262
v -0.633148 2.350000 0.493262
v -0.633148 1.250000 0.406738
v -0.633148 2.350000 0.406738
v -0.582290 1.250000 0.336738
v -0.582290 2.350000 0.336738
v -0.500000 2.250000 0.270000
v -0.500000 2.330000 0.270000
v -0.394199 2.250000 0.304377
v -0.394199 2.330000 0.304377
v -0.328810 2.250000 0.394377
v -0.328810 2.330000 0.394377
v -0.328810 2.250000 0.505623
v -0.328810 2.330000 0.505623
v -0.394199 2.250000 0.595623
v -0.394199 2.330000 0.595623
v -0.500000 2.250000 0.630000
v -0.500000 2.330000 0.630000
v -0.605801 2.250000 0.595623
v -0.605801 2.330000 0.595623
v -0.671190 2.250000 0.505623
v -0.671190 2.330000 0.505623
v -0.671190 2.250000 0.394377
v -0.671190 2.330000 0.394377
v -0.605801 2.250000 0.304377
v -0.605801 2.330000 0.304377
v -0.630000 0.220000 -0.800000
v -0.630000 0.880000 -0.800000
v -0.630000 0.220000 -0.830000
v -0.630000 0.880000 -0.830000
v -0.590000 0.220000 -0.800000
v -0.590000 0.880000 -0.800000
v -0.590000 0.220000 -0.830000
v -0.590000 0.880000 -0.830000
v -0.210000 0.220000 -0.800000
v -0.210000 0.880000 -0.800000
v -0.210000 0.220000 -0.830000
v -0.210000 0.880000 -0.830000
v -0.170000 0.220000 -0.800000
v -0.170000 0.880000 -0.800000
v -0.170000 0.220000 -0.830000
v -0.170000 0.880000 -0.830000
v 0.350000 0.220000 -0.800000
v 0.350000 0.880000 -0.800000
v 0.350000 0.220000 -0.830000
v 0.350000 0.880000 -0.830000
v 0.390000 0.220000 -0.800000
v 0.390000 0.880000 -0.800000
v 0.390000 0.220000 -0.830000
v 0.390000 0.880000 -0.830000
v -0.570000 0.220000 0.830000
v -0.570000 0.880000 0.830000
v -0.570000 0.220000 0.800000
v -0.570000 0.880000 0.800000
v -0.530000 0.220000 0.830000
v -0.530000 0.880000 0.830000
v -0.530000 0.220000 0.800000
v -0.530000 0.880000 0.800000
v 0.100000 0.220000 0.830000
v 0.100000 0.880000 0.830000
v 0.100000 0.220000 0.800000
v 0.100000 0.880000 0.800000
v 0.140000 0.220000 0.830000
v 0.140000 0.880000 0.830000
v 0.140000 0.220000 0.800000
v 0.140000 0.880000 0.800000
v -0.450000 0.240000 -0.800000
v -0.450000 0.520000 -0.800000
v -0.450000 0.240000 -0.840000
v -0.450000 0.520000 -0.840000
v -0.050000 0.240000 -0.800000
v -0.050000 0.520000 -0.800000
v -0.050000 0.240000 -0.840000
v -0.050000 0.520000 -0.840000
v -0.400000 0.380000 -0.878000
v -0.100000 0.380000 -0.878000
v -0.400000 0.362679 -0.868000
v -0.100000 0.362680 -0.868000
v -0.400000 0.362679 -0.848000
v -0.100000 0.362680 -0.848000
v -0.400000 0.380000 -0.838000
v -0.100000 0.380000 -0.838000
v -0.400000 0.397320 -0.848000
v -0.100000 0.397321 -0.848000
v -0.400000 0.397320 -0.868000
v -0.100000 0.397321 -0.868000
vn -0.5773 -0.5774 0.5774
vn -0.5773 0.5774 0.5774
vn -0.5773 -0.5774 -0.5774
vn -0.5773 0.5774 -0.5774
vn 0.5773 -0.5774 0.5774
vn 0.5773 0.5774 0.5774
vn 0.5773 -0.5774 -0.5774
vn 0.5773 0.5774 -0.5774
vn -0.7071 -0.7071 -0.0000
vn -0.7071 -0.0000 0.7071
vn -0.7071 0.7071 -0.0000
vn -0.7071 -0.0000 -0.7071
vn -0.0000 -0.7071 -0.7071
vn -0.0000 0.7071 -0.7071
vn 0.7071 -0.0000 -0.7071
vn 0.7071 -0.7071 -0.0000
vn 0.7071 0.7071 -0.0000
vn 0.7071 -0.0000 0.7071
vn -0.0000 -0.7071 0.7071
vn -0.0000 0.7071 0.7071
vn -0.0000 -1.0000 -0.0000
vn -1.0000 -0.0000 -0.0000
vn -0.0000 -0.0000 1.0000
vn -0.0000 1.0000 -0.0000
vn -0.0000 -0.0000 -1.0000
vn 1.0000 -0.0000 -0.0000
vn -0.5774 -0.5773 0.5774
vn -0.5773 0.5773 0.5774
vn -0.5774 -0.5773 -0.5774
vn -0.5773 0.5773 -0.5774
vn 0.5774 -0.5773 0.5774
vn 0.5773 0.5773 0.5774
vn 0.5774 -0.5773 -0.5774
vn 0.5773 0.5773 -0.5774
vn -0.0000 0.4333 -0.9012
vn 0.9012 0.4333 -0.0000
vn -0.0000 0.4333 0.9012
vn -0.9012 0.4333 -0.0000
vn 0.3090 -0.0000 -0.9511
vn 0.8090 -0.0000 -0.5878
vn 0.8090 -0.0000 0.5878
vn 0.3090 -0.0000 0.9511
vn -0.3090 -0.0000 0.9511
vn -0.8090 -0.0000 0.5878
vn -0.8090 -0.0000 -0.5878
vn -0.3090 -0.0000 -0.9511
vn -0.0000 -0.5000 -0.8660
vn -0.0000 -0.5000 0.8660
vn -0.0000 0.5000 0.8660
vn -0.0000 0.5000 -0.8660
s 0
usemtl steel_dark
f 1//1 2//1 3//1
f 4//2 5//2 6//2
f 7//3 8//3 9//3
f 10//4 11//4 12//4
f 13//5 14//5 15//5
f 16//6 17//6 18//6
f 19//7 20//7 21//7
f 22//8 23//8 24//8
f 1//9 8//9 7//9
f 4//10 3//10 2//10
f 10//11 6//11 5//11
f 9//12 12//12 11//12
f 7//13 20//13 19//13
f 22//14 11//14 10//14
f 21//15 24//15 23//15
f 19//16 14//16 13//16
f 16//17 23//17 22//17
f 15//18 18//18 17//18
f 13//19 2//19 1//19
f 5//20 17//20 16//20
f 19//21 1//21 7//21
f 6//22 8//22 3//22
f 17//23 2//23 15//23
f 10//24 16//24 22//24
f 11//25 20//25 9//25
f 23//26 14//26 21//26
f 106//39 107//39 105//39
f 108//40 109//40 107//40
f 110//26 111//26 109//26
f 112//41 113//41 111//41
f 114//42 115//42 113//42
f 116//43 117//43 115//43
f 118//44 119//44 117//44
f 120//22 121//22 119//22
f 122//24 114//24 110//24
f 122//45 123//45 121//45
f 124//46 105//46 123//46
f 111//21 119//21 123//21
f 1//9 3//9 8//9
f 4//10 6//10 3//10
f 10//11 12//11 6//11
f 9//12 8//12 12//12
f 7//13 9//13 20//13
f 22//14 24//14 11//14
f 21//15 20//15 24//15
f 19//16 21//16 14//16
f 16//17 18//17 23//17
f 15//18 14//18 18//18
f 13//19 15//19 2//19
f 5//20 4//20 17//20
f 19//21 13//21 1//21
f 6//22 12//22 8//22
f 17//23 4//23 2//23
f 10//24 5//24 16//24
f 11//25 24//25 20//25
f 23//26 18//26 14//26
f 106//39 108//39 107//39
f 108//40 110//40 109//40
f 110//26 112//26 111//26
f 112//41 114//41 113//41
f 114//42 116//42 115//42
f 116//43 118//43 117//43
f 118//44 120//44 119//44
f 120//22 122//22 121//22
f 110//24 108//24 106//24
f 106//24 124//24 122//24
f 122//24 120//24 118//24
f 118//24 116//24 114//24
f 114//24 112//24 110//24
f 110//24 106//24 122//24
f 122//24 118//24 114//24
f 122//45 124//45 123//45
f 124//46 106//46 105//46
f 123//21 105//21 107//21
f 107//21 109//21 111//21
f 111//21 113//21 115//21
f 115//21 117//21 119//21
f 119//21 121//21 123//21
f 123//21 107//21 111//21
f 111//21 115//21 119//21
usemtl smelting_brick
f 25//27 27//27 29//27
f 32//28 33//28 34//28
f 35//29 36//29 37//29
f 38//30 39//30 40//30
f 41//31 42//31 43//31
f 44//32 45//32 46//32
f 47//33 48//33 49//33
f 50//34 51//34 52//34
f 25//9 36//9 35//9
f 32//10 29//10 27//10
f 38//11 34//11 33//11
f 37//12 40//12 39//12
f 35//13 48//13 47//13
f 50//14 39//14 38//14
f 49//15 52//15 51//15
f 47//16 42//16 41//16
f 44//17 51//17 50//17
f 43//18 46//18 45//18
f 41//19 27//19 25//19
f 33//20 45//20 44//20
f 47//21 25//21 35//21
f 34//22 36//22 29//22
f 45//23 27//23 43//23
f 38//24 44//24 50//24
f 39//25 48//25 37//25
f 51//26 46//26 53//26
f 42//26 56//26 54//26
f 30//26 28//26 26//26
f 31//23 56//23 53//23
f 26//25 55//25 54//25
f 26//24 56//24 30//24
f 31//21 55//21 28//21
f 25//9 29//9 36//9
f 32//10 34//10 29//10
f 38//11 40//11 34//11
f 37//12 36//12 40//12
f 35//13 37//13 48//13
f 50//14 52//14 39//14
f 49//15 48//15 52//15
f 47//16 49//16 42//16
f 44//17 46//17 51//17
f 43//18 42//18 46//18
f 41//19 43//19 27//19
f 33//20 32//20 45//20
f 47//21 41//21 25//21
f 34//22 40//22 36//22
f 45//23 32//23 27//23
f 38//24 33//24 44//24
f 39//25 52//25 48//25
f 53//26 56//26 49//26
f 46//26 42//26 54//26
f 46//26 54//26 55//26
f 53//26 49//26 51//26
f 46//26 55//26 53//26
f 42//26 49//26 56//26
f 30//26 31//26 28//26
f 31//23 30//23 56//23
f 26//25 28//25 55//25
f 26//24 54//24 56//24
f 31//21 53//21 55//21
usemtl soot
f 58//22 59//22 57//22
f 60//25 63//25 59//25
f 64//26 61//26 63//26
f 62//23 57//23 61//23
f 63//21 57//21 59//21
f 60//24 62//24 64//24
f 58//22 60//22 59//22
f 60//25 64//25 63//25
f 64//26 62//26 61//26
f 62//23 58//23 57//23
f 63//21 61//21 57//21
f 60//24 58//24 62//24
usemtl heat_glow
f 66//22 67//22 65//22
f 68//25 71//25 67//25
f 72//26 69//26 71//26
f 70//23 65//23 69//23
f 71//21 65//21 67//21
f 68//24 70//24 72//24
f 66//22 68//22 67//22
f 68//25 72//25 71//25
f 72//26 70//26 69//26
f 70//23 66//23 65//23
f 71//21 69//21 65//21
f 68//24 66//24 70//24
usemtl steel
f 74//22 75//22 73//22
f 76//25 79//25 75//25
f 80//26 77//26 79//26
f 78//23 73//23 77//23
f 79//21 73//21 75//21
f 76//24 78//24 80//24
f 82//22 83//22 81//22
f 84//25 87//25 83//25
f 88//26 85//26 87//26
f 86//23 81//23 85//23
f 87//21 81//21 83//21
f 84//24 86//24 88//24
f 90//22 91//22 89//22
f 92//25 95//25 91//25
f 96//26 93//26 95//26
f 94//23 89//23 93//23
f 95//21 89//21 91//21
f 92//24 94//24 96//24
f 126//39 127//39 125//39
f 128//40 129//40 127//40
f 130//26 131//26 129//26
f 132//41 133//41 131//41
f 134//42 135//42 133//42
f 136//43 137//43 135//43
f 138//44 139//44 137//44
f 140//22 141//22 139//22
f 142//24 134//24 130//24
f 142//45 143//45 141//45
f 144//46 125//46 143//46
f 131//21 139//21 143//21
f 146//22 147//22 145//22
f 148//25 151//25 147//25
f 152//26 149//26 151//26
f 150//23 145//23 149//23
f 151//21 145//21 147//21
f 148//24 150//24 152//24
f 154//22 155//22 153//22
f 156//25 159//25 155//25
f 160//26 157//26 159//26
f 158//23 153//23 157//23
f 159//21 153//21 155//21
f 156//24 158//24 160//24
f 162//22 163//22 161//22
f 164//25 167//25 163//25
f 168//26 165//26 167//26
f 166//23 161//23 165//23
f 167//21 161//21 163//21
f 164//24 166//24 168//24
f 170//22 171//22 169//22
f 172//25 175//25 171//25
f 176//26 173//26 175//26
f 174//23 169//23 173//23
f 175//21 169//21 171//21
f 172//24 174//24 176//24
f 178//22 179//22 177//22
f 180//25 183//25 179//25
f 184//26 181//26 183//26
f 182//23 177//23 181//23
f 183//21 177//21 179//21
f 180//24 182//24 184//24
f 186//22 187//22 185//22
f 188//25 191//25 187//25
f 192//26 189//26 191//26
f 190//23 185//23 189//23
f 191//21 185//21 187//21
f 188//24 190//24 192//24
f 74//22 76//22 75//22
f 76//25 80//25 79//25
f 80//26 78//26 77//26
f 78//23 74//23 73//23
f 79//21 77//21 73//21
f 76//24 74//24 78//24
f 82//22 84//22 83//22
f 84//25 88//25 87//25
f 88//26 86//26 85//26
f 86//23 82//23 81//23
f 87//21 85//21 81//21
f 84//24 82//24 86//24
f 90//22 92//22 91//22
f 92//25 96//25 95//25
f 96//26 94//26 93//26
f 94//23 90//23 89//23
f 95//21 93//21 89//21
f 92//24 90//24 94//24
f 126//39 128//39 127//39
f 128//40 130//40 129//40
f 130//26 132//26 131//26
f 132//41 134//41 133//41
f 134//42 136//42 135//42
f 136//43 138//43 137//43
f 138//44 140//44 139//44
f 140//22 142//22 141//22
f 130//24 128//24 126//24
f 126//24 144//24 142//24
f 142//24 140//24 138//24
f 138//24 136//24 134//24
f 134//24 132//24 130//24
f 130//24 126//24 142//24
f 142//24 138//24 134//24
f 142//45 144//45 143//45
f 144//46 126//46 125//46
f 143//21 125//21 127//21
f 127//21 129//21 131//21
f 131//21 133//21 135//21
f 135//21 137//21 139//21
f 139//21 141//21 143//21
f 143//21 127//21 131//21
f 131//21 135//21 139//21
f 146//22 148//22 147//22
f 148//25 152//25 151//25
f 152//26 150//26 149//26
f 150//23 146//23 145//23
f 151//21 149//21 145//21
f 148//24 146//24 150//24
f 154//22 156//22 155//22
f 156//25 160//25 159//25
f 160//26 158//26 157//26
f 158//23 154//23 153//23
f 159//21 157//21 153//21
f 156//24 154//24 158//24
f 162//22 164//22 163//22
f 164//25 168//25 167//25
f 168//26 166//26 165//26
f 166//23 162//23 161//23
f 167//21 165//21 161//21
f 164//24 162//24 166//24
f 170//22 172//22 171//22
f 172//25 176//25 175//25
f 176//26 174//26 173//26
f 174//23 170//23 169//23
f 175//21 173//21 169//21
f 172//24 170//24 174//24
f 178//22 180//22 179//22
f 180//25 184//25 183//25
f 184//26 182//26 181//26
f 182//23 178//23 177//23
f 183//21 181//21 177//21
f 180//24 178//24 182//24
f 186//22 188//22 187//22
f 188//25 192//25 191//25
f 192//26 190//26 189//26
f 190//23 186//23 185//23
f 191//21 189//21 185//21
f 188//24 186//24 190//24
usemtl galvanised
f 97//35 100//35 99//35
f 99//36 102//36 101//36
f 98//24 102//24 100//24
f 101//37 104//37 103//37
f 104//38 97//38 103//38
f 99//21 103//21 97//21
f 194//47 195//47 193//47
f 196//21 197//21 195//21
f 198//48 199//48 197//48
f 200//49 201//49 199//49
f 194//26 202//26 198//26
f 202//24 203//24 201//24
f 204//50 193//50 203//50
f 195//22 199//22 203//22
f 97//35 98//35 100//35
f 99//36 100//36 102//36
f 98//24 104//24 102//24
f 101//37 102//37 104//37
f 104//38 98//38 97//38
f 99//21 101//21 103//21
f 194//47 196//47 195//47
f 196//21 198//21 197//21
f 198//48 200//48 199//48
f 200//49 202//49 201//49
f 198//26 196//26 194//26
f 194//26 204//26 202//26
f 202//26 200//26 198//26
f 202//24 204//24 203//24
f 204//50 194//50 193//50
f 203//22 193//22 195//22
f 195//22 197//22 199//22
f 199//22 201//22 203//22
