# Blender 5.2.0 LTS
# www.blender.org
mtllib storage_tank.mtl
o body
v -1.450000 0.000000 1.450000
v -1.450000 0.120000 1.450000
v -1.450000 0.000000 -1.450000
v -1.450000 0.120000 -1.450000
v 1.450000 0.000000 1.450000
v 1.450000 0.120000 1.450000
v 1.450000 0.000000 -1.450000
v 1.450000 0.120000 -1.450000
v 0.000000 0.120000 -1.300000
v 0.000000 2.300000 -1.300000
v 0.650000 0.120000 -1.125833
v 0.650000 2.300000 -1.125833
v 1.125833 0.120000 -0.650000
v 1.125833 2.300000 -0.650000
v 1.300000 0.120000 0.000000
v 1.300000 2.300000 0.000000
v 1.125833 0.120000 0.650000
v 1.125833 2.300000 0.650000
v 0.650000 0.120000 1.125833
v 0.650000 2.300000 1.125833
v 0.000000 0.120000 1.300000
v 0.000000 2.300000 1.300000
v -0.650000 0.120000 1.125833
v -0.650000 2.300000 1.125833
v -1.125833 0.120000 0.650000
v -1.125833 2.300000 0.650000
v -1.300000 0.120000 0.000000
v -1.300000 2.300000 0.000000
v -1.125833 0.120000 -0.650000
v -1.125833 2.300000 -0.650000
v -0.650000 0.120000 -1.125833
v -0.650000 2.300000 -1.125833
v 0.000000 2.300000 -1.300000
v 0.000000 2.750000 -0.400000
v 0.650000 2.300000 -1.125833
v 0.200000 2.750000 -0.346410
v 1.125833 2.300000 -0.650000
v 0.346410 2.750000 -0.200000
v 1.300000 2.300000 0.000000
v 0.400000 2.750000 0.000000
v 1.125833 2.300000 0.650000
v 0.346410 2.750000 0.200000
v 0.650000 2.300000 1.125833
v 0.200000 2.750000 0.346410
v 0.000000 2.300000 1.300000
v 0.000000 2.750000 0.400000
v -0.650000 2.300000 1.125833
v -0.200000 2.750000 0.346410
v -1.125833 2.300000 0.650000
v -0.346410 2.750000 0.200000
v -1.300000 2.300000 0.000000
v -0.400000 2.750000 0.000000
v -1.125833 2.300000 -0.650000
v -0.346410 2.750000 -0.200000
v -0.650000 2.300000 -1.125833
v -0.200000 2.750000 -0.346410
v 0.000000 0.700000 -1.330000
v 0.000000 0.800000 -1.330000
v 0.665000 0.700000 -1.151814
v 0.665000 0.800000 -1.151814
v 1.151814 0.700000 -0.665000
v 1.151814 0.800000 -0.665000
v 1.330000 0.700000 0.000000
v 1.330000 0.800000 0.000000
v 1.151814 0.700000 0.665000
v 1.151814 0.800000 0.665000
v 0.665000 0.700000 1.151814
v 0.665000 0.800000 1.151814
v 0.000000 0.700000 1.330000
v 0.000000 0.800000 1.330000
v -0.665000 0.700000 1.151814
v -0.665000 0.800000 1.151814
v -1.151814 0.700000 0.665000
v -1.151814 0.800000 0.665000
v -1.330000 0.700000 0.000000
v -1.330000 0.800000 0.000000
v -1.151814 0.700000 -0.665000
v -1.151814 0.800000 -0.665000
v -0.665000 0.700000 -1.151814
v -0.665000 0.800000 -1.151814
v 0.150000 2.700000 -0.150000
v 0.150000 2.850000 -0.150000
v 0.326777 2.700000 -0.076777
v 0.326777 2.850000 -0.076777
v 0.400000 2.700000 0.100000
v 0.400000 2.850000 0.100000
v 0.326777 2.700000 0.276777
v 0.326777 2.850000 0.276777
v 0.150000 2.700000 0.350000
v 0.150000 2.850000 0.350000
v -0.026777 2.700000 0.276777
v -0.026777 2.850000 0.276777
v -0.100000 2.700000 0.100000
v -0.100000 2.850000 0.100000
v -0.026777 2.700000 -0.076777
v -0.026777 2.850000 -0.076777
v 1.320000 0.120000 -0.180000
v 1.320000 2.400000 -0.180000
v 1.320000 0.120000 -0.220000
v 1.320000 2.400000 -0.220000
v 1.380000 0.120000 -0.180000
v 1.380000 2.400000 -0.180000
v 1.380000 0.120000 -0.220000
v 1.380000 2.400000 -0.220000
v 1.320000 0.120000 0.220000
v 1.320000 2.400000 0.220000
v 1.320000 0.120000 0.180000
v 1.320000 2.400000 0.180000
v 1.380000 0.120000 0.220000
v 1.380000 2.400000 0.220000
v 1.380000 0.120000 0.180000
v 1.380000 2.400000 0.180000
v -0.300000 0.310000 -1.250000
v -0.300000 0.310000 -1.500000
v -0.201005 0.351005 -1.250000
v -0.201005 0.351005 -1.500000
v -0.160000 0.450000 -1.250000
v -0.160000 0.450000 -1.500000
v -0.201005 0.548995 -1.250000
v -0.201005 0.548995 -1.500000
v -0.300000 0.590000 -1.250000
v -0.300000 0.590000 -1.500000
v -0.398995 0.548995 -1.250000
v -0.398995 0.548995 -1.500000
v -0.440000 0.450000 -1.250000
v -0.440000 0.450000 -1.500000
v -0.398995 0.351005 -1.250000
v -0.398995 0.351005 -1.500000
v -1.500000 0.450000 -0.140000
v -1.250000 0.450000 -0.140000
v -1.500000 0.351005 -0.098995
v -1.250000 0.351005 -0.098995
v -1.500000 0.310000 0.000000
v -1.250000 0.310000 0.000000
v -1.500000 0.351005 0.098995
v -1.250000 0.351005 0.098995
v -1.500000 0.450000 0.140000
v -1.250000 0.450000 0.140000
v -1.500000 0.548995 0.098995
v -1.250000 0.548995 0.098995
v -1.500000 0.590000 0.000000
v -1.250000 0.590000 0.000000
v -1.500000 0.548995 -0.098995
v -1.250000 0.548995 -0.098995
v 1.320000 0.477565 0.200000
v 1.320000 0.517565 0.200000
v 1.320000 0.477565 -0.200000
v 1.320000 0.517565 -0.200000
v 1.380000 0.477565 0.200000
v 1.380000 0.517565 0.200000
v 1.380000 0.477565 -0.200000
v 1.380000 0.517565 -0.200000
v 1.320000 1.064092 0.200000
v 1.320000 1.104092 0.200000
v 1.320000 1.064092 -0.200000
v 1.320000 1.104092 -0.200000
v 1.380000 1.064092 0.200000
v 1.380000 1.104092 0.200000
v 1.380000 1.064092 -0.200000
v 1.380000 1.104092 -0.200000
v 1.320000 1.539902 0.200000
v 1.320000 1.579902 0.200000
v 1.320000 1.539902 -0.200000
v 1.320000 1.579902 -0.200000
v 1.380000 1.539902 0.200000
v 1.380000 1.579902 0.200000
v 1.380000 1.539902 -0.200000
v 1.380000 1.579902 -0.200000
v 1.320000 2.027915 0.200000
v 1.320000 2.067915 0.200000
v 1.320000 2.027915 -0.200000
v 1.320000 2.067915 -0.200000
v 1.380000 2.027915 0.200000
v 1.380000 2.067915 0.200000
v 1.380000 2.027915 -0.200000
v 1.380000 2.067915 -0.200000
vn -1.0000 -0.0000 -0.0000
vn -0.0000 -0.0000 -1.0000
vn 1.0000 -0.0000 -0.0000
vn -0.0000 -0.0000 1.0000
vn -0.0000 -1.0000 -0.0000
vn -0.0000 1.0000 -0.0000
vn 0.2588 -0.0000 -0.9659
vn 0.7071 -0.0000 -0.7071
vn 0.9659 -0.0000 -0.2588
vn 0.9659 -0.0000 0.2588
vn 0.7071 -0.0000 0.7071
vn 0.2588 -0.0000 0.9659
vn -0.2588 -0.0000 0.9659
vn -0.7071 -0.0000 0.7071
vn -0.9659 -0.0000 0.2588
vn -0.9659 -0.0000 -0.2588
vn -0.7071 -0.0000 -0.7071
vn -0.2588 -0.0000 -0.9659
vn 0.1190 0.8881 -0.4440
vn 0.3251 0.8881 -0.3251
vn 0.4440 0.8881 -0.1190
vn 0.4440 0.8881 0.1190
vn 0.3251 0.8881 0.3251
vn 0.1190 0.8881 0.4440
vn -0.1190 0.8881 0.4440
vn -0.3251 0.8881 0.3251
vn -0.4440 0.8881 0.1190
vn -0.4440 0.8881 -0.1190
vn -0.3251 0.8881 -0.3251
vn -0.1190 0.8881 -0.4440
vn 0.3827 -0.0000 -0.9239
vn 0.9239 -0.0000 -0.3827
vn 0.9239 -0.0000 0.3827
vn 0.3827 -0.0000 0.9239
vn -0.3827 -0.0000 0.9239
vn -0.9239 -0.0000 0.3827
vn -0.9239 -0.0000 -0.3827
vn -0.3827 -0.0000 -0.9239
vn 0.3827 -0.9239 -0.0000
vn 0.9239 -0.3827 -0.0000
vn 0.9239 0.3827 -0.0000
vn 0.3827 0.9239 -0.0000
vn -0.3827 0.9239 -0.0000
vn -0.9239 0.3827 -0.0000
vn -0.9239 -0.3827 -0.0000
vn -0.3827 -0.9239 -0.0000
vn -0.0000 -0.3827 -0.9239
vn -0.0000 -0.9239 -0.3827
vn -0.0000 -0.9239 0.3827
vn -0.0000 -0.3827 0.9239
vn -0.0000 0.3827 0.9239
vn -0.0000 0.9239 0.3827
vn -0.0000 0.9239 -0.3827
vn -0.0000 0.3827 -0.9239
s 0
usemtl steel_dark
f 2//1 3//1 1//1
f 4//2 7//2 3//2
f 8//3 5//3 7//3
f 6//4 1//4 5//4
f 7//5 1//5 3//5
f 4//6 6//6 8//6
f 58//7 59//7 57//7
f 60//8 61//8 59//8
f 62//9 63//9 61//9
f 64//10 65//10 63//10
f 66//11 67//11 65//11
f 68//12 69//12 67//12
f 70//13 71//13 69//13
f 72//14 73//14 71//14
f 74//15 75//15 73//15
f 76//16 77//16 75//16
f 78//6 70//6 62//6
f 78//17 79//17 77//17
f 80//18 57//18 79//18
f 63//5 71//5 79//5
f 82//31 83//31 81//31
f 84//32 85//32 83//32
f 86//33 87//33 85//33
f 88//34 89//34 87//34
f 90//35 91//35 89//35
f 92//36 93//36 91//36
f 94//6 90//6 86//6
f 94//37 95//37 93//37
f 96//38 81//38 95//38
f 87//5 91//5 95//5
f 2//1 4//1 3//1
f 4//2 8//2 7//2
f 8//3 6//3 5//3
f 6//4 2//4 1//4
f 7//5 5//5 1//5
f 4//6 2//6 6//6
f 58//7 60//7 59//7
f 60//8 62//8 61//8
f 62//9 64//9 63//9
f 64//10 66//10 65//10
f 66//11 68//11 67//11
f 68//12 70//12 69//12
f 70//13 72//13 71//13
f 72//14 74//14 73//14
f 74//15 76//15 75//15
f 76//16 78//16 77//16
f 62//6 60//6 58//6
f 58//6 80//6 78//6
f 78//6 76//6 74//6
f 74//6 72//6 70//6
f 70//6 68//6 66//6
f 66//6 64//6 62//6
f 62//6 58//6 78//6
f 78//6 74//6 70//6
f 70//6 66//6 62//6
f 78//17 80//17 79//17
f 80//18 58//18 57//18
f 79//5 57//5 59//5
f 59//5 61//5 63//5
f 63//5 65//5 67//5
f 67//5 69//5 71//5
f 71//5 73//5 75//5
f 75//5 77//5 79//5
f 79//5 59//5 63//5
f 63//5 67//5 71//5
f 71//5 75//5 79//5
f 82//31 84//31 83//31
f 84//32 86//32 85//32
f 86//33 88//33 87//33
f 88//34 90//34 89//34
f 90//35 92//35 91//35
f 92//36 94//36 93//36
f 86//6 84//6 82//6
f 82//6 96//6 94//6
f 94//6 92//6 90//6
f 90//6 88//6 86//6
f 86//6 82//6 94//6
f 94//37 96//37 95//37
f 96//38 82//38 81//38
f 95//5 81//5 83//5
f 83//5 85//5 87//5
f 87//5 89//5 91//5
f 91//5 93//5 95//5
f 95//5 83//5 87//5
usemtl fluids_teal
f 10//7 11//7 9//7
f 12//8 13//8 11//8
f 14//9 15//9 13//9
f 16//10 17//10 15//10
f 18//11 19//11 17//11
f 20//12 21//12 19//12
f 22//13 23//13 21//13
f 24//14 25//14 23//14
f 26//15 27//15 25//15
f 28//16 29//16 27//16
f 30//6 22//6 14//6
f 30//17 31//17 29//17
f 32//18 9//18 31//18
f 15//5 23//5 31//5
f 10//7 12//7 11//7
f 12//8 14//8 13//8
f 14//9 16//9 15//9
f 16//10 18//10 17//10
f 18//11 20//11 19//11
f 20//12 22//12 21//12
f 22//13 24//13 23//13
f 24//14 26//14 25//14
f 26//15 28//15 27//15
f 28//16 30//16 29//16
f 14//6 12//6 10//6
f 10//6 32//6 30//6
f 30//6 28//6 26//6
f 26//6 24//6 22//6
f 22//6 20//6 18//6
f 18//6 16//6 14//6
f 14//6 10//6 30//6
f 30//6 26//6 22//6
f 22//6 18//6 14//6
f 30//17 32//17 31//17
f 32//18 10//18 9//18
f 31//5 9//5 11//5
f 11//5 13//5 15//5
f 15//5 17//5 19//5
f 19//5 21//5 23//5
f 23//5 25//5 27//5
f 27//5 29//5 31//5
f 31//5 11//5 15//5
f 15//5 19//5 23//5
f 23//5 27//5 31//5
usemtl steel
f 34//19 35//19 33//19
f 36//20 37//20 35//20
f 38//21 39//21 37//21
f 40//22 41//22 39//22
f 42//23 43//23 41//23
f 44//24 45//24 43//24
f 46//25 47//25 45//25
f 48//26 49//26 47//26
f 50//27 51//27 49//27
f 52//28 53//28 51//28
f 54//6 46//6 38//6
f 54//29 55//29 53//29
f 56//30 33//30 55//30
f 39//5 47//5 55//5
f 113//39 116//39 115//39
f 116//40 117//40 115//40
f 118//41 119//41 117//41
f 120//42 121//42 119//42
f 122//43 123//43 121//43
f 124//44 125//44 123//44
f 126//2 122//2 118//2
f 126//45 127//45 125//45
f 128//46 113//46 127//46
f 119//4 123//4 127//4
f 130//47 131//47 129//47
f 132//48 133//48 131//48
f 134//49 135//49 133//49
f 136//50 137//50 135//50
f 138//51 139//51 137//51
f 140//52 141//52 139//52
f 142//3 138//3 134//3
f 141//53 144//53 143//53
f 144//54 129//54 143//54
f 135//1 139//1 143//1
f 34//19 36//19 35//19
f 36//20 38//20 37//20
f 38//21 40//21 39//21
f 40//22 42//22 41//22
f 42//23 44//23 43//23
f 44//24 46//24 45//24
f 46//25 48//25 47//25
f 48//26 50//26 49//26
f 50//27 52//27 51//27
f 52//28 54//28 53//28
f 38//6 36//6 34//6
f 34//6 56//6 54//6
f 54//6 52//6 50//6
f 50//6 48//6 46//6
f 46//6 44//6 42//6
f 42//6 40//6 38//6
f 38//6 34//6 54//6
f 54//6 50//6 46//6
f 46//6 42//6 38//6
f 54//29 56//29 55//29
f 56//30 34//30 33//30
f 55//5 33//5 35//5
f 35//5 37//5 39//5
f 39//5 41//5 43//5
f 43//5 45//5 47//5
f 47//5 49//5 51//5
f 51//5 53//5 55//5
f 55//5 35//5 39//5
f 39//5 43//5 47//5
f 47//5 51//5 55//5
f 113//39 114//39 116//39
f 116//40 118//40 117//40
f 118//41 120//41 119//41
f 120//42 122//42 121//42
f 122//43 124//43 123//43
f 124//44 126//44 125//44
f 118//2 116//2 114//2
f 114//2 128//2 126//2
f 126//2 124//2 122//2
f 122//2 120//2 118//2
f 118//2 114//2 126//2
f 126//45 128//45 127//45
f 128//46 114//46 113//46
f 127//4 113//4 115//4
f 115//4 117//4 119//4
f 119//4 121//4 123//4
f 123//4 125//4 127//4
f 127//4 115//4 119//4
f 130//47 132//47 131//47
f 132//48 134//48 133//48
f 134//49 136//49 135//49
f 136//50 138//50 137//50
f 138//51 140//51 139//51
f 140//52 142//52 141//52
f 134//3 132//3 130//3
f 130//3 144//3 142//3
f 142//3 140//3 138//3
f 138//3 136//3 134//3
f 134//3 130//3 142//3
f 141//53 142//53 144//53
f 144//54 130//54 129//54
f 143//1 129//1 131//1
f 131//1 133//1 135//1
f 135//1 137//1 139//1
f 139//1 141//1 143//1
f 143//1 131//1 135//1
usemtl galvanised
f 98//1 99//1 97//1
f 100//2 103//2 99//2
f 104//3 101//3 103//3
f 102//4 97//4 101//4
f 103//5 97//5 99//5
f 100//6 102//6 104//6
f 106//1 107//1 105//1
f 108//2 111//2 107//2
f 112//3 109//3 111//3
f 110//4 105//4 109//4
f 111//5 105//5 107//5
f 108//6 110//6 112//6
f 146//1 147//1 145//1
f 148//2 151//2 147//2
f 152//3 149//3 151//3
f 150//4 145//4 149//4
f 151//5 145//5 147//5
f 148//6 150//6 152//6
f 154//1 155//1 153//1
f 156//2 159//2 155//2
f 160//3 157//3 159//3
f 158//4 153//4 157//4
f 159//5 153//5 155//5
f 156//6 158//6 160//6
f 162//1 163//1 161//1
f 164//2 167//2 163//2
f 168//3 165//3 167//3
f 166//4 161//4 165//4
f 167//5 161//5 163//5
f 164//6 166//6 168//6
f 170//1 171//1 169//1
f 172//2 175//2 171//2
f 176//3 173//3 175//3
f 174//4 169//4 173//4
f 175//5 169//5 171//5
f 172//6 174//6 176//6
f 98//1 100//1 99//1
f 100//2 104//2 103//2
f 104//3 102//3 101//3
f 102//4 98//4 97//4
f 103//5 101//5 97//5
f 100//6 98//6 102//6
f 106//1 108//1 107//1
f 108//2 112//2 111//2
f 112//3 110//3 109//3
f 110//4 106//4 105//4
f 111//5 109//5 105//5
f 108//6 106//6 110//6
f 146//1 148//1 147//1
f 148//2 152//2 151//2
f 152//3 150//3 149//3
f 150//4 146//4 145//4
f 151//5 149//5 145//5
f 148//6 146//6 150//6
f 154//1 156//1 155//1
f 156//2 160//2 159//2
f 160//3 158//3 157//3
f 158//4 154//4 153//4
f 159//5 157//5 153//5
f 156//6 154//6 158//6
f 162//1 164//1 163//1
f 164//2 168//2 167//2
f 168//3 166//3 165//3
f 166//4 162//4 161//4
f 167//5 165//5 161//5
f 164//6 162//6 166//6
f 170//1 172//1 171//1
f 172//2 176//2 175//2
f 176//3 174//3 173//3
f 174//4 170//4 169//4
f 175//5 173//5 169//5
f 172//6 170//6 174//6
