# Blender 5.2.0 LTS
# www.blender.org
mtllib wooden_chest.mtl
o body
v -0.420000 0.000000 -0.280000
v -0.420000 0.060000 -0.280000
v -0.420000 0.000000 -0.400000
v -0.420000 0.060000 -0.400000
v 0.420000 0.000000 -0.280000
v 0.420000 0.060000 -0.280000
v 0.420000 0.000000 -0.400000
v 0.420000 0.060000 -0.400000
v -0.420000 0.000000 0.400000
v -0.420000 0.060000 0.400000
v -0.420000 0.000000 0.280000
v -0.420000 0.060000 0.280000
v 0.420000 0.000000 0.400000
v 0.420000 0.060000 0.400000
v 0.420000 0.000000 0.280000
v 0.420000 0.060000 0.280000
v -0.380000 0.060000 0.380000
v -0.380000 0.080000 0.400000
v -0.400000 0.080000 0.380000
v -0.380000 0.600000 0.400000
v -0.380000 0.620000 0.380000
v -0.400000 0.600000 0.380000
v -0.380000 0.060000 -0.380000
v -0.400000 0.080000 -0.380000
v -0.380000 0.080000 -0.400000
v -0.380000 0.620000 -0.380000
v -0.380000 0.600000 -0.400000
v -0.400000 0.600000 -0.380000
v 0.380000 0.060000 0.380000
v 0.400000 0.080000 0.380000
v 0.380000 0.080000 0.400000
v 0.380000 0.620000 0.380000
v 0.380000 0.600000 0.400000
v 0.400000 0.600000 0.380000
v 0.380000 0.060000 -0.380000
v 0.380000 0.080000 -0.400000
v 0.400000 0.080000 -0.380000
v 0.380000 0.620000 -0.380000
v 0.400000 0.600000 -0.380000
v 0.380000 0.600000 -0.400000
v -0.410000 0.620000 0.410000
v -0.410000 0.640000 0.430000
v -0.430000 0.640000 0.410000
v -0.410000 0.700000 0.430000
v -0.410000 0.720000 0.410000
v -0.430000 0.700000 0.410000
v -0.410000 0.620000 -0.410000
v -0.430000 0.640000 -0.410000
v -0.410000 0.640000 -0.430000
v -0.410000 0.720000 -0.410000
v -0.410000 0.700000 -0.430000
v -0.430000 0.700000 -0.410000
v 0.410000 0.620000 0.410000
v 0.430000 0.640000 0.410000
v 0.410000 0.640000 0.430000
v 0.410000 0.720000 0.410000
v 0.410000 0.700000 0.430000
v 0.430000 0.700000 0.410000
v 0.410000 0.620000 -0.410000
v 0.410000 0.640000 -0.430000
v 0.430000 0.640000 -0.410000
v 0.410000 0.720000 -0.410000
v 0.430000 0.700000 -0.410000
v 0.410000 0.700000 -0.430000
v -0.410000 0.050000 -0.150000
v -0.410000 0.630000 -0.150000
v -0.410000 0.050000 -0.200000
v -0.410000 0.630000 -0.200000
v 0.410000 0.050000 -0.150000
v 0.410000 0.630000 -0.150000
v 0.410000 0.050000 -0.200000
v 0.410000 0.630000 -0.200000
v -0.410000 0.050000 0.250000
v -0.410000 0.630000 0.250000
v -0.410000 0.050000 0.200000
v -0.410000 0.630000 0.200000
v 0.410000 0.050000 0.250000
v 0.410000 0.630000 0.250000
v 0.410000 0.050000 0.200000
v 0.410000 0.630000 0.200000
v 0.400000 0.480000 0.060000
v 0.400000 0.660000 0.060000
v 0.400000 0.480000 -0.060000
v 0.400000 0.660000 -0.060000
v 0.450000 0.480000 0.060000
v 0.450000 0.660000 0.060000
v 0.450000 0.480000 -0.060000
v 0.450000 0.660000 -0.060000
vn -1.0000 -0.0000 -0.0000
vn -0.0000 -0.0000 -1.0000
vn 1.0000 -0.0000 -0.0000
vn -0.0000 -0.0000 1.0000
vn -0.0000 -1.0000 -0.0000
vn -0.0000 1.0000 -0.0000
vn -0.5774 -0.5774 0.5773
vn -0.5774 0.5774 0.5773
vn -0.5774 -0.5774 -0.5773
vn -0.5774 0.5774 -0.5773
vn 0.5774 -0.5774 0.5773
vn 0.5774 0.5774 0.5773
vn 0.5774 -0.5774 -0.5773
vn 0.5774 0.5774 -0.5773
vn -0.7071 -0.7071 -0.0000
vn -0.7071 -0.0000 0.7071
vn -0.7071 0.7071 -0.0000
vn -0.7071 -0.0000 -0.7071
vn -0.0000 -0.7071 -0.7071
vn -0.0000 0.7071 -0.7071
vn 0.7071 -0.0000 -0.7071
vn 0.7071 -0.7071 -0.0000
vn 0.7071 0.7071 -0.0000
vn 0.7071 -0.0000 0.7071
vn -0.0000 -0.7071 0.7071
vn -0.0000 0.7071 0.7071
vn -0.5773 -0.5774 0.5774
vn -0.5773 0.5774 0.5774
vn -0.5773 -0.5774 -0.5774
vn -0.5773 0.5774 -0.5774
vn 0.5773 -0.5774 0.5774
vn 0.5773 0.5774 0.5774
vn 0.5773 -0.5774 -0.5774
vn 0.5773 0.5774 -0.5774
s 0
usemtl timber_dark
f 2//1 3//1 1//1
f 4//2 7//2 3//2
f 8//3 5//3 7//3
f 6//4 1//4 5//4
f 7//5 1//5 3//5
f 4//6 6//6 8//6
f 10//1 11//1 9//1
f 12//2 15//2 11//2
f 16//3 13//3 15//3
f 14//4 9//4 13//4
f 15//5 9//5 11//5
f 12//6 14//6 16//6
f 41//27 42//27 43//27
f 44//28 45//28 46//28
f 47//29 48//29 49//29
f 50//30 51//30 52//30
f 53//31 54//31 55//31
f 56//32 57//32 58//32
f 59//33 60//33 61//33
f 62//34 63//34 64//34
f 41//15 48//15 47//15
f 44//16 43//16 42//16
f 50//17 46//17 45//17
f 49//18 52//18 51//18
f 47//19 60//19 59//19
f 62//20 51//20 50//20
f 61//21 64//21 63//21
f 59//22 54//22 53//22
f 56//23 63//23 62//23
f 55//24 58//24 57//24
f 53//25 42//25 41//25
f 45//26 57//26 56//26
f 59//5 41//5 47//5
f 46//1 48//1 43//1
f 57//4 42//4 55//4
f 50//6 56//6 62//6
f 51//2 60//2 49//2
f 63//3 54//3 61//3
f 2//1 4//1 3//1
f 4//2 8//2 7//2
f 8//3 6//3 5//3
f 6//4 2//4 1//4
f 7//5 5//5 1//5
f 4//6 2//6 6//6
f 10//1 12//1 11//1
f 12//2 16//2 15//2
f 16//3 14//3 13//3
f 14//4 10//4 9//4
f 15//5 13//5 9//5
f 12//6 10//6 14//6
f 41//15 43//15 48//15
f 44//16 46//16 43//16
f 50//17 52//17 46//17
f 49//18 48//18 52//18
f 47//19 49//19 60//19
f 62//20 64//20 51//20
f 61//21 60//21 64//21
f 59//22 61//22 54//22
f 56//23 58//23 63//23
f 55//24 54//24 58//24
f 53//25 55//25 42//25
f 45//26 44//26 57//26
f 59//5 53//5 41//5
f 46//1 52//1 48//1
f 57//4 44//4 42//4
f 50//6 45//6 56//6
f 51//2 64//2 60//2
f 63//3 58//3 54//3
usemtl timber
f 17//7 18//7 19//7
f 20//8 21//8 22//8
f 23//9 24//9 25//9
f 26//10 27//10 28//10
f 29//11 30//11 31//11
f 32//12 33//12 34//12
f 35//13 36//13 37//13
f 38//14 39//14 40//14
f 17//15 24//15 23//15
f 20//16 19//16 18//16
f 26//17 22//17 21//17
f 25//18 28//18 27//18
f 23//19 36//19 35//19
f 38//20 27//20 26//20
f 37//21 40//21 39//21
f 35//22 30//22 29//22
f 32//23 39//23 38//23
f 31//24 34//24 33//24
f 29//25 18//25 17//25
f 21//26 33//26 32//26
f 35//5 17//5 23//5
f 22//1 24//1 19//1
f 33//4 18//4 31//4
f 26//6 32//6 38//6
f 27//2 36//2 25//2
f 39//3 30//3 37//3
f 17//15 19//15 24//15
f 20//16 22//16 19//16
f 26//17 28//17 22//17
f 25//18 24//18 28//18
f 23//19 25//19 36//19
f 38//20 40//20 27//20
f 37//21 36//21 40//21
f 35//22 37//22 30//22
f 32//23 34//23 39//23
f 31//24 30//24 34//24
f 29//25 31//25 18//25
f 21//26 20//26 33//26
f 35//5 29//5 17//5
f 22//1 28//1 24//1
f 33//4 20//4 18//4
f 26//6 21//6 32//6
f 27//2 40//2 36//2
f 39//3 34//3 30//3
usemtl steel_dark
f 66//1 67//1 65//1
f 68//2 71//2 67//2
f 72//3 69//3 71//3
f 70//4 65//4 69//4
f 71//5 65//5 67//5
f 68//6 70//6 72//6
f 74//1 75//1 73//1
f 76//2 79//2 75//2
f 80//3 77//3 79//3
f 78//4 73//4 77//4
f 79//5 73//5 75//5
f 76//6 78//6 80//6
f 66//1 68//1 67//1
f 68//2 72//2 71//2
f 72//3 70//3 69//3
f 70//4 66//4 65//4
f 71//5 69//5 65//5
f 68//6 66//6 70//6
f 74//1 76//1 75//1
f 76//2 80//2 79//2
f 80//3 78//3 77//3
f 78//4 74//4 73//4
f 79//5 77//5 73//5
f 76//6 74//6 78//6
usemtl galvanised
f 82//1 83//1 81//1
f 84//2 87//2 83//2
f 88//3 85//3 87//3
f 86//4 81//4 85//4
f 87//5 81//5 83//5
f 84//6 86//6 88//6
f 82//1 84//1 83//1
f 84//2 88//2 87//2
f 88//3 86//3 85//3
f 86//4 82//4 81//4
f 87//5 85//5 81//5
f 84//6 82//6 86//6
