# Blender 5.2.0 LTS
# www.blender.org
mtllib wood_gasifier.mtl
o body
v -0.950000 0.000000 0.950000
v -0.950000 0.100000 0.950000
v -0.950000 0.000000 -0.950000
v -0.950000 0.100000 -0.950000
v 0.950000 0.000000 0.950000
v 0.950000 0.100000 0.950000
v 0.950000 0.000000 -0.950000
v 0.950000 0.100000 -0.950000
v 0.000000 0.100000 -0.720000
v 0.000000 2.200000 -0.720000
v 0.423205 0.100000 -0.582492
v 0.423205 2.200000 -0.582492
v 0.684761 0.100000 -0.222492
v 0.684761 2.200000 -0.222492
v 0.684761 0.100000 0.222492
v 0.684761 2.200000 0.222492
v 0.423205 0.100000 0.582492
v 0.423205 2.200000 0.582492
v 0.000000 0.100000 0.720000
v 0.000000 2.200000 0.720000
v -0.423205 0.100000 0.582492
v -0.423205 2.200000 0.582492
v -0.684761 0.100000 0.222492
v -0.684761 2.200000 0.222492
v -0.684761 0.100000 -0.222492
v -0.684761 2.200000 -0.222492
v -0.423205 0.100000 -0.582492
v -0.423205 2.200000 -0.582492
v 0.000000 0.620000 -0.750000
v 0.000000 0.700000 -0.750000
v 0.440839 0.620000 -0.606763
v 0.440839 0.700000 -0.606763
v 0.713292 0.620000 -0.231763
v 0.713292 0.700000 -0.231763
v 0.713292 0.620000 0.231763
v 0.713292 0.700000 0.231763
v 0.440839 0.620000 0.606763
v 0.440839 0.700000 0.606763
v 0.000000 0.620000 0.750000
v 0.000000 0.700000 0.750000
v -0.440839 0.620000 0.606763
v -0.440839 0.700000 0.606763
v -0.713292 0.620000 0.231763
v -0.713292 0.700000 0.231763
v -0.713292 0.620000 -0.231763
v -0.713292 0.700000 -0.231763
v -0.440839 0.620000 -0.606763
v -0.440839 0.700000 -0.606763
v 0.000000 1.700000 -0.750000
v 0.000000 1.800000 -0.750000
v 0.440839 1.700000 -0.606763
v 0.440839 1.800000 -0.606763
v 0.713292 1.700000 -0.231763
v 0.713292 1.800000 -0.231763
v 0.713292 1.700000 0.231763
v 0.713292 1.800000 0.231763
v 0.440839 1.700000 0.606763
v 0.440839 1.800000 0.606763
v 0.000000 1.700000 0.750000
v 0.000000 1.800000 0.750000
v -0.440839 1.700000 0.606763
v -0.440839 1.800000 0.606763
v -0.713292 1.700000 0.231763
v -0.713292 1.800000 0.231763
v -0.713292 1.700000 -0.231763
v -0.713292 1.800000 -0.231763
v -0.440839 1.700000 -0.606763
v -0.440839 1.800000 -0.606763
v 0.550000 0.220000 0.280000
v 0.550000 0.660000 0.280000
v 0.550000 0.220000 -0.280000
v 0.550000 0.660000 -0.280000
v 0.820000 0.220000 0.280000
v 0.820000 0.660000 0.280000
v 0.820000 0.220000 -0.280000
v 0.820000 0.660000 -0.280000
v 0.820000 0.300000 0.200000
v 0.820000 0.400000 0.200000
v 0.820000 0.300000 -0.200000
v 0.820000 0.400000 -0.200000
v 0.840000 0.300000 0.200000
v 0.840000 0.400000 0.200000
v 0.840000 0.300000 -0.200000
v 0.840000 0.400000 -0.200000
v -0.212132 2.200000 -0.212132
v -0.388909 2.700000 -0.388909
v 0.212132 2.200000 -0.212132
v 0.388909 2.700000 -0.388909
v 0.212132 2.200000 0.212132
v 0.388909 2.700000 0.388909
v -0.212132 2.200000 0.212132
v -0.388909 2.700000 0.388909
v -0.429289 0.500000 0.870711
v -0.500000 0.500000 0.900000
v -0.570711 0.500000 0.870711
v -0.600000 0.500000 0.800000
v -0.570711 0.500000 0.729289
v -0.500000 0.500000 0.700000
v -0.429289 0.500000 0.729289
v -0.400000 0.500000 0.800000
v -0.429289 1.570711 0.450000
v -0.500000 1.600000 0.450000
v -0.570711 1.570711 0.450000
v -0.600000 1.500000 0.450000
v -0.570711 1.429289 0.450000
v -0.500000 1.400000 0.450000
v -0.429289 1.429289 0.450000
v -0.400000 1.500000 0.450000
v -0.429289 1.570711 0.450000
v -0.500000 1.600000 0.450000
v -0.570711 1.570711 0.450000
v -0.600000 1.500000 0.450000
v -0.570711 1.429289 0.450000
v -0.500000 1.400000 0.450000
v -0.429289 1.429289 0.450000
v -0.400000 1.500000 0.450000
v -0.429289 1.569352 0.613795
v -0.500000 1.598078 0.619509
v -0.570711 1.569352 0.613795
v -0.600000 1.500000 0.600000
v -0.570711 1.430648 0.586205
v -0.500000 1.401922 0.580491
v -0.429289 1.430648 0.586205
v -0.400000 1.500000 0.600000
v -0.429289 1.491421 0.791421
v -0.500000 1.512132 0.812132
v -0.570711 1.491421 0.791421
v -0.600000 1.441421 0.741421
v -0.570711 1.391421 0.691421
v -0.500000 1.370711 0.670711
v -0.429289 1.391421 0.691421
v -0.400000 1.441421 0.741421
v -0.429289 1.313795 0.869352
v -0.500000 1.319509 0.898079
v -0.570711 1.313795 0.869352
v -0.600000 1.300000 0.800000
v -0.570711 1.286205 0.730648
v -0.500000 1.280491 0.701921
v -0.429289 1.286205 0.730648
v -0.400000 1.300000 0.800000
v -0.429289 0.500000 0.870711
v -0.500000 0.500000 0.900000
v -0.570711 0.500000 0.870711
v -0.600000 0.500000 0.800000
v -0.570711 0.500000 0.729289
v -0.500000 0.500000 0.700000
v -0.429289 0.500000 0.729289
v -0.400000 0.500000 0.800000
v -0.500000 0.370000 1.000000
v -0.500000 0.370000 0.800000
v -0.408076 0.408076 1.000000
v -0.408076 0.408076 0.800000
v -0.370000 0.500000 1.000000
v -0.370000 0.500000 0.800000
v -0.408076 0.591924 1.000000
v -0.408076 0.591924 0.800000
v -0.500000 0.630000 1.000000
v -0.500000 0.630000 0.800000
v -0.591924 0.591924 1.000000
v -0.591924 0.591924 0.800000
v -0.630000 0.500000 1.000000
v -0.630000 0.500000 0.800000
v -0.591924 0.408076 1.000000
v -0.591924 0.408076 0.800000
v -0.240000 2.700000 0.240000
v -0.240000 2.710000 0.250000
v -0.250000 2.710000 0.240000
v -0.240000 2.720000 0.250000
v -0.240000 2.730000 0.240000
v -0.250000 2.720000 0.240000
v -0.240000 2.700000 -0.240000
v -0.250000 2.710000 -0.240000
v -0.240000 2.710000 -0.250000
v -0.240000 2.730000 -0.240000
v -0.240000 2.720000 -0.250000
v -0.250000 2.720000 -0.240000
v 0.240000 2.700000 0.240000
v 0.250000 2.710000 0.240000
v 0.240000 2.710000 0.250000
v 0.240000 2.730000 0.240000
v 0.240000 2.720000 0.250000
v 0.250000 2.720000 0.240000
v 0.240000 2.700000 -0.240000
v 0.240000 2.710000 -0.250000
v 0.250000 2.710000 -0.240000
v 0.240000 2.730000 -0.240000
v 0.250000 2.720000 -0.240000
v 0.240000 2.720000 -0.250000
v -0.125000 2.750000 -0.110000
v -0.125000 2.780000 -0.110000
v -0.125000 2.750000 -0.140000
v -0.125000 2.780000 -0.140000
v 0.125000 2.750000 -0.110000
v 0.125000 2.780000 -0.110000
v 0.125000 2.750000 -0.140000
v 0.125000 2.780000 -0.140000
vn -1.0000 -0.0000 -0.0000
vn -0.0000 -0.0000 -1.0000
vn 1.0000 -0.0000 -0.0000
vn -0.0000 -0.0000 1.0000
vn -0.0000 -1.0000 -0.0000
vn -0.0000 1.0000 -0.0000
vn 0.3090 -0.0000 -0.9511
vn 0.8090 -0.0000 -0.5878
vn 0.8090 -0.0000 0.5878
vn 0.3090 -0.0000 0.9511
vn -0.3090 -0.0000 0.9511
vn -0.8090 -0.0000 0.5878
vn -0.8090 -0.0000 -0.5878
vn -0.3090 -0.0000 -0.9511
vn -0.0000 -0.3333 -0.9428
vn 0.9428 -0.3333 -0.0000
vn -0.0000 -0.3333 0.9428
vn -0.9428 -0.3333 -0.0000
vn 0.9239 0.3827 -0.0000
vn 0.3827 0.9239 0.0077
vn -0.3827 0.9239 0.0077
vn -0.9239 0.3827 -0.0000
vn -0.9239 -0.3827 0.0038
vn -0.3826 -0.9238 0.0136
vn 0.3826 -0.9238 0.0136
vn 0.9239 -0.3827 0.0038
vn 0.9212 0.3594 0.1489
vn 0.3750 0.8489 0.3725
vn -0.3750 0.8489 0.3725
vn -0.9212 0.3594 0.1489
vn -0.9221 -0.3625 -0.1352
vn -0.3796 -0.8743 -0.3025
vn 0.3796 -0.8743 -0.3025
vn 0.9221 -0.3625 -0.1352
vn 0.9138 0.1632 0.3720
vn 0.3608 0.3800 0.8517
vn -0.3608 0.3800 0.8517
vn -0.9138 0.1632 0.3720
vn -0.9125 -0.1566 -0.3780
vn -0.3526 -0.3269 -0.8768
vn 0.3526 -0.3269 -0.8768
vn 0.9125 -0.1566 -0.3780
vn 0.9213 0.0006 0.3889
vn 0.3765 0.0022 0.9264
vn -0.3765 0.0022 0.9264
vn -0.9213 0.0006 0.3889
vn -0.9212 -0.0000 -0.3891
vn -0.3763 0.0016 -0.9265
vn 0.3763 0.0016 -0.9265
vn 0.9212 -0.0000 -0.3891
vn 0.3827 -0.9239 -0.0000
vn 0.9239 -0.3827 -0.0000
vn 0.3827 0.9239 -0.0000
vn -0.3827 0.9239 -0.0000
vn -0.9239 -0.3827 -0.0000
vn -0.3827 -0.9239 -0.0000
vn -0.5773 -0.5774 0.5774
vn -0.5773 0.5774 0.5774
vn -0.5773 -0.5774 -0.5774
vn -0.5773 0.5774 -0.5774
vn 0.5773 -0.5774 0.5774
vn 0.5773 0.5774 0.5774
vn 0.5773 -0.5774 -0.5774
vn 0.5773 0.5774 -0.5774
vn -0.7071 -0.7071 -0.0000
vn -0.7071 -0.0000 0.7071
vn -0.7071 0.7071 -0.0000
vn -0.7071 -0.0000 -0.7071
vn -0.0000 -0.7071 -0.7071
vn -0.0000 0.7071 -0.7071
vn 0.7071 -0.0000 -0.7071
vn 0.7071 -0.7071 -0.0000
vn 0.7071 0.7071 -0.0000
vn 0.7071 -0.0000 0.7071
vn -0.0000 -0.7071 0.7071
vn -0.0000 0.7071 0.7071
vn 0.9214 0.3885 0.0032
vn 0.3771 0.9261 0.0105
vn -0.3771 0.9261 0.0105
vn -0.9214 0.3885 0.0032
vn -0.9212 -0.3891 -0.0000
vn -0.3757 -0.9267 0.0092
vn 0.3757 -0.9267 0.0092
vn 0.9212 -0.3891 -0.0000
vn 0.9138 0.3720 0.1632
vn 0.3608 0.8517 0.3800
vn -0.3608 0.8517 0.3800
vn -0.9138 0.3720 0.1632
vn -0.9125 -0.3780 -0.1566
vn -0.3526 -0.8768 -0.3269
vn 0.3526 -0.8768 -0.3269
vn 0.9125 -0.3780 -0.1566
vn 0.9212 0.1489 0.3594
vn 0.3750 0.3725 0.8489
vn -0.3750 0.3725 0.8489
vn -0.9212 0.1489 0.3594
vn -0.9221 -0.1352 -0.3625
vn -0.3796 -0.3025 -0.8743
vn 0.3796 -0.3025 -0.8743
vn 0.9221 -0.1352 -0.3625
vn 0.9239 -0.0000 0.3827
vn 0.3827 0.0015 0.9239
vn -0.3827 0.0015 0.9239
vn -0.9239 -0.0000 0.3827
vn -0.9239 0.0007 -0.3827
vn -0.3827 0.0023 -0.9239
vn 0.3827 0.0023 -0.9239
vn 0.9239 0.0007 -0.3827
s 0
usemtl steel_dark
f 2//1 3//1 1//1
f 4//2 7//2 3//2
f 8//3 5//3 7//3
f 6//4 1//4 5//4
f 7//5 1//5 3//5
f 4//6 6//6 8//6
f 30//7 31//7 29//7
f 32//8 33//8 31//8
f 34//3 35//3 33//3
f 36//9 37//9 35//9
f 38//10 39//10 37//10
f 40//11 41//11 39//11
f 42//12 43//12 41//12
f 44//1 45//1 43//1
f 46//6 38//6 34//6
f 46//13 47//13 45//13
f 48//14 29//14 47//14
f 35//5 43//5 47//5
f 50//7 51//7 49//7
f 52//8 53//8 51//8
f 54//3 55//3 53//3
f 56//9 57//9 55//9
f 58//10 59//10 57//10
f 60//11 61//11 59//11
f 62//12 63//12 61//12
f 64//1 65//1 63//1
f 66//6 58//6 54//6
f 66//13 67//13 65//13
f 68//14 49//14 67//14
f 55//5 63//5 67//5
f 70//1 71//1 69//1
f 72//2 75//2 71//2
f 76//3 73//3 75//3
f 74//4 69//4 73//4
f 75//5 69//5 71//5
f 72//6 74//6 76//6
f 165//57 166//57 167//57
f 168//58 169//58 170//58
f 171//59 172//59 173//59
f 174//60 175//60 176//60
f 177//61 178//61 179//61
f 180//62 181//62 182//62
f 183//63 184//63 185//63
f 186//64 187//64 188//64
f 165//65 172//65 171//65
f 168//66 167//66 166//66
f 174//67 170//67 169//67
f 173//68 176//68 175//68
f 171//69 184//69 183//69
f 186//70 175//70 174//70
f 185//71 188//71 187//71
f 183//72 178//72 177//72
f 180//73 187//73 186//73
f 179//74 182//74 181//74
f 177//75 166//75 165//75
f 169//76 181//76 180//76
f 183//5 165//5 171//5
f 170//1 172//1 167//1
f 181//4 166//4 179//4
f 174//6 180//6 186//6
f 175//2 184//2 173//2
f 187//3 178//3 185//3
f 2//1 4//1 3//1
f 4//2 8//2 7//2
f 8//3 6//3 5//3
f 6//4 2//4 1//4
f 7//5 5//5 1//5
f 4//6 2//6 6//6
f 30//7 32//7 31//7
f 32//8 34//8 33//8
f 34//3 36//3 35//3
f 36//9 38//9 37//9
f 38//10 40//10 39//10
f 40//11 42//11 41//11
f 42//12 44//12 43//12
f 44//1 46//1 45//1
f 34//6 32//6 30//6
f 30//6 48//6 46//6
f 46//6 44//6 42//6
f 42//6 40//6 38//6
f 38//6 36//6 34//6
f 34//6 30//6 46//6
f 46//6 42//6 38//6
f 46//13 48//13 47//13
f 48//14 30//14 29//14
f 47//5 29//5 31//5
f 31//5 33//5 35//5
f 35//5 37//5 39//5
f 39//5 41//5 43//5
f 43//5 45//5 47//5
f 47//5 31//5 35//5
f 35//5 39//5 43//5
f 50//7 52//7 51//7
f 52//8 54//8 53//8
f 54//3 56//3 55//3
f 56//9 58//9 57//9
f 58//10 60//10 59//10
f 60//11 62//11 61//11
f 62//12 64//12 63//12
f 64//1 66//1 65//1
f 54//6 52//6 50//6
f 50//6 68//6 66//6
f 66//6 64//6 62//6
f 62//6 60//6 58//6
f 58//6 56//6 54//6
f 54//6 50//6 66//6
f 66//6 62//6 58//6
f 66//13 68//13 67//13
f 68//14 50//14 49//14
f 67//5 49//5 51//5
f 51//5 53//5 55//5
f 55//5 57//5 59//5
f 59//5 61//5 63//5
f 63//5 65//5 67//5
f 67//5 51//5 55//5
f 55//5 59//5 63//5
f 70//1 72//1 71//1
f 72//2 76//2 75//2
f 76//3 74//3 73//3
f 74//4 70//4 69//4
f 75//5 73//5 69//5
f 72//6 70//6 74//6
f 165//65 167//65 172//65
f 168//66 170//66 167//66
f 174//67 176//67 170//67
f 173//68 172//68 176//68
f 171//69 173//69 184//69
f 186//70 188//70 175//70
f 185//71 184//71 188//71
f 183//72 185//72 178//72
f 180//73 182//73 187//73
f 179//74 178//74 182//74
f 177//75 179//75 166//75
f 169//76 168//76 181//76
f 183//5 177//5 165//5
f 170//1 176//1 172//1
f 181//4 168//4 166//4
f 174//6 169//6 180//6
f 175//2 188//2 184//2
f 187//3 182//3 178//3
usemtl steel
f 10//7 11//7 9//7
f 12//8 13//8 11//8
f 14//3 15//3 13//3
f 16//9 17//9 15//9
f 18//10 19//10 17//10
f 20//11 21//11 19//11
f 22//12 23//12 21//12
f 24//1 25//1 23//1
f 26//6 18//6 14//6
f 26//13 27//13 25//13
f 28//14 9//14 27//14
f 15//5 23//5 27//5
f 10//7 12//7 11//7
f 12//8 14//8 13//8
f 14//3 16//3 15//3
f 16//9 18//9 17//9
f 18//10 20//10 19//10
f 20//11 22//11 21//11
f 22//12 24//12 23//12
f 24//1 26//1 25//1
f 14//6 12//6 10//6
f 10//6 28//6 26//6
f 26//6 24//6 22//6
f 22//6 20//6 18//6
f 18//6 16//6 14//6
f 14//6 10//6 26//6
f 26//6 22//6 18//6
f 26//13 28//13 27//13
f 28//14 10//14 9//14
f 27//5 9//5 11//5
f 11//5 13//5 15//5
f 15//5 17//5 19//5
f 19//5 21//5 23//5
f 23//5 25//5 27//5
f 27//5 11//5 15//5
f 15//5 19//5 23//5
usemtl heat_glow
f 78//1 79//1 77//1
f 80//2 83//2 79//2
f 84//3 81//3 83//3
f 82//4 77//4 81//4
f 83//5 77//5 79//5
f 80//6 82//6 84//6
f 78//1 80//1 79//1
f 80//2 84//2 83//2
f 84//3 82//3 81//3
f 82//4 78//4 77//4
f 83//5 81//5 77//5
f 80//6 78//6 82//6
usemtl galvanised
f 86//15 87//15 85//15
f 88//16 89//16 87//16
f 86//6 90//6 88//6
f 90//17 91//17 89//17
f 92//18 85//18 91//18
f 87//5 91//5 85//5
f 190//1 191//1 189//1
f 192//2 195//2 191//2
f 196//3 193//3 195//3
f 194//4 189//4 193//4
f 195//5 189//5 191//5
f 192//6 194//6 196//6
f 86//15 88//15 87//15
f 88//16 90//16 89//16
f 86//6 92//6 90//6
f 90//17 92//17 91//17
f 92//18 86//18 85//18
f 87//5 89//5 91//5
f 190//1 192//1 191//1
f 192//2 196//2 195//2
f 196//3 194//3 193//3
f 194//4 190//4 189//4
f 195//5 193//5 189//5
f 192//6 190//6 194//6
usemtl fluids_teal
f 99//5 97//5 98//5
f 100//5 97//5 99//5
f 100//5 96//5 97//5
f 93//5 96//5 100//5
f 93//5 95//5 96//5
f 94//5 95//5 93//5
f 105//2 107//2 106//2
f 104//2 107//2 105//2
f 104//2 108//2 107//2
f 103//2 108//2 104//2
f 103//2 101//2 108//2
f 102//2 101//2 103//2
f 109//19 124//19 116//19
f 110//20 117//20 109//20
f 119//21 110//21 111//21
f 120//22 111//22 112//22
f 121//23 112//23 113//23
f 122//24 113//24 114//24
f 115//25 122//25 114//25
f 116//26 123//26 115//26
f 117//27 132//27 124//27
f 118//28 125//28 117//28
f 127//29 118//29 119//29
f 128//30 119//30 120//30
f 129//31 120//31 121//31
f 130//32 121//32 122//32
f 123//33 130//33 122//33
f 124//34 131//34 123//34
f 133//35 132//35 125//35
f 134//36 125//36 126//36
f 127//37 134//37 126//37
f 128//38 135//38 127//38
f 129//39 136//39 128//39
f 130//40 137//40 129//40
f 139//41 130//41 131//41
f 140//42 131//42 132//42
f 141//43 140//43 133//43
f 142//44 133//44 134//44
f 135//45 142//45 134//45
f 136//46 143//46 135//46
f 137//47 144//47 136//47
f 138//48 145//48 137//48
f 147//49 138//49 139//49
f 148//50 139//50 140//50
f 150//51 151//51 149//51
f 152//52 153//52 151//52
f 154//19 155//19 153//19
f 156//53 157//53 155//53
f 158//54 159//54 157//54
f 160//22 161//22 159//22
f 162//2 158//2 154//2
f 162//55 163//55 161//55
f 164//56 149//56 163//56
f 155//4 159//4 163//4
f 109//77 117//77 124//77
f 110//78 118//78 117//78
f 119//79 118//79 110//79
f 120//80 119//80 111//80
f 121//81 120//81 112//81
f 122//82 121//82 113//82
f 115//83 123//83 122//83
f 116//84 124//84 123//84
f 117//85 125//85 132//85
f 118//86 126//86 125//86
f 127//87 126//87 118//87
f 128//88 127//88 119//88
f 129//89 128//89 120//89
f 130//90 129//90 121//90
f 123//91 131//91 130//91
f 124//92 132//92 131//92
f 133//93 140//93 132//93
f 134//94 133//94 125//94
f 127//95 135//95 134//95
f 128//96 136//96 135//96
f 129//97 137//97 136//97
f 130//98 138//98 137//98
f 139//99 138//99 130//99
f 140//100 139//100 131//100
f 141//101 148//101 140//101
f 142//102 141//102 133//102
f 135//103 143//103 142//103
f 136//104 144//104 143//104
f 137//105 145//105 144//105
f 138//106 146//106 145//106
f 147//107 146//107 138//107
f 148//108 147//108 139//108
f 150//51 152//51 151//51
f 152//52 154//52 153//52
f 154//19 156//19 155//19
f 156//53 158//53 157//53
f 158//54 160//54 159//54
f 160//22 162//22 161//22
f 154//2 152//2 150//2
f 150//2 164//2 162//2
f 162//2 160//2 158//2
f 158//2 156//2 154//2
f 154//2 150//2 162//2
f 162//55 164//55 163//55
f 164//56 150//56 149//56
f 163//4 149//4 151//4
f 151//4 153//4 155//4
f 155//4 157//4 159//4
f 159//4 161//4 163//4
f 163//4 151//4 155//4
